<?xml version="1.0" standalone="no"?>
<!DOCTYPE svg PUBLIC "-//W3C//DTD SVG 1.1//EN" "http://www.w3.org/Graphics/SVG/1.1/DTD/svg11.dtd" >
<svg xmlns="http://www.w3.org/2000/svg">
<metadata></metadata>
<defs>
<font id="texgyreadventorbold" horiz-adv-x="640" >
<font-face units-per-em="1000" ascent="815" descent="-185" />
<missing-glyph horiz-adv-x="280" />
<glyph unicode="IJ" horiz-adv-x="713" d="M54 0v739h137v-739h-137zM254 175h137q14 -56 65 -56q66 0 66 97v523h137v-527q0 -104 -53.5 -164.5t-146.5 -60.5q-83 0 -139.5 48.5t-65.5 139.5z" />
<glyph unicode="ij" horiz-adv-x="499" d="M54 0v554h133v-554h-133zM55 634v133h133v-133h-133zM257 -56q37 7 46 22t9 74v514h133v-517q0 -109 -50.5 -165.5t-137.5 -56.5v129zM313 634v133h133v-133h-133z" />
<glyph unicode="fk" horiz-adv-x="860" d="M10 433v111h48q20 195 183 195q17 0 33 -2v-126h-13q-39 0 -54 -14.5t-16 -52.5h75v-111h-75v-433h-133v433h-48zM334 0v739h133v-446l177 261h159l-198 -271l230 -283h-179l-189 259v-259h-133z" />
<glyph unicode="ff" horiz-adv-x="560" d="M10 433v111h48q20 195 183 195q17 0 33 -2v-126h-13q-39 0 -54 -14.5t-16 -52.5h143q20 195 183 195q17 0 33 -2v-126h-13q-39 0 -54 -14.5t-16 -52.5h75v-111h-75v-433h-133v433h-143v-433h-133v433h-48z" />
<glyph unicode="fi" horiz-adv-x="520" d="M10 433v111h48q20 195 183 195q17 0 33 -2v-126h-13q-39 0 -54 -14.5t-16 -52.5h75v-111h-75v-433h-133v433h-48zM334 0v554h133v-554h-133zM335 634v133h133v-133h-133z" />
<glyph unicode="fl" horiz-adv-x="520" d="M10 433v111h48q20 195 183 195q17 0 33 -2v-126h-13q-39 0 -54 -14.5t-16 -52.5h75v-111h-75v-433h-133v433h-48zM334 0v739h133v-739h-133z" />
<glyph unicode="ffi" horiz-adv-x="796" d="M10 433v111h48q20 195 183 195q17 0 33 -2v-126h-13q-39 0 -54 -14.5t-16 -52.5h143q20 195 183 195q17 0 33 -2v-126h-13q-39 0 -54 -14.5t-16 -52.5h75v-111h-75v-433h-133v433h-143v-433h-133v433h-48zM610 0v554h133v-554h-133zM611 634v133h133v-133h-133z" />
<glyph unicode="ffl" horiz-adv-x="796" d="M10 433v111h48q20 195 183 195q17 0 33 -2v-126h-13q-39 0 -54 -14.5t-16 -52.5h143q20 195 183 195q17 0 33 -2v-126h-13q-39 0 -54 -14.5t-16 -52.5h75v-111h-75v-433h-133v433h-143v-433h-133v433h-48zM610 0v739h133v-739h-133z" />
<glyph unicode=" "  horiz-adv-x="280" />
<glyph unicode="&#x09;" horiz-adv-x="280" />
<glyph unicode="&#xa0;" horiz-adv-x="280" />
<glyph unicode="!" horiz-adv-x="280" d="M72 0v128h133v-128h-133zM72 188v551h133v-551h-133z" />
<glyph unicode="&#x22;" horiz-adv-x="360" d="M74 513v226h76v-226h-76zM207 513v226h76v-226h-76z" />
<glyph unicode="#" horiz-adv-x="560" d="M34 233v100h110l12 89h-96v99h110l29 218h90l-29 -218h87l29 218h90l-29 -218h89v-99h-103l-12 -89h89v-100h-102l-32 -233h-90l32 233h-87l-31 -233h-91l32 233h-97zM234 333h87l12 89h-86z" />
<glyph unicode="$" horiz-adv-x="560" d="M59 236v13h134q2 -39 25 -62.5t59 -23.5t60 24t24 59q0 45 -39 70q-22 14 -105 45q-129 47 -129 180q0 68 33.5 117.5t98.5 64.5v133h127v-133q51 -10 86.5 -59t37.5 -113h-126q-12 62 -65 62q-26 0 -42.5 -18t-16.5 -46q0 -35 20.5 -54t93.5 -46q92 -32 125.5 -74.5 t33.5 -123.5q0 -77 -38.5 -131.5t-108.5 -73.5v-132h-127v132q-75 21 -118 73t-43 117z" />
<glyph unicode="%" horiz-adv-x="860" d="M21 571q0 76 53 128.5t129 52.5q73 0 126.5 -53t53.5 -127q0 -75 -53 -128t-128 -53t-128 53t-53 127zM129 572q0 -31 21.5 -52.5t51.5 -21.5t52 22t22 52t-22 52t-52 22t-51.5 -21.5t-21.5 -52.5zM223 0l305 739h103l-306 -739h-102zM473 167q0 76 53 128.5t129 52.5 q73 0 126.5 -53t53.5 -127q0 -75 -53 -128t-128 -53t-128 53t-53 127zM581 168q0 -31 21.5 -52.5t51.5 -21.5t52 22t22 52t-22 52t-52 22t-51.5 -21.5t-21.5 -52.5z" />
<glyph unicode="&#x26;" horiz-adv-x="680" d="M35 223q0 67 33 117t105 93q-36 41 -49 69t-13 67q0 77 54 130t133 53q81 0 135.5 -52t54.5 -130q0 -60 -25 -99.5t-91 -81.5l67 -75l72 119h149l-128 -219l132 -141l-95 -86l-105 111q-47 -63 -88 -87t-100 -24q-101 0 -171 68.5t-70 167.5zM168 215q0 -41 28.5 -68.5 t71.5 -27.5q33 0 56 17t48 62l-115 124q-89 -40 -89 -107zM238 567q0 -20 11 -39t40 -47q42 23 57 40t15 45q0 27 -17 44t-44 17q-26 0 -44 -17.5t-18 -42.5z" />
<glyph unicode="'" horiz-adv-x="220" d="M74 513v226h76v-226h-76z" />
<glyph unicode="(" horiz-adv-x="380" d="M74 300q0 148 74.5 267.5t200.5 171.5v-144q-140 -108 -140 -295q0 -88 39.5 -170t100.5 -122v-145q-121 43 -198 168.5t-77 268.5z" />
<glyph unicode=")" horiz-adv-x="380" d="M37 7q140 108 140 295q0 88 -39.5 170t-100.5 122v145q121 -43 198 -169t77 -268q0 -148 -74.5 -267.5t-200.5 -171.5v144z" />
<glyph unicode="*" horiz-adv-x="440" d="M70 554v71l99 -5l-53 86l63 32l44 -86l46 87l59 -36l-54 -83l97 6v-72l-97 5l53 -80l-57 -38l-47 88l-43 -88l-64 31l52 89z" />
<glyph unicode="+" horiz-adv-x="600" d="M54 181v138h177v177h138v-177h177v-138h-177v-177h-138v177h-177z" />
<glyph unicode="," horiz-adv-x="280" d="M72 0v128h133v-135q0 -60 -34.5 -96.5t-98.5 -36.5v67q32 6 45.5 19t13.5 37q0 11 -1 17h-58z" />
<glyph unicode="-" horiz-adv-x="420" d="M74 229v118h277v-118h-277z" />
<glyph unicode="." horiz-adv-x="280" d="M72 0v128h133v-128h-133z" />
<glyph unicode="/" horiz-adv-x="460" d="M26 -128l323 867h94l-323 -867h-94z" />
<glyph unicode="0" horiz-adv-x="560" d="M30 247v251q0 117 67 185.5t181 68.5q112 0 179.5 -67t67.5 -180v-258q0 -123 -65.5 -191.5t-175.5 -68.5q-116 0 -185 68.5t-69 191.5zM163 251q0 -69 30 -105.5t87 -36.5q112 0 112 139v250q0 64 -29.5 98t-83.5 34t-85 -35.5t-31 -96.5v-247z" />
<glyph unicode="1" horiz-adv-x="560" d="M153 614v125h226v-739h-133v614h-93z" />
<glyph unicode="2" horiz-adv-x="560" d="M34 484q0 125 68 196.5t177 71.5q103 0 172 -69t69 -171q0 -69 -30 -122t-113 -128l-151 -137h291v-125h-478v117l263 249q85 81 85 148q0 50 -30.5 83t-76.5 33q-52 0 -83.5 -40t-31.5 -106h-131z" />
<glyph unicode="3" horiz-adv-x="560" d="M15 224h134q7 -52 39.5 -83.5t80.5 -31.5q50 0 83 35t33 88q0 56 -39.5 90t-105.5 34h-22v128q62 1 88 19t26 57q0 31 -18 50.5t-47 19.5q-53 0 -62 -67h-135q7 91 61.5 140t134.5 49q86 0 142.5 -57t56.5 -142q0 -82 -62 -127q115 -51 115 -191q0 -107 -70.5 -177.5 t-177.5 -70.5q-106 0 -177.5 66.5t-77.5 170.5z" />
<glyph unicode="4" horiz-adv-x="560" d="M0 111v108l340 520h112v-509h78v-119h-78v-111h-133v111h-319zM135 230h184v285z" />
<glyph unicode="5" horiz-adv-x="560" d="M12 221h133q10 -54 41 -83t79 -29q54 0 88 38t34 98q0 56 -34.5 94t-85.5 38q-58 0 -103 -56l-118 32l69 386h334v-125h-234l-24 -136q50 21 95 21q101 0 167.5 -71.5t66.5 -180.5q0 -111 -72 -185.5t-179 -74.5q-100 0 -176 67t-81 167z" />
<glyph unicode="6" horiz-adv-x="560" d="M21 242q0 53 16.5 100t56.5 107l193 290h159l-177 -263q30 10 60 10q88 0 146 -66.5t58 -167.5q0 -115 -71.5 -190t-181.5 -75q-112 0 -185.5 72.5t-73.5 182.5zM154 239q0 -57 35.5 -93.5t90.5 -36.5q53 0 86.5 36t33.5 94q0 57 -34.5 94t-87.5 37q-55 0 -89.5 -36 t-34.5 -95z" />
<glyph unicode="7" horiz-adv-x="560" d="M65 614v125h435v-125l-270 -614h-150l280 614h-295z" />
<glyph unicode="8" horiz-adv-x="560" d="M31 231q0 121 106 180q-34 37 -47.5 67t-13.5 71q0 85 59 144t144 59q87 0 144.5 -57.5t57.5 -143.5q0 -90 -62 -140q55 -33 79.5 -75t24.5 -104q0 -105 -70 -175t-175 -70q-104 0 -175.5 70.5t-71.5 173.5zM164 226q0 -50 33 -83.5t82 -33.5q47 0 79 33.5t32 82.5 q0 48 -32.5 82t-78.5 34q-48 0 -81.5 -33t-33.5 -82zM203 549q0 -33 22.5 -56.5t53.5 -23.5t53 23.5t22 57.5t-21.5 57t-52.5 23q-33 0 -55 -23t-22 -58z" />
<glyph unicode="9" horiz-adv-x="560" d="M22 487q0 116 71 190.5t180 74.5q112 0 185.5 -73t73.5 -183q0 -53 -16.5 -100t-56.5 -106l-193 -290h-159l178 263q-32 -12 -60 -12q-86 0 -144.5 68t-58.5 168zM155 500q0 -57 34 -94t87 -37q55 0 89 36.5t34 94.5q0 57 -35.5 93.5t-90.5 36.5q-52 0 -85 -36.5 t-33 -93.5z" />
<glyph unicode=":" horiz-adv-x="280" d="M72 0v128h133v-128h-133zM72 369v133h133v-133h-133z" />
<glyph unicode=";" horiz-adv-x="280" d="M72 0v128h133v-135q0 -61 -36 -97t-97 -36v67q32 6 45.5 19t13.5 37v17h-59zM72 369v133h133v-133h-133z" />
<glyph unicode="&#x3c;" horiz-adv-x="600" d="M65 196v108l427 338v-176l-273 -216l273 -216v-176z" />
<glyph unicode="=" horiz-adv-x="600" d="M54 89v138h492v-138h-492zM54 273v138h492v-138h-492z" />
<glyph unicode="&#x3e;" horiz-adv-x="600" d="M65 34l273 216l-273 216v176l427 -338v-108l-427 -338v176z" />
<glyph unicode="?" horiz-adv-x="560" d="M32 520q9 112 72 172t156 60q96 0 160.5 -65.5t64.5 -163.5q0 -50 -22.5 -89.5t-79.5 -89.5q-41 -36 -52.5 -64t-12.5 -93h-133q0 94 23.5 144t98.5 111q45 38 45 85q0 40 -27 66.5t-68 26.5q-79 0 -92 -100h-133zM185 0v128h133v-128h-133z" />
<glyph unicode="@" horiz-adv-x="740" d="M3 377q0 166 110.5 277.5t274.5 111.5q160 0 258.5 -100.5t98.5 -268.5q0 -108 -59 -175.5t-152 -67.5q-80 0 -99 54q-36 -54 -113 -54q-75 0 -120 51.5t-45 139.5q0 99 58 165.5t144 66.5q41 0 67 -13t51 -45l7 54h96l-33 -295q-1 -5 -1 -15q0 -26 27 -26 q40 0 69.5 52.5t29.5 123.5q0 125 -78 203t-204 78q-136 0 -226 -91t-90 -229q0 -131 89.5 -222.5t237.5 -91.5q86 0 149 47l46 -60q-77 -60 -197 -60q-171 0 -283.5 111t-112.5 279zM277 355q0 -44 21 -69.5t57 -25.5q44 0 72 32t28 82q0 42 -20.5 66.5t-55.5 24.5 q-42 0 -72 -32t-30 -78z" />
<glyph unicode="A" horiz-adv-x="740" d="M7 0l308 739h108l310 -739h-151l-79 191h-263l-82 -191h-151zM290 322h158l-79 224z" />
<glyph unicode="B" horiz-adv-x="580" d="M68 0v739h152q83 0 125 -7.5t75 -28.5q84 -54 84 -161q0 -52 -19 -84t-63 -55q69 -29 97.5 -72t28.5 -111q0 -104 -71.5 -162t-211.5 -58h-197zM205 131h68q72 0 104.5 22t32.5 70q0 97 -140 97h-65v-189zM205 454h44q62 0 90 18t28 58q0 75 -106 75h-56v-151z" />
<glyph unicode="C" horiz-adv-x="780" d="M30 372q0 157 111.5 268.5t268.5 111.5q115 0 208.5 -59.5t141.5 -165.5h-153q-38 49 -84 71t-110 22q-105 0 -175 -72t-70 -177q0 -104 73 -178t175 -74q54 0 96 20t87 67h161q-43 -101 -135.5 -160t-205.5 -59q-162 0 -275.5 112.5t-113.5 272.5z" />
<glyph unicode="D" horiz-adv-x="700" d="M68 0v739h169q174 0 262 -53q77 -46 119 -129.5t42 -188.5q0 -112 -48 -198.5t-133 -128.5q-82 -41 -239 -41h-172zM205 131h30q121 0 180 33q49 27 78 82t29 122q0 71 -30 127t-83 83q-59 30 -177 30h-27v-477z" />
<glyph unicode="E" horiz-adv-x="520" d="M68 0v739h397v-131h-260v-174h249v-131h-249v-172h260v-131h-397z" />
<glyph unicode="F" horiz-adv-x="480" d="M68 0v739h376v-131h-239v-174h228v-131h-228v-303h-137z" />
<glyph unicode="G" horiz-adv-x="840" d="M30 371q0 159 113.5 270t275.5 111q121 0 223 -65t138 -165h-161q-70 98 -203 98q-108 0 -178 -72.5t-70 -178.5t73.5 -178t182.5 -72q73 0 130 34t87 96h-306v128h483v-18q0 -152 -112 -262t-274 -110q-170 0 -286 111t-116 273z" />
<glyph unicode="H" horiz-adv-x="680" d="M68 0v739h137v-298h264v298h137v-739h-137v310h-264v-310h-137z" />
<glyph unicode="I" horiz-adv-x="280" d="M68 0v739h137v-739h-137z" />
<glyph unicode="J" horiz-adv-x="480" d="M9 175h137q14 -56 65 -56q66 0 66 97v523h137v-527q0 -104 -53.5 -164.5t-146.5 -60.5q-83 0 -139.5 48.5t-65.5 139.5z" />
<glyph unicode="K" horiz-adv-x="620" d="M68 0v739h137v-319l229 319h165l-278 -363l278 -376h-165l-229 325v-325h-137z" />
<glyph unicode="L" horiz-adv-x="440" d="M68 0v739h137v-608h226v-131h-363z" />
<glyph unicode="M" horiz-adv-x="900" d="M68 0v739h188l199 -560l197 560h188v-739h-137v554l-193 -554h-112l-193 554v-554h-137z" />
<glyph unicode="N" horiz-adv-x="740" d="M68 0v739h156l306 -538v538h137v-739h-153l-309 537v-537h-137z" />
<glyph unicode="O" horiz-adv-x="840" d="M30 369q0 162 112.5 272.5t277.5 110.5q158 0 269 -112t111 -270q0 -162 -110 -272.5t-271 -110.5q-163 0 -276 111t-113 271zM168 369q0 -105 72.5 -177.5t177.5 -72.5t174.5 71t69.5 178q0 106 -70.5 179t-173.5 73q-107 0 -178.5 -72t-71.5 -179z" />
<glyph unicode="P" horiz-adv-x="560" d="M68 0v739h183q132 0 189 -34q100 -61 100 -194q0 -64 -26 -116.5t-71 -80.5q-31 -19 -73 -26t-121 -7h-44v-281h-137zM205 412h40q89 0 123 23.5t34 73.5q0 57 -34.5 78t-116.5 21h-46v-196z" />
<glyph unicode="Q" horiz-adv-x="840" d="M30 370q0 161 114 271.5t280 110.5q168 0 279.5 -110t111.5 -276q0 -145 -89 -237q43 -22 68 -22q13 0 34 3v-124q-8 -1 -26 -1q-47 0 -82.5 13.5t-84.5 46.5q-84 -58 -205 -58q-167 0 -283.5 111.5t-116.5 271.5zM167 369q0 -17 2 -35q49 13 114 13q88 0 177 -38 t157 -105q60 62 60 160q0 110 -72.5 183t-182.5 73q-109 0 -182 -72t-73 -179zM211 227q82 -108 219 -108q47 0 89 19q-121 97 -237 97q-28 0 -71 -8z" />
<glyph unicode="R" horiz-adv-x="580" d="M68 0v739h213q76 0 121 -12t81 -43q78 -66 78 -182q0 -181 -193 -229l200 -273h-169l-194 283v-283h-137zM205 386h67q79 0 115 26.5t36 85.5q0 55 -33 82.5t-124 27.5h-61v-222z" />
<glyph unicode="S" horiz-adv-x="520" d="M14 211h143q9 -92 100 -92q44 0 72 25t28 65q0 49 -34 75q-16 12 -34 20t-94 37q-74 28 -114 79.5t-40 121.5q0 88 63 149t152 61q91 0 152.5 -57t66.5 -153h-142q-3 38 -23 58t-55 20q-34 0 -55 -21t-21 -54q0 -41 41 -67q11 -7 82 -33q108 -40 149.5 -91t41.5 -130 q0 -100 -68 -168.5t-168 -68.5q-99 0 -166.5 60.5t-76.5 163.5z" />
<glyph unicode="T" horiz-adv-x="420" d="M7 608v131h411v-131h-137v-608h-137v608h-137z" />
<glyph unicode="U" d="M68 271v468h137v-468q0 -82 28.5 -117t84.5 -35q55 0 83.5 34.5t28.5 117.5v468h137v-468q0 -138 -68.5 -211t-181.5 -73q-112 0 -180.5 73.5t-68.5 210.5z" />
<glyph unicode="V" horiz-adv-x="700" d="M8 739h144l199 -562l199 562h144l-286 -739h-112z" />
<glyph unicode="W" horiz-adv-x="900" d="M7 739h140l130 -516l126 516h100l124 -516l131 516h140l-216 -739h-109l-119 489l-122 -489h-108z" />
<glyph unicode="X" horiz-adv-x="680" d="M5 0l254 368l-254 371h163l172 -258l177 258h159l-256 -371l256 -368h-159l-177 255l-172 -255h-163z" />
<glyph unicode="Y" horiz-adv-x="620" d="M3 739h148l164 -340l163 340h148l-243 -466v-273h-137v273z" />
<glyph unicode="Z" horiz-adv-x="500" d="M18 0v116l280 492h-265v131h428v-123l-278 -485h297v-131h-462z" />
<glyph unicode="[" horiz-adv-x="320" d="M74 187v259q0 115 50.5 187t167.5 106v-147q-51 -22 -67 -60.5t-16 -112.5v-255q0 -61 17.5 -98.5t65.5 -55.5v-147q-218 50 -218 324z" />
<glyph unicode="\" d="M84 739h94l325 -739h-94z" />
<glyph unicode="]" horiz-adv-x="320" d="M37 10q51 21 67 60t16 113v255q0 61 -17.5 97.5t-65.5 56.5v147q218 -49 218 -324v-259q0 -115 -50.5 -187t-167.5 -106v147z" />
<glyph unicode="^" horiz-adv-x="600" d="M63 363l179 376h122l179 -376l-104 -50l-136 276l-136 -276z" />
<glyph unicode="_" horiz-adv-x="500" d="M0 -48h500v-90h-500v90z" />
<glyph unicode="`" horiz-adv-x="420" d="M25 724l54 92l224 -134l-51 -78z" />
<glyph unicode="a" horiz-adv-x="660" d="M30 275q0 127 79.5 209.5t202.5 82.5q115 0 181 -87v74h122v-554h-122v72q-40 -45 -83 -65t-101 -20q-121 0 -200 81.5t-79 206.5zM164 272q0 -73 45.5 -118t118.5 -45q74 0 117.5 46.5t43.5 117.5q0 76 -46 124t-117 48t-116.5 -48.5t-45.5 -124.5z" />
<glyph unicode="b" horiz-adv-x="660" d="M54 0v739h133v-236q38 38 78 54.5t94 16.5q119 0 199 -84t80 -209q0 -126 -76.5 -210t-193.5 -84q-62 0 -105.5 19t-86.5 65v-71h-122zM179 281q0 -76 46 -124t118 -48q71 0 116 47.5t45 123.5q0 74 -46.5 123t-117.5 49q-70 0 -115.5 -48t-45.5 -123z" />
<glyph unicode="c" d="M30 277q0 122 84.5 206t207.5 84q96 0 171.5 -52t107.5 -146h-150q-40 76 -129 76q-69 0 -113.5 -47t-44.5 -120t46 -121t115 -48q79 0 126 73h150q-35 -93 -106.5 -144t-168.5 -51q-123 0 -209.5 84.5t-86.5 205.5z" />
<glyph unicode="d" horiz-adv-x="660" d="M30 278q0 124 80.5 210t196.5 86q110 0 173 -69v234h133v-739h-122v72q-75 -85 -183 -85q-118 0 -198 84t-80 207zM164 284q0 -74 47.5 -124.5t117.5 -50.5q68 0 114.5 49.5t46.5 121.5q0 73 -47 122.5t-117 49.5q-68 0 -115 -48.5t-47 -119.5z" />
<glyph unicode="e" d="M30 275q0 122 85 207t207 85q124 0 205 -84.5t81 -213.5q0 -27 -5 -51h-429q12 -50 53 -79.5t100 -29.5q41 0 68.5 12.5t53.5 42.5h145q-27 -82 -101.5 -129.5t-162.5 -47.5q-127 0 -213.5 83t-86.5 205zM170 335h307q-13 53 -52.5 81.5t-100.5 28.5q-121 0 -154 -110z " />
<glyph unicode="f" horiz-adv-x="280" d="M10 433v111h48q20 195 183 195q17 0 33 -2v-126h-13q-39 0 -54 -14.5t-16 -52.5h75v-111h-75v-433h-133v433h-48z" />
<glyph unicode="g" horiz-adv-x="660" d="M30 281q0 123 77.5 204.5t195.5 81.5q120 0 181 -83v70h127v-449q0 -326 -287 -326q-102 0 -176.5 46.5t-108.5 129.5h151q29 -32 60.5 -45.5t78.5 -13.5q148 0 155 177q-39 -46 -81.5 -66t-100.5 -20q-119 0 -195.5 83t-76.5 211zM164 275q0 -76 42.5 -121t113.5 -45 t114.5 45.5t43.5 120.5q0 76 -44.5 123t-115.5 47q-70 0 -112 -46.5t-42 -123.5z" />
<glyph unicode="h" horiz-adv-x="600" d="M54 0v739h133v-223q58 52 141 52q217 0 217 -255v-313h-133v283q0 87 -25 124.5t-83 37.5q-59 0 -88 -37.5t-29 -126.5v-281h-133z" />
<glyph unicode="i" horiz-adv-x="240" d="M54 0v554h133v-554h-133zM55 634v133h133v-133h-133z" />
<glyph unicode="j" horiz-adv-x="260" d="M17 -56q37 7 46 22t9 74v514h133v-517q0 -109 -50.5 -165.5t-137.5 -56.5v129zM73 634v133h133v-133h-133z" />
<glyph unicode="k" horiz-adv-x="580" d="M54 0v739h133v-446l177 261h159l-198 -271l230 -283h-179l-189 259v-259h-133z" />
<glyph unicode="l" horiz-adv-x="240" d="M54 0v739h133v-739h-133z" />
<glyph unicode="m" horiz-adv-x="940" d="M54 0v554h122v-52q29 35 62 50t82 15q109 0 163 -86q65 86 178 86q224 0 224 -247v-320h-133v304q0 78 -26.5 109.5t-77.5 31.5q-58 0 -85 -38t-27 -134v-273h-133v304q0 78 -26.5 109.5t-81.5 31.5q-59 0 -83.5 -37.5t-24.5 -134.5v-273h-133z" />
<glyph unicode="n" horiz-adv-x="600" d="M54 0v554h123v-53q69 66 156 66q118 0 173 -80q22 -32 31 -74t9 -116v-297h-133v271q0 104 -25.5 139t-80.5 35q-66 0 -98 -51q-22 -35 -22 -133v-261h-133z" />
<glyph unicode="o" d="M30 277q0 119 86 204.5t207 85.5q125 0 210.5 -85t85.5 -209q0 -117 -87 -201.5t-208 -84.5q-122 0 -208 85t-86 205zM164 279q0 -71 47 -120.5t114 -49.5q66 0 113 49t47 119q0 69 -47 118.5t-114 49.5q-65 0 -112.5 -49t-47.5 -117z" />
<glyph unicode="p" horiz-adv-x="660" d="M54 -185v739h122v-65q67 78 182 78q120 0 198 -81.5t78 -206.5q0 -126 -78.5 -209t-198.5 -83q-98 0 -170 65v-237h-133zM179 278q0 -73 46.5 -121t117.5 -48q66 0 111.5 48.5t45.5 118.5q0 72 -45.5 120.5t-113.5 48.5q-69 0 -115.5 -48t-46.5 -119z" />
<glyph unicode="q" horiz-adv-x="660" d="M30 279q0 120 81.5 204t197.5 84q118 0 180 -84v71h122v-739h-133v238q-66 -66 -167 -66q-119 0 -200 84t-81 208zM164 276q0 -72 46.5 -119.5t116.5 -47.5q68 0 113.5 47.5t45.5 118.5q0 73 -45 121.5t-113 48.5q-71 0 -117.5 -48t-46.5 -121z" />
<glyph unicode="r" horiz-adv-x="320" d="M54 0v554h122v-54q26 38 51.5 52.5t68.5 14.5h10v-128q-119 -3 -119 -131v-308h-133z" />
<glyph unicode="s" horiz-adv-x="440" d="M19 176h134q10 -35 27.5 -51t46.5 -16q26 0 43 15.5t17 38.5q0 25 -15 37t-79 34q-83 28 -118.5 65.5t-35.5 98.5q0 71 53.5 120t130.5 49q73 0 125.5 -45t56.5 -121h-130q-9 44 -52 44q-22 0 -36.5 -13.5t-14.5 -33.5q0 -22 13 -30t81 -30q86 -27 120 -63.5t34 -98.5 q0 -79 -57.5 -134t-140.5 -55q-85 0 -139 47.5t-64 141.5z" />
<glyph unicode="t" horiz-adv-x="300" d="M9 433v121h65v185h133v-185h80v-121h-80v-433h-133v433h-65z" />
<glyph unicode="u" horiz-adv-x="600" d="M54 257v297h133v-271q0 -103 26 -138.5t79 -35.5q69 0 101 51q21 35 21 133v261h133v-554h-123v53q-37 -37 -73 -51.5t-86 -14.5q-211 0 -211 270z" />
<glyph unicode="v" horiz-adv-x="560" d="M1 554h148l128 -367l126 367h150l-223 -554h-106z" />
<glyph unicode="w" horiz-adv-x="800" d="M10 554h143l99 -338l93 338h106l91 -338l101 338h142l-200 -554h-83l-105 359l-107 -359h-82z" />
<glyph unicode="x" horiz-adv-x="560" d="M1 0l196 286l-170 268h150l100 -167l98 167h150l-169 -268l197 -286h-160l-116 190l-116 -190h-160z" />
<glyph unicode="y" horiz-adv-x="580" d="M6 554h152l123 -359l134 359h153l-320 -739h-143l104 237z" />
<glyph unicode="z" horiz-adv-x="460" d="M20 0v119l244 316h-216v119h375v-119l-244 -316h263v-119h-422z" />
<glyph unicode="{" horiz-adv-x="340" d="M37 265v81q81 10 81 98v157q0 74 33.5 106.5t109.5 32.5q26 0 41 -1v-80q-53 -4 -66 -21t-13 -81v-123q0 -59 -20 -87.5t-70 -41.5q50 -12 70 -41t20 -87v-123q0 -64 13 -81t66 -21v-80q-15 -1 -41 -1q-76 0 -109.5 32.5t-33.5 106.5v157q0 88 -81 98z" />
<glyph unicode="|" horiz-adv-x="600" d="M231 -137v876h138v-876h-138z" />
<glyph unicode="}" horiz-adv-x="340" d="M38 -48q53 4 66 21t13 81v123q0 59 20 87.5t70 41.5q-50 12 -70 41t-20 87v123q0 64 -13 81t-66 21v80q15 1 41 1q76 0 109.5 -32.5t33.5 -106.5v-157q0 -88 81 -98v-81q-81 -10 -81 -98v-157q0 -74 -33.5 -106.5t-109.5 -32.5q-26 0 -41 1v80z" />
<glyph unicode="~" horiz-adv-x="600" d="M51 289q44 71 72.5 97t75.5 26q39 0 77 -16l67 -27q54 -22 71 -22q36 0 77 74l64 -74q-39 -64 -71.5 -90.5t-73.5 -26.5q-33 0 -91 24l-54 22q-47 19 -64 19q-26 0 -47 -22q-11 -11 -40 -59z" />
<glyph unicode="&#xa1;" horiz-adv-x="280" d="M75 -185v551h133v-551h-133zM75 426v128h133v-128h-133z" />
<glyph unicode="&#xa2;" horiz-adv-x="560" d="M39 381q0 81 47.5 145t131.5 85v104h125v-104q64 -16 109 -61t59 -107h-142q-33 46 -93 46q-44 0 -74 -31.5t-30 -78.5t30.5 -78t77.5 -31q49 0 85 40h146q-52 -131 -168 -162v-109h-125v109q-80 18 -129.5 82.5t-49.5 150.5z" />
<glyph unicode="&#xa3;" horiz-adv-x="560" d="M0 310v125h58q-17 38 -17 81q0 99 69.5 167.5t169.5 68.5q95 0 160.5 -58.5t73.5 -152.5h-135q-11 43 -36.5 66t-61.5 23q-45 0 -76 -34.5t-31 -84.5q0 -43 27 -76h207v-125h-107q32 -63 32 -110q0 -38 -13 -75q53 0 81.5 26t28.5 69q0 21 -10 54h132q11 -29 11 -52 q0 -103 -75 -168q-35 -30 -76.5 -42t-110.5 -12h-260v125h139q20 34 20 73q0 58 -58 112h-142z" />
<glyph unicode="&#xa4;" horiz-adv-x="560" d="M27 229l42 43q-22 41 -29 66t-7 62t7 62.5t29 66.5l-42 45l80 80l45 -44q59 36 128 36q68 0 132 -36l45 43l77 -81l-42 -43q37 -64 37 -130q0 -68 -38 -128l42 -43l-77 -80l-44 42q-62 -37 -131 -37q-68 0 -131 37l-44 -42zM153 400q0 -52 38 -89.5t90 -37.5 q53 0 89.5 36.5t36.5 89.5q0 52 -36.5 89.5t-86.5 37.5q-55 0 -93 -36.5t-38 -89.5z" />
<glyph unicode="&#xa5;" horiz-adv-x="560" d="M-35 739h149l160 -341l161 341h154l-143 -271h92v-88h-140l-57 -105h197v-88h-197v-187h-133v187h-196v88h196l-56 105h-140v88h94z" />
<glyph unicode="&#xa6;" horiz-adv-x="600" d="M231 -137v350h138v-350h-138zM231 389v350h138v-350h-138z" />
<glyph unicode="&#xa7;" horiz-adv-x="560" d="M40 347q0 88 78 146q-28 43 -28 93q0 73 56 119.5t145 46.5t141.5 -48t64.5 -141h-126q-13 67 -86 67q-31 0 -49.5 -13t-18.5 -35q0 -41 61 -70l164 -81q40 -20 63.5 -57.5t23.5 -81.5q0 -86 -75 -142q50 -51 50 -119q0 -83 -60.5 -135.5t-154.5 -52.5q-97 0 -159 55.5 t-70 156.5h134q0 -90 96 -90q37 0 62 18.5t25 46.5q0 21 -14.5 35.5t-58.5 37.5l-163 84q-101 52 -101 160zM157 354q0 -32 60 -63l151 -76q37 26 37 63q0 18 -12 30.5t-48 30.5l-149 74q-39 -31 -39 -59z" />
<glyph unicode="&#xa8;" horiz-adv-x="500" d="M74 634v133h133v-133h-133zM284 634v133h133v-133h-133z" />
<glyph unicode="&#xa9;" horiz-adv-x="740" d="M20 337q0 145 102.5 247.5t247.5 102.5t247.5 -102.5t102.5 -247.5t-102.5 -247.5t-247.5 -102.5t-247.5 102.5t-102.5 247.5zM80 337q0 -120 85 -205t205 -85t205 85t85 205t-85 205t-205 85t-205 -85t-85 -205zM152 339q0 84 65.5 144t157.5 60q72 0 129 -36t83 -100 h-105q-38 47 -105 47q-55 0 -91.5 -33t-36.5 -83q0 -49 38 -83.5t91 -34.5q54 0 100 45h108q-22 -61 -78.5 -97.5t-127.5 -36.5q-95 0 -161.5 61t-66.5 147z" />
<glyph unicode="&#xaa;" horiz-adv-x="360" d="M28 592q0 66 43 112t104 46q58 0 97 -50v39h66v-298h-66v41q-39 -51 -102 -51q-60 0 -101 46.5t-41 114.5zM31 310v70h311v-70h-311zM104 589q0 -35 23.5 -59.5t57.5 -24.5t57.5 25t23.5 61t-23.5 60.5t-57.5 24.5t-57.5 -25.5t-23.5 -61.5z" />
<glyph unicode="&#xab;" horiz-adv-x="460" d="M36 239v100l139 130v-123l-67 -57l67 -58v-123zM249 239v100l139 130v-123l-67 -57l67 -58v-123z" />
<glyph unicode="&#xac;" horiz-adv-x="600" d="M54 273v138h492v-253h-138v115h-354z" />
<glyph unicode="&#xad;" horiz-adv-x="420" d="M74 229v118h277v-118h-277z" />
<glyph unicode="&#xae;" horiz-adv-x="740" d="M20 337q0 145 102.5 247.5t247.5 102.5t247.5 -102.5t102.5 -247.5t-102.5 -247.5t-247.5 -102.5t-247.5 102.5t-102.5 247.5zM80 337q0 -120 85 -205t205 -85t205 85t85 205t-85 205t-205 85t-205 -85t-85 -205zM214 138v399h129q81 0 119 -30q48 -37 48 -102 q0 -94 -100 -123l116 -144h-121l-95 126v-126h-96zM301 346h37q45 0 65 13.5t20 43.5q0 28 -18.5 42t-69.5 14h-34v-113z" />
<glyph unicode="&#xaf;" horiz-adv-x="420" d="M74 650v100h277v-100h-277z" />
<glyph unicode="&#xb0;" horiz-adv-x="400" d="M50 534q0 64 44.5 108t109.5 44q62 0 104 -44.5t42 -108.5t-43.5 -108.5t-106.5 -44.5t-106.5 44.5t-43.5 109.5zM106 533q0 -40 28 -68t66 -28q39 0 66 28t27 68t-26.5 68t-64.5 28q-40 0 -68 -28t-28 -68z" />
<glyph unicode="&#xb1;" horiz-adv-x="600" d="M54 0v138h492v-138h-492zM54 319v138h177v177h138v-177h177v-138h-177v-57h-138v57h-177z" />
<glyph unicode="&#xb2;" horiz-adv-x="336" d="M10 582q0 79 43.5 122t115.5 43q67 0 112 -42t45 -104q0 -79 -89 -150l-94 -75h181v-80h-311v74l170 148q54 46 55 85q0 28 -19.5 46.5t-48.5 18.5q-34 0 -53 -22.5t-20 -63.5h-87z" />
<glyph unicode="&#xb3;" horiz-adv-x="336" d="M4 435h88q5 -32 25.5 -50t52.5 -18t53 19.5t21 49.5q0 32 -25.5 51t-69.5 19h-21v82q46 1 64.5 10.5t18.5 31.5q0 17 -12 27.5t-31 10.5q-35 0 -42 -40h-89q6 59 41.5 88.5t88.5 29.5q57 0 94.5 -34.5t37.5 -86.5q0 -48 -34 -74q66 -31 66 -112q0 -65 -45.5 -108 t-115.5 -43t-116 41t-50 106z" />
<glyph unicode="&#xb4;" horiz-adv-x="420" d="M117 682l224 134l54 -92l-227 -120z" />
<glyph unicode="&#xb5;" horiz-adv-x="576" d="M54 -185v739h133v-272q0 -35 3.5 -61t13.5 -53t31.5 -41.5t53.5 -14.5t53.5 14.5t31 41.5t13 53t3.5 61v272h133v-554h-122v59q-40 -77 -131 -77q-39 0 -83 19v-186h-133z" />
<glyph unicode="&#xb6;" horiz-adv-x="600" d="M37 533q0 102 65 154t207 52h218v-867h-101v760h-84v-760h-101v458q-91 1 -147.5 57.5t-56.5 145.5z" />
<glyph unicode="&#xb7;" horiz-adv-x="280" d="M76 250q0 26 19 45t45 19t45 -19t19 -45t-19 -45t-45 -19t-45 19t-19 45z" />
<glyph unicode="&#xb8;" horiz-adv-x="340" d="M74 -166h61q13 -29 38 -29q16 0 27.5 13t11.5 32q0 18 -11.5 31t-27.5 13q-19 0 -38 -27l-52 26l46 112h52l-31 -63q18 7 29 7q37 0 64 -30t27 -71q0 -44 -26.5 -71t-69.5 -27q-38 0 -66 23.5t-34 60.5z" />
<glyph unicode="&#xb9;" horiz-adv-x="336" d="M94 659v80h147v-443h-88v363h-59z" />
<glyph unicode="&#xba;" horiz-adv-x="360" d="M31 311v70h307v-70h-307zM31 599q0 62 45.5 106.5t108.5 44.5q64 0 108.5 -45t44.5 -109t-45 -109t-109 -45q-63 0 -108 46t-45 111zM104 599q0 -36 22.5 -59.5t57.5 -23.5q34 0 57.5 23t23.5 58q0 34 -24 58.5t-56 24.5q-33 0 -57 -24t-24 -57z" />
<glyph unicode="&#xbb;" horiz-adv-x="460" d="M73 108v123l67 58l-67 57v123l139 -130v-100zM286 108v123l67 58l-67 57v123l139 -130v-100z" />
<glyph unicode="&#xbc;" horiz-adv-x="840" d="M94 659v80h147v-443h-88v363h-59zM220 0l306 739h95l-306 -739h-95zM506 66v67l208 310h74v-301h48v-76h-48v-66h-88v66h-194zM598 142h102v154z" />
<glyph unicode="&#xbd;" horiz-adv-x="840" d="M94 659v80h147v-443h-88v363h-59zM199 0l306 739h95l-306 -739h-95zM514 286q0 79 43.5 122t115.5 43q67 0 112 -42t45 -104q0 -79 -89 -150l-94 -75h181v-80h-311v74l170 148q54 46 55 85q0 28 -19.5 46.5t-48.5 18.5q-34 0 -53 -22.5t-20 -63.5h-87z" />
<glyph unicode="&#xbe;" horiz-adv-x="840" d="M4 435h88q5 -32 25.5 -50t52.5 -18t53 19.5t21 49.5q0 32 -25.5 51t-69.5 19h-21v82q46 1 64.5 10.5t18.5 31.5q0 17 -12 27.5t-31 10.5q-35 0 -42 -40h-89q6 59 41.5 88.5t88.5 29.5q57 0 94.5 -34.5t37.5 -86.5q0 -48 -34 -74q66 -31 66 -112q0 -65 -45.5 -108 t-115.5 -43t-116 41t-50 106zM250 0l306 739h95l-306 -739h-95zM506 66v67l208 310h74v-301h48v-76h-48v-66h-88v66h-194zM598 142h102v154z" />
<glyph unicode="&#xbf;" horiz-adv-x="560" d="M75 31q0 50 22.5 89.5t79.5 89.5q41 36 52.5 64t12.5 93h133q0 -94 -23.5 -144t-98.5 -111q-45 -37 -45 -85q0 -40 27 -66.5t68 -26.5q79 0 92 100h133q-9 -112 -72 -172t-156 -60q-96 0 -160.5 65.5t-64.5 163.5zM242 426v128h133v-128h-133z" />
<glyph unicode="&#xc0;" horiz-adv-x="740" d="M7 0l308 739h108l310 -739h-151l-79 191h-263l-82 -191h-151zM184 899l54 92l224 -134l-51 -78zM290 322h158l-79 224z" />
<glyph unicode="&#xc1;" horiz-adv-x="740" d="M7 0l308 739h108l310 -739h-151l-79 191h-263l-82 -191h-151zM276 857l224 134l54 -92l-227 -120zM290 322h158l-79 224z" />
<glyph unicode="&#xc2;" horiz-adv-x="740" d="M7 0l308 739h108l310 -739h-151l-79 191h-263l-82 -191h-151zM170 806l147 138h107l145 -138h-145l-53 64l-54 -64h-147zM290 322h158l-79 224z" />
<glyph unicode="&#xc3;" horiz-adv-x="740" d="M7 0l308 739h108l310 -739h-151l-79 191h-263l-82 -191h-151zM203 887q26 26 49 36.5t54 10.5q12 0 52.5 -12.5t54.5 -12.5q37 0 67 34l54 -81q-45 -55 -94 -55q-13 0 -58.5 12.5t-54.5 12.5q-18 0 -29.5 -4t-40.5 -21zM290 322h158l-79 224z" />
<glyph unicode="&#xc4;" horiz-adv-x="740" d="M7 0l308 739h108l310 -739h-151l-79 191h-263l-82 -191h-151zM193 809v133h133v-133h-133zM290 322h158l-79 224zM403 809v133h133v-133h-133z" />
<glyph unicode="&#xc5;" horiz-adv-x="740" d="M7 0l308 739h108l310 -739h-151l-79 191h-263l-82 -191h-151zM256 888q0 47 33 80t81 33q46 0 79 -33t33 -80t-33 -80t-80 -33t-80 33t-33 80zM290 322h158l-79 224zM329 888q0 -16 11.5 -28t28.5 -12t28.5 12t11.5 28t-11.5 28t-28.5 12t-28.5 -12t-11.5 -28z" />
<glyph unicode="&#xc6;" horiz-adv-x="900" d="M17 0l487 739h339v-131h-218v-174h207v-131h-207v-172h218v-131h-355v191h-194l-112 -191h-165zM373 322h115v191z" />
<glyph unicode="&#xc7;" horiz-adv-x="780" d="M30 372q0 157 111.5 268.5t268.5 111.5q115 0 208.5 -59.5t141.5 -165.5h-153q-38 49 -84 71t-110 22q-105 0 -175 -72t-70 -177q0 -104 73 -178t175 -74q54 0 96 20t87 67h161q-42 -98 -130 -156.5t-198 -62.5l-22 -45q18 7 29 7q37 0 64 -30t27 -71q0 -44 -26.5 -71 t-69.5 -27q-38 0 -66 23.5t-34 60.5h61q13 -29 38 -29q16 0 27.5 13t11.5 32q0 18 -11.5 31t-27.5 13q-19 0 -38 -27l-52 26l39 96q-149 14 -250.5 123.5t-101.5 259.5z" />
<glyph unicode="&#xc8;" horiz-adv-x="520" d="M68 0v739h397v-131h-260v-174h249v-131h-249v-172h260v-131h-397zM82 899l54 92l224 -134l-51 -78z" />
<glyph unicode="&#xc9;" horiz-adv-x="520" d="M68 0v739h397v-131h-260v-174h249v-131h-249v-172h260v-131h-397zM174 857l224 134l54 -92l-227 -120z" />
<glyph unicode="&#xca;" horiz-adv-x="520" d="M68 0v739h397v-131h-260v-174h249v-131h-249v-172h260v-131h-397zM68 806l147 138h107l145 -138h-145l-53 64l-54 -64h-147z" />
<glyph unicode="&#xcb;" horiz-adv-x="520" d="M68 0v739h397v-131h-260v-174h249v-131h-249v-172h260v-131h-397zM91 809v133h133v-133h-133zM301 809v133h133v-133h-133z" />
<glyph unicode="&#xcc;" horiz-adv-x="280" d="M-22 899l54 92l224 -134l-51 -78zM68 0v739h137v-739h-137z" />
<glyph unicode="&#xcd;" horiz-adv-x="280" d="M17 857l224 134l54 -92l-227 -120zM68 0v739h137v-739h-137z" />
<glyph unicode="&#xce;" horiz-adv-x="280" d="M-62 806l147 138h107l145 -138h-145l-53 64l-54 -64h-147zM68 0v739h137v-739h-137z" />
<glyph unicode="&#xcf;" horiz-adv-x="280" d="M-39 809v133h133v-133h-133zM68 0v739h137v-739h-137zM171 809v133h133v-133h-133z" />
<glyph unicode="&#xd0;" horiz-adv-x="742" d="M14 315v107h96v317h169q174 0 262 -53q77 -46 119 -129.5t42 -189.5q0 -112 -48 -198t-133 -128q-82 -41 -239 -41h-172v315h-96zM247 131h30q121 0 180 33q50 27 78.5 82t28.5 122q0 71 -30.5 127t-82.5 83q-59 30 -177 30h-27v-186h154v-107h-154v-184z" />
<glyph unicode="&#xd1;" horiz-adv-x="740" d="M68 0v739h156l306 -538v538h137v-739h-153l-309 537v-537h-137zM202 887q26 26 49 36.5t54 10.5q12 0 52.5 -12.5t54.5 -12.5q37 0 67 34l54 -81q-45 -55 -94 -55q-13 0 -58.5 12.5t-54.5 12.5q-18 0 -29.5 -4t-40.5 -21z" />
<glyph unicode="&#xd2;" horiz-adv-x="840" d="M30 369q0 162 112.5 272.5t277.5 110.5q158 0 269 -112t111 -270q0 -162 -110 -272.5t-271 -110.5q-163 0 -276 111t-113 271zM168 369q0 -105 72.5 -177.5t177.5 -72.5t174.5 71t69.5 178q0 106 -70.5 179t-173.5 73q-107 0 -178.5 -72t-71.5 -179zM235 899l54 92 l224 -134l-51 -78z" />
<glyph unicode="&#xd3;" horiz-adv-x="840" d="M30 369q0 162 112.5 272.5t277.5 110.5q158 0 269 -112t111 -270q0 -162 -110 -272.5t-271 -110.5q-163 0 -276 111t-113 271zM168 369q0 -105 72.5 -177.5t177.5 -72.5t174.5 71t69.5 178q0 106 -70.5 179t-173.5 73q-107 0 -178.5 -72t-71.5 -179zM327 857l224 134 l54 -92l-227 -120z" />
<glyph unicode="&#xd4;" horiz-adv-x="840" d="M30 369q0 162 112.5 272.5t277.5 110.5q158 0 269 -112t111 -270q0 -162 -110 -272.5t-271 -110.5q-163 0 -276 111t-113 271zM168 369q0 -105 72.5 -177.5t177.5 -72.5t174.5 71t69.5 178q0 106 -70.5 179t-173.5 73q-107 0 -178.5 -72t-71.5 -179zM221 806l147 138h107 l145 -138h-145l-53 64l-54 -64h-147z" />
<glyph unicode="&#xd5;" horiz-adv-x="840" d="M30 369q0 162 112.5 272.5t277.5 110.5q158 0 269 -112t111 -270q0 -162 -110 -272.5t-271 -110.5q-163 0 -276 111t-113 271zM168 369q0 -105 72.5 -177.5t177.5 -72.5t174.5 71t69.5 178q0 106 -70.5 179t-173.5 73q-107 0 -178.5 -72t-71.5 -179zM254 887 q26 26 49 36.5t54 10.5q12 0 52.5 -12.5t54.5 -12.5q37 0 67 34l54 -81q-45 -55 -94 -55q-13 0 -58.5 12.5t-54.5 12.5q-18 0 -29.5 -4t-40.5 -21z" />
<glyph unicode="&#xd6;" horiz-adv-x="840" d="M30 369q0 162 112.5 272.5t277.5 110.5q158 0 269 -112t111 -270q0 -162 -110 -272.5t-271 -110.5q-163 0 -276 111t-113 271zM168 369q0 -105 72.5 -177.5t177.5 -72.5t174.5 71t69.5 178q0 106 -70.5 179t-173.5 73q-107 0 -178.5 -72t-71.5 -179zM244 809v133h133 v-133h-133zM454 809v133h133v-133h-133z" />
<glyph unicode="&#xd7;" horiz-adv-x="600" d="M77 125l125 125l-125 125l98 98l125 -125l125 125l98 -98l-125 -125l125 -125l-98 -98l-125 125l-125 -125z" />
<glyph unicode="&#xd8;" horiz-adv-x="840" d="M30 370q0 159 112.5 270.5t273.5 111.5q85 0 165 -35l62 92l95 -66l-61 -90q126 -115 126 -283q0 -162 -110.5 -272.5t-271.5 -110.5q-88 0 -168 36l-60 -88l-96 65l59 87q-60 54 -93 128.5t-33 154.5zM168 370q0 -95 65 -169l272 404q-43 15 -89 15q-104 0 -176 -72.5 t-72 -177.5zM329 135q45 -16 91 -16q105 0 175 71t70 178q0 97 -64 172z" />
<glyph unicode="&#xd9;" d="M68 271v468h137v-468q0 -82 28.5 -117t84.5 -35q55 0 83.5 34.5t28.5 117.5v468h137v-468q0 -138 -68.5 -211t-181.5 -73q-112 0 -180.5 73.5t-68.5 210.5zM133 899l54 92l224 -134l-51 -78z" />
<glyph unicode="&#xda;" d="M68 271v468h137v-468q0 -82 28.5 -117t84.5 -35q55 0 83.5 34.5t28.5 117.5v468h137v-468q0 -138 -68.5 -211t-181.5 -73q-112 0 -180.5 73.5t-68.5 210.5zM225 857l224 134l54 -92l-227 -120z" />
<glyph unicode="&#xdb;" d="M68 271v468h137v-468q0 -82 28.5 -117t84.5 -35q55 0 83.5 34.5t28.5 117.5v468h137v-468q0 -138 -68.5 -211t-181.5 -73q-112 0 -180.5 73.5t-68.5 210.5zM119 806l147 138h107l145 -138h-145l-53 64l-54 -64h-147z" />
<glyph unicode="&#xdc;" d="M68 271v468h137v-468q0 -82 28.5 -117t84.5 -35q55 0 83.5 34.5t28.5 117.5v468h137v-468q0 -138 -68.5 -211t-181.5 -73q-112 0 -180.5 73.5t-68.5 210.5zM142 809v133h133v-133h-133zM352 809v133h133v-133h-133z" />
<glyph unicode="&#xdd;" horiz-adv-x="620" d="M3 739h148l164 -340l163 340h148l-243 -466v-273h-137v273zM222 857l224 134l54 -92l-227 -120z" />
<glyph unicode="&#xde;" horiz-adv-x="560" d="M68 0v739h137v-131h46q132 0 189 -34q100 -61 100 -194q0 -64 -26 -117t-71 -81q-31 -19 -73.5 -26t-120.5 -7h-44v-149h-137zM205 280h40q89 0 123 23.5t34 73.5q0 58 -34.5 79t-116.5 21h-46v-197z" />
<glyph unicode="&#xdf;" horiz-adv-x="600" d="M51 0v487q0 124 59 194.5t162 70.5q92 0 155 -59t63 -147q0 -96 -75 -138q84 -20 126.5 -70.5t42.5 -121.5q0 -101 -65.5 -165t-168.5 -64q-121 0 -177 92v-79h-122zM184 189h82q7 -34 33.5 -57t59.5 -23q39 0 65 27.5t26 68.5q0 57 -40 83.5t-144 26.5h-11v118h11 q39 0 64.5 29.5t25.5 73.5q0 43 -23.5 68.5t-61.5 25.5q-87 0 -87 -127v-314z" />
<glyph unicode="&#xe0;" horiz-adv-x="660" d="M30 275q0 127 79.5 209.5t202.5 82.5q115 0 181 -87v74h122v-554h-122v72q-40 -45 -83 -65t-101 -20q-121 0 -200 81.5t-79 206.5zM145 724l54 92l224 -134l-51 -78zM164 272q0 -73 45.5 -118t118.5 -45q74 0 117.5 46.5t43.5 117.5q0 76 -46 124t-117 48t-116.5 -48.5 t-45.5 -124.5z" />
<glyph unicode="&#xe1;" horiz-adv-x="660" d="M30 275q0 127 79.5 209.5t202.5 82.5q115 0 181 -87v74h122v-554h-122v72q-40 -45 -83 -65t-101 -20q-121 0 -200 81.5t-79 206.5zM164 272q0 -73 45.5 -118t118.5 -45q74 0 117.5 46.5t43.5 117.5q0 76 -46 124t-117 48t-116.5 -48.5t-45.5 -124.5zM237 682l224 134 l54 -92l-227 -120z" />
<glyph unicode="&#xe2;" horiz-adv-x="660" d="M30 275q0 127 79.5 209.5t202.5 82.5q115 0 181 -87v74h122v-554h-122v72q-40 -45 -83 -65t-101 -20q-121 0 -200 81.5t-79 206.5zM131 631l147 138h107l145 -138h-145l-53 64l-54 -64h-147zM164 272q0 -73 45.5 -118t118.5 -45q74 0 117.5 46.5t43.5 117.5q0 76 -46 124 t-117 48t-116.5 -48.5t-45.5 -124.5z" />
<glyph unicode="&#xe3;" horiz-adv-x="660" d="M30 275q0 127 79.5 209.5t202.5 82.5q115 0 181 -87v74h122v-554h-122v72q-40 -45 -83 -65t-101 -20q-121 0 -200 81.5t-79 206.5zM164 272q0 -73 45.5 -118t118.5 -45q74 0 117.5 46.5t43.5 117.5q0 76 -46 124t-117 48t-116.5 -48.5t-45.5 -124.5zM164 712 q26 26 49 36.5t54 10.5q12 0 52.5 -12.5t54.5 -12.5q37 0 67 34l54 -81q-45 -55 -94 -55q-13 0 -58.5 12.5t-54.5 12.5q-18 0 -29.5 -4t-40.5 -21z" />
<glyph unicode="&#xe4;" horiz-adv-x="660" d="M30 275q0 127 79.5 209.5t202.5 82.5q115 0 181 -87v74h122v-554h-122v72q-40 -45 -83 -65t-101 -20q-121 0 -200 81.5t-79 206.5zM154 634v133h133v-133h-133zM164 272q0 -73 45.5 -118t118.5 -45q74 0 117.5 46.5t43.5 117.5q0 76 -46 124t-117 48t-116.5 -48.5 t-45.5 -124.5zM364 634v133h133v-133h-133z" />
<glyph unicode="&#xe5;" horiz-adv-x="660" d="M30 275q0 127 79.5 209.5t202.5 82.5q115 0 181 -87v74h122v-554h-122v72q-40 -45 -83 -65t-101 -20q-121 0 -200 81.5t-79 206.5zM164 272q0 -73 45.5 -118t118.5 -45q74 0 117.5 46.5t43.5 117.5q0 76 -46 124t-117 48t-116.5 -48.5t-45.5 -124.5zM217 710q0 47 33 80 t81 33q46 0 79 -33t33 -80t-33 -80t-80 -33t-80 33t-33 80zM290 710q0 -16 12 -28t28 -12t28 12t12 28t-12 28t-28 12t-28 -12t-12 -28z" />
<glyph unicode="&#xe6;" horiz-adv-x="1080" d="M30 275q0 124 83 208t205 84q102 0 167 -68v55h122v-55q67 68 167 68q116 0 196.5 -81t80.5 -198q0 -30 -9 -69h-428q17 -52 58.5 -81t97.5 -29q71 0 117 55h145q-25 -76 -98 -126.5t-158 -50.5q-106 0 -169 73v-60h-122v60q-34 -40 -71 -56.5t-94 -16.5 q-125 0 -207.5 82t-82.5 206zM164 280q0 -74 45.5 -122.5t115.5 -48.5q67 0 111.5 48t44.5 119q0 72 -45.5 120.5t-112.5 48.5t-113 -48t-46 -117zM607 337h304q-29 108 -150 108q-116 0 -154 -108z" />
<glyph unicode="&#xe7;" d="M30 277q0 122 84.5 206t207.5 84q96 0 171.5 -52t107.5 -146h-150q-40 76 -129 76q-69 0 -113.5 -47t-44.5 -120t46 -121t115 -48q79 0 126 73h150q-33 -89 -100.5 -139.5t-158.5 -55.5l-22 -45q18 7 29 7q37 0 64 -30t27 -71q0 -44 -26.5 -71t-69.5 -27q-38 0 -66 23.5 t-34 60.5h61q13 -29 38 -29q16 0 27.5 13t11.5 32q0 18 -11.5 31t-27.5 13q-19 0 -38 -27l-52 26l39 96q-112 12 -187 94t-75 194z" />
<glyph unicode="&#xe8;" d="M30 275q0 122 85 207t207 85q124 0 205 -84.5t81 -213.5q0 -27 -5 -51h-429q12 -50 53 -79.5t100 -29.5q41 0 68.5 12.5t53.5 42.5h145q-27 -82 -101.5 -129.5t-162.5 -47.5q-127 0 -213.5 83t-86.5 205zM137 724l54 92l224 -134l-51 -78zM170 335h307q-13 53 -52.5 81.5 t-100.5 28.5q-121 0 -154 -110z" />
<glyph unicode="&#xe9;" d="M30 275q0 122 85 207t207 85q124 0 205 -84.5t81 -213.5q0 -27 -5 -51h-429q12 -50 53 -79.5t100 -29.5q41 0 68.5 12.5t53.5 42.5h145q-27 -82 -101.5 -129.5t-162.5 -47.5q-127 0 -213.5 83t-86.5 205zM170 335h307q-13 53 -52.5 81.5t-100.5 28.5q-121 0 -154 -110z M229 682l224 134l54 -92l-227 -120z" />
<glyph unicode="&#xea;" d="M30 275q0 122 85 207t207 85q124 0 205 -84.5t81 -213.5q0 -27 -5 -51h-429q12 -50 53 -79.5t100 -29.5q41 0 68.5 12.5t53.5 42.5h145q-27 -82 -101.5 -129.5t-162.5 -47.5q-127 0 -213.5 83t-86.5 205zM123 631l147 138h107l145 -138h-145l-53 64l-54 -64h-147z M170 335h307q-13 53 -52.5 81.5t-100.5 28.5q-121 0 -154 -110z" />
<glyph unicode="&#xeb;" d="M30 275q0 122 85 207t207 85q124 0 205 -84.5t81 -213.5q0 -27 -5 -51h-429q12 -50 53 -79.5t100 -29.5q41 0 68.5 12.5t53.5 42.5h145q-27 -82 -101.5 -129.5t-162.5 -47.5q-127 0 -213.5 83t-86.5 205zM146 634v133h133v-133h-133zM170 335h307q-13 53 -52.5 81.5 t-100.5 28.5q-121 0 -154 -110zM356 634v133h133v-133h-133z" />
<glyph unicode="&#xec;" horiz-adv-x="240" d="M-40 724l54 92l224 -134l-51 -78zM54 0v554h133v-554h-133z" />
<glyph unicode="&#xed;" horiz-adv-x="240" d="M3 682l224 134l54 -92l-227 -120zM54 0v554h133v-554h-133z" />
<glyph unicode="&#xee;" horiz-adv-x="240" d="M-78 631l147 138h107l145 -138h-145l-53 64l-54 -64h-147zM54 0v554h133v-554h-133z" />
<glyph unicode="&#xef;" horiz-adv-x="240" d="M-55 634v133h133v-133h-133zM54 0v554h133v-554h-133zM155 634v133h133v-133h-133z" />
<glyph unicode="&#xf0;" d="M30 278q0 112 78.5 195t189.5 83q26 0 67 -9l-28 28q-28 28 -49 46l-87 -40l-40 46l78 37l-70 57l103 35q4 -2 7.5 -5t5.5 -4.5t3 -1.5l30 -23q1 0 19 -13l87 40l41 -49l-78 -35q127 -109 179.5 -196.5t52.5 -184.5q0 -125 -85 -211t-209 -86q-122 0 -208.5 85.5 t-86.5 205.5zM164 279q0 -71 47 -120.5t114 -49.5q66 0 113 49t47 119q0 69 -47 118.5t-114 49.5q-65 0 -112.5 -49t-47.5 -117z" />
<glyph unicode="&#xf1;" horiz-adv-x="600" d="M54 0v554h123v-53q69 66 156 66q118 0 173 -80q22 -32 31 -74t9 -116v-297h-133v271q0 104 -25.5 139t-80.5 35q-66 0 -98 -51q-22 -35 -22 -133v-261h-133zM134 712q26 26 49 36.5t54 10.5q12 0 52.5 -12.5t54.5 -12.5q37 0 67 34l54 -81q-45 -55 -94 -55 q-13 0 -58.5 12.5t-54.5 12.5q-18 0 -29.5 -4t-40.5 -21z" />
<glyph unicode="&#xf2;" d="M30 277q0 119 86 204.5t207 85.5q125 0 210.5 -85t85.5 -209q0 -117 -87 -201.5t-208 -84.5q-122 0 -208 85t-86 205zM138 724l54 92l224 -134l-51 -78zM164 279q0 -71 47 -120.5t114 -49.5q66 0 113 49t47 119q0 69 -47 118.5t-114 49.5q-65 0 -112.5 -49t-47.5 -117z " />
<glyph unicode="&#xf3;" d="M30 277q0 119 86 204.5t207 85.5q125 0 210.5 -85t85.5 -209q0 -117 -87 -201.5t-208 -84.5q-122 0 -208 85t-86 205zM164 279q0 -71 47 -120.5t114 -49.5q66 0 113 49t47 119q0 69 -47 118.5t-114 49.5q-65 0 -112.5 -49t-47.5 -117zM230 682l224 134l54 -92l-227 -120z " />
<glyph unicode="&#xf4;" d="M30 277q0 119 86 204.5t207 85.5q125 0 210.5 -85t85.5 -209q0 -117 -87 -201.5t-208 -84.5q-122 0 -208 85t-86 205zM124 631l147 138h107l145 -138h-145l-53 64l-54 -64h-147zM164 279q0 -71 47 -120.5t114 -49.5q66 0 113 49t47 119q0 69 -47 118.5t-114 49.5 q-65 0 -112.5 -49t-47.5 -117z" />
<glyph unicode="&#xf5;" d="M30 277q0 119 86 204.5t207 85.5q125 0 210.5 -85t85.5 -209q0 -117 -87 -201.5t-208 -84.5q-122 0 -208 85t-86 205zM157 712q26 26 49 36.5t54 10.5q12 0 52.5 -12.5t54.5 -12.5q37 0 67 34l54 -81q-45 -55 -94 -55q-13 0 -58.5 12.5t-54.5 12.5q-18 0 -29.5 -4 t-40.5 -21zM164 279q0 -71 47 -120.5t114 -49.5q66 0 113 49t47 119q0 69 -47 118.5t-114 49.5q-65 0 -112.5 -49t-47.5 -117z" />
<glyph unicode="&#xf6;" d="M30 277q0 119 86 204.5t207 85.5q125 0 210.5 -85t85.5 -209q0 -117 -87 -201.5t-208 -84.5q-122 0 -208 85t-86 205zM147 634v133h133v-133h-133zM164 279q0 -71 47 -120.5t114 -49.5q66 0 113 49t47 119q0 69 -47 118.5t-114 49.5q-65 0 -112.5 -49t-47.5 -117z M357 634v133h133v-133h-133z" />
<glyph unicode="&#xf7;" horiz-adv-x="600" d="M54 181v138h492v-138h-492zM236 65q0 27 19 45.5t45 18.5t45 -18.5t19 -45.5q0 -26 -19 -45t-45 -19t-45 19t-19 45zM236 435q0 26 19 45t45 19t45 -19t19 -45q0 -27 -19 -45.5t-45 -18.5t-45 18.5t-19 45.5z" />
<glyph unicode="&#xf8;" horiz-adv-x="660" d="M30 277q0 120 87 205t209 85q56 0 109 -21l52 77l86 -58l-50 -73q97 -89 97 -215q0 -120 -86 -205t-208 -85q-66 0 -126 28l-56 -82l-85 57l57 84q-86 81 -86 203zM164 278q0 -50 27 -93l172 255q-19 5 -38 5q-66 0 -113.5 -49t-47.5 -118zM271 119q27 -10 54 -10 q67 0 114 49t47 118q0 59 -36 107z" />
<glyph unicode="&#xf9;" horiz-adv-x="600" d="M54 257v297h133v-271q0 -103 26 -138.5t79 -35.5q69 0 101 51q21 35 21 133v261h133v-554h-123v53q-37 -37 -73 -51.5t-86 -14.5q-211 0 -211 270zM116 724l54 92l224 -134l-51 -78z" />
<glyph unicode="&#xfa;" horiz-adv-x="600" d="M54 257v297h133v-271q0 -103 26 -138.5t79 -35.5q69 0 101 51q21 35 21 133v261h133v-554h-123v53q-37 -37 -73 -51.5t-86 -14.5q-211 0 -211 270zM208 682l224 134l54 -92l-227 -120z" />
<glyph unicode="&#xfb;" horiz-adv-x="600" d="M54 257v297h133v-271q0 -103 26 -138.5t79 -35.5q69 0 101 51q21 35 21 133v261h133v-554h-123v53q-37 -37 -73 -51.5t-86 -14.5q-211 0 -211 270zM102 631l147 138h107l145 -138h-145l-53 64l-54 -64h-147z" />
<glyph unicode="&#xfc;" horiz-adv-x="600" d="M54 257v297h133v-271q0 -103 26 -138.5t79 -35.5q69 0 101 51q21 35 21 133v261h133v-554h-123v53q-37 -37 -73 -51.5t-86 -14.5q-211 0 -211 270zM125 634v133h133v-133h-133zM335 634v133h133v-133h-133z" />
<glyph unicode="&#xfd;" horiz-adv-x="580" d="M6 554h152l123 -359l134 359h153l-320 -739h-143l104 237zM194 682l224 134l54 -92l-227 -120z" />
<glyph unicode="&#xfe;" horiz-adv-x="660" d="M54 -185v924h133v-244q66 72 172 72q120 0 197.5 -82t77.5 -208q0 -127 -77.5 -208.5t-197.5 -81.5q-106 0 -172 72v-244h-133zM179 279q0 -73 46 -121.5t116 -48.5q67 0 113 48.5t46 119.5t-46 119.5t-113 48.5q-69 0 -115.5 -47.5t-46.5 -118.5z" />
<glyph unicode="&#xff;" horiz-adv-x="580" d="M6 554h152l123 -359l134 359h153l-320 -739h-143l104 237zM111 634v133h133v-133h-133zM321 634v133h133v-133h-133z" />
<glyph unicode="&#x100;" horiz-adv-x="740" d="M7 0l308 739h108l310 -739h-151l-79 191h-263l-82 -191h-151zM233 825v100h277v-100h-277zM290 322h158l-79 224z" />
<glyph unicode="&#x101;" horiz-adv-x="660" d="M30 275q0 127 79.5 209.5t202.5 82.5q115 0 181 -87v74h122v-554h-122v72q-40 -45 -83 -65t-101 -20q-121 0 -200 81.5t-79 206.5zM164 272q0 -73 45.5 -118t118.5 -45q74 0 117.5 46.5t43.5 117.5q0 76 -46 124t-117 48t-116.5 -48.5t-45.5 -124.5zM194 650v100h277 v-100h-277z" />
<glyph unicode="&#x102;" horiz-adv-x="740" d="M7 0l308 739h108l310 -739h-151l-79 191h-263l-82 -191h-151zM204 945h98q18 -43 68 -43q54 0 62 43h102q-2 -62 -47.5 -100.5t-116.5 -38.5q-74 0 -118 36.5t-48 102.5zM290 322h158l-79 224z" />
<glyph unicode="&#x103;" horiz-adv-x="660" d="M30 275q0 127 79.5 209.5t202.5 82.5q115 0 181 -87v74h122v-554h-122v72q-40 -45 -83 -65t-101 -20q-121 0 -200 81.5t-79 206.5zM164 272q0 -73 45.5 -118t118.5 -45q74 0 117.5 46.5t43.5 117.5q0 76 -46 124t-117 48t-116.5 -48.5t-45.5 -124.5zM164 770h98 q18 -43 68 -43q54 0 62 43h102q-2 -62 -47.5 -100.5t-116.5 -38.5q-74 0 -118 36.5t-48 102.5z" />
<glyph unicode="&#x104;" horiz-adv-x="740" d="M7 0l308 739h108l310 -739q-46 -15 -71 -41.5t-25 -49.5q0 -28 8.5 -40.5t29.5 -12.5q28 0 58 13v-100q-47 -19 -76 -19q-53 0 -89.5 32.5t-36.5 82.5q0 72 80 135h-29l-79 191h-263l-82 -191h-151zM290 322h158l-79 224z" />
<glyph unicode="&#x105;" horiz-adv-x="660" d="M30 275q0 127 79.5 209.5t202.5 82.5q115 0 181 -87v74h122v-554q-46 -15 -71 -41.5t-25 -49.5q0 -28 8.5 -40.5t29.5 -12.5q28 0 58 13v-100q-47 -19 -76 -19q-53 0 -89.5 32.5t-36.5 82.5q0 72 80 135v72q-40 -45 -83 -65t-101 -20q-121 0 -200 81.5t-79 206.5z M164 272q0 -73 45.5 -118t118.5 -45q74 0 117.5 46.5t43.5 117.5q0 76 -46 124t-117 48t-116.5 -48.5t-45.5 -124.5z" />
<glyph unicode="&#x106;" horiz-adv-x="780" d="M30 372q0 157 111.5 268.5t268.5 111.5q115 0 208.5 -59.5t141.5 -165.5h-153q-38 49 -84 71t-110 22q-105 0 -175 -72t-70 -177q0 -104 73 -178t175 -74q54 0 96 20t87 67h161q-43 -101 -135.5 -160t-205.5 -59q-162 0 -275.5 112.5t-113.5 272.5zM317 857l224 134 l54 -92l-227 -120z" />
<glyph unicode="&#x107;" d="M30 277q0 122 84.5 206t207.5 84q96 0 171.5 -52t107.5 -146h-150q-40 76 -129 76q-69 0 -113.5 -47t-44.5 -120t46 -121t115 -48q79 0 126 73h150q-35 -93 -106.5 -144t-168.5 -51q-123 0 -209.5 84.5t-86.5 205.5zM229 682l224 134l54 -92l-227 -120z" />
<glyph unicode="&#x108;" horiz-adv-x="780" d="M30 372q0 157 111.5 268.5t268.5 111.5q115 0 208.5 -59.5t141.5 -165.5h-153q-38 49 -84 71t-110 22q-105 0 -175 -72t-70 -177q0 -104 73 -178t175 -74q54 0 96 20t87 67h161q-43 -101 -135.5 -160t-205.5 -59q-162 0 -275.5 112.5t-113.5 272.5zM211 806l147 138h107 l145 -138h-145l-53 64l-54 -64h-147z" />
<glyph unicode="&#x109;" d="M30 277q0 122 84.5 206t207.5 84q96 0 171.5 -52t107.5 -146h-150q-40 76 -129 76q-69 0 -113.5 -47t-44.5 -120t46 -121t115 -48q79 0 126 73h150q-35 -93 -106.5 -144t-168.5 -51q-123 0 -209.5 84.5t-86.5 205.5zM123 631l147 138h107l145 -138h-145l-53 64l-54 -64 h-147z" />
<glyph unicode="&#x10a;" horiz-adv-x="780" d="M30 372q0 157 111.5 268.5t268.5 111.5q115 0 208.5 -59.5t141.5 -165.5h-153q-38 49 -84 71t-110 22q-105 0 -175 -72t-70 -177q0 -104 73 -178t175 -74q54 0 96 20t87 67h161q-43 -101 -135.5 -160t-205.5 -59q-162 0 -275.5 112.5t-113.5 272.5zM344 809v133h133v-133 h-133z" />
<glyph unicode="&#x10b;" d="M30 277q0 122 84.5 206t207.5 84q96 0 171.5 -52t107.5 -146h-150q-40 76 -129 76q-69 0 -113.5 -47t-44.5 -120t46 -121t115 -48q79 0 126 73h150q-35 -93 -106.5 -144t-168.5 -51q-123 0 -209.5 84.5t-86.5 205.5zM256 634v133h133v-133h-133z" />
<glyph unicode="&#x10c;" horiz-adv-x="780" d="M30 372q0 157 111.5 268.5t268.5 111.5q115 0 208.5 -59.5t141.5 -165.5h-153q-38 49 -84 71t-110 22q-105 0 -175 -72t-70 -177q0 -104 73 -178t175 -74q54 0 96 20t87 67h161q-43 -101 -135.5 -160t-205.5 -59q-162 0 -275.5 112.5t-113.5 272.5zM211 944h145l53 -64 l54 64h147l-147 -138h-107z" />
<glyph unicode="&#x10d;" d="M30 277q0 122 84.5 206t207.5 84q96 0 171.5 -52t107.5 -146h-150q-40 76 -129 76q-69 0 -113.5 -47t-44.5 -120t46 -121t115 -48q79 0 126 73h150q-35 -93 -106.5 -144t-168.5 -51q-123 0 -209.5 84.5t-86.5 205.5zM123 769h145l53 -64l54 64h147l-147 -138h-107z" />
<glyph unicode="&#x10e;" horiz-adv-x="700" d="M68 0v739h169q174 0 262 -53q77 -46 119 -129.5t42 -188.5q0 -112 -48 -198.5t-133 -128.5q-82 -41 -239 -41h-172zM151 944h145l53 -64l54 64h147l-147 -138h-107zM205 131h30q121 0 180 33q49 27 78 82t29 122q0 71 -30 127t-83 83q-59 30 -177 30h-27v-477z" />
<glyph unicode="&#x10f;" horiz-adv-x="660" d="M30 278q0 124 80.5 210t196.5 86q110 0 173 -69v234h133v-739h-122v72q-75 -85 -183 -85q-118 0 -198 84t-80 207zM164 284q0 -74 47.5 -124.5t117.5 -50.5q68 0 114.5 49.5t46.5 121.5q0 73 -47 122.5t-117 49.5q-68 0 -115 -48.5t-47 -119.5zM667 547l58 192h104 l-58 -192h-104z" />
<glyph unicode="&#x110;" horiz-adv-x="742" d="M14 315v107h96v317h169q174 0 262 -53q77 -46 119 -129.5t42 -189.5q0 -112 -48 -198t-133 -128q-82 -41 -239 -41h-172v315h-96zM247 131h30q121 0 180 33q50 27 78.5 82t28.5 122q0 71 -30.5 127t-82.5 83q-59 30 -177 30h-27v-186h154v-107h-154v-184z" />
<glyph unicode="&#x111;" horiz-adv-x="660" d="M30 278q0 125 80.5 210.5t197.5 85.5q110 0 172 -70v98h-126v87h126v50h133v-50h47v-87h-47v-602h-122v72q-40 -45 -83.5 -65t-99.5 -20q-118 0 -198 84t-80 207zM164 284q0 -74 47.5 -124.5t117.5 -50.5q68 0 114.5 49.5t46.5 121.5q0 73 -47 122.5t-117 49.5 q-68 0 -115 -48.5t-47 -119.5z" />
<glyph unicode="&#x112;" horiz-adv-x="520" d="M68 0v739h397v-131h-260v-174h249v-131h-249v-172h260v-131h-397zM131 825v100h277v-100h-277z" />
<glyph unicode="&#x113;" d="M30 275q0 122 85 207t207 85q124 0 205 -84.5t81 -213.5q0 -27 -5 -51h-429q12 -50 53 -79.5t100 -29.5q41 0 68.5 12.5t53.5 42.5h145q-27 -82 -101.5 -129.5t-162.5 -47.5q-127 0 -213.5 83t-86.5 205zM170 335h307q-13 53 -52.5 81.5t-100.5 28.5q-121 0 -154 -110z M186 650v100h277v-100h-277z" />
<glyph unicode="&#x114;" horiz-adv-x="520" d="M68 0v739h397v-131h-260v-174h249v-131h-249v-172h260v-131h-397zM102 945h98q18 -43 68 -43q54 0 62 43h102q-2 -62 -47.5 -100.5t-116.5 -38.5q-74 0 -118 36.5t-48 102.5z" />
<glyph unicode="&#x115;" d="M30 275q0 122 85 207t207 85q124 0 205 -84.5t81 -213.5q0 -27 -5 -51h-429q12 -50 53 -79.5t100 -29.5q41 0 68.5 12.5t53.5 42.5h145q-27 -82 -101.5 -129.5t-162.5 -47.5q-127 0 -213.5 83t-86.5 205zM156 770h98q18 -43 68 -43q54 0 62 43h102q-2 -62 -47.5 -100.5 t-116.5 -38.5q-74 0 -118 36.5t-48 102.5zM170 335h307q-13 53 -52.5 81.5t-100.5 28.5q-121 0 -154 -110z" />
<glyph unicode="&#x116;" horiz-adv-x="520" d="M68 0v739h397v-131h-260v-174h249v-131h-249v-172h260v-131h-397zM201 809v133h133v-133h-133z" />
<glyph unicode="&#x117;" d="M30 275q0 122 85 207t207 85q124 0 205 -84.5t81 -213.5q0 -27 -5 -51h-429q12 -50 53 -79.5t100 -29.5q41 0 68.5 12.5t53.5 42.5h145q-27 -82 -101.5 -129.5t-162.5 -47.5q-127 0 -213.5 83t-86.5 205zM170 335h307q-13 53 -52.5 81.5t-100.5 28.5q-121 0 -154 -110z M256 634v133h133v-133h-133z" />
<glyph unicode="&#x118;" horiz-adv-x="520" d="M68 0v739h397v-131h-260v-174h249v-131h-249v-172h260v-131q-46 -15 -71 -41.5t-25 -49.5q0 -28 8.5 -40.5t29.5 -12.5q28 0 58 13v-100q-47 -19 -76 -19q-53 0 -89.5 32.5t-36.5 82.5q0 72 80 135h-275z" />
<glyph unicode="&#x119;" d="M30 275q0 122 85 207t207 85q124 0 205 -84.5t81 -213.5q0 -27 -5 -51h-429q12 -50 53 -79.5t100 -29.5q41 0 68.5 12.5t53.5 42.5h145q-29 -90 -118 -140q-96 -52 -96 -115q0 -28 8.5 -40.5t29.5 -12.5q28 0 58 13v-100q-47 -19 -76 -19q-53 0 -89.5 32.5t-36.5 82.5 q0 62 65 122h-9q-127 0 -213.5 83t-86.5 205zM170 335h307q-13 53 -52.5 81.5t-100.5 28.5q-121 0 -154 -110z" />
<glyph unicode="&#x11a;" horiz-adv-x="520" d="M68 0v739h397v-131h-260v-174h249v-131h-249v-172h260v-131h-397zM68 944h145l53 -64l54 64h147l-147 -138h-107z" />
<glyph unicode="&#x11b;" d="M30 275q0 122 85 207t207 85q124 0 205 -84.5t81 -213.5q0 -27 -5 -51h-429q12 -50 53 -79.5t100 -29.5q41 0 68.5 12.5t53.5 42.5h145q-27 -82 -101.5 -129.5t-162.5 -47.5q-127 0 -213.5 83t-86.5 205zM123 769h145l53 -64l54 64h147l-147 -138h-107zM170 335h307 q-13 53 -52.5 81.5t-100.5 28.5q-121 0 -154 -110z" />
<glyph unicode="&#x11c;" horiz-adv-x="840" d="M30 371q0 159 113.5 270t275.5 111q121 0 223 -65t138 -165h-161q-70 98 -203 98q-108 0 -178 -72.5t-70 -178.5t73.5 -178t182.5 -72q73 0 130 34t87 96h-306v128h483v-18q0 -152 -112 -262t-274 -110q-170 0 -286 111t-116 273zM220 806l147 138h107l145 -138h-145 l-53 64l-54 -64h-147z" />
<glyph unicode="&#x11d;" horiz-adv-x="660" d="M30 281q0 123 77.5 204.5t195.5 81.5q120 0 181 -83v70h127v-449q0 -326 -287 -326q-102 0 -176.5 46.5t-108.5 129.5h151q29 -32 60.5 -45.5t78.5 -13.5q148 0 155 177q-39 -46 -81.5 -66t-100.5 -20q-119 0 -195.5 83t-76.5 211zM104 631l147 138h107l145 -138h-145 l-53 64l-54 -64h-147zM164 275q0 -76 42.5 -121t113.5 -45t114.5 45.5t43.5 120.5q0 76 -44.5 123t-115.5 47q-70 0 -112 -46.5t-42 -123.5z" />
<glyph unicode="&#x11e;" horiz-adv-x="840" d="M30 371q0 159 113.5 270t275.5 111q121 0 223 -65t138 -165h-161q-70 98 -203 98q-108 0 -178 -72.5t-70 -178.5t73.5 -178t182.5 -72q73 0 130 34t87 96h-306v128h483v-18q0 -152 -112 -262t-274 -110q-170 0 -286 111t-116 273zM254 945h98q18 -43 68 -43q54 0 62 43 h102q-2 -62 -47.5 -100.5t-116.5 -38.5q-74 0 -118 36.5t-48 102.5z" />
<glyph unicode="&#x11f;" horiz-adv-x="660" d="M30 281q0 123 77.5 204.5t195.5 81.5q120 0 181 -83v70h127v-449q0 -326 -287 -326q-102 0 -176.5 46.5t-108.5 129.5h151q29 -32 60.5 -45.5t78.5 -13.5q148 0 155 177q-39 -46 -81.5 -66t-100.5 -20q-119 0 -195.5 83t-76.5 211zM137 770h98q18 -43 68 -43q54 0 62 43 h102q-2 -62 -47.5 -100.5t-116.5 -38.5q-74 0 -118 36.5t-48 102.5zM164 275q0 -76 42.5 -121t113.5 -45t114.5 45.5t43.5 120.5q0 76 -44.5 123t-115.5 47q-70 0 -112 -46.5t-42 -123.5z" />
<glyph unicode="&#x120;" horiz-adv-x="840" d="M30 371q0 159 113.5 270t275.5 111q121 0 223 -65t138 -165h-161q-70 98 -203 98q-108 0 -178 -72.5t-70 -178.5t73.5 -178t182.5 -72q73 0 130 34t87 96h-306v128h483v-18q0 -152 -112 -262t-274 -110q-170 0 -286 111t-116 273zM353 809v133h133v-133h-133z" />
<glyph unicode="&#x121;" horiz-adv-x="660" d="M30 281q0 123 77.5 204.5t195.5 81.5q120 0 181 -83v70h127v-449q0 -326 -287 -326q-102 0 -176.5 46.5t-108.5 129.5h151q29 -32 60.5 -45.5t78.5 -13.5q148 0 155 177q-39 -46 -81.5 -66t-100.5 -20q-119 0 -195.5 83t-76.5 211zM164 275q0 -76 42.5 -121t113.5 -45 t114.5 45.5t43.5 120.5q0 76 -44.5 123t-115.5 47q-70 0 -112 -46.5t-42 -123.5zM237 634v133h133v-133h-133z" />
<glyph unicode="&#x122;" horiz-adv-x="840" d="M30 371q0 159 113.5 270t275.5 111q121 0 223 -65t138 -165h-161q-70 98 -203 98q-108 0 -178 -72.5t-70 -178.5t73.5 -178t182.5 -72q73 0 130 34t87 96h-306v128h483v-18q0 -152 -112 -262t-274 -110q-170 0 -286 111t-116 273zM315 -245l58 192h104l-58 -192h-104z " />
<glyph unicode="&#x123;" horiz-adv-x="660" d="M30 281q0 123 77.5 204.5t195.5 81.5q120 0 181 -83v70h127v-449q0 -326 -287 -326q-102 0 -176.5 46.5t-108.5 129.5h151q29 -32 60.5 -45.5t78.5 -13.5q148 0 155 177q-39 -46 -81.5 -66t-100.5 -20q-119 0 -195.5 83t-76.5 211zM164 275q0 -76 42.5 -121t113.5 -45 t114.5 45.5t43.5 120.5q0 76 -44.5 123t-115.5 47q-70 0 -112 -46.5t-42 -123.5zM222 631l58 192h104l-58 -192h-104z" />
<glyph unicode="&#x124;" horiz-adv-x="680" d="M68 0v739h137v-298h264v298h137v-739h-137v310h-264v-310h-137zM138 806l147 138h107l145 -138h-145l-53 64l-54 -64h-147z" />
<glyph unicode="&#x125;" horiz-adv-x="600" d="M54 0v739h133v-223q58 52 141 52q217 0 217 -255v-313h-133v283q0 87 -25 124.5t-83 37.5q-59 0 -88 -37.5t-29 -126.5v-281h-133zM101 806l147 138h107l145 -138h-145l-53 64l-54 -64h-147z" />
<glyph unicode="&#x126;" horiz-adv-x="680" d="M8 549v100h60v90h137v-90h264v90h137v-90h66v-100h-66v-549h-137v310h-264v-310h-137v549h-60zM205 441h264v108h-264v-108z" />
<glyph unicode="&#x127;" horiz-adv-x="600" d="M-17 602v100h70v37h133v-37h75v-100h-74l-1 -86q58 52 141 52q123 0 180 -88q37 -56 37 -167v-313h-133v283q0 87 -25 124.5t-83 37.5q-68 0 -98 -53q-19 -34 -19 -111v-281h-133v602h-70z" />
<glyph unicode="&#x128;" horiz-adv-x="280" d="M-29 887q26 26 49 36.5t54 10.5q12 0 52.5 -12.5t54.5 -12.5q37 0 67 34l54 -81q-45 -55 -94 -55q-13 0 -58.5 12.5t-54.5 12.5q-18 0 -29.5 -4t-40.5 -21zM68 0v739h137v-739h-137z" />
<glyph unicode="&#x129;" horiz-adv-x="240" d="M-45 712q26 26 49 36.5t54 10.5q12 0 52.5 -12.5t54.5 -12.5q37 0 67 34l54 -81q-45 -55 -94 -55q-13 0 -58.5 12.5t-54.5 12.5q-18 0 -29.5 -4t-40.5 -21zM54 0v554h133v-554h-133z" />
<glyph unicode="&#x12a;" horiz-adv-x="280" d="M1 825v100h277v-100h-277zM68 0v739h137v-739h-137z" />
<glyph unicode="&#x12b;" horiz-adv-x="240" d="M-15 650v100h277v-100h-277zM54 0v554h133v-554h-133z" />
<glyph unicode="&#x12c;" horiz-adv-x="280" d="M-28 945h98q18 -43 68 -43q54 0 62 43h102q-2 -62 -47.5 -100.5t-116.5 -38.5q-74 0 -118 36.5t-48 102.5zM68 0v739h137v-739h-137z" />
<glyph unicode="&#x12d;" horiz-adv-x="240" d="M-45 770h98q18 -43 68 -43q54 0 62 43h102q-2 -62 -47.5 -100.5t-116.5 -38.5q-74 0 -118 36.5t-48 102.5zM54 0v554h133v-554h-133z" />
<glyph unicode="&#x12e;" horiz-adv-x="280" d="M3 -135q0 72 80 135h-15v739h137v-739q-46 -15 -71 -41.5t-25 -49.5q0 -28 8.5 -40.5t29.5 -12.5q28 0 58 13v-100q-47 -19 -76 -19q-53 0 -89.5 32.5t-36.5 82.5z" />
<glyph unicode="&#x12f;" horiz-adv-x="240" d="M-15 -135q0 72 80 135h-11v554h133v-554q-46 -15 -71 -41.5t-25 -49.5q0 -28 8.5 -40.5t29.5 -12.5q28 0 58 13v-100q-47 -19 -76 -19q-53 0 -89.5 32.5t-36.5 82.5zM54 634v133h133v-133h-133z" />
<glyph unicode="&#x130;" horiz-adv-x="280" d="M68 0v739h137v-739h-137zM71 809v133h133v-133h-133z" />
<glyph unicode="&#x131;" horiz-adv-x="240" d="M54 0v554h133v-554h-133z" />
<glyph unicode="&#x134;" horiz-adv-x="480" d="M9 175h137q14 -56 65 -56q66 0 66 97v523h137v-527q0 -104 -53.5 -164.5t-146.5 -60.5q-83 0 -139.5 48.5t-65.5 139.5zM147 806l147 138h107l145 -138h-145l-53 64l-54 -64h-147z" />
<glyph unicode="&#x135;" horiz-adv-x="260" d="M-60 631l147 138h107l145 -138h-145l-53 64l-54 -64h-147zM17 -56q37 7 46 22t9 74v514h133v-517q0 -109 -50.5 -165.5t-137.5 -56.5v129z" />
<glyph unicode="&#x136;" horiz-adv-x="620" d="M68 0v739h137v-319l229 319h165l-278 -363l278 -376h-165l-229 325v-325h-137zM215 -245l58 192h104l-58 -192h-104z" />
<glyph unicode="&#x137;" horiz-adv-x="580" d="M54 0v739h133v-446l177 261h159l-198 -271l230 -283h-179l-189 259v-259h-133zM177 -245l58 192h104l-58 -192h-104z" />
<glyph unicode="&#x139;" horiz-adv-x="440" d="M17 857l224 134l54 -92l-227 -120zM68 0v739h137v-608h226v-131h-363z" />
<glyph unicode="&#x13a;" horiz-adv-x="240" d="M3 857l224 134l54 -92l-227 -120zM54 0v739h133v-739h-133z" />
<glyph unicode="&#x13b;" horiz-adv-x="440" d="M68 0v739h137v-608h226v-131h-363zM145 -245l58 192h104l-58 -192h-104z" />
<glyph unicode="&#x13c;" horiz-adv-x="240" d="M16 -245l58 192h104l-58 -192h-104zM54 0v739h133v-739h-133z" />
<glyph unicode="&#x13d;" horiz-adv-x="440" d="M68 0v739h137v-608h226v-131h-363zM259 547l58 192h104l-58 -192h-104z" />
<glyph unicode="&#x13e;" horiz-adv-x="240" d="M54 0v739h133v-739h-133zM241 547l58 192h104l-58 -192h-104z" />
<glyph unicode="&#x13f;" horiz-adv-x="440" d="M68 0v739h137v-608h226v-131h-363zM290 317v133h133v-133h-133z" />
<glyph unicode="&#x140;" horiz-adv-x="373" d="M54 0v739h133v-739h-133zM240 317v133h133v-133h-133z" />
<glyph unicode="&#x141;" horiz-adv-x="480" d="M14 194v124l96 79v342h137v-265l142 110v-123l-142 -111v-222h226v-128h-363v273z" />
<glyph unicode="&#x142;" horiz-adv-x="320" d="M17 255v99l81 63v322h133v-257l81 63v-99l-81 -63v-383h-133v317z" />
<glyph unicode="&#x143;" horiz-adv-x="740" d="M68 0v739h156l306 -538v538h137v-739h-153l-309 537v-537h-137zM275 857l224 134l54 -92l-227 -120z" />
<glyph unicode="&#x144;" horiz-adv-x="600" d="M54 0v554h123v-53q69 66 156 66q118 0 173 -80q22 -32 31 -74t9 -116v-297h-133v271q0 104 -25.5 139t-80.5 35q-66 0 -98 -51q-22 -35 -22 -133v-261h-133zM207 682l224 134l54 -92l-227 -120z" />
<glyph unicode="&#x145;" horiz-adv-x="740" d="M68 0v739h156l306 -538v538h137v-739h-153l-309 537v-537h-137zM263 -245l58 192h104l-58 -192h-104z" />
<glyph unicode="&#x146;" horiz-adv-x="600" d="M54 0v554h123v-53q69 66 156 66q118 0 173 -80q22 -32 31 -74t9 -116v-297h-133v271q0 104 -25.5 139t-80.5 35q-66 0 -98 -51q-22 -35 -22 -133v-261h-133zM196 -245l58 192h104l-58 -192h-104z" />
<glyph unicode="&#x147;" horiz-adv-x="740" d="M68 0v739h156l306 -538v538h137v-739h-153l-309 537v-537h-137zM169 944h145l53 -64l54 64h147l-147 -138h-107z" />
<glyph unicode="&#x148;" horiz-adv-x="600" d="M54 0v554h123v-53q69 66 156 66q118 0 173 -80q22 -32 31 -74t9 -116v-297h-133v271q0 104 -25.5 139t-80.5 35q-66 0 -98 -51q-22 -35 -22 -133v-261h-133zM101 769h145l53 -64l54 64h147l-147 -138h-107z" />
<glyph unicode="&#x14a;" horiz-adv-x="740" d="M68 0v739h156l306 -538v538h137v-764q0 -104 -53.5 -164.5t-146.5 -60.5q-83 0 -139.5 48.5t-65.5 139.5h137q14 -56 65 -56q28 0 47 21t19 51v18l-325 565v-537h-137z" />
<glyph unicode="&#x14b;" horiz-adv-x="600" d="M54 0v554h123v-53q69 66 156 66q118 0 173 -80q22 -32 31 -74t9 -116v-260q0 -109 -50.5 -165.5t-137.5 -56.5v129q37 7 46 22t9 74v231q0 104 -25.5 139t-80.5 35q-66 0 -98 -51q-22 -35 -22 -133v-261h-133z" />
<glyph unicode="&#x14c;" horiz-adv-x="840" d="M30 369q0 162 112.5 272.5t277.5 110.5q158 0 269 -112t111 -270q0 -162 -110 -272.5t-271 -110.5q-163 0 -276 111t-113 271zM168 369q0 -105 72.5 -177.5t177.5 -72.5t174.5 71t69.5 178q0 106 -70.5 179t-173.5 73q-107 0 -178.5 -72t-71.5 -179zM284 825v100h277 v-100h-277z" />
<glyph unicode="&#x14d;" d="M30 277q0 119 86 204.5t207 85.5q125 0 210.5 -85t85.5 -209q0 -117 -87 -201.5t-208 -84.5q-122 0 -208 85t-86 205zM164 279q0 -71 47 -120.5t114 -49.5q66 0 113 49t47 119q0 69 -47 118.5t-114 49.5q-65 0 -112.5 -49t-47.5 -117zM187 650v100h277v-100h-277z" />
<glyph unicode="&#x14e;" horiz-adv-x="840" d="M30 369q0 162 112.5 272.5t277.5 110.5q158 0 269 -112t111 -270q0 -162 -110 -272.5t-271 -110.5q-163 0 -276 111t-113 271zM168 369q0 -105 72.5 -177.5t177.5 -72.5t174.5 71t69.5 178q0 106 -70.5 179t-173.5 73q-107 0 -178.5 -72t-71.5 -179zM255 945h98 q18 -43 68 -43q54 0 62 43h102q-2 -62 -47.5 -100.5t-116.5 -38.5q-74 0 -118 36.5t-48 102.5z" />
<glyph unicode="&#x14f;" d="M30 277q0 119 86 204.5t207 85.5q125 0 210.5 -85t85.5 -209q0 -117 -87 -201.5t-208 -84.5q-122 0 -208 85t-86 205zM157 770h98q18 -43 68 -43q54 0 62 43h102q-2 -62 -47.5 -100.5t-116.5 -38.5q-74 0 -118 36.5t-48 102.5zM164 279q0 -71 47 -120.5t114 -49.5 q66 0 113 49t47 119q0 69 -47 118.5t-114 49.5q-65 0 -112.5 -49t-47.5 -117z" />
<glyph unicode="&#x150;" horiz-adv-x="840" d="M30 369q0 162 112.5 272.5t277.5 110.5q158 0 269 -112t111 -270q0 -162 -110 -272.5t-271 -110.5q-163 0 -276 111t-113 271zM168 369q0 -105 72.5 -177.5t177.5 -72.5t174.5 71t69.5 178q0 106 -70.5 179t-173.5 73q-107 0 -178.5 -72t-71.5 -179zM234 848l210 143 l62 -80l-222 -132zM497 848l211 143l61 -80l-221 -132z" />
<glyph unicode="&#x151;" d="M30 277q0 119 86 204.5t207 85.5q125 0 210.5 -85t85.5 -209q0 -117 -87 -201.5t-208 -84.5q-122 0 -208 85t-86 205zM137 663l210 143l62 -80l-222 -132zM164 279q0 -71 47 -120.5t114 -49.5q66 0 113 49t47 119q0 69 -47 118.5t-114 49.5q-65 0 -112.5 -49t-47.5 -117z M400 663l211 143l61 -80l-221 -132z" />
<glyph unicode="&#x152;" horiz-adv-x="1060" d="M38 369q0 164 107 273.5t268 109.5q151 0 234 -95v82h357v-131h-218v-174h207v-131h-207v-172h218v-131h-357v81q-85 -94 -229 -94q-162 0 -271 109.5t-109 272.5zM176 365q0 -104 69 -175t171 -71q103 0 169.5 70.5t66.5 178.5t-67.5 180t-169.5 72q-104 0 -171.5 -74 t-67.5 -181z" />
<glyph unicode="&#x153;" horiz-adv-x="1080" d="M30 277q0 121 84 205.5t206 84.5q136 0 223 -111q48 59 100 85t119 26q125 0 205.5 -81t80.5 -202q0 -32 -5 -66h-429q17 -50 57.5 -79.5t95.5 -29.5q34 0 67.5 15t53.5 39h142q-29 -80 -100.5 -128t-161.5 -48q-146 0 -225 113q-78 -113 -219 -113q-126 0 -210 83 t-84 207zM164 281q0 -74 47 -123t118 -49q67 0 112 48t45 119q0 72 -46.5 120.5t-114.5 48.5q-67 0 -114 -48t-47 -116zM608 335h302q-32 110 -150 110q-114 0 -152 -110z" />
<glyph unicode="&#x154;" horiz-adv-x="580" d="M68 0v739h213q76 0 121 -12t81 -43q78 -66 78 -182q0 -181 -193 -229l200 -273h-169l-194 283v-283h-137zM197 857l224 134l54 -92l-227 -120zM205 386h67q79 0 115 26.5t36 85.5q0 55 -33 82.5t-124 27.5h-61v-222z" />
<glyph unicode="&#x155;" horiz-adv-x="320" d="M54 0v554h122v-54q26 38 51.5 52.5t68.5 14.5h10v-128q-119 -3 -119 -131v-308h-133zM83 682l224 134l54 -92l-227 -120z" />
<glyph unicode="&#x156;" horiz-adv-x="580" d="M68 0v739h213q76 0 121 -12t81 -43q78 -66 78 -182q0 -181 -193 -229l200 -273h-169l-194 283v-283h-137zM186 -245l58 192h104l-58 -192h-104zM205 386h67q79 0 115 26.5t36 85.5q0 55 -33 82.5t-124 27.5h-61v-222z" />
<glyph unicode="&#x157;" horiz-adv-x="320" d="M16 -245l58 192h104l-58 -192h-104zM54 0v554h122v-54q26 38 51.5 52.5t68.5 14.5h10v-128q-119 -3 -119 -131v-308h-133z" />
<glyph unicode="&#x158;" horiz-adv-x="580" d="M68 0v739h213q76 0 121 -12t81 -43q78 -66 78 -182q0 -181 -193 -229l200 -273h-169l-194 283v-283h-137zM91 944h145l53 -64l54 64h147l-147 -138h-107zM205 386h67q79 0 115 26.5t36 85.5q0 55 -33 82.5t-124 27.5h-61v-222z" />
<glyph unicode="&#x159;" horiz-adv-x="320" d="M-23 769h145l53 -64l54 64h147l-147 -138h-107zM54 0v554h122v-54q26 38 51.5 52.5t68.5 14.5h10v-128q-119 -3 -119 -131v-308h-133z" />
<glyph unicode="&#x15a;" horiz-adv-x="520" d="M14 211h143q9 -92 100 -92q44 0 72 25t28 65q0 49 -34 75q-16 12 -34 20t-94 37q-74 28 -114 79.5t-40 121.5q0 88 63 149t152 61q91 0 152.5 -57t66.5 -153h-142q-3 38 -23 58t-55 20q-34 0 -55 -21t-21 -54q0 -41 41 -67q11 -7 82 -33q108 -40 149.5 -91t41.5 -130 q0 -100 -68 -168.5t-168 -68.5q-99 0 -166.5 60.5t-76.5 163.5zM163 857l224 134l54 -92l-227 -120z" />
<glyph unicode="&#x15b;" horiz-adv-x="440" d="M19 176h134q10 -35 27.5 -51t46.5 -16q26 0 43 15.5t17 38.5q0 25 -15 37t-79 34q-83 28 -118.5 65.5t-35.5 98.5q0 71 53.5 120t130.5 49q73 0 125.5 -45t56.5 -121h-130q-9 44 -52 44q-22 0 -36.5 -13.5t-14.5 -33.5q0 -22 13 -30t81 -30q86 -27 120 -63.5t34 -98.5 q0 -79 -57.5 -134t-140.5 -55q-85 0 -139 47.5t-64 141.5zM130 682l224 134l54 -92l-227 -120z" />
<glyph unicode="&#x15c;" horiz-adv-x="520" d="M14 211h143q9 -92 100 -92q44 0 72 25t28 65q0 49 -34 75q-16 12 -34 20t-94 37q-74 28 -114 79.5t-40 121.5q0 88 63 149t152 61q91 0 152.5 -57t66.5 -153h-142q-3 38 -23 58t-55 20q-34 0 -55 -21t-21 -54q0 -41 41 -67q11 -7 82 -33q108 -40 149.5 -91t41.5 -130 q0 -100 -68 -168.5t-168 -68.5q-99 0 -166.5 60.5t-76.5 163.5zM57 806l147 138h107l145 -138h-145l-53 64l-54 -64h-147z" />
<glyph unicode="&#x15d;" horiz-adv-x="440" d="M19 176h134q10 -35 27.5 -51t46.5 -16q26 0 43 15.5t17 38.5q0 25 -15 37t-79 34q-83 28 -118.5 65.5t-35.5 98.5q0 71 53.5 120t130.5 49q73 0 125.5 -45t56.5 -121h-130q-9 44 -52 44q-22 0 -36.5 -13.5t-14.5 -33.5q0 -22 13 -30t81 -30q86 -27 120 -63.5t34 -98.5 q0 -79 -57.5 -134t-140.5 -55q-85 0 -139 47.5t-64 141.5zM24 631l147 138h107l145 -138h-145l-53 64l-54 -64h-147z" />
<glyph unicode="&#x15e;" horiz-adv-x="520" d="M14 211h143q9 -92 100 -92q44 0 72 25t28 65q0 49 -34 75q-16 12 -34 20t-94 37q-74 28 -114 79.5t-40 121.5q0 88 63 149t152 61q91 0 152.5 -57t66.5 -153h-142q-3 38 -23 58t-55 20q-34 0 -55 -21t-21 -54q0 -41 41 -67q11 -7 82 -33q108 -40 149.5 -91t41.5 -130 q0 -99 -66.5 -167t-164.5 -70l-22 -45q18 7 29 7q37 0 64 -30t27 -71q0 -44 -26.5 -71t-69.5 -27q-38 0 -66 23.5t-34 60.5h61q13 -29 38 -29q16 0 27.5 13t11.5 32q0 18 -11.5 31t-27.5 13q-19 0 -38 -27l-52 26l40 97q-83 13 -137 71.5t-62 149.5z" />
<glyph unicode="&#x15f;" horiz-adv-x="440" d="M19 176h134q10 -35 27.5 -51t46.5 -16q26 0 43 15.5t17 38.5q0 25 -15 37t-79 34q-83 28 -118.5 65.5t-35.5 98.5q0 71 53.5 120t130.5 49q73 0 125.5 -45t56.5 -121h-130q-9 44 -52 44q-22 0 -36.5 -13.5t-14.5 -33.5q0 -22 13 -30t81 -30q86 -27 120 -63.5t34 -98.5 q0 -79 -57.5 -134t-140.5 -55h-15l-22 -45q18 7 29 7q37 0 64 -30t27 -71q0 -44 -26.5 -71t-69.5 -27q-38 0 -66 23.5t-34 60.5h61q13 -29 38 -29q16 0 27.5 13t11.5 32q0 18 -11.5 31t-27.5 13q-19 0 -38 -27l-52 26l42 101q-125 32 -141 182z" />
<glyph unicode="&#x160;" horiz-adv-x="520" d="M14 211h143q9 -92 100 -92q44 0 72 25t28 65q0 49 -34 75q-16 12 -34 20t-94 37q-74 28 -114 79.5t-40 121.5q0 88 63 149t152 61q91 0 152.5 -57t66.5 -153h-142q-3 38 -23 58t-55 20q-34 0 -55 -21t-21 -54q0 -41 41 -67q11 -7 82 -33q108 -40 149.5 -91t41.5 -130 q0 -100 -68 -168.5t-168 -68.5q-99 0 -166.5 60.5t-76.5 163.5zM57 944h145l53 -64l54 64h147l-147 -138h-107z" />
<glyph unicode="&#x161;" horiz-adv-x="440" d="M19 176h134q10 -35 27.5 -51t46.5 -16q26 0 43 15.5t17 38.5q0 25 -15 37t-79 34q-83 28 -118.5 65.5t-35.5 98.5q0 71 53.5 120t130.5 49q73 0 125.5 -45t56.5 -121h-130q-9 44 -52 44q-22 0 -36.5 -13.5t-14.5 -33.5q0 -22 13 -30t81 -30q86 -27 120 -63.5t34 -98.5 q0 -79 -57.5 -134t-140.5 -55q-85 0 -139 47.5t-64 141.5zM24 769h145l53 -64l54 64h147l-147 -138h-107z" />
<glyph unicode="&#x162;" horiz-adv-x="420" d="M7 608v131h411v-131h-137v-608h-62l-29 -58q18 7 29 7q37 0 64 -30t27 -71q0 -44 -26.5 -71t-69.5 -27q-38 0 -66 23.5t-34 60.5h61q13 -29 38 -29q16 0 27.5 13t11.5 32q0 18 -11.5 31t-27.5 13q-19 0 -38 -27l-52 26l44 107h-23v608h-137z" />
<glyph unicode="&#x163;" horiz-adv-x="300" d="M9 433v121h65v185h133v-185h80v-121h-80v-433h-58l-29 -58q18 7 29 7q37 0 64 -30t27 -71q0 -44 -26.5 -71t-69.5 -27q-38 0 -66 23.5t-34 60.5h61q13 -29 38 -29q16 0 27.5 13t11.5 32q0 18 -11.5 31t-27.5 13q-19 0 -38 -27l-52 26l44 107h-23v433h-65z" />
<glyph unicode="&#x164;" horiz-adv-x="420" d="M7 608v131h411v-131h-137v-608h-137v608h-137zM14 944h145l53 -64l54 64h147l-147 -138h-107z" />
<glyph unicode="&#x165;" horiz-adv-x="300" d="M9 433v121h65v185h133v-185h80v-121h-80v-433h-133v433h-65zM234 581l58 192h104l-58 -192h-104z" />
<glyph unicode="&#x168;" d="M68 271v468h137v-468q0 -82 28.5 -117t84.5 -35q55 0 83.5 34.5t28.5 117.5v468h137v-468q0 -138 -68.5 -211t-181.5 -73q-112 0 -180.5 73.5t-68.5 210.5zM152 887q26 26 49 36.5t54 10.5q12 0 52.5 -12.5t54.5 -12.5q37 0 67 34l54 -81q-45 -55 -94 -55 q-13 0 -58.5 12.5t-54.5 12.5q-18 0 -29.5 -4t-40.5 -21z" />
<glyph unicode="&#x169;" horiz-adv-x="600" d="M54 257v297h133v-271q0 -103 26 -138.5t79 -35.5q69 0 101 51q21 35 21 133v261h133v-554h-123v53q-37 -37 -73 -51.5t-86 -14.5q-211 0 -211 270zM135 712q26 26 49 36.5t54 10.5q12 0 52.5 -12.5t54.5 -12.5q37 0 67 34l54 -81q-45 -55 -94 -55q-13 0 -58.5 12.5 t-54.5 12.5q-18 0 -29.5 -4t-40.5 -21z" />
<glyph unicode="&#x16a;" d="M68 271v468h137v-468q0 -82 28.5 -117t84.5 -35q55 0 83.5 34.5t28.5 117.5v468h137v-468q0 -138 -68.5 -211t-181.5 -73q-112 0 -180.5 73.5t-68.5 210.5zM182 825v100h277v-100h-277z" />
<glyph unicode="&#x16b;" horiz-adv-x="600" d="M54 257v297h133v-271q0 -103 26 -138.5t79 -35.5q69 0 101 51q21 35 21 133v261h133v-554h-123v53q-37 -37 -73 -51.5t-86 -14.5q-211 0 -211 270zM165 650v100h277v-100h-277z" />
<glyph unicode="&#x16c;" d="M68 271v468h137v-468q0 -82 28.5 -117t84.5 -35q55 0 83.5 34.5t28.5 117.5v468h137v-468q0 -138 -68.5 -211t-181.5 -73q-112 0 -180.5 73.5t-68.5 210.5zM153 945h98q18 -43 68 -43q54 0 62 43h102q-2 -62 -47.5 -100.5t-116.5 -38.5q-74 0 -118 36.5t-48 102.5z" />
<glyph unicode="&#x16d;" horiz-adv-x="600" d="M54 257v297h133v-271q0 -103 26 -138.5t79 -35.5q69 0 101 51q21 35 21 133v261h133v-554h-123v53q-37 -37 -73 -51.5t-86 -14.5q-211 0 -211 270zM135 770h98q18 -43 68 -43q54 0 62 43h102q-2 -62 -47.5 -100.5t-116.5 -38.5q-74 0 -118 36.5t-48 102.5z" />
<glyph unicode="&#x16e;" d="M68 271v468h137v-468q0 -82 28.5 -117t84.5 -35q55 0 83.5 34.5t28.5 117.5v468h137v-468q0 -138 -68.5 -211t-181.5 -73q-112 0 -180.5 73.5t-68.5 210.5zM205 888q0 47 33 80t81 33q46 0 79 -33t33 -80t-33 -80t-80 -33t-80 33t-33 80zM278 888q0 -16 12 -28t28 -12 t28 12t12 28t-12 28t-28 12t-28 -12t-12 -28z" />
<glyph unicode="&#x16f;" horiz-adv-x="600" d="M54 257v297h133v-271q0 -103 26 -138.5t79 -35.5q69 0 101 51q21 35 21 133v261h133v-554h-123v53q-37 -37 -73 -51.5t-86 -14.5q-211 0 -211 270zM188 710q0 47 33 80t81 33q46 0 79 -33t33 -80t-33 -80t-80 -33t-80 33t-33 80zM261 710q0 -16 11.5 -28t28.5 -12 t28.5 12t11.5 28t-11.5 28t-28.5 12t-28.5 -12t-11.5 -28z" />
<glyph unicode="&#x170;" d="M68 271v468h137v-468q0 -82 28.5 -117t84.5 -35q55 0 83.5 34.5t28.5 117.5v468h137v-468q0 -138 -68.5 -211t-181.5 -73q-112 0 -180.5 73.5t-68.5 210.5zM132 848l210 143l62 -80l-222 -132zM395 848l211 143l61 -80l-221 -132z" />
<glyph unicode="&#x171;" horiz-adv-x="600" d="M54 257v297h133v-271q0 -103 26 -138.5t79 -35.5q69 0 101 51q21 35 21 133v261h133v-554h-123v53q-37 -37 -73 -51.5t-86 -14.5q-211 0 -211 270zM115 663l210 143l62 -80l-222 -132zM378 663l211 143l61 -80l-221 -132z" />
<glyph unicode="&#x172;" d="M68 271v468h137v-468q0 -82 28.5 -117t84.5 -35q55 0 83.5 34.5t28.5 117.5v468h137v-468q0 -166 -99 -238q-34 -26 -49.5 -39t-34 -38t-18.5 -47q0 -28 8.5 -40.5t29.5 -12.5q28 0 58 13v-100q-47 -19 -76 -19q-53 0 -89.5 32.5t-36.5 82.5q0 63 64 122h-7 q-112 0 -180.5 73.5t-68.5 210.5z" />
<glyph unicode="&#x173;" horiz-adv-x="600" d="M54 257v297h133v-271q0 -103 26 -138.5t79 -35.5q69 0 101 51q21 35 21 133v261h133v-554q-46 -15 -71 -41.5t-25 -49.5q0 -28 8.5 -40.5t29.5 -12.5q28 0 58 13v-100q-47 -19 -76 -19q-53 0 -89.5 32.5t-36.5 82.5q0 72 80 135l-1 53q-37 -37 -73 -51.5t-86 -14.5 q-211 0 -211 270z" />
<glyph unicode="&#x174;" horiz-adv-x="900" d="M7 739h140l130 -516l126 516h100l124 -516l131 516h140l-216 -739h-109l-119 489l-122 -489h-108zM254 806l147 138h107l145 -138h-145l-53 64l-54 -64h-147z" />
<glyph unicode="&#x175;" horiz-adv-x="800" d="M10 554h143l99 -338l93 338h106l91 -338l101 338h142l-200 -554h-83l-105 359l-107 -359h-82zM199 631l147 138h107l145 -138h-145l-53 64l-54 -64h-147z" />
<glyph unicode="&#x176;" horiz-adv-x="620" d="M3 739h148l164 -340l163 340h148l-243 -466v-273h-137v273zM116 806l147 138h107l145 -138h-145l-53 64l-54 -64h-147z" />
<glyph unicode="&#x177;" horiz-adv-x="580" d="M6 554h152l123 -359l134 359h153l-320 -739h-143l104 237zM88 631l147 138h107l145 -138h-145l-53 64l-54 -64h-147z" />
<glyph unicode="&#x178;" horiz-adv-x="620" d="M3 739h148l164 -340l163 340h148l-243 -466v-273h-137v273zM139 809v133h133v-133h-133zM349 809v133h133v-133h-133z" />
<glyph unicode="&#x179;" horiz-adv-x="500" d="M18 0v116l280 492h-265v131h428v-123l-278 -485h297v-131h-462zM154 857l224 134l54 -92l-227 -120z" />
<glyph unicode="&#x17a;" horiz-adv-x="460" d="M20 0v119l244 316h-216v119h375v-119l-244 -316h263v-119h-422zM143 682l224 134l54 -92l-227 -120z" />
<glyph unicode="&#x17b;" horiz-adv-x="500" d="M18 0v116l280 492h-265v131h428v-123l-278 -485h297v-131h-462zM181 809v133h133v-133h-133z" />
<glyph unicode="&#x17c;" horiz-adv-x="460" d="M20 0v119l244 316h-216v119h375v-119l-244 -316h263v-119h-422zM170 634v133h133v-133h-133z" />
<glyph unicode="&#x17d;" horiz-adv-x="500" d="M18 0v116l280 492h-265v131h428v-123l-278 -485h297v-131h-462zM48 944h145l53 -64l54 64h147l-147 -138h-107z" />
<glyph unicode="&#x17e;" horiz-adv-x="460" d="M20 0v119l244 316h-216v119h375v-119l-244 -316h263v-119h-422zM37 769h145l53 -64l54 64h147l-147 -138h-107z" />
<glyph unicode="&#x17f;" horiz-adv-x="280" d="M10 433v111h48q9 92 44 133q51 62 139 62q17 0 33 -2v-126h-13q-39 0 -54 -14.5t-16 -52.5v-544h-133v433h-48z" />
<glyph unicode="&#x18e;" horiz-adv-x="520" d="M68 0v131h260v172h-249v131h249v174h-260v131h397v-739h-397z" />
<glyph unicode="&#x192;" horiz-adv-x="560" d="M-17 -142l20 116q20 -4 33 -4q55 0 80 29.5t42 128.5l60 342h-94l19 115h94l5 26q13 58 23 83.5t32 52.5q62 76 168 76q13 0 29 -3l-20 -117h-9q-45 0 -66.5 -26t-34.5 -92h92l-19 -115h-93l-62 -364q-15 -85 -30.5 -125t-44.5 -68q-65 -62 -165 -62q-28 0 -59 7z" />
<glyph unicode="&#x1a0;" horiz-adv-x="859" d="M30 369q0 162 112.5 272.5t277.5 110.5q81 0 153 -32.5t125 -89.5q34 42 34 109h95q0 -109 -73 -187q46 -86 46 -182q0 -162 -110 -272.5t-271 -110.5q-163 0 -276 111t-113 271zM168 369q0 -105 72.5 -177.5t177.5 -72.5t174.5 71t69.5 178q0 106 -70.5 179t-173.5 73 q-107 0 -178.5 -72t-71.5 -179z" />
<glyph unicode="&#x1a1;" horiz-adv-x="722" d="M30 277q0 119 86 204.5t207 85.5q74 0 137.5 -32.5t104.5 -89.5q33 43 33 109h95q0 -119 -86 -198q12 -39 12 -83q0 -117 -87 -201.5t-208 -84.5q-122 0 -208 85t-86 205zM164 279q0 -71 47 -120.5t114 -49.5q66 0 113 49t47 119q0 69 -47 118.5t-114 49.5 q-65 0 -112.5 -49t-47.5 -117z" />
<glyph unicode="&#x1af;" horiz-adv-x="748" d="M68 271v468h137v-468q0 -71 18 -102q31 -50 95 -50q63 0 94 50q18 31 18 102v468h137v-139q62 50 62 139h95q0 -91 -46 -154t-111 -95v-219q0 -122 -50 -189q-33 -44 -86.5 -69.5t-113.5 -25.5q-65 0 -121 29.5t-88 80.5q-40 64 -40 174z" />
<glyph unicode="&#x1b0;" horiz-adv-x="729" d="M54 257v297h133v-271q0 -105 27 -139q26 -35 78 -35q71 0 101 51q21 31 21 133v261h133v-138q61 50 61 138h95q0 -90 -45.5 -153.5t-110.5 -94.5v-306h-123v53q-37 -37 -73 -51.5t-86 -14.5q-112 0 -169 82q-23 35 -32.5 76.5t-9.5 111.5z" />
<glyph unicode="&#x1dd;" d="M30 285q0 27 5 51h429q-12 50 -53 79.5t-100 29.5q-41 0 -68.5 -12.5t-53.5 -42.5h-145q27 82 101.5 129.5t162.5 47.5q127 0 213.5 -83t86.5 -205t-85 -207t-207 -85q-124 0 -205 84.5t-81 213.5zM161 219q13 -53 52.5 -81.5t100.5 -28.5q121 0 154 110h-307z" />
<glyph unicode="&#x1e6;" horiz-adv-x="840" d="M30 371q0 159 113.5 270t275.5 111q121 0 223 -65t138 -165h-161q-70 98 -203 98q-108 0 -178 -72.5t-70 -178.5t73.5 -178t182.5 -72q73 0 130 34t87 96h-306v128h483v-18q0 -152 -112 -262t-274 -110q-170 0 -286 111t-116 273zM220 944h145l53 -64l54 64h147 l-147 -138h-107z" />
<glyph unicode="&#x1e7;" horiz-adv-x="660" d="M30 281q0 123 77.5 204.5t195.5 81.5q120 0 181 -83v70h127v-449q0 -326 -287 -326q-102 0 -176.5 46.5t-108.5 129.5h151q29 -32 60.5 -45.5t78.5 -13.5q148 0 155 177q-39 -46 -81.5 -66t-100.5 -20q-119 0 -195.5 83t-76.5 211zM104 769h145l53 -64l54 64h147 l-147 -138h-107zM164 275q0 -76 42.5 -121t113.5 -45t114.5 45.5t43.5 120.5q0 76 -44.5 123t-115.5 47q-70 0 -112 -46.5t-42 -123.5z" />
<glyph unicode="&#x1ea;" horiz-adv-x="840" d="M30 369q0 162 112.5 272.5t277.5 110.5q158 0 269 -112t111 -270q0 -112 -55 -202.5t-149 -138.5q-29 -15 -44 -24t-36.5 -25t-31.5 -33.5t-10 -37.5q0 -28 8.5 -40.5t29.5 -12.5q28 0 58 13v-100q-47 -19 -76 -19q-53 0 -89.5 32.5t-36.5 82.5q0 64 65 122h-14 q-163 0 -276 111t-113 271zM168 369q0 -105 72.5 -177.5t177.5 -72.5t174.5 71t69.5 178q0 106 -70.5 179t-173.5 73q-107 0 -178.5 -72t-71.5 -179z" />
<glyph unicode="&#x1eb;" d="M30 277q0 119 86 204.5t207 85.5q125 0 210.5 -85t85.5 -209q0 -74 -38 -139t-102 -104q-47 -28 -74 -55.5t-27 -65.5q0 -28 8.5 -40.5t29.5 -12.5q28 0 58 13v-100q-47 -19 -76 -19q-53 0 -89.5 32.5t-36.5 82.5q0 64 65 122h-13q-122 0 -208 85t-86 205zM164 279 q0 -71 47 -120.5t114 -49.5q66 0 113 49t47 119q0 69 -47 118.5t-114 49.5q-65 0 -112.5 -49t-47.5 -117z" />
<glyph unicode="&#x1f4;" horiz-adv-x="840" d="M30 371q0 159 113.5 270t275.5 111q121 0 223 -65t138 -165h-161q-70 98 -203 98q-108 0 -178 -72.5t-70 -178.5t73.5 -178t182.5 -72q73 0 130 34t87 96h-306v128h483v-18q0 -152 -112 -262t-274 -110q-170 0 -286 111t-116 273zM326 857l224 134l54 -92l-227 -120z" />
<glyph unicode="&#x1f5;" horiz-adv-x="660" d="M30 281q0 123 77.5 204.5t195.5 81.5q120 0 181 -83v70h127v-449q0 -326 -287 -326q-102 0 -176.5 46.5t-108.5 129.5h151q29 -32 60.5 -45.5t78.5 -13.5q148 0 155 177q-39 -46 -81.5 -66t-100.5 -20q-119 0 -195.5 83t-76.5 211zM164 275q0 -76 42.5 -121t113.5 -45 t114.5 45.5t43.5 120.5q0 76 -44.5 123t-115.5 47q-70 0 -112 -46.5t-42 -123.5zM210 682l224 134l54 -92l-227 -120z" />
<glyph unicode="&#x1fa;" horiz-adv-x="740" d="M7 0l308 739h108l310 -739h-151l-79 191h-263l-82 -191h-151zM256 888q0 47 33 80t81 33q46 0 79 -33t33 -80t-33 -80t-80 -33t-80 33t-33 80zM276 1099l224 134l54 -92l-227 -120zM290 322h158l-79 224zM329 888q0 -16 11.5 -28t28.5 -12t28.5 12t11.5 28t-11.5 28 t-28.5 12t-28.5 -12t-11.5 -28z" />
<glyph unicode="&#x1fb;" horiz-adv-x="660" d="M30 275q0 127 79.5 209.5t202.5 82.5q115 0 181 -87v74h122v-554h-122v72q-40 -45 -83 -65t-101 -20q-121 0 -200 81.5t-79 206.5zM164 272q0 -73 45.5 -118t118.5 -45q74 0 117.5 46.5t43.5 117.5q0 76 -46 124t-117 48t-116.5 -48.5t-45.5 -124.5zM217 703q0 47 33 80 t81 33q46 0 79 -33t33 -80t-33 -80t-80 -33t-80 33t-33 80zM237 914l224 134l54 -92l-227 -120zM290 703q0 -17 12 -28.5t28 -11.5t28 11.5t12 28.5t-12 28.5t-28 11.5t-28 -11.5t-12 -28.5z" />
<glyph unicode="&#x1fc;" horiz-adv-x="900" d="M17 0l487 739h339v-131h-218v-174h207v-131h-207v-172h218v-131h-355v191h-194l-112 -191h-165zM373 322h115v191zM464 857l224 134l54 -92l-227 -120z" />
<glyph unicode="&#x1fd;" horiz-adv-x="1080" d="M30 275q0 124 83 208t205 84q102 0 167 -68v55h122v-55q67 68 167 68q116 0 196.5 -81t80.5 -198q0 -30 -9 -69h-428q17 -52 58.5 -81t97.5 -29q71 0 117 55h145q-25 -76 -98 -126.5t-158 -50.5q-106 0 -169 73v-60h-122v60q-34 -40 -71 -56.5t-94 -16.5 q-125 0 -207.5 82t-82.5 206zM164 280q0 -74 45.5 -122.5t115.5 -48.5q67 0 111.5 48t44.5 119q0 72 -45.5 120.5t-112.5 48.5t-113 -48t-46 -117zM447 682l224 134l54 -92l-227 -120zM607 337h304q-29 108 -150 108q-116 0 -154 -108z" />
<glyph unicode="&#x1fe;" horiz-adv-x="840" d="M30 370q0 159 112.5 270.5t273.5 111.5q85 0 165 -35l62 92l95 -66l-61 -90q126 -115 126 -283q0 -162 -110.5 -272.5t-271.5 -110.5q-88 0 -168 36l-60 -88l-96 65l59 87q-60 54 -93 128.5t-33 154.5zM168 370q0 -95 65 -169l272 404q-43 15 -89 15q-104 0 -176 -72.5 t-72 -177.5zM327 857l224 134l54 -92l-227 -120zM329 135q45 -16 91 -16q105 0 175 71t70 178q0 97 -64 172z" />
<glyph unicode="&#x1ff;" horiz-adv-x="660" d="M30 277q0 120 87 205t209 85q56 0 109 -21l52 77l86 -58l-50 -73q97 -89 97 -215q0 -120 -86 -205t-208 -85q-66 0 -126 28l-56 -82l-85 57l57 84q-86 81 -86 203zM164 278q0 -50 27 -93l172 255q-19 5 -38 5q-66 0 -113.5 -49t-47.5 -118zM237 682l224 134l54 -92 l-227 -120zM271 119q27 -10 54 -10q67 0 114 49t47 118q0 59 -36 107z" />
<glyph unicode="&#x200;" horiz-adv-x="740" d="M7 0l308 739h108l310 -739h-151l-79 191h-263l-82 -191h-151zM20 911l61 80l211 -143l-51 -69zM283 911l62 80l210 -143l-50 -69zM290 322h158l-79 224z" />
<glyph unicode="&#x201;" horiz-adv-x="660" d="M-19 726l61 80l211 -143l-51 -69zM30 275q0 127 79.5 209.5t202.5 82.5q115 0 181 -87v74h122v-554h-122v72q-40 -45 -83 -65t-101 -20q-121 0 -200 81.5t-79 206.5zM164 272q0 -73 45.5 -118t118.5 -45q74 0 117.5 46.5t43.5 117.5q0 76 -46 124t-117 48t-116.5 -48.5 t-45.5 -124.5zM244 726l62 80l210 -143l-50 -69z" />
<glyph unicode="&#x204;" horiz-adv-x="520" d="M-82 911l61 80l211 -143l-51 -69zM68 0v739h397v-131h-260v-174h249v-131h-249v-172h260v-131h-397zM181 911l62 80l210 -143l-50 -69z" />
<glyph unicode="&#x205;" d="M-27 726l61 80l211 -143l-51 -69zM30 275q0 122 85 207t207 85q124 0 205 -84.5t81 -213.5q0 -27 -5 -51h-429q12 -50 53 -79.5t100 -29.5q41 0 68.5 12.5t53.5 42.5h145q-27 -82 -101.5 -129.5t-162.5 -47.5q-127 0 -213.5 83t-86.5 205zM170 335h307q-13 53 -52.5 81.5 t-100.5 28.5q-121 0 -154 -110zM236 726l62 80l210 -143l-50 -69z" />
<glyph unicode="&#x208;" horiz-adv-x="280" d="M-212 911l61 80l211 -143l-51 -69zM51 911l62 80l210 -143l-50 -69zM68 0v739h137v-739h-137z" />
<glyph unicode="&#x209;" horiz-adv-x="240" d="M-228 726l61 80l211 -143l-51 -69zM35 726l62 80l210 -143l-50 -69zM54 0v554h133v-554h-133z" />
<glyph unicode="&#x20c;" horiz-adv-x="840" d="M30 369q0 162 112.5 272.5t277.5 110.5q158 0 269 -112t111 -270q0 -162 -110 -272.5t-271 -110.5q-163 0 -276 111t-113 271zM71 911l61 80l211 -143l-51 -69zM168 369q0 -105 72.5 -177.5t177.5 -72.5t174.5 71t69.5 178q0 106 -70.5 179t-173.5 73q-107 0 -178.5 -72 t-71.5 -179zM334 911l62 80l210 -143l-50 -69z" />
<glyph unicode="&#x20d;" d="M-26 726l61 80l211 -143l-51 -69zM30 277q0 119 86 204.5t207 85.5q125 0 210.5 -85t85.5 -209q0 -117 -87 -201.5t-208 -84.5q-122 0 -208 85t-86 205zM164 279q0 -71 47 -120.5t114 -49.5q66 0 113 49t47 119q0 69 -47 118.5t-114 49.5q-65 0 -112.5 -49t-47.5 -117z M237 726l62 80l210 -143l-50 -69z" />
<glyph unicode="&#x210;" horiz-adv-x="580" d="M-59 911l61 80l211 -143l-51 -69zM68 0v739h213q76 0 121 -12t81 -43q78 -66 78 -182q0 -181 -193 -229l200 -273h-169l-194 283v-283h-137zM204 911l62 80l210 -143l-50 -69zM205 386h67q79 0 115 26.5t36 85.5q0 55 -33 82.5t-124 27.5h-61v-222z" />
<glyph unicode="&#x211;" horiz-adv-x="320" d="M-173 726l61 80l211 -143l-51 -69zM54 0v554h122v-54q26 38 51.5 52.5t68.5 14.5h10v-128q-119 -3 -119 -131v-308h-133zM90 726l62 80l210 -143l-50 -69z" />
<glyph unicode="&#x214;" d="M-31 911l61 80l211 -143l-51 -69zM68 271v468h137v-468q0 -82 28.5 -117t84.5 -35q55 0 83.5 34.5t28.5 117.5v468h137v-468q0 -138 -68.5 -211t-181.5 -73q-112 0 -180.5 73.5t-68.5 210.5zM232 911l62 80l210 -143l-50 -69z" />
<glyph unicode="&#x215;" horiz-adv-x="600" d="M-48 726l61 80l211 -143l-51 -69zM54 257v297h133v-271q0 -103 26 -138.5t79 -35.5q69 0 101 51q21 35 21 133v261h133v-554h-123v53q-37 -37 -73 -51.5t-86 -14.5q-211 0 -211 270zM215 726l62 80l210 -143l-50 -69z" />
<glyph unicode="&#x218;" horiz-adv-x="520" d="M14 211h143q9 -92 100 -92q44 0 72 25t28 65q0 49 -34 75q-16 12 -34 20t-94 37q-74 28 -114 79.5t-40 121.5q0 88 63 149t152 61q91 0 152.5 -57t66.5 -153h-142q-3 38 -23 58t-55 20q-34 0 -55 -21t-21 -54q0 -41 41 -67q11 -7 82 -33q108 -40 149.5 -91t41.5 -130 q0 -100 -68 -168.5t-168 -68.5q-99 0 -166.5 60.5t-76.5 163.5zM152 -245l58 192h104l-58 -192h-104z" />
<glyph unicode="&#x219;" horiz-adv-x="440" d="M19 176h134q10 -35 27.5 -51t46.5 -16q26 0 43 15.5t17 38.5q0 25 -15 37t-79 34q-83 28 -118.5 65.5t-35.5 98.5q0 71 53.5 120t130.5 49q73 0 125.5 -45t56.5 -121h-130q-9 44 -52 44q-22 0 -36.5 -13.5t-14.5 -33.5q0 -22 13 -30t81 -30q86 -27 120 -63.5t34 -98.5 q0 -79 -57.5 -134t-140.5 -55q-85 0 -139 47.5t-64 141.5zM119 -245l58 192h104l-58 -192h-104z" />
<glyph unicode="&#x21a;" horiz-adv-x="420" d="M7 608v131h411v-131h-137v-608h-137v608h-137zM108 -245l58 192h104l-58 -192h-104z" />
<glyph unicode="&#x21b;" horiz-adv-x="300" d="M9 433v121h65v185h133v-185h80v-121h-80v-433h-133v433h-65zM36 -245l58 192h104l-58 -192h-104z" />
<glyph unicode="&#x258;" d="M30 269q0 129 81 213.5t205 84.5q122 0 207 -85t85 -207t-86.5 -205t-213.5 -83q-88 0 -162.5 47.5t-101.5 129.5h145q26 -30 53.5 -42.5t68.5 -12.5q59 0 100 29.5t53 79.5h-429q-5 24 -5 51zM161 335h307q-33 110 -154 110q-61 0 -100.5 -28.5t-52.5 -81.5z" />
<glyph unicode="&#x259;" d="M30 285q0 27 5 51h429q-12 50 -53 79.5t-100 29.5q-41 0 -68.5 -12.5t-53.5 -42.5h-145q27 82 101.5 129.5t162.5 47.5q127 0 213.5 -83t86.5 -205t-85 -207t-207 -85q-124 0 -205 84.5t-81 213.5zM161 219q13 -53 52.5 -81.5t100.5 -28.5q121 0 154 110h-307z" />
<glyph unicode="&#x2be;" horiz-adv-x="505" d="M55 454q-1 4 1 7.5t6 3.5h100q5 0 7 -4q26 -47 79 -47q43 0 70.5 29.5t27.5 74.5t-28.5 74.5t-71.5 29.5q-49 0 -77 -45q-1 -3 -7 -3h-100q-4 0 -6 3t-1 7q24 65 74 100.5t117 35.5q85 0 145 -59t60 -143q0 -85 -58.5 -143t-144.5 -58q-67 0 -119 36t-74 101z" />
<glyph unicode="&#x2bf;" horiz-adv-x="505" d="M54 519q0 85 58.5 143t144.5 58q67 0 119 -36t74 -101q1 -4 -1 -7.5t-6 -3.5h-100q-5 0 -7 4q-26 47 -79 47q-43 0 -70.5 -29.5t-27.5 -74.5t28.5 -74.5t71.5 -29.5q49 0 77 45q2 3 7 3h100q4 0 6 -3t1 -7q-24 -65 -74 -100.5t-117 -35.5q-85 0 -145 59t-60 143z" />
<glyph unicode="&#x2c6;" horiz-adv-x="540" d="M71 631l147 138h107l145 -138h-145l-53 64l-54 -64h-147z" />
<glyph unicode="&#x2c7;" horiz-adv-x="540" d="M71 769h145l53 -64l54 64h147l-147 -138h-107z" />
<glyph unicode="&#x2d8;" horiz-adv-x="480" d="M74 770h98q18 -43 68 -43q54 0 62 43h102q-2 -62 -47.5 -100.5t-116.5 -38.5q-74 0 -118 36.5t-48 102.5z" />
<glyph unicode="&#x2d9;" horiz-adv-x="280" d="M74 634v133h133v-133h-133z" />
<glyph unicode="&#x2da;" horiz-adv-x="360" d="M67 710q0 47 33 80t81 33q46 0 79 -33t33 -80t-33 -80t-80 -33t-80 33t-33 80zM140 710q0 -16 12 -28t28 -12t28 12t12 28t-12 28t-28 12t-28 -12t-12 -28z" />
<glyph unicode="&#x2db;" horiz-adv-x="340" d="M74 -135q0 72 80 135h122q-46 -15 -71 -41.5t-25 -49.5q0 -28 8.5 -40.5t29.5 -12.5q28 0 58 13v-100q-47 -19 -76 -19q-53 0 -89.5 32.5t-36.5 82.5z" />
<glyph unicode="&#x2dc;" horiz-adv-x="480" d="M74 712q26 26 49 36.5t54 10.5q12 0 52.5 -12.5t54.5 -12.5q37 0 67 34l54 -81q-45 -55 -94 -55q-13 0 -58.5 12.5t-54.5 12.5q-18 0 -29.5 -4t-40.5 -21z" />
<glyph unicode="&#x2dd;" horiz-adv-x="700" d="M164 663l210 143l62 -80l-222 -132zM427 663l211 143l61 -80l-221 -132z" />
<glyph unicode="&#x300;" horiz-adv-x="0" d="M-515 724l54 92l224 -134l-51 -78z" />
<glyph unicode="&#x301;" horiz-adv-x="0" d="M-423 682l224 134l54 -92l-227 -120z" />
<glyph unicode="&#x302;" horiz-adv-x="0" d="M-529 631l147 138h107l145 -138h-145l-53 64l-54 -64h-147z" />
<glyph unicode="&#x303;" horiz-adv-x="0" d="M-496 712q26 26 49 36.5t54 10.5q12 0 52.5 -12.5t54.5 -12.5q37 0 67 34l54 -81q-45 -55 -94 -55q-13 0 -58.5 12.5t-54.5 12.5q-18 0 -29.5 -4t-40.5 -21z" />
<glyph unicode="&#x304;" horiz-adv-x="0" d="M-466 650v100h277v-100h-277z" />
<glyph unicode="&#x306;" horiz-adv-x="0" d="M-496 770h98q18 -43 68 -43q54 0 62 43h102q-2 -62 -47.5 -100.5t-116.5 -38.5q-74 0 -118 36.5t-48 102.5z" />
<glyph unicode="&#x307;" horiz-adv-x="0" d="M-396 634v133h133v-133h-133z" />
<glyph unicode="&#x308;" horiz-adv-x="0" d="M-506 634v133h133v-133h-133zM-296 634v133h133v-133h-133z" />
<glyph unicode="&#x309;" horiz-adv-x="0" d="M-458 754q3 61 39 90t90 29t91 -31.5t37 -77.5t-58 -85q-21 -14 -26.5 -26.5t-5.5 -44.5h-85v15q0 40 14 62.5t55 50.5q21 15 21 30q0 14 -12.5 23t-32.5 9q-36 0 -43 -44h-84z" />
<glyph unicode="&#x30a;" horiz-adv-x="0" d="M-443 710q0 47 33 80t81 33q46 0 79 -33t33 -80t-33 -80t-80 -33t-80 33t-33 80zM-370 710q0 -16 12 -28t28 -12t28 12t12 28t-12 28t-28 12t-28 -12t-12 -28z" />
<glyph unicode="&#x30b;" horiz-adv-x="0" d="M-516 663l210 143l62 -80l-222 -132zM-253 663l211 143l61 -80l-221 -132z" />
<glyph unicode="&#x30c;" horiz-adv-x="0" d="M-529 769h145l53 -64l54 64h147l-147 -138h-107z" />
<glyph unicode="&#x30f;" horiz-adv-x="0" d="M-679 726l61 80l211 -143l-51 -69zM-416 726l62 80l210 -143l-50 -69z" />
<glyph unicode="&#x311;" horiz-adv-x="0" d="M-496 631q2 62 47.5 100.5t116.5 38.5q74 0 118 -36.5t48 -102.5h-98q-18 43 -68 43q-54 0 -62 -43h-102z" />
<glyph unicode="&#x323;" horiz-adv-x="0" d="M-396 -79h133v-133h-133v133z" />
<glyph unicode="&#x326;" horiz-adv-x="0" d="M-434 -245l58 192h104l-58 -192h-104z" />
<glyph unicode="&#x32e;" horiz-adv-x="0" d="M-495 -76h98q18 -43 68 -43q54 0 62 43h102q-2 -62 -47.5 -100.5t-116.5 -38.5q-74 0 -118 36.5t-48 102.5z" />
<glyph unicode="&#x32f;" horiz-adv-x="0" d="M-495 -215q2 62 47.5 100.5t116.5 38.5q74 0 118 -36.5t48 -102.5h-98q-18 43 -68 43q-54 0 -62 -43h-102z" />
<glyph unicode="&#x330;" horiz-adv-x="0" d="M-496 -134q26 26 49 36.5t54 10.5q12 0 52.5 -12.5t54.5 -12.5q37 0 67 34l54 -81q-45 -55 -94 -55q-13 0 -58.5 12.5t-54.5 12.5q-18 0 -29.5 -4t-40.5 -21z" />
<glyph unicode="&#x331;" horiz-adv-x="0" d="M-466 -96h277v-100h-277v100z" />
<glyph unicode="&#x332;" horiz-adv-x="0" d="M-466 -96h277v-100h-277v100z" />
<glyph unicode="&#x391;" horiz-adv-x="740" d="M7 0l308 739h108l310 -739h-151l-79 191h-263l-82 -191h-151zM290 322h158l-79 224z" />
<glyph unicode="&#x392;" horiz-adv-x="580" d="M68 0v739h152q83 0 125 -7.5t75 -28.5q84 -54 84 -161q0 -52 -19 -84t-63 -55q69 -29 97.5 -72t28.5 -111q0 -104 -71.5 -162t-211.5 -58h-197zM205 131h68q72 0 104.5 22t32.5 70q0 97 -140 97h-65v-189zM205 454h44q62 0 90 18t28 58q0 75 -106 75h-56v-151z" />
<glyph unicode="&#x393;" horiz-adv-x="480" d="M68 0v739h376v-131h-239v-608h-137z" />
<glyph unicode="&#x394;" horiz-adv-x="647" d="M-3 -1l271 684h114l270 -684h-655zM194 134h261l-130 361z" />
<glyph unicode="&#x395;" horiz-adv-x="520" d="M68 0v739h397v-131h-260v-174h249v-131h-249v-172h260v-131h-397z" />
<glyph unicode="&#x396;" horiz-adv-x="500" d="M18 0v116l280 492h-265v131h428v-123l-278 -485h297v-131h-462z" />
<glyph unicode="&#x397;" horiz-adv-x="680" d="M68 0v739h137v-298h264v298h137v-739h-137v310h-264v-310h-137z" />
<glyph unicode="&#x398;" horiz-adv-x="840" d="M30 369q0 162 112.5 272.5t277.5 110.5q158 0 269 -112t111 -270q0 -162 -110 -272.5t-271 -110.5q-163 0 -276 111t-113 271zM168 369q0 -105 72.5 -177.5t177.5 -72.5t174.5 71t69.5 178q0 106 -70.5 179t-173.5 73q-107 0 -178.5 -72t-71.5 -179zM275 301v138h280 v-138h-280z" />
<glyph unicode="&#x399;" horiz-adv-x="280" d="M68 0v739h137v-739h-137z" />
<glyph unicode="&#x39a;" horiz-adv-x="620" d="M68 0v739h137v-319l229 319h165l-278 -363l278 -376h-165l-229 325v-325h-137z" />
<glyph unicode="&#x39b;" horiz-adv-x="740" d="M7 0l308 739h108l310 -739h-151l-213 546l-211 -546h-151z" />
<glyph unicode="&#x39c;" horiz-adv-x="900" d="M68 0v739h188l199 -560l197 560h188v-739h-137v554l-193 -554h-112l-193 554v-554h-137z" />
<glyph unicode="&#x39d;" horiz-adv-x="740" d="M68 0v739h156l306 -538v538h137v-739h-153l-309 537v-537h-137z" />
<glyph unicode="&#x39e;" horiz-adv-x="680" d="M69 0v138h542v-138h-542zM69 601v138h542v-138h-542zM207 301v138h266v-138h-266z" />
<glyph unicode="&#x39f;" horiz-adv-x="840" d="M30 369q0 162 112.5 272.5t277.5 110.5q158 0 269 -112t111 -270q0 -162 -110 -272.5t-271 -110.5q-163 0 -276 111t-113 271zM168 369q0 -105 72.5 -177.5t177.5 -72.5t174.5 71t69.5 178q0 106 -70.5 179t-173.5 73q-107 0 -178.5 -72t-71.5 -179z" />
<glyph unicode="&#x3a0;" horiz-adv-x="629" d="M56 0v684h512v-684h-141v549h-230v-549h-141z" />
<glyph unicode="&#x3a1;" horiz-adv-x="560" d="M68 0v739h183q132 0 189 -34q100 -61 100 -194q0 -64 -26 -116.5t-71 -80.5q-31 -19 -73 -26t-121 -7h-44v-281h-137zM205 412h40q89 0 123 23.5t34 73.5q0 57 -34.5 78t-116.5 21h-46v-196z" />
<glyph unicode="&#x3a3;" horiz-adv-x="462" d="M9 115l138 236l-126 211v122h410v-135h-240l118 -198l-129 -217h271v-134h-441z" />
<glyph unicode="&#x3a4;" horiz-adv-x="420" d="M7 608v131h411v-131h-137v-608h-137v608h-137z" />
<glyph unicode="&#x3a5;" horiz-adv-x="620" d="M3 739h148l164 -340l163 340h148l-243 -466v-273h-137v273z" />
<glyph unicode="&#x3a6;" horiz-adv-x="698" d="M54 370q0 92 65 159.5t162 86.5v123h137v-123q97 -19 161.5 -86.5t64.5 -159.5q0 -93 -64.5 -160.5t-162.5 -86.5l1 -123h-137v123q-98 19 -162.5 86.5t-64.5 160.5zM192 370q0 -37 24.5 -64.5t64.5 -40.5l-1 209q-40 -13 -64 -40t-24 -64zM418 265q40 13 64 40.5 t24 64.5t-24 64t-64 40v-209z" />
<glyph unicode="&#x3a7;" horiz-adv-x="680" d="M5 0l254 368l-254 371h163l172 -258l177 258h159l-256 -371l256 -368h-159l-177 255l-172 -255h-163z" />
<glyph unicode="&#x3a8;" horiz-adv-x="852" d="M54 554v185h138v-185q0 -71 47 -125.5t119 -73.5v384h137v-384q72 19 118.5 73.5t46.5 125.5v185h138v-185q0 -128 -87 -223t-216 -117v-214h-137v214q-130 22 -217 117t-87 223z" />
<glyph unicode="&#x3a9;" horiz-adv-x="771" d="M20 338q0 150 107 254q107 105 257 105q151 0 257 -104q107 -104 107 -254q0 -61 -19.5 -116.5t-55.5 -85.5h59v-138h-249l-15 135q61 27 100.5 81t39.5 124q0 93 -66 158q-64 62 -150 65l1 -2q-101 0 -166.5 -64t-65.5 -158q0 -70 39 -123.5t101 -80.5l-15 -135h-253 v138h62q-36 30 -55.5 84.5t-19.5 116.5z" />
<glyph unicode="&#x3b1;" horiz-adv-x="738" d="M54 249q0 129 74.5 223.5t188.5 94.5q103 0 179 -87q10 40 28 74h160q-24 -41 -37.5 -92t-24.5 -116t-20 -99q8 -37 15 -59t22 -42.5t34 -20.5v-138q-93 0 -154 99q-84 -99 -202 -99q-109 0 -186 76.5t-77 185.5zM192 249q0 -52 36.5 -88t88.5 -36q49 0 85.5 35.5 t56.5 91.5q-42 177 -142 177q-58 0 -91.5 -53.5t-33.5 -126.5z" />
<glyph unicode="&#x3b2;" horiz-adv-x="540" d="M25 -189q29 100 29 189v554q0 87 66 146.5t158 59.5q83 0 139 -66.5t56 -157.5q0 -89 -62 -153q75 -67 75 -169q0 -96 -60 -165.5t-148 -69.5q-40 0 -86 13q-2 -102 -23 -181h-144zM192 125q32 -8 86 -8q32 0 51 29t19 68q0 43 -24.5 74t-62.5 31v122q33 0 53.5 28.5 t20.5 66.5q0 35 -15 60.5t-42 25.5q-35 0 -60.5 -19t-25.5 -49v-429z" />
<glyph unicode="&#x3b3;" horiz-adv-x="531" d="M-26 554h190q109 -115 159 -285l114 285h148l-226 -567v-161h-138v174q0 293 -247 554z" />
<glyph unicode="&#x3b4;" horiz-adv-x="697" d="M54 277q0 90 52 164t135 106l-124 86l35 113h384v-124h-183q90 -53 170 -111q56 -40 88 -102.5t32 -135.5q0 -117 -87 -201.5t-208 -84.5q-122 0 -208 85t-86 205zM188 279q0 -71 47 -120.5t114 -49.5q66 0 113 49t47 119q0 69 -47 118.5t-114 49.5q-65 0 -112.5 -49 t-47.5 -117z" />
<glyph unicode="&#x3b5;" horiz-adv-x="571" d="M54 176q0 76 69 124q-56 42 -56 110q0 81 62 136.5t147 55.5q94 0 232 -44l-38 -118q-76 24 -194 24q-28 0 -49.5 -15t-21.5 -39q0 -12 7 -20.5t22 -14t29 -8.5t39 -4t39.5 -1.5t41.5 -0.5v-124q-29 0 -45 -0.5t-42.5 -2t-41.5 -5.5t-31 -10t-23.5 -17t-7.5 -26 q0 -38 32.5 -61.5t77.5 -23.5q117 0 181 21l38 -118q-127 -41 -219 -41q-101 0 -174.5 64t-73.5 159z" />
<glyph unicode="&#x3b6;" horiz-adv-x="469" d="M54 277q0 188 126 338h-126v124h361v-124h-51q-82 -56 -127 -146t-45 -192q0 -33 1 -50.5t5.5 -41.5t16.5 -35.5t31 -11.5h24q63 0 100.5 -56.5t37.5 -133.5v-122h-124v122q0 52 -14 52h-24q-89 0 -140.5 82.5t-51.5 194.5z" />
<glyph unicode="&#x3b7;" horiz-adv-x="550" d="M54 0v554h138v-13q47 26 98 26q85 0 145.5 -57.5t60.5 -140.5v-543h-138v543q0 26 -20 43t-48 17q-36 0 -61.5 -26.5t-36.5 -68.5v-334h-138z" />
<glyph unicode="&#x3b8;" horiz-adv-x="554" d="M54 342q0 80 11 148.5t35.5 129.5t69.5 96.5t107 35.5t107 -35.5t69.5 -96.5t35.5 -129.5t11 -148.5q0 -92 -23 -170.5t-75 -131.5t-125 -53t-125 53t-75 131.5t-23 170.5zM193 273q3 -69 21 -108.5t63 -39.5t63 39.5t21 108.5h-168zM193 411h168q-1 60 -7 100.5 t-25 71.5t-52 31t-52 -31t-25 -71.5t-7 -100.5z" />
<glyph unicode="&#x3b9;" horiz-adv-x="415" d="M108 222v332h138v-332q0 -44 34 -74t81 -30v-138q-104 0 -178.5 70.5t-74.5 171.5z" />
<glyph unicode="&#x3ba;" horiz-adv-x="580" d="M54 0v554h133v-261l177 261h159l-198 -271l230 -283h-179l-189 259v-259h-133z" />
<glyph unicode="&#x3bb;" horiz-adv-x="650" d="M54 0l229 502l-10 30q-12 36 -41 59.5t-65 23.5v138q81 0 145.5 -49.5t91.5 -127.5l192 -576h-146l-103 310l-141 -310h-152z" />
<glyph unicode="&#x3bc;" horiz-adv-x="576" d="M54 -174v728h138v-330q24 -92 96 -92t96 92v330h138v-554h-138v22q-42 -28 -96 -28t-96 28v-196h-138z" />
<glyph unicode="&#x3bd;" horiz-adv-x="512" d="M25 554h142l87 -385q66 89 66 200q0 90 -14 185h140q12 -92 12 -185q0 -117 -54 -220.5t-151 -170.5l-106 41z" />
<glyph unicode="&#x3be;" horiz-adv-x="470" d="M54 242q0 102 87 169q-74 53 -74 135q0 38 15 69h-28v124h362v-124h-159q-52 -21 -52 -69q0 -68 142 -68v-125q-63 0 -109 -30t-46 -81q0 -104 54 -104h25q63 0 100.5 -56.5t37.5 -133.5v-122h-124v122q0 52 -14 52h-25q-84 0 -138 72t-54 170z" />
<glyph unicode="&#x3bf;" d="M30 277q0 119 86 204.5t207 85.5q125 0 210.5 -85t85.5 -209q0 -117 -87 -201.5t-208 -84.5q-122 0 -208 85t-86 205zM164 279q0 -71 47 -120.5t114 -49.5q66 0 113 49t47 119q0 69 -47 118.5t-114 49.5q-65 0 -112.5 -49t-47.5 -117z" />
<glyph unicode="&#x3c0;" horiz-adv-x="708" d="M54 369q0 76 50 130.5t123 54.5h427v-138h-78v-416h-138v416h-60v-416h-138v416h-13q-16 0 -25.5 -14t-9.5 -33h-138z" />
<glyph unicode="&#x3c1;" horiz-adv-x="604" d="M54 -174v451q0 118 71 204t177 86t177 -86t71 -204t-71 -204t-177 -86q-60 0 -110 29v-190h-138zM192 164q39 -39 110 -39q50 0 80 45.5t30 106.5t-30 106.5t-80 45.5t-80 -45.5t-30 -106.5v-113z" />
<glyph unicode="&#x3c2;" horiz-adv-x="541" d="M54 284q0 114 65.5 198.5t165.5 84.5q78 0 134 -55t61 -135l-124 -7q-1 26 -22 42.5t-49 16.5q-45 0 -69 -43t-24 -102q0 -60 24 -103t69 -43h33q70 0 116 -56.5t46 -133.5v-122h-124v122q0 21 -10.5 36.5t-27.5 15.5h-33q-101 0 -166 84.5t-65 199.5z" />
<glyph unicode="&#x3c3;" horiz-adv-x="732" d="M54 277q0 119 86 204.5t207 85.5q39 0 73 -9q99 15 229 72l56 -126q-58 -26 -130 -41q68 -81 68 -190q0 -117 -87 -201.5t-208 -84.5q-122 0 -208 85t-86 205zM188 279q0 -71 47 -120.5t114 -49.5q66 0 113 49t47 119q0 69 -47 118.5t-114 49.5q-65 0 -112.5 -49 t-47.5 -117z" />
<glyph unicode="&#x3c4;" horiz-adv-x="390" d="M54 416v138h282v-138h-72v-194q0 -40 20 -69t52 -29v-138q-89 0 -149.5 70t-60.5 166v194h-72z" />
<glyph unicode="&#x3c5;" horiz-adv-x="550" d="M54 185v369h138v-369q0 -26 21 -43t49 -17q43 0 69.5 37.5t26.5 87.5q0 145 -27 304h140q25 -147 25 -304q0 -107 -67.5 -185t-166.5 -78q-85 0 -146.5 57.5t-61.5 140.5z" />
<glyph unicode="&#x3c6;" horiz-adv-x="797" d="M53 277q0 90 48 166.5t129 116.5l60 -124q-45 -23 -72 -65.5t-27 -93.5q0 -54 38.5 -91.5t99.5 -52.5l1 117q0 82 21.5 152.5t69.5 117.5t115 47q95 0 151 -86.5t56 -203.5q0 -109 -79 -186.5t-197 -97.5l1 -167h-138v167q-118 19 -197.5 97t-79.5 187zM468 133 q60 15 98.5 53t38.5 91q0 32 -2 55t-9 47t-21.5 37t-36.5 13q-24 0 -39 -14.5t-20.5 -46t-7 -54t-1.5 -64.5v-117z" />
<glyph unicode="&#x3c7;" horiz-adv-x="637" d="M54 -174l187 364l-187 364h156l109 -213l109 213h156l-187 -364l187 -364h-156l-109 213l-109 -213h-156z" />
<glyph unicode="&#x3c8;" horiz-adv-x="797" d="M55 185v369h138v-369q0 -22 20.5 -35t48 -17.5t68.5 -6.5v613h138v-613q41 2 68.5 6.5t48 17.5t20.5 35v369h138v-369q0 -88 -77.5 -136t-197.5 -59v-164h-138v164q-120 11 -197.5 59t-77.5 136z" />
<glyph unicode="&#x3c9;" horiz-adv-x="771" d="M54 305q0 121 48 249h134q-44 -112 -44 -249q0 -28 0.5 -42.5t2 -39.5t5.5 -39t10.5 -29.5t17.5 -22.5t26 -7q38 0 52 34t17 94q-6 46 -6 116h138q0 -37 0.5 -56.5t2 -53.5t5.5 -53.5t10.5 -40.5t17.5 -30.5t26 -9.5t26 7t17.5 22.5t10.5 29.5t5.5 39t2 39.5t0.5 42.5 q0 137 -44 249h134q48 -128 48 -249q0 -83 -20.5 -153t-67 -117.5t-112.5 -47.5q-84 0 -132 71q-51 -71 -131 -71q-66 0 -112.5 47.5t-67 117.5t-20.5 153z" />
<glyph unicode="&#x3d1;" horiz-adv-x="619" d="M54 222v147h138v-147q0 -39 23.5 -68t59.5 -29t59.5 29t23.5 68v167q-63 6 -111 19t-89 35.5t-62.5 60t-21.5 87.5q0 86 58.5 148t142.5 62q94 0 157.5 -73t63.5 -174v-48l69 -1v-124l-69 1v-160q0 -97 -64 -166t-157 -69t-157 69t-64 166zM198 591q0 -65 160 -79v42 q0 50 -22 86.5t-61 36.5q-33 0 -55 -25.5t-22 -60.5z" />
<glyph unicode="&#x3d5;" d="M30 277q0 101 64 180t162 102v180h138v-180q99 -23 162 -102t63 -184q0 -99 -64 -176.5t-161 -101.5v-169h-138v169q-98 23 -162 101.5t-64 180.5zM164 279q0 -51 25 -92t67 -62v304q-41 -21 -66.5 -61t-25.5 -89zM394 125q41 21 66 61.5t25 90.5q0 49 -25 89.5t-66 61.5 v-303z" />
<glyph unicode="&#x3d6;" horiz-adv-x="771" d="M54 305q0 121 48 249h134q-44 -112 -44 -249q0 -28 0.5 -42.5t2 -39.5t5.5 -39t10.5 -29.5t17.5 -22.5t26 -7q38 0 52 34t17 94q-6 46 -6 116h138q0 -37 0.5 -56.5t2 -53.5t5.5 -53.5t10.5 -40.5t17.5 -30.5t26 -9.5t26 7t17.5 22.5t10.5 29.5t5.5 39t2 39.5t0.5 42.5 q0 56 -3 100t-13 93t-26.5 81t-46.5 53t-71 21q-123 0 -223 -60l-63 107q133 78 286 78q74 0 133 -40.5t94 -108.5t53 -151t18 -173q0 -83 -20.5 -153t-67 -117.5t-112.5 -47.5q-84 0 -132 71q-51 -71 -131 -71q-66 0 -112.5 47.5t-67 117.5t-20.5 153z" />
<glyph unicode="&#x3f5;" d="M30 277q0 122 84.5 206t207.5 84q83 0 151.5 -39.5t107.5 -111.5h-167q-37 29 -92 29q-53 0 -92.5 -29t-55.5 -77h253v-124h-252q17 -48 57 -77t93 -29t89 29l168 1q-39 -73 -105.5 -112.5t-150.5 -39.5q-123 0 -209.5 84.5t-86.5 205.5z" />
<glyph unicode="&#x400;" horiz-adv-x="519" d="M68 0v739h467v-131h-330v-174h319v-131h-319v-172h330v-131h-467zM76 936l57 88l222 -133l-53 -79z" />
<glyph unicode="&#x401;" horiz-adv-x="519" d="M68 0v739h467v-131h-330v-174h319v-131h-319v-172h330v-131h-467zM130 812v133h133v-133h-133zM340 812v133h133v-133h-133z" />
<glyph unicode="&#x402;" horiz-adv-x="420" d="M7 608v131h411v-131h-137v-123h218q64 0 123.5 -57.5t59.5 -122.5v-300q0 -65 -59.5 -122.5t-123.5 -57.5h-88v130h35q40 0 69.5 32.5t29.5 72.5v190q0 40 -29.5 72.5t-69.5 32.5h-165v-355h-137v608h-137z" />
<glyph unicode="&#x403;" horiz-adv-x="467" d="M68 0v739h447v-131h-310v-608h-137zM240 890l224 134l54 -92l-227 -120z" />
<glyph unicode="&#x404;" horiz-adv-x="782" d="M30 372q0 157 111.5 268.5t268.5 111.5q140 0 245 -85q37 -31 60 -61.5t45 -78.5h-153q-38 49 -84 71t-110 22q-84 3 -149 -48t-87 -131h368v-131h-370q20 -83 88 -137t153 -54q54 0 96 20t87 67h161q-43 -101 -135.5 -160t-205.5 -59q-162 0 -275.5 112.5t-113.5 272.5z " />
<glyph unicode="&#x405;" horiz-adv-x="520" d="M14 211h143q9 -92 100 -92q44 0 72 25t28 65q0 47 -34 75q-25 19 -128 57q-74 28 -114 79.5t-40 121.5q0 88 63 149t152 61q110 0 173 -79q42 -51 46 -131h-142q-3 38 -23 58t-55 20q-34 0 -55 -21t-21 -54q0 -41 41 -67q11 -7 82 -33q89 -33 125 -67q66 -61 66 -154 q0 -100 -68 -168.5t-168 -68.5q-59 0 -110.5 23.5t-84.5 66.5q-41 53 -48 134z" />
<glyph unicode="&#x406;" horiz-adv-x="280" d="M68 0v739h137v-739h-137z" />
<glyph unicode="&#x407;" horiz-adv-x="280" d="M-35 812v133h133v-133h-133zM68 0v739h137v-739h-137zM175 812v133h133v-133h-133z" />
<glyph unicode="&#x408;" horiz-adv-x="480" d="M9 175h137q14 -56 65 -56q66 0 66 97v523h137v-527q0 -104 -53.5 -164.5t-146.5 -60.5q-97 0 -158 67q-22 25 -32 51t-15 70z" />
<glyph unicode="&#x409;" horiz-adv-x="1023" d="M7 0l286 739h112l108 -281h187q79 0 121 -7t73 -26q45 -28 71 -80.5t26 -116.5q0 -133 -100 -194q-57 -34 -189 -34h-153l-199 562l-215 -562h-128zM563 327l76 -196h63q56 0 87 7q30 8 47 32.5t17 59.5q0 55 -45 80q-32 17 -112 17h-133z" />
<glyph unicode="&#x40a;" horiz-adv-x="973" d="M68 0v739h137v-298h264v298h137v-281h44q79 0 121 -7t73 -26q45 -28 71 -80.5t26 -116.5q0 -133 -100 -194q-57 -34 -189 -34h-183v310h-264v-310h-137zM606 131h46q56 0 87 7q30 8 47 32.5t17 59.5q0 55 -45 80q-32 17 -112 17h-40v-196z" />
<glyph unicode="&#x40b;" horiz-adv-x="420" d="M7 608v131h411v-131h-137v-123h218q64 0 123.5 -57.5t59.5 -122.5v-305h-137v250q0 40 -29.5 72.5t-69.5 32.5h-165v-355h-137v608h-137z" />
<glyph unicode="&#x40c;" horiz-adv-x="606" d="M68 0v739h137v-319l229 319h157l-270 -363l270 -376h-157l-229 325v-325h-137zM278 890l224 134l54 -92l-227 -120z" />
<glyph unicode="&#x40d;" horiz-adv-x="735" d="M68 0v739h137v-538l306 538h156v-739h-137v537l-309 -537h-153zM142 936l57 88l222 -133l-53 -79z" />
<glyph unicode="&#x40e;" horiz-adv-x="637" d="M12 739h143l164 -340l163 340h148l-354 -739h-154l128 273zM156 951h98q18 -43 68 -43q54 0 62 43h102q-2 -62 -47.5 -100.5t-116.5 -38.5q-74 0 -118 36.5t-48 102.5z" />
<glyph unicode="&#x40f;" horiz-adv-x="674" d="M68 0v739h137v-608h264v608h137v-739h-194v-158h-144v158h-200z" />
<glyph unicode="&#x410;" horiz-adv-x="740" d="M7 0l308 739h108l310 -739h-151l-79 191h-263l-82 -191h-151zM290 322h158l-79 224z" />
<glyph unicode="&#x411;" horiz-adv-x="572" d="M68 0v739h508v-130h-371v-94h110q152 0 238.5 -61.5t86.5 -191.5q0 -262 -325 -262h-247zM205 131h116q73 0 128 34.5t55 96.5q0 57 -55 89.5t-125 32.5h-119v-253z" />
<glyph unicode="&#x412;" horiz-adv-x="580" d="M68 0v739h233q232 0 232 -197q0 -54 -18 -93.5t-52 -54.5q45 -14 79.5 -55t34.5 -119q0 -108 -71 -164t-205 -56h-233zM205 131h96q72 0 105 21.5t33 69.5q0 98 -138 98h-96v-189zM205 454h96q42 0 68.5 19t26.5 57t-26.5 56.5t-68.5 18.5h-96v-151z" />
<glyph unicode="&#x413;" horiz-adv-x="467" d="M68 0v739h447v-131h-310v-608h-137z" />
<glyph unicode="&#x414;" horiz-adv-x="823" d="M37 -130v261h82l235 608h112l238 -607h82v-262h-122v130h-505v-130h-122zM259 131h305l-153 431z" />
<glyph unicode="&#x415;" horiz-adv-x="519" d="M68 0v739h467v-131h-330v-174h319v-131h-319v-172h330v-131h-467z" />
<glyph unicode="&#x416;" horiz-adv-x="939" d="M15 0l270 376l-270 363h157l229 -319v319h137v-319l229 319h157l-270 -363l270 -376h-157l-229 325v-325h-137v325l-229 -325h-157z" />
<glyph unicode="&#x417;" horiz-adv-x="680" d="M29 214h136q17 -36 65 -66t132 -30q85 0 131.5 28t46.5 79q0 94 -138 94l-113 1v141h112q96 0 96 79q0 32 -40.5 53.5t-91.5 21.5q-77 0 -114 -20.5t-56 -55.5h-137q1 4 3.5 12t12 30t23 42t38 44.5t54 42.5t74 30t95.5 12q117 0 196.5 -57.5t79.5 -142.5 q0 -58 -20 -103.5t-62 -60.5q56 -9 91 -57t35 -116q0 -96 -75.5 -162t-235.5 -66q-75 0 -137 23.5t-97.5 56.5t-60.5 66.5t-34 56.5z" />
<glyph unicode="&#x418;" horiz-adv-x="735" d="M68 0v739h137v-538l306 538h156v-739h-137v537l-309 -537h-153z" />
<glyph unicode="&#x419;" horiz-adv-x="735" d="M68 0v739h137v-538l306 538h156v-739h-137v537l-309 -537h-153zM188 894h98q18 -43 68 -43q54 0 62 43h102q-2 -62 -47.5 -100.5t-116.5 -38.5q-74 0 -118 36.5t-48 102.5z" />
<glyph unicode="&#x41a;" horiz-adv-x="606" d="M68 0v739h137v-319l229 319h157l-270 -363l270 -376h-157l-229 325v-325h-137z" />
<glyph unicode="&#x41b;" horiz-adv-x="700" d="M7 0l286 739h112l288 -739h-124l-219 562l-208 -562h-135z" />
<glyph unicode="&#x41c;" horiz-adv-x="908" d="M68 0v739h188l199 -560l197 560h188v-739h-137v554l-193 -554h-112l-193 554v-554h-137z" />
<glyph unicode="&#x41d;" horiz-adv-x="684" d="M68 0v739h137v-298h264v298h137v-739h-137v310h-264v-310h-137z" />
<glyph unicode="&#x41e;" horiz-adv-x="850" d="M40 369q0 162 112.5 272.5t277.5 110.5q158 0 269 -112t111 -270q0 -162 -110 -272.5t-271 -110.5q-163 0 -276 111t-113 271zM178 369q0 -105 72.5 -177.5t177.5 -72.5t174.5 71t69.5 178q0 106 -70.5 179t-173.5 73q-107 0 -178.5 -72t-71.5 -179z" />
<glyph unicode="&#x41f;" horiz-adv-x="674" d="M68 0v739h538v-739h-137v608h-264v-608h-137z" />
<glyph unicode="&#x420;" horiz-adv-x="572" d="M68 0v739h183q132 0 189 -34q100 -61 100 -194q0 -64 -26 -116.5t-71 -80.5q-31 -19 -73 -26t-121 -7h-44v-281h-137zM205 412h40q80 0 112 17q45 25 45 80q0 35 -17 59.5t-47 32.5q-31 7 -87 7h-46v-196z" />
<glyph unicode="&#x421;" horiz-adv-x="800" d="M40 372q0 157 111.5 268.5t268.5 111.5q140 0 245 -85q37 -31 60 -61.5t45 -78.5h-153q-38 49 -84 71t-110 22q-115 0 -184 -81q-61 -71 -61 -168q0 -104 73 -178t175 -74q54 0 96 20t87 67h161q-43 -101 -135.5 -160t-205.5 -59q-162 0 -275.5 112.5t-113.5 272.5z" />
<glyph unicode="&#x422;" horiz-adv-x="420" d="M7 608v131h511v-131h-187v-608h-137v608h-187z" />
<glyph unicode="&#x423;" horiz-adv-x="637" d="M12 739h143l164 -340l163 340h148l-354 -739h-154l128 273z" />
<glyph unicode="&#x424;" horiz-adv-x="945" d="M40 383q0 161 112 272t276 111v28h137v-28q157 0 268.5 -112t111.5 -270q0 -161 -110 -272.5t-270 -111.5v-42h-137v42q-162 0 -275 112t-113 271zM178 383q0 -104 73 -177t177 -73v501q-107 0 -178.5 -72t-71.5 -179zM565 133q104 0 173 71.5t69 177.5t-70 179t-172 73 v-501z" />
<glyph unicode="&#x425;" horiz-adv-x="685" d="M7 0l254 368l-254 371h163l172 -258l177 258h159l-256 -371l256 -368h-159l-177 255l-172 -255h-163z" />
<glyph unicode="&#x426;" horiz-adv-x="726" d="M68 0v739h137v-608h264v608h137v-608h142v-271h-122v140h-558z" />
<glyph unicode="&#x427;" horiz-adv-x="654" d="M50 434v305h137v-250q0 -40 29.5 -72t69.5 -32h165v354h137v-739h-137v254h-218q-64 0 -123.5 57.5t-59.5 122.5z" />
<glyph unicode="&#x428;" horiz-adv-x="913" d="M68 0v739h137v-608h188v608h137v-608h188v608h127v-739h-777z" />
<glyph unicode="&#x429;" horiz-adv-x="965" d="M68 0v739h137v-608h188v608h137v-608h188v608h127v-608h142v-271h-122l-1 140h-796z" />
<glyph unicode="&#x42a;" horiz-adv-x="703" d="M7 608v131h308v-204h110q150 0 237.5 -66t87.5 -197q0 -133 -82 -202.5t-243 -69.5h-246v608h-172zM315 131h116q72 0 127.5 38.5t55.5 102.5q0 58 -55.5 95t-124.5 37h-119v-273z" />
<glyph unicode="&#x42b;" horiz-adv-x="802" d="M68 0v739h137v-204h110q150 0 237.5 -66t87.5 -197q0 -133 -82 -202.5t-243 -69.5h-247zM205 131h116q72 0 127.5 38.5t55.5 102.5q0 58 -55.5 95t-124.5 37h-119v-273zM707 0v739h137v-739h-137z" />
<glyph unicode="&#x42c;" horiz-adv-x="572" d="M68 0v739h137v-204h110q150 0 237.5 -66t87.5 -197q0 -133 -82 -202.5t-243 -69.5h-247zM205 131h116q72 0 127.5 38.5t55.5 102.5q0 58 -55.5 95t-124.5 37h-119v-273z" />
<glyph unicode="&#x42d;" horiz-adv-x="780" d="M20 206h161q45 -47 87 -67t96 -20q85 0 153 54t88 137h-370v131h368q-22 79 -87 129t-149 50q-64 0 -110 -22t-84 -71h-153q22 48 45 78.5t60 61.5q105 85 245 85q157 0 268.5 -111.5t111.5 -268.5q0 -160 -113.5 -272.5t-275.5 -112.5q-113 0 -205.5 59t-135.5 160z" />
<glyph unicode="&#x42e;" horiz-adv-x="1093" d="M68 0v739h137v-298h63q26 135 133 223t251 88q158 0 269 -112t111 -270q0 -162 -110 -272.5t-271 -110.5q-147 0 -255 92t-129 231h-62v-310h-137zM400 369q0 -105 72.5 -177.5t177.5 -72.5t174.5 71t69.5 178q0 106 -70.5 179t-173.5 73q-107 0 -178.5 -72t-71.5 -179z " />
<glyph unicode="&#x42f;" horiz-adv-x="598" d="M25 0l196 223q-87 25 -135 86.5t-48 157.5q0 133 82 202.5t243 69.5h247v-739h-137v204h-110l-169 -204h-169zM174 467q0 -58 55.5 -95t124.5 -37h119v273h-116q-72 0 -127.5 -38.5t-55.5 -102.5z" />
<glyph unicode="&#x430;" horiz-adv-x="669" d="M30 275q0 127 79.5 209.5t202.5 82.5q115 0 181 -87v74h122v-554h-122v72q-40 -45 -83 -65t-101 -20q-121 0 -200 81.5t-79 206.5zM164 272q0 -73 45.5 -118t118.5 -45q79 0 121 50q40 47 40 114q0 76 -46 124t-117 48t-116.5 -48.5t-45.5 -124.5z" />
<glyph unicode="&#x431;" horiz-adv-x="626" d="M32 277q0 47 1 80.5t7 82.5t16.5 83.5t31 74.5t48.5 66.5t71.5 48t98.5 29.5q52 0 113.5 10.5t96.5 21.5l36 10v-108q-128 -45 -246 -45q-39 -15 -67.5 -34t-39.5 -32t-20 -27t-11 -16q1 1 12.5 6t16.5 7l17.5 7t22 7t23.5 5t28.5 4.5t30.5 1.5q123 0 203.5 -81.5 t80.5 -206.5q0 -123 -79 -204t-199 -81q-127 0 -210 82.5t-83 207.5zM158 279q0 -71 47 -120.5t114 -49.5q66 0 113 49t47 119q0 69 -47 118.5t-114 49.5q-65 0 -112.5 -49t-47.5 -117z" />
<glyph unicode="&#x432;" horiz-adv-x="481" d="M54 0v547h225q82 0 123 -41.5t41 -94.5q0 -51 -34 -89q109 -43 109 -154q0 -80 -58 -124t-151 -44h-255zM186 354h81q24 0 39.5 11.5t15.5 32.5t-15.5 32.5t-39.5 11.5h-81v-88zM187 105h125q38 0 61.5 18t23.5 51q0 32 -23 50.5t-59 18.5h-128v-138z" />
<glyph unicode="&#x433;" horiz-adv-x="416" d="M54 0v554h360v-121h-227v-433h-133z" />
<glyph unicode="&#x434;" horiz-adv-x="610" d="M6 -120v251h76l170 423h106l170 -423h76v-251h-133v120h-331v-120h-134zM222 131h165l-82 236z" />
<glyph unicode="&#x435;" horiz-adv-x="632" d="M30 275q0 122 85 207t207 85q124 0 205 -84.5t81 -213.5q0 -27 -5 -51h-429q12 -50 53 -79.5t100 -29.5q41 0 68.5 12.5t53.5 42.5h145q-12 -37 -44 -77q-87 -100 -220 -100q-127 0 -213.5 83t-86.5 205zM170 335h307q-13 53 -52.5 81.5t-100.5 28.5q-121 0 -154 -110z " />
<glyph unicode="&#x436;" horiz-adv-x="874" d="M3 0l230 283l-198 271h159l177 -261v261h133v-261l177 261h159l-198 -271l230 -283h-179l-189 259v-259h-133v259l-189 -259h-179z" />
<glyph unicode="&#x437;" horiz-adv-x="470" d="M24 159h124q1 -2 3 -6.5t11.5 -15t21.5 -18.5t33.5 -14.5t47.5 -6.5q105 0 105 61q0 67 -98 67h-88v126h87q73 0 73 57q0 48 -79 48q-32 0 -55 -12t-30 -24l-7 -12h-109q1 6 4 16.5t17 36.5t34 45.5t59 36t88 16.5q95 0 139.5 -41t44.5 -102q0 -42 -20 -75t-48 -45 q48 -7 80 -48t32 -98q0 -73 -58 -118.5t-170 -45.5q-57 0 -102.5 17.5t-70.5 43t-41.5 51t-21.5 43.5z" />
<glyph unicode="&#x438;" horiz-adv-x="601" d="M54 0v554h133v-363l212 363h148v-554h-133v363l-212 -363h-148z" />
<glyph unicode="&#x439;" horiz-adv-x="601" d="M54 0v554h133v-363l212 363h148v-554h-133v363l-212 -363h-148zM131 727h98q18 -43 68 -43q54 0 62 43h102q-2 -62 -47.5 -100.5t-116.5 -38.5q-74 0 -118 36.5t-48 102.5z" />
<glyph unicode="&#x43a;" horiz-adv-x="557" d="M54 0v554h133v-261l177 261h154l-193 -271l216 -283h-165l-189 259v-259h-133z" />
<glyph unicode="&#x43b;" horiz-adv-x="557" d="M3 0l223 554h106l223 -554h-134l-142 367l-138 -367h-138z" />
<glyph unicode="&#x43c;" horiz-adv-x="775" d="M54 0v554h196l138 -367l137 367h196v-554h-133v367l-147 -367h-106l-148 367v-367h-133z" />
<glyph unicode="&#x43d;" horiz-adv-x="601" d="M54 0v554h133v-210h227v210h133v-554h-133v213h-227v-213h-133z" />
<glyph unicode="&#x43e;" horiz-adv-x="643" d="M30 277q0 119 86 204.5t207 85.5q125 0 210.5 -85t85.5 -209q0 -117 -87 -201.5t-208 -84.5q-122 0 -208 85t-86 205zM164 279q0 -71 47 -120.5t114 -49.5q66 0 113 49t47 119q0 69 -47 118.5t-114 49.5q-65 0 -112.5 -49t-47.5 -117z" />
<glyph unicode="&#x43f;" horiz-adv-x="601" d="M54 0v554h493v-554h-133v423h-227v-423h-133z" />
<glyph unicode="&#x440;" horiz-adv-x="658" d="M54 -185v739h122v-65q67 78 182 78q120 0 198 -81.5t78 -206.5q0 -126 -78.5 -209t-198.5 -83q-98 0 -170 65v-237h-133zM179 278q0 -73 46.5 -121t117.5 -48q66 0 111.5 48.5t45.5 118.5q0 72 -45.5 120.5t-113.5 48.5q-69 0 -115.5 -48t-46.5 -119z" />
<glyph unicode="&#x441;" horiz-adv-x="623" d="M30 277q0 122 84.5 206t207.5 84q120 0 204 -78q50 -46 75 -120h-150q-40 76 -129 76q-69 0 -113.5 -47t-44.5 -120t46 -121t115 -48q79 0 126 73h150q-35 -93 -106.5 -144t-168.5 -51q-123 0 -209.5 84.5t-86.5 205.5z" />
<glyph unicode="&#x442;" horiz-adv-x="369" d="M7 433v121h459v-121h-165v-433h-133v433h-161z" />
<glyph unicode="&#x443;" horiz-adv-x="566" d="M12 554h136l129 -359l151 359h136l-320 -739h-143l104 237z" />
<glyph unicode="&#x444;" horiz-adv-x="772" d="M30 293q0 119 86 204.5t206 85.5v51h133v-51q124 0 208.5 -85.5t84.5 -208.5q0 -116 -86.5 -201t-206.5 -85v-111h-133v111q-121 0 -206.5 85.5t-85.5 204.5zM163 295q0 -71 46 -120.5t113 -49.5v336q-65 0 -112 -49.5t-47 -116.5zM455 125q65 0 112 49.5t47 118.5 t-46.5 118.5t-112.5 49.5v-336z" />
<glyph unicode="&#x445;" horiz-adv-x="556" d="M2 0l196 286l-170 268h150l96 -159l108 159h144l-181 -268l182 -286h-147l-108 170l-110 -170h-160z" />
<glyph unicode="&#x446;" horiz-adv-x="676" d="M54 0v554h133v-423h227v423h133v-422h121v-261h-112v129h-502z" />
<glyph unicode="&#x447;" horiz-adv-x="572" d="M27 426v118h133v-118q0 -132 102 -132h103v250h133v-544h-133v173h-105q-62 0 -115.5 22.5t-80.5 63.5q-37 56 -37 167z" />
<glyph unicode="&#x448;" horiz-adv-x="747" d="M54 0v554h133v-423h120v423h133v-423h120v423h133v-554h-639z" />
<glyph unicode="&#x449;" horiz-adv-x="832" d="M54 0v554h133v-423h120v423h133v-423h120v423h133v-422h118v-261h-110v129h-647z" />
<glyph unicode="&#x44a;" horiz-adv-x="604" d="M7 424v130h320v-177h75q109 0 170.5 -48t61.5 -142q0 -87 -62.5 -137t-169.5 -50h-208v424h-187zM327 120h111q40 0 56.5 24t16.5 49q0 24 -17.5 47.5t-58.5 23.5h-108v-144z" />
<glyph unicode="&#x44b;" horiz-adv-x="679" d="M54 0v554h133v-177h75q109 0 170.5 -48t61.5 -142q0 -87 -62.5 -137t-169.5 -50h-208zM187 120h111q40 0 56.5 24t16.5 49q0 24 -17.5 47.5t-58.5 23.5h-108v-144zM547 0v554h133v-554h-133z" />
<glyph unicode="&#x44c;" horiz-adv-x="456" d="M54 0v554h133v-177h75q109 0 170.5 -48t61.5 -142q0 -87 -62.5 -137t-169.5 -50h-208zM187 120h111q40 0 56.5 24t16.5 49q0 24 -17.5 47.5t-58.5 23.5h-108v-144z" />
<glyph unicode="&#x44d;" horiz-adv-x="617" d="M22 182h150q47 -73 126 -73q52 0 92 28.5t58 75.5h-235v131h235q-17 46 -56.5 73.5t-90.5 27.5q-89 0 -129 -76h-150q25 74 75 120q84 78 204 78q123 0 207.5 -84t84.5 -206q0 -121 -86.5 -205.5t-209.5 -84.5q-97 0 -168.5 51t-106.5 144z" />
<glyph unicode="&#x44e;" horiz-adv-x="868" d="M53 0v554h133v-210h62q24 96 103.5 159.5t181.5 63.5q125 0 210.5 -85t85.5 -209q0 -117 -87 -201.5t-208 -84.5q-103 0 -183 64t-103 162h-62v-213h-133zM374 279q0 -71 47 -120.5t114 -49.5q66 0 113 49t47 119q0 69 -47 118.5t-114 49.5q-65 0 -112.5 -49t-47.5 -117z " />
<glyph unicode="&#x44f;" horiz-adv-x="461" d="M39 0l155 187q-140 37 -140 180q0 87 62.5 137t169.5 50h208v-554h-133v177h-39l-145 -177h-138zM177 361q0 -24 17.5 -47.5t58.5 -23.5h108v144h-111q-40 0 -56.5 -24t-16.5 -49z" />
<glyph unicode="&#x450;" horiz-adv-x="632" d="M30 275q0 122 85 207t207 85q124 0 205 -84.5t81 -213.5q0 -27 -5 -51h-429q12 -50 53 -79.5t100 -29.5q41 0 68.5 12.5t53.5 42.5h145q-12 -37 -44 -77q-87 -100 -220 -100q-127 0 -213.5 83t-86.5 205zM96 751l57 88l222 -133l-53 -79zM170 335h307q-13 53 -52.5 81.5 t-100.5 28.5q-121 0 -154 -110z" />
<glyph unicode="&#x451;" horiz-adv-x="632" d="M30 275q0 122 85 207t207 85q124 0 205 -84.5t81 -213.5q0 -27 -5 -51h-429q12 -50 53 -79.5t100 -29.5q41 0 68.5 12.5t53.5 42.5h145q-12 -37 -44 -77q-87 -100 -220 -100q-127 0 -213.5 83t-86.5 205zM155 630v133h133v-133h-133zM170 335h307q-13 53 -52.5 81.5 t-100.5 28.5q-121 0 -154 -110zM365 630v133h133v-133h-133z" />
<glyph unicode="&#x452;" horiz-adv-x="369" d="M13 577v100h76v78h133v-78h168v-100h-168v-112h179q63 0 119 -22.5t83 -63.5q37 -56 37 -167v-125q0 -111 -37 -167q-54 -83 -180 -88h-24v123q58 0 83 37.5t25 124.5v95q0 41 -12 69t-31.5 41t-37 17.5t-37.5 4.5h-167v-347h-133v580h-76z" />
<glyph unicode="&#x453;" horiz-adv-x="416" d="M54 0v554h360v-121h-227v-433h-133zM183 705l224 134l54 -92l-227 -120z" />
<glyph unicode="&#x454;" horiz-adv-x="615" d="M30 277q0 122 84.5 206t207.5 84q120 0 204 -78q50 -46 75 -120h-150q-40 76 -129 76q-51 0 -90.5 -27.5t-56.5 -73.5h235v-131h-235q18 -47 58 -75.5t92 -28.5q79 0 126 73h150q-35 -93 -106.5 -144t-168.5 -51q-123 0 -209.5 84.5t-86.5 205.5z" />
<glyph unicode="&#x455;" horiz-adv-x="440" d="M19 176h134q10 -35 27.5 -51t46.5 -16q26 0 43 15.5t17 38.5q0 27 -25 43q-16 10 -69 28q-83 28 -118.5 65.5t-35.5 98.5q0 71 53.5 120t130.5 49q87 0 142 -61q37 -41 40 -105h-130q-9 44 -52 44q-22 0 -36.5 -13.5t-14.5 -33.5q0 -25 27 -37q13 -6 67 -23 q74 -23 102 -47q52 -41 52 -115q0 -79 -57.5 -134t-140.5 -55q-50 0 -94.5 20.5t-71.5 56.5q-29 39 -37 112z" />
<glyph unicode="&#x456;" horiz-adv-x="240" d="M54 0v554h133v-554h-133zM54 614v125h133v-125h-133z" />
<glyph unicode="&#x457;" horiz-adv-x="240" d="M-52 627v133h133v-133h-133zM54 0v554h133v-554h-133zM158 627v133h133v-133h-133z" />
<glyph unicode="&#x458;" horiz-adv-x="260" d="M17 -56q37 7 46 22t9 74v514h133v-517q0 -119 -59 -174q-51 -48 -129 -48v129zM72 614v125h133v-125h-133z" />
<glyph unicode="&#x459;" horiz-adv-x="777" d="M3 0l223 554h106l83 -207q183 1 261 -36t79 -146q0 -90 -72 -134q-50 -31 -130 -31h-148l-126 367l-128 -367h-148zM461 234l45 -114h53q41 0 57 18t16 40t-17 39t-59 17h-95z" />
<glyph unicode="&#x45a;" horiz-adv-x="816" d="M54 0v554h133v-210h227v210h133v-207q246 2 247 -182q0 -90 -72 -134q-50 -31 -160 -31h-148v213h-227v-213h-133zM547 120h51q41 0 57 18t16 40t-17.5 39t-58.5 17h-48v-114z" />
<glyph unicode="&#x45b;" horiz-adv-x="369" d="M13 577v100h76v78h133v-78h168v-100h-168v-112h179q63 0 119 -22.5t83 -63.5q37 -56 37 -167v-215h-133v215q0 41 -12 69t-31.5 41t-37 17.5t-37.5 4.5h-167v-347h-133v580h-76z" />
<glyph unicode="&#x45c;" horiz-adv-x="557" d="M54 0v554h133v-261l177 261h154l-193 -271l216 -283h-165l-189 259v-259h-133zM235 705l224 134l54 -92l-227 -120z" />
<glyph unicode="&#x45d;" horiz-adv-x="601" d="M54 0v554h133v-363l212 363h148v-554h-133v363l-212 -363h-148zM74 751l57 88l222 -133l-53 -79z" />
<glyph unicode="&#x45e;" horiz-adv-x="566" d="M12 554h136l129 -359l151 359h136l-320 -739h-143l104 237zM123 766h98q18 -43 68 -43q54 0 62 43h102q-2 -62 -47.5 -100.5t-116.5 -38.5q-74 0 -118 36.5t-48 102.5z" />
<glyph unicode="&#x45f;" horiz-adv-x="601" d="M54 0v554h133v-423h227v423h133v-554h-171v-140h-146v140h-176z" />
<glyph unicode="&#x48c;" horiz-adv-x="572" d="M-4 559v100h72v80h137v-80h68v-100h-68v-101h44q79 0 121 -7t73 -26q45 -28 71 -80.5t26 -116.5q0 -133 -100 -194q-57 -34 -189 -34h-183v559h-72zM205 131h46q56 0 87 7q30 8 47 32.5t17 59.5q0 55 -45 80q-32 17 -112 17h-40v-196z" />
<glyph unicode="&#x48d;" horiz-adv-x="468" d="M6 400v100h61v54h133v-54h68v-100h-68v-53q246 2 247 -182q0 -90 -72 -134q-50 -31 -160 -31h-148v400h-61zM200 120h51q41 0 57 18t16 40t-17 39t-59 17h-48v-114z" />
<glyph unicode="&#x48e;" horiz-adv-x="572" d="M68 0v739h183q132 0 189 -34q100 -61 100 -194q0 -96 -53 -158l35 -35l-71 -70l-48 48q-48 -15 -154 -15h-44v-281h-137zM205 412h40q28 0 40 1l-30 31l71 70l60 -60q16 24 16 55q0 35 -17 59.5t-47 32.5q-31 7 -87 7h-46v-196z" />
<glyph unicode="&#x48f;" horiz-adv-x="658" d="M54 -185v739h122v-65q67 78 182 78q120 0 198 -81.5t78 -206.5q0 -103 -53 -178l53 -54l-70 -70l-55 54q-68 -44 -152 -44q-98 0 -170 65v-237h-133zM179 278q0 -73 46.5 -121t117.5 -48q39 0 71 17l-46 47l70 70l45 -44q17 36 17 77q0 72 -45.5 120.5t-113.5 48.5 q-69 0 -115.5 -48t-46.5 -119z" />
<glyph unicode="&#x490;" horiz-adv-x="467" d="M68 0v739l264 1v110h133v-242h-260v-608h-137z" />
<glyph unicode="&#x491;" horiz-adv-x="416" d="M54 0v554h229v104h131v-225h-227v-433h-133z" />
<glyph unicode="&#x492;" horiz-adv-x="467" d="M-1 409v100h69v230h397v-131h-260v-99h71v-100h-71v-409h-137v409h-69z" />
<glyph unicode="&#x493;" horiz-adv-x="416" d="M-8 250v100h62v204h360v-121h-227v-83h67v-100h-67v-250h-133v250h-62z" />
<glyph unicode="&#x494;" horiz-adv-x="467" d="M68 0v739h397v-131h-260v-608h-137z" />
<glyph unicode="&#x495;" horiz-adv-x="416" d="M54 0v554h360v-121h-227v-433h-133z" />
<glyph unicode="&#x496;" horiz-adv-x="939" d="M7 0l278 376l-278 363h165l229 -319v319h137v-319l229 319h165l-278 -363l278 -376h-165l-229 325v-325h-137v325l-229 -325h-165z" />
<glyph unicode="&#x497;" horiz-adv-x="874" d="M3 0l230 283l-198 271h159l177 -261v261h133v-261l177 261h159l-198 -271l230 -283h-179l-189 259v-259h-133v259l-189 -259h-179z" />
<glyph unicode="&#x498;" horiz-adv-x="568" d="M29 214h136q17 -36 65 -66t132 -30q85 0 131.5 28t46.5 79q0 94 -138 94l-113 1v141h112q96 0 96 79q0 32 -40.5 53.5t-91.5 21.5q-77 0 -114 -20.5t-56 -55.5h-137q1 4 3.5 12t12 30t23 42t38 44.5t54 42.5t74 30t95.5 12q117 0 196.5 -57.5t79.5 -142.5 q0 -58 -20 -103.5t-62 -60.5q56 -9 91 -57t35 -116q0 -89 -65.5 -153.5t-204.5 -73.5q64 -38 64 -93q0 -44 -32 -71.5t-84 -27.5q-32 0 -66 14v77q25 -10 41 -10q22 0 36 12t14 30q0 32 -49 69q-67 5 -122.5 30.5t-87.5 57.5t-54.5 63.5t-30.5 52.5z" />
<glyph unicode="&#x499;" horiz-adv-x="430" d="M24 159h124q1 -2 3 -6.5t11.5 -15t21.5 -18.5t33.5 -14.5t47.5 -6.5q105 0 105 61q0 67 -98 67h-88v126h87q73 0 73 57q0 48 -79 48q-32 0 -55 -12t-30 -24l-7 -12h-109q1 6 4 16.5t17 36.5t34 45.5t59 36t88 16.5q95 0 139.5 -41t44.5 -102q0 -42 -20 -75t-48 -45 q48 -7 80 -48t32 -98q0 -66 -47.5 -110t-140.5 -52q65 -39 65 -94q0 -44 -32 -71.5t-84 -27.5q-32 0 -66 14v77q25 -10 41 -10q22 0 36 12t14 30q0 32 -50 70q-48 5 -87 24.5t-60 43.5t-35.5 47.5t-19.5 39.5z" />
<glyph unicode="&#x49a;" horiz-adv-x="606" d="M68 0v739h137v-319l229 319h165l-278 -363l278 -376h-165l-229 325v-325h-137z" />
<glyph unicode="&#x49b;" horiz-adv-x="557" d="M54 0v554h133v-261l177 261h159l-198 -271l230 -283h-179l-189 259v-259h-133z" />
<glyph unicode="&#x49c;" horiz-adv-x="606" d="M68 0v739h137v-319l229 319h165l-278 -363l278 -376h-165l-229 325v-325h-137z" />
<glyph unicode="&#x49d;" horiz-adv-x="557" d="M54 0v554h133v-261l177 261h159l-198 -271l230 -283h-179l-189 259v-259h-133z" />
<glyph unicode="&#x49e;" horiz-adv-x="606" d="M-4 555v100h72v84h137v-84h68v-100h-68v-135l229 319h165l-278 -363l278 -376h-165l-229 325v-325h-137v555h-72z" />
<glyph unicode="&#x49f;" horiz-adv-x="557" d="M-8 414v100h62v40h133v-40h63v-100h-63v-121l177 261h159l-198 -271l230 -283h-179l-189 259v-259h-133v414h-62z" />
<glyph unicode="&#x4a0;" horiz-adv-x="606" d="M68 0v739h137v-319l229 319h165l-278 -363l278 -376h-165l-229 325v-325h-137z" />
<glyph unicode="&#x4a1;" horiz-adv-x="557" d="M54 0v554h133v-261l177 261h159l-198 -271l230 -283h-179l-189 259v-259h-133z" />
<glyph unicode="&#x4a2;" horiz-adv-x="674" d="M68 0v739h137v-298h264v298h137v-739h-137v310h-264v-310h-137z" />
<glyph unicode="&#x4a3;" horiz-adv-x="601" d="M54 0v554h133v-210h227v210h133v-554h-133v213h-227v-213h-133z" />
<glyph unicode="&#x4a4;" horiz-adv-x="674" d="M68 0v739h137v-298h264v298h137v-739h-137v310h-264v-310h-137z" />
<glyph unicode="&#x4a5;" horiz-adv-x="601" d="M54 0v554h133v-210h227v210h133v-554h-133v213h-227v-213h-133z" />
<glyph unicode="&#x4a6;" horiz-adv-x="674" d="M68 0v739h538v-739h-137v608h-264v-608h-137z" />
<glyph unicode="&#x4a7;" horiz-adv-x="601" d="M54 0v554h493v-554h-133v423h-227v-423h-133z" />
<glyph unicode="&#x4a8;" horiz-adv-x="800" d="M40 372q0 157 111.5 268.5t268.5 111.5q140 0 245 -85q37 -31 60 -61.5t45 -78.5h-153q-38 49 -84 71t-110 22q-115 0 -184 -81q-61 -71 -61 -168q0 -104 73 -178t175 -74q54 0 96 20t87 67h161q-43 -101 -135.5 -160t-205.5 -59q-162 0 -275.5 112.5t-113.5 272.5z" />
<glyph unicode="&#x4a9;" horiz-adv-x="623" d="M30 277q0 122 84.5 206t207.5 84q120 0 204 -78q50 -46 75 -120h-150q-40 76 -129 76q-69 0 -113.5 -47t-44.5 -120t46 -121t115 -48q79 0 126 73h150q-35 -93 -106.5 -144t-168.5 -51q-123 0 -209.5 84.5t-86.5 205.5z" />
<glyph unicode="&#x4aa;" horiz-adv-x="800" d="M40 372q0 157 111.5 268.5t268.5 111.5q140 0 245 -85q37 -31 60 -61.5t45 -78.5h-153q-38 49 -84 71t-110 22q-115 0 -184 -81q-61 -71 -61 -168q0 -104 73 -178t175 -74q54 0 96 20t87 67h161q-40 -91 -119.5 -148.5t-179.5 -68.5q65 -38 65 -94q0 -44 -32 -71.5 t-84 -27.5q-32 0 -66 14v77q25 -10 41 -10q22 0 36 12t14 30q0 32 -49 69q-151 13 -253.5 123t-102.5 261z" />
<glyph unicode="&#x4ab;" horiz-adv-x="623" d="M30 277q0 122 84.5 206t207.5 84q120 0 204 -78q50 -46 75 -120h-150q-40 76 -129 76q-69 0 -113.5 -47t-44.5 -120t46 -121t115 -48q79 0 126 73h150q-32 -84 -93.5 -134t-145.5 -59q65 -38 65 -94q0 -44 -32 -71.5t-84 -27.5q-32 0 -66 14v77q25 -10 41 -10q22 0 36 12 t14 30t-11 33.5t-40 37.5q-109 14 -182 95.5t-73 191.5z" />
<glyph unicode="&#x4ac;" horiz-adv-x="420" d="M7 608v131h411v-131h-137v-608h-137v608h-137z" />
<glyph unicode="&#x4ad;" horiz-adv-x="369" d="M7 433v121h360l-2 -121h-120v-433h-133v433h-105z" />
<glyph unicode="&#x4ae;" horiz-adv-x="620" d="M3 739h148l164 -340l163 340h148l-243 -466v-273h-137v273z" />
<glyph unicode="&#x4af;" horiz-adv-x="560" d="M1 554h148l128 -367l126 367h150l-223 -554h-106z" />
<glyph unicode="&#x4b0;" horiz-adv-x="620" d="M3 739h148l164 -340l163 340h148l-243 -466h74v-100h-74v-173h-137v173h-66v100h66z" />
<glyph unicode="&#x4b1;" horiz-adv-x="560" d="M1 554h148l128 -367l126 367h150l-223 -554h-106z" />
<glyph unicode="&#x4b2;" horiz-adv-x="685" d="M7 0l254 368l-254 371h163l172 -258l177 258h159l-256 -371l256 -368h-159l-177 255l-172 -255h-163z" />
<glyph unicode="&#x4b3;" horiz-adv-x="556" d="M2 0l196 286l-170 268h150l100 -167l98 167h150l-169 -268l197 -286h-160l-116 190l-116 -190h-160z" />
<glyph unicode="&#x4b4;" horiz-adv-x="756" d="M68 0v739h137v-608h264v608h137v-608h142v-271h-122v140h-558z" />
<glyph unicode="&#x4b5;" horiz-adv-x="676" d="M54 0v554h133v-423h227v423h133l1 -422h120v-261h-111l-1 129h-502z" />
<glyph unicode="&#x4b6;" horiz-adv-x="654" d="M50 434v305h137v-250q0 -40 29.5 -72.5t69.5 -32.5h165v355h137v-739h-137v254h-218q-64 0 -123.5 57.5t-59.5 122.5z" />
<glyph unicode="&#x4b7;" horiz-adv-x="572" d="M27 426v118h133v-88q0 -83 36.5 -122.5t98.5 -39.5h90v250h133v-544h-133v173l-125 -2q-61 0 -115 23t-81 65q-37 56 -37 167z" />
<glyph unicode="&#x4b8;" horiz-adv-x="654" d="M50 434v305h137v-250q0 -40 29.5 -72.5t69.5 -32.5h165v355h137v-739h-137v254h-218q-64 0 -123.5 57.5t-59.5 122.5z" />
<glyph unicode="&#x4b9;" horiz-adv-x="572" d="M27 426v118h133v-88q0 -83 36.5 -122.5t98.5 -39.5h90v250h133v-544h-133v173l-125 -2q-61 0 -115 23t-81 65q-37 56 -37 167z" />
<glyph unicode="&#x4ba;" horiz-adv-x="654" d="M50 0v739h137v-254h218q64 0 123.5 -57.5t59.5 -122.5v-305h-137v250q0 40 -29.5 72.5t-69.5 32.5h-165v-355h-137z" />
<glyph unicode="&#x4bb;" horiz-adv-x="572" d="M27 0v544h133v-173h125q62 0 115.5 -22.5t80.5 -63.5q37 -56 37 -167v-118h-133v88q0 83 -36.5 122.5t-98.5 39.5h-90v-250h-133z" />
<glyph unicode="&#x4bc;" horiz-adv-x="800" d="M40 372q0 157 111.5 268.5t268.5 111.5q140 0 245 -85q37 -31 60 -61.5t45 -78.5h-153q-38 49 -84 71t-110 22q-115 0 -184 -81q-61 -71 -61 -168q0 -104 73 -178t175 -74q54 0 96 20t87 67h161q-43 -101 -135.5 -160t-205.5 -59q-162 0 -275.5 112.5t-113.5 272.5z" />
<glyph unicode="&#x4bd;" horiz-adv-x="623" d="M30 277q0 122 84.5 206t207.5 84q120 0 204 -78q50 -46 75 -120h-150q-40 76 -129 76q-69 0 -113.5 -47t-44.5 -120t46 -121t115 -48q79 0 126 73h150q-35 -93 -106.5 -144t-168.5 -51q-123 0 -209.5 84.5t-86.5 205.5z" />
<glyph unicode="&#x4be;" horiz-adv-x="800" d="M40 372q0 157 111.5 268.5t268.5 111.5q140 0 245 -85q37 -31 60 -61.5t45 -78.5h-153q-38 49 -84 71t-110 22q-115 0 -184 -81q-61 -71 -61 -168q0 -104 73 -178t175 -74q54 0 96 20t87 67h161q-43 -101 -135.5 -160t-205.5 -59q-162 0 -275.5 112.5t-113.5 272.5z" />
<glyph unicode="&#x4bf;" horiz-adv-x="623" d="M30 277q0 122 84.5 206t207.5 84q120 0 204 -78q50 -46 75 -120h-150q-40 76 -129 76q-69 0 -113.5 -47t-44.5 -120t46 -121t115 -48q79 0 126 73h150q-35 -93 -106.5 -144t-168.5 -51q-123 0 -209.5 84.5t-86.5 205.5z" />
<glyph unicode="&#x4c0;" horiz-adv-x="280" d="M68 0v739h137v-739h-137z" />
<glyph unicode="&#x4c1;" horiz-adv-x="939" d="M15 0l270 376l-270 363h157l229 -319v319h137v-319l229 319h157l-270 -363l270 -376h-157l-229 325v-325h-137v325l-229 -325h-157zM304 951h98q18 -43 68 -43q54 0 62 43h102q-2 -62 -47.5 -100.5t-116.5 -38.5q-74 0 -118 36.5t-48 102.5z" />
<glyph unicode="&#x4c2;" horiz-adv-x="874" d="M3 0l230 283l-198 271h159l177 -261v261h133v-261l177 261h159l-198 -271l230 -283h-179l-189 259v-259h-133v259l-189 -259h-179zM272 766h98q18 -43 68 -43q54 0 62 43h102q-2 -62 -47.5 -100.5t-116.5 -38.5q-74 0 -118 36.5t-48 102.5z" />
<glyph unicode="&#x4c3;" horiz-adv-x="606" d="M68 0v739h137v-319l229 319h165l-278 -363l278 -376h-165l-229 325v-325h-137z" />
<glyph unicode="&#x4c4;" horiz-adv-x="557" d="M54 0v554h133v-261l177 261h159l-198 -271l230 -283h-179l-189 259v-259h-133z" />
<glyph unicode="&#x4c7;" horiz-adv-x="674" d="M68 0v739h137v-298h264v298h137v-739h-137v310h-264v-310h-137z" />
<glyph unicode="&#x4c8;" horiz-adv-x="601" d="M54 0v554h133v-210h227v210h133v-554h-133v213h-227v-213h-133z" />
<glyph unicode="&#x4cb;" horiz-adv-x="654" d="M50 434v305h137v-250q0 -40 29.5 -72.5t69.5 -32.5h165v355h137v-739h-137v254h-218q-64 0 -123.5 57.5t-59.5 122.5z" />
<glyph unicode="&#x4cc;" horiz-adv-x="572" d="M27 426v118h133v-88q0 -83 36.5 -122.5t98.5 -39.5h90v250h133v-544h-133v173l-125 -2q-61 0 -115 23t-81 65q-37 56 -37 167z" />
<glyph unicode="&#x4d0;" horiz-adv-x="740" d="M7 0l308 739h108l310 -739h-151l-79 191h-263l-82 -191h-151zM204 951h98q18 -43 68 -43q54 0 62 43h102q-2 -62 -47.5 -100.5t-116.5 -38.5q-74 0 -118 36.5t-48 102.5zM290 322h158l-79 224z" />
<glyph unicode="&#x4d1;" horiz-adv-x="669" d="M30 275q0 127 79.5 209.5t202.5 82.5q115 0 181 -87v74h122v-554h-122v72q-40 -45 -83 -65t-101 -20q-121 0 -200 81.5t-79 206.5zM147 766h98q18 -43 68 -43q54 0 62 43h102q-2 -62 -47.5 -100.5t-116.5 -38.5q-74 0 -118 36.5t-48 102.5zM164 272q0 -73 45.5 -118 t118.5 -45q79 0 121 50q40 47 40 114q0 76 -46 124t-117 48t-116.5 -48.5t-45.5 -124.5z" />
<glyph unicode="&#x4d2;" horiz-adv-x="740" d="M7 0l308 739h108l310 -739h-151l-79 191h-263l-82 -191h-151zM198 812v133h133v-133h-133zM290 322h158l-79 224zM408 812v133h133v-133h-133z" />
<glyph unicode="&#x4d3;" horiz-adv-x="669" d="M30 275q0 127 79.5 209.5t202.5 82.5q115 0 181 -87v74h122v-554h-122v72q-40 -45 -83 -65t-101 -20q-121 0 -200 81.5t-79 206.5zM140 627v133h133v-133h-133zM164 272q0 -73 45.5 -118t118.5 -45q79 0 121 50q40 47 40 114q0 76 -46 124t-117 48t-116.5 -48.5 t-45.5 -124.5zM350 627v133h133v-133h-133z" />
<glyph unicode="&#x4d4;" horiz-adv-x="900" d="M17 0l487 739h339v-131h-218v-174h207v-131h-207v-172h218v-131h-355v191h-194l-112 -191h-165zM373 322h115v191z" />
<glyph unicode="&#x4d5;" horiz-adv-x="1080" d="M30 275q0 124 83 208t205 84q102 0 167 -68v55h122v-55q67 68 167 68q116 0 196.5 -81t80.5 -198q0 -30 -9 -69h-428q17 -52 58.5 -81t97.5 -29q71 0 117 55h145q-25 -76 -98 -126.5t-158 -50.5q-106 0 -169 73v-60h-122v60q-34 -40 -71 -56.5t-94 -16.5 q-125 0 -207.5 82t-82.5 206zM164 280q0 -74 45.5 -122.5t115.5 -48.5q67 0 111.5 48t44.5 119q0 72 -45.5 120.5t-112.5 48.5t-113 -48t-46 -117zM607 337h304q-29 108 -150 108q-116 0 -154 -108z" />
<glyph unicode="&#x4d6;" horiz-adv-x="519" d="M68 0v739h467v-131h-330v-174h319v-131h-319v-172h330v-131h-467zM136 951h98q18 -43 68 -43q54 0 62 43h102q-2 -62 -47.5 -100.5t-116.5 -38.5q-74 0 -118 36.5t-48 102.5z" />
<glyph unicode="&#x4d7;" horiz-adv-x="632" d="M30 275q0 122 85 207t207 85q124 0 205 -84.5t81 -213.5q0 -27 -5 -51h-429q12 -50 53 -79.5t100 -29.5q41 0 68.5 12.5t53.5 42.5h145q-12 -37 -44 -77q-87 -100 -220 -100q-127 0 -213.5 83t-86.5 205zM157 766h98q18 -43 68 -43q54 0 62 43h102q-2 -62 -47.5 -100.5 t-116.5 -38.5q-74 0 -118 36.5t-48 102.5zM170 335h307q-13 53 -52.5 81.5t-100.5 28.5q-121 0 -154 -110z" />
<glyph unicode="&#x4d8;" horiz-adv-x="840" d="M40 372q0 36 6 69h607q-22 78 -87.5 128.5t-148.5 50.5q-64 0 -110 -22t-84 -71h-151q47 99 139 162t209 63q157 0 268.5 -111.5t111.5 -268.5q0 -162 -105.5 -273.5t-265.5 -111.5q-162 0 -275.5 112.5t-113.5 272.5zM173 310q20 -83 88 -137t153 -54t153 54t88 137 h-482z" />
<glyph unicode="&#x4d9;" horiz-adv-x="617" d="M30 285q0 27 5 51h429q-12 50 -53 79.5t-100 29.5q-41 0 -68.5 -12.5t-53.5 -42.5h-145q12 37 44 77q87 100 220 100q127 0 213.5 -83t86.5 -205t-85 -207t-207 -85q-124 0 -205 84.5t-81 213.5zM161 219q13 -53 52.5 -81.5t100.5 -28.5q121 0 154 110h-307z" />
<glyph unicode="&#x4da;" horiz-adv-x="840" d="M40 372q0 36 6 69h607q-22 78 -87.5 128.5t-148.5 50.5q-64 0 -110 -22t-84 -71h-151q47 99 139 162t209 63q157 0 268.5 -111.5t111.5 -268.5q0 -162 -105.5 -273.5t-265.5 -111.5q-162 0 -275.5 112.5t-113.5 272.5zM173 310q20 -83 88 -137t153 -54t153 54t88 137 h-482zM248 812v133h133v-133h-133zM458 812v133h133v-133h-133z" />
<glyph unicode="&#x4db;" horiz-adv-x="617" d="M30 285q0 27 5 51h429q-12 50 -53 79.5t-100 29.5q-41 0 -68.5 -12.5t-53.5 -42.5h-145q12 37 44 77q87 100 220 100q127 0 213.5 -83t86.5 -205t-85 -207t-207 -85q-124 0 -205 84.5t-81 213.5zM136 627v133h133v-133h-133zM161 219q13 -53 52.5 -81.5t100.5 -28.5 q121 0 154 110h-307zM346 627v133h133v-133h-133z" />
<glyph unicode="&#x4dc;" horiz-adv-x="939" d="M15 0l270 376l-270 363h157l229 -319v319h137v-319l229 319h157l-270 -363l270 -376h-157l-229 325v-325h-137v325l-229 -325h-157zM298 812v133h133v-133h-133zM508 812v133h133v-133h-133z" />
<glyph unicode="&#x4dd;" horiz-adv-x="874" d="M3 0l230 283l-198 271h159l177 -261v261h133v-261l177 261h159l-198 -271l230 -283h-179l-189 259v-259h-133v259l-189 -259h-179zM266 627v133h133v-133h-133zM476 627v133h133v-133h-133z" />
<glyph unicode="&#x4de;" horiz-adv-x="680" d="M29 214h136q17 -36 65 -66t132 -30q85 0 131.5 28t46.5 79q0 94 -138 94l-113 1v141h112q96 0 96 79q0 32 -40.5 53.5t-91.5 21.5q-77 0 -114 -20.5t-56 -55.5h-137q1 4 3.5 12t12 30t23 42t38 44.5t54 42.5t74 30t95.5 12q117 0 196.5 -57.5t79.5 -142.5 q0 -58 -20 -103.5t-62 -60.5q56 -9 91 -57t35 -116q0 -96 -75.5 -162t-235.5 -66q-75 0 -137 23.5t-97.5 56.5t-60.5 66.5t-34 56.5zM186 812v133h133v-133h-133zM396 812v133h133v-133h-133z" />
<glyph unicode="&#x4df;" horiz-adv-x="470" d="M24 159h124q1 -2 3 -6.5t11.5 -15t21.5 -18.5t33.5 -14.5t47.5 -6.5q105 0 105 61q0 67 -98 67h-88v126h87q73 0 73 57q0 48 -79 48q-32 0 -55 -12t-30 -24l-7 -12h-109q1 6 4 16.5t17 36.5t34 45.5t59 36t88 16.5q95 0 139.5 -41t44.5 -102q0 -42 -20 -75t-48 -45 q48 -7 80 -48t32 -98q0 -73 -58 -118.5t-170 -45.5q-57 0 -102.5 17.5t-70.5 43t-41.5 51t-21.5 43.5zM94 627v133h133v-133h-133zM304 627v133h133v-133h-133z" />
<glyph unicode="&#x4e0;" horiz-adv-x="568" d="M58 549q1 8 4 22t18 49t36 61.5t61.5 48.5t90.5 22q112 0 169 -55t57 -145q0 -104 -82 -147q123 -56 126 -190q1 -40 -2.5 -68t-17 -60.5t-39 -52.5t-73 -33.5t-114.5 -13.5q-48 0 -86.5 12t-62 31.5t-41 42.5t-25.5 46t-12.5 42t-4.5 31l-1 12h136q0 -3 1 -9t6.5 -21 t14.5 -26t29 -20.5t46 -9.5q52 0 80 27t28 73q0 101 -108 101l-53 1v141h32q46 0 65.5 19t20.5 60q1 35 -22 55.5t-70 19.5q-26 0 -43.5 -16.5t-21.5 -32.5l-5 -17h-137z" />
<glyph unicode="&#x4e1;" horiz-adv-x="430" d="M23 147h133q1 -2 2 -4.5t6 -9.5t11 -12.5t16.5 -9.5t23.5 -4q38 1 51.5 20t13.5 43q0 22 -17.5 41.5t-58.5 19.5h-48v114h33q56 0 58 55q2 45 -49 46q-9 0 -19.5 -6.5t-16.5 -13.5l-6 -6h-133q1 6 3.5 16t14.5 35t29 44.5t49.5 35.5t72.5 16q73 0 115 -27q63 -41 63 -120 q0 -88 -62 -120q47 -20 68 -47q27 -35 27 -96q-5 -79 -55 -125.5t-139 -44.5q-50 0 -87.5 16.5t-55.5 40t-28.5 47t-12.5 39.5z" />
<glyph unicode="&#x4e2;" horiz-adv-x="735" d="M68 0v739h137v-538l306 538h156v-739h-137v537l-309 -537h-153zM229 812v100h277v-100h-277z" />
<glyph unicode="&#x4e3;" horiz-adv-x="601" d="M54 0v554h133v-363l212 363h148v-554h-133v363l-212 -363h-148zM162 627v100h277v-100h-277z" />
<glyph unicode="&#x4e4;" horiz-adv-x="735" d="M68 0v739h137v-538l306 538h156v-739h-137v537l-309 -537h-153zM196 812v133h133v-133h-133zM406 812v133h133v-133h-133z" />
<glyph unicode="&#x4e5;" horiz-adv-x="601" d="M54 0v554h133v-363l212 363h148v-554h-133v363l-212 -363h-148zM129 627v133h133v-133h-133zM339 627v133h133v-133h-133z" />
<glyph unicode="&#x4e6;" horiz-adv-x="850" d="M40 369q0 162 112.5 272.5t277.5 110.5q158 0 269 -112t111 -270q0 -162 -110 -272.5t-271 -110.5q-163 0 -276 111t-113 271zM178 369q0 -105 72.5 -177.5t177.5 -72.5t174.5 71t69.5 178q0 106 -70.5 179t-173.5 73q-107 0 -178.5 -72t-71.5 -179zM258 812v133h133 v-133h-133zM468 812v133h133v-133h-133z" />
<glyph unicode="&#x4e7;" horiz-adv-x="643" d="M30 277q0 119 86 204.5t207 85.5q125 0 210.5 -85t85.5 -209q0 -117 -87 -201.5t-208 -84.5q-122 0 -208 85t-86 205zM152 627v133h133v-133h-133zM164 279q0 -71 47 -120.5t114 -49.5q66 0 113 49t47 119q0 69 -47 118.5t-114 49.5q-65 0 -112.5 -49t-47.5 -117z M362 627v133h133v-133h-133z" />
<glyph unicode="&#x4e8;" horiz-adv-x="850" d="M40 369q0 162 112.5 272.5t277.5 110.5q158 0 269 -112t111 -270q0 -162 -110 -272.5t-271 -110.5q-163 0 -276 111t-113 271zM182 417h486q-17 89 -83.5 146t-156.5 57q-94 0 -162 -57t-84 -146zM183 317q18 -86 86 -142t159 -56q92 0 157.5 55t81.5 143h-484z" />
<glyph unicode="&#x4e9;" horiz-adv-x="643" d="M30 277q0 119 86 204.5t207 85.5q125 0 210.5 -85t85.5 -209q0 -117 -87 -201.5t-208 -84.5q-122 0 -208 85t-86 205zM171 326h307q-15 52 -57.5 85.5t-96.5 33.5q-53 0 -95.5 -33.5t-57.5 -85.5zM172 226q15 -52 57.5 -84.5t95.5 -32.5t95 33t57 84h-305z" />
<glyph unicode="&#x4ea;" horiz-adv-x="850" d="M40 369q0 162 112.5 272.5t277.5 110.5q158 0 269 -112t111 -270q0 -162 -110 -272.5t-271 -110.5q-163 0 -276 111t-113 271zM182 417h486q-17 89 -83.5 146t-156.5 57q-94 0 -162 -57t-84 -146zM183 317q18 -86 86 -142t159 -56q92 0 157.5 55t81.5 143h-484zM258 812 v133h133v-133h-133zM468 812v133h133v-133h-133z" />
<glyph unicode="&#x4eb;" horiz-adv-x="643" d="M30 277q0 119 86 204.5t207 85.5q125 0 210.5 -85t85.5 -209q0 -117 -87 -201.5t-208 -84.5q-122 0 -208 85t-86 205zM152 627v133h133v-133h-133zM171 326h307q-15 52 -57.5 85.5t-96.5 33.5q-53 0 -95.5 -33.5t-57.5 -85.5zM172 226q15 -52 57.5 -84.5t95.5 -32.5 t95 33t57 84h-305zM362 627v133h133v-133h-133z" />
<glyph unicode="&#x4ec;" horiz-adv-x="780" d="M20 206h161q45 -47 87 -67t96 -20q85 0 153 54t88 137h-370v131h368q-22 79 -87 129t-149 50q-64 0 -110 -22t-84 -71h-153q22 48 45 78.5t60 61.5q105 85 245 85q157 0 268.5 -111.5t111.5 -268.5q0 -160 -113.5 -272.5t-275.5 -112.5q-113 0 -205.5 59t-135.5 160z M198 812v133h133v-133h-133zM408 812v133h133v-133h-133z" />
<glyph unicode="&#x4ed;" horiz-adv-x="617" d="M22 182h150q47 -73 126 -73q52 0 92 28.5t58 75.5h-235v131h235q-17 46 -56.5 73.5t-90.5 27.5q-89 0 -129 -76h-150q25 74 75 120q84 78 204 78q123 0 207.5 -84t84.5 -206q0 -121 -86.5 -205.5t-209.5 -84.5q-97 0 -168.5 51t-106.5 144zM130 627v133h133v-133h-133z M340 627v133h133v-133h-133z" />
<glyph unicode="&#x4ee;" horiz-adv-x="637" d="M12 739h143l164 -340l163 340h148l-354 -739h-154l128 273zM182 812v100h277v-100h-277z" />
<glyph unicode="&#x4ef;" horiz-adv-x="566" d="M12 554h136l129 -359l151 359h136l-320 -739h-143l104 237zM150 627v100h277v-100h-277z" />
<glyph unicode="&#x4f0;" horiz-adv-x="637" d="M12 739h143l164 -340l163 340h148l-354 -739h-154l128 273zM150 812v133h133v-133h-133zM360 812v133h133v-133h-133z" />
<glyph unicode="&#x4f1;" horiz-adv-x="566" d="M12 554h136l129 -359l151 359h136l-320 -739h-143l104 237zM116 627v133h133v-133h-133zM326 627v133h133v-133h-133z" />
<glyph unicode="&#x4f2;" horiz-adv-x="637" d="M12 739h143l164 -340l163 340h148l-354 -739h-154l128 273zM129 881l210 143l62 -80l-222 -132zM412 881l211 143l61 -80l-221 -132z" />
<glyph unicode="&#x4f3;" horiz-adv-x="566" d="M12 554h136l129 -359l151 359h136l-320 -739h-143l104 237zM96 696l210 143l62 -80l-222 -132zM379 696l211 143l61 -80l-221 -132z" />
<glyph unicode="&#x4f4;" horiz-adv-x="654" d="M50 434v305h137v-250q0 -40 29.5 -72t69.5 -32h165v354h137v-739h-137v254h-218q-64 0 -123.5 57.5t-59.5 122.5zM148 812v133h133v-133h-133zM358 812v133h133v-133h-133z" />
<glyph unicode="&#x4f5;" horiz-adv-x="572" d="M27 426v118h133v-118q0 -132 102 -132h103v250h133v-544h-133v173h-105q-62 0 -115.5 22.5t-80.5 63.5q-37 56 -37 167zM91 627v133h133v-133h-133zM301 627v133h133v-133h-133z" />
<glyph unicode="&#x4f8;" horiz-adv-x="802" d="M68 0v739h137v-204h110q150 0 237.5 -66t87.5 -197q0 -133 -82 -202.5t-243 -69.5h-247zM205 131h116q72 0 127.5 38.5t55.5 102.5q0 58 -55.5 95t-124.5 37h-119v-273zM284 812v133h133v-133h-133zM494 812v133h133v-133h-133zM707 0v739h137v-739h-137z" />
<glyph unicode="&#x4f9;" horiz-adv-x="679" d="M54 0v554h133v-177h75q109 0 170.5 -48t61.5 -142q0 -87 -62.5 -137t-169.5 -50h-208zM187 120h111q40 0 56.5 24t16.5 49q0 24 -17.5 47.5t-58.5 23.5h-108v-144zM196 627v133h133v-133h-133zM406 627v133h133v-133h-133zM547 0v554h133v-554h-133z" />
<glyph unicode="&#xe3f;" horiz-adv-x="580" d="M68 0v739h169v83h98v-89q77 -11 123 -62.5t46 -128.5q0 -52 -19 -84t-63 -55q69 -29 97.5 -72t28.5 -111q0 -89 -54 -145.5t-159 -70.5v-87h-98v83h-169zM205 131h68q72 0 104.5 22t32.5 70q0 97 -140 97h-65v-189zM205 454h44q62 0 90 18t28 58q0 75 -106 75h-56v-151z " />
<glyph unicode="&#x1e0c;" horiz-adv-x="700" d="M68 0v739h169q174 0 262 -53q77 -46 119 -129.5t42 -188.5q0 -112 -48 -198.5t-133 -128.5q-82 -41 -239 -41h-172zM205 131h30q121 0 180 33q49 27 78 82t29 122q0 71 -30 127t-83 83q-59 30 -177 30h-27v-477zM284 -79h133v-133h-133v133z" />
<glyph unicode="&#x1e0d;" horiz-adv-x="660" d="M30 278q0 124 80.5 210t196.5 86q110 0 173 -69v234h133v-739h-122v72q-75 -85 -183 -85q-118 0 -198 84t-80 207zM164 284q0 -74 47.5 -124.5t117.5 -50.5q68 0 114.5 49.5t46.5 121.5q0 73 -47 122.5t-117 49.5q-68 0 -115 -48.5t-47 -119.5zM264 -79h133v-133h-133 v133z" />
<glyph unicode="&#x1e0e;" horiz-adv-x="700" d="M68 0v739h169q174 0 262 -53q77 -46 119 -129.5t42 -188.5q0 -112 -48 -198.5t-133 -128.5q-82 -41 -239 -41h-172zM205 131h30q121 0 180 33q49 27 78 82t29 122q0 71 -30 127t-83 83q-59 30 -177 30h-27v-477zM214 -96h277v-100h-277v100z" />
<glyph unicode="&#x1e0f;" horiz-adv-x="660" d="M30 278q0 124 80.5 210t196.5 86q110 0 173 -69v234h133v-739h-122v72q-75 -85 -183 -85q-118 0 -198 84t-80 207zM164 284q0 -74 47.5 -124.5t117.5 -50.5q68 0 114.5 49.5t46.5 121.5q0 73 -47 122.5t-117 49.5q-68 0 -115 -48.5t-47 -119.5zM194 -96h277v-100h-277 v100z" />
<glyph unicode="&#x1e24;" horiz-adv-x="680" d="M68 0v739h137v-298h264v298h137v-739h-137v310h-264v-310h-137zM271 -79h133v-133h-133v133z" />
<glyph unicode="&#x1e25;" horiz-adv-x="600" d="M54 0v739h133v-223q58 52 141 52q217 0 217 -255v-313h-133v283q0 87 -25 124.5t-83 37.5q-59 0 -88 -37.5t-29 -126.5v-281h-133zM234 -79h133v-133h-133v133z" />
<glyph unicode="&#x1e26;" horiz-adv-x="680" d="M68 0v739h137v-298h264v298h137v-739h-137v310h-264v-310h-137zM161 809v133h133v-133h-133zM371 809v133h133v-133h-133z" />
<glyph unicode="&#x1e27;" horiz-adv-x="600" d="M54 0v739h133v-223q58 52 141 52q217 0 217 -255v-313h-133v283q0 87 -25 124.5t-83 37.5q-59 0 -88 -37.5t-29 -126.5v-281h-133zM124 809v133h133v-133h-133zM334 809v133h133v-133h-133z" />
<glyph unicode="&#x1e2a;" horiz-adv-x="680" d="M68 0v739h137v-298h264v298h137v-739h-137v310h-264v-310h-137zM172 -76h98q18 -43 68 -43q54 0 62 43h102q-2 -62 -47.5 -100.5t-116.5 -38.5q-74 0 -118 36.5t-48 102.5z" />
<glyph unicode="&#x1e2b;" horiz-adv-x="600" d="M54 0v739h133v-223q58 52 141 52q217 0 217 -255v-313h-133v283q0 87 -25 124.5t-83 37.5q-59 0 -88 -37.5t-29 -126.5v-281h-133zM135 -76h98q18 -43 68 -43q54 0 62 43h102q-2 -62 -47.5 -100.5t-116.5 -38.5q-74 0 -118 36.5t-48 102.5z" />
<glyph unicode="&#x1e36;" horiz-adv-x="440" d="M68 0v739h137v-608h226v-131h-363zM184 -79h133v-133h-133v133z" />
<glyph unicode="&#x1e37;" horiz-adv-x="240" d="M54 0v739h133v-739h-133zM55 -79h133v-133h-133v133z" />
<glyph unicode="&#x1e38;" horiz-adv-x="440" d="M1 825v100h277v-100h-277zM68 0v739h137v-608h226v-131h-363zM184 -79h133v-133h-133v133z" />
<glyph unicode="&#x1e39;" horiz-adv-x="240" d="M-15 825v100h277v-100h-277zM54 0v739h133v-739h-133zM55 -79h133v-133h-133v133z" />
<glyph unicode="&#x1e42;" horiz-adv-x="900" d="M68 0v739h188l199 -560l197 560h188v-739h-137v554l-193 -554h-112l-193 554v-554h-137zM384 -79h133v-133h-133v133z" />
<glyph unicode="&#x1e43;" horiz-adv-x="940" d="M54 0v554h122v-52q29 35 62 50t82 15q109 0 163 -86q65 86 178 86q224 0 224 -247v-320h-133v304q0 78 -26.5 109.5t-77.5 31.5q-58 0 -85 -38t-27 -134v-273h-133v304q0 78 -26.5 109.5t-81.5 31.5q-59 0 -83.5 -37.5t-24.5 -134.5v-273h-133zM404 -79h133v-133h-133 v133z" />
<glyph unicode="&#x1e44;" horiz-adv-x="740" d="M68 0v739h156l306 -538v538h137v-739h-153l-309 537v-537h-137zM302 809v133h133v-133h-133z" />
<glyph unicode="&#x1e45;" horiz-adv-x="600" d="M54 0v554h123v-53q69 66 156 66q118 0 173 -80q22 -32 31 -74t9 -116v-297h-133v271q0 104 -25.5 139t-80.5 35q-66 0 -98 -51q-22 -35 -22 -133v-261h-133zM234 634v133h133v-133h-133z" />
<glyph unicode="&#x1e46;" horiz-adv-x="740" d="M68 0v739h156l306 -538v538h137v-739h-153l-309 537v-537h-137zM302 -79h133v-133h-133v133z" />
<glyph unicode="&#x1e47;" horiz-adv-x="600" d="M54 0v554h123v-53q69 66 156 66q118 0 173 -80q22 -32 31 -74t9 -116v-297h-133v271q0 104 -25.5 139t-80.5 35q-66 0 -98 -51q-22 -35 -22 -133v-261h-133zM234 -79h133v-133h-133v133z" />
<glyph unicode="&#x1e58;" horiz-adv-x="580" d="M68 0v739h213q76 0 121 -12t81 -43q78 -66 78 -182q0 -181 -193 -229l200 -273h-169l-194 283v-283h-137zM205 386h67q79 0 115 26.5t36 85.5q0 55 -33 82.5t-124 27.5h-61v-222zM224 809v133h133v-133h-133z" />
<glyph unicode="&#x1e59;" horiz-adv-x="320" d="M54 0v554h122v-54q26 38 51.5 52.5t68.5 14.5h10v-128q-119 -3 -119 -131v-308h-133zM110 634v133h133v-133h-133z" />
<glyph unicode="&#x1e5a;" horiz-adv-x="580" d="M68 0v739h213q76 0 121 -12t81 -43q78 -66 78 -182q0 -181 -193 -229l200 -273h-169l-194 283v-283h-137zM205 386h67q79 0 115 26.5t36 85.5q0 55 -33 82.5t-124 27.5h-61v-222zM224 -79h133v-133h-133v133z" />
<glyph unicode="&#x1e5b;" horiz-adv-x="320" d="M54 0v554h122v-54q26 38 51.5 52.5t68.5 14.5h10v-128q-119 -3 -119 -131v-308h-133zM55 -79h133v-133h-133v133z" />
<glyph unicode="&#x1e5c;" horiz-adv-x="580" d="M68 0v739h213q76 0 121 -12t81 -43q78 -66 78 -182q0 -181 -193 -229l200 -273h-169l-194 283v-283h-137zM154 825v100h277v-100h-277zM205 386h67q79 0 115 26.5t36 85.5q0 55 -33 82.5t-124 27.5h-61v-222zM224 -79h133v-133h-133v133z" />
<glyph unicode="&#x1e5d;" horiz-adv-x="320" d="M40 663v100h277v-100h-277zM54 0v554h122v-54q26 38 51.5 52.5t68.5 14.5h10v-128q-119 -3 -119 -131v-308h-133zM55 -79h133v-133h-133v133z" />
<glyph unicode="&#x1e62;" horiz-adv-x="520" d="M14 211h143q9 -92 100 -92q44 0 72 25t28 65q0 49 -34 75q-16 12 -34 20t-94 37q-74 28 -114 79.5t-40 121.5q0 88 63 149t152 61q91 0 152.5 -57t66.5 -153h-142q-3 38 -23 58t-55 20q-34 0 -55 -21t-21 -54q0 -41 41 -67q11 -7 82 -33q108 -40 149.5 -91t41.5 -130 q0 -100 -68 -168.5t-168 -68.5q-99 0 -166.5 60.5t-76.5 163.5zM190 -79h133v-133h-133v133z" />
<glyph unicode="&#x1e63;" horiz-adv-x="440" d="M19 176h134q10 -35 27.5 -51t46.5 -16q26 0 43 15.5t17 38.5q0 25 -15 37t-79 34q-83 28 -118.5 65.5t-35.5 98.5q0 71 53.5 120t130.5 49q73 0 125.5 -45t56.5 -121h-130q-9 44 -52 44q-22 0 -36.5 -13.5t-14.5 -33.5q0 -22 13 -30t81 -30q86 -27 120 -63.5t34 -98.5 q0 -79 -57.5 -134t-140.5 -55q-85 0 -139 47.5t-64 141.5zM157 -79h133v-133h-133v133z" />
<glyph unicode="&#x1e6c;" horiz-adv-x="420" d="M7 608v131h411v-131h-137v-608h-137v608h-137zM147 -79h133v-133h-133v133z" />
<glyph unicode="&#x1e6d;" horiz-adv-x="300" d="M9 433v121h65v185h133v-185h80v-121h-80v-433h-133v433h-65zM75 -79h133v-133h-133v133z" />
<glyph unicode="&#x1e6e;" horiz-adv-x="420" d="M7 608v131h411v-131h-137v-608h-137v608h-137zM77 -96h277v-100h-277v100z" />
<glyph unicode="&#x1e6f;" horiz-adv-x="300" d="M5 -96h277v-100h-277v100zM9 433v121h65v185h133v-185h80v-121h-80v-433h-133v433h-65z" />
<glyph unicode="&#x1e80;" horiz-adv-x="900" d="M7 739h140l130 -516l126 516h100l124 -516l131 516h140l-216 -739h-109l-119 489l-122 -489h-108zM268 899l54 92l224 -134l-51 -78z" />
<glyph unicode="&#x1e81;" horiz-adv-x="800" d="M10 554h143l99 -338l93 338h106l91 -338l101 338h142l-200 -554h-83l-105 359l-107 -359h-82zM213 724l54 92l224 -134l-51 -78z" />
<glyph unicode="&#x1e82;" horiz-adv-x="900" d="M7 739h140l130 -516l126 516h100l124 -516l131 516h140l-216 -739h-109l-119 489l-122 -489h-108zM360 857l224 134l54 -92l-227 -120z" />
<glyph unicode="&#x1e83;" horiz-adv-x="800" d="M10 554h143l99 -338l93 338h106l91 -338l101 338h142l-200 -554h-83l-105 359l-107 -359h-82zM305 682l224 134l54 -92l-227 -120z" />
<glyph unicode="&#x1e84;" horiz-adv-x="900" d="M7 739h140l130 -516l126 516h100l124 -516l131 516h140l-216 -739h-109l-119 489l-122 -489h-108zM277 809v133h133v-133h-133zM487 809v133h133v-133h-133z" />
<glyph unicode="&#x1e85;" horiz-adv-x="800" d="M10 554h143l99 -338l93 338h106l91 -338l101 338h142l-200 -554h-83l-105 359l-107 -359h-82zM222 634v133h133v-133h-133zM432 634v133h133v-133h-133z" />
<glyph unicode="&#x1e92;" horiz-adv-x="500" d="M18 0v116l280 492h-265v131h428v-123l-278 -485h297v-131h-462zM181 -79h133v-133h-133v133z" />
<glyph unicode="&#x1e93;" horiz-adv-x="460" d="M20 0v119l244 316h-216v119h375v-119l-244 -316h263v-119h-422zM170 -79h133v-133h-133v133z" />
<glyph unicode="&#x1e97;" horiz-adv-x="300" d="M-35 809v133h133v-133h-133zM9 433v121h65v185h133v-185h80v-121h-80v-433h-133v433h-65zM175 809v133h133v-133h-133z" />
<glyph unicode="&#x1ea0;" horiz-adv-x="740" d="M7 0l308 739h108l310 -739h-151l-79 191h-263l-82 -191h-151zM290 322h158l-79 224zM304 -79h133v-133h-133v133z" />
<glyph unicode="&#x1ea1;" horiz-adv-x="660" d="M30 275q0 127 79.5 209.5t202.5 82.5q115 0 181 -87v74h122v-554h-122v72q-40 -45 -83 -65t-101 -20q-121 0 -200 81.5t-79 206.5zM164 272q0 -73 45.5 -118t118.5 -45q74 0 117.5 46.5t43.5 117.5q0 76 -46 124t-117 48t-116.5 -48.5t-45.5 -124.5zM264 -79h133v-133 h-133v133z" />
<glyph unicode="&#x1ea2;" horiz-adv-x="740" d="M7 0l308 739h108l310 -739h-151l-79 191h-263l-82 -191h-151zM240 939q3 61 39 90t90 29t91 -31.5t37 -77.5t-58 -85q-21 -14 -26.5 -26.5t-5.5 -44.5h-85v15q0 40 14 62.5t55 50.5q21 15 21 30q0 14 -12.5 23t-32.5 9q-36 0 -43 -44h-84zM290 322h158l-79 224z" />
<glyph unicode="&#x1ea3;" horiz-adv-x="660" d="M30 275q0 127 79.5 209.5t202.5 82.5q115 0 181 -87v74h122v-554h-122v72q-40 -45 -83 -65t-101 -20q-121 0 -200 81.5t-79 206.5zM164 272q0 -73 45.5 -118t118.5 -45q74 0 117.5 46.5t43.5 117.5q0 76 -46 124t-117 48t-116.5 -48.5t-45.5 -124.5zM201 754q3 61 39 90 t90 29t91 -31.5t37 -77.5t-58 -85q-21 -14 -26.5 -26.5t-5.5 -44.5h-85v15q0 40 14 62.5t55 50.5q21 15 21 30q0 14 -12.5 23t-32.5 9q-36 0 -43 -44h-84z" />
<glyph unicode="&#x1ea4;" horiz-adv-x="740" d="M7 0l308 739h108l310 -739h-151l-79 191h-263l-82 -191h-151zM170 806l147 138h107l145 -138h-145l-53 64l-54 -64h-147zM276 1042l224 134l54 -92l-227 -120zM290 322h158l-79 224z" />
<glyph unicode="&#x1ea5;" horiz-adv-x="660" d="M30 275q0 127 79.5 209.5t202.5 82.5q115 0 181 -87v74h122v-554h-122v72q-40 -45 -83 -65t-101 -20q-121 0 -200 81.5t-79 206.5zM131 621l147 138h107l145 -138h-145l-53 64l-54 -64h-147zM164 272q0 -73 45.5 -118t118.5 -45q74 0 117.5 46.5t43.5 117.5q0 76 -46 124 t-117 48t-116.5 -48.5t-45.5 -124.5zM237 857l224 134l54 -92l-227 -120z" />
<glyph unicode="&#x1ea6;" horiz-adv-x="740" d="M7 0l308 739h108l310 -739h-151l-79 191h-263l-82 -191h-151zM170 806l147 138h107l145 -138h-145l-53 64l-54 -64h-147zM184 1084l54 92l224 -134l-51 -78zM290 322h158l-79 224z" />
<glyph unicode="&#x1ea7;" horiz-adv-x="660" d="M30 275q0 127 79.5 209.5t202.5 82.5q115 0 181 -87v74h122v-554h-122v72q-40 -45 -83 -65t-101 -20q-121 0 -200 81.5t-79 206.5zM131 621l147 138h107l145 -138h-145l-53 64l-54 -64h-147zM145 899l54 92l224 -134l-51 -78zM164 272q0 -73 45.5 -118t118.5 -45 q74 0 117.5 46.5t43.5 117.5q0 76 -46 124t-117 48t-116.5 -48.5t-45.5 -124.5z" />
<glyph unicode="&#x1ea8;" horiz-adv-x="740" d="M7 0l308 739h108l310 -739h-151l-79 191h-263l-82 -191h-151zM170 806l147 138h107l145 -138h-145l-53 64l-54 -64h-147zM290 322h158l-79 224zM312 1117q3 61 39 90t90 29t91 -31.5t37 -77.5t-58 -85q-21 -14 -26.5 -26.5t-5.5 -44.5h-85v15q0 40 14 62.5t55 50.5 q21 15 21 30q0 14 -12.5 23t-32.5 9q-36 0 -43 -44h-84z" />
<glyph unicode="&#x1ea9;" horiz-adv-x="660" d="M30 275q0 127 79.5 209.5t202.5 82.5q115 0 181 -87v74h122v-554h-122v72q-40 -45 -83 -65t-101 -20q-121 0 -200 81.5t-79 206.5zM131 621l147 138h107l145 -138h-145l-53 64l-54 -64h-147zM164 272q0 -73 45.5 -118t118.5 -45q74 0 117.5 46.5t43.5 117.5q0 76 -46 124 t-117 48t-116.5 -48.5t-45.5 -124.5zM273 932q3 61 39 90t90 29t91 -31.5t37 -77.5t-58 -85q-21 -14 -26.5 -26.5t-5.5 -44.5h-85v15q0 40 14 62.5t55 50.5q21 15 21 30q0 14 -12.5 23t-32.5 9q-36 0 -43 -44h-84z" />
<glyph unicode="&#x1eaa;" horiz-adv-x="740" d="M7 0l308 739h108l310 -739h-151l-79 191h-263l-82 -191h-151zM170 806l147 138h107l145 -138h-145l-53 64l-54 -64h-147zM203 1054q26 26 49 36.5t54 10.5q12 0 52.5 -12.5t54.5 -12.5q37 0 67 34l54 -81q-45 -55 -94 -55q-13 0 -58.5 12.5t-54.5 12.5q-18 0 -29.5 -4 t-40.5 -21zM290 322h158l-79 224z" />
<glyph unicode="&#x1eab;" horiz-adv-x="660" d="M30 275q0 127 79.5 209.5t202.5 82.5q115 0 181 -87v74h122v-554h-122v72q-40 -45 -83 -65t-101 -20q-121 0 -200 81.5t-79 206.5zM131 621l147 138h107l145 -138h-145l-53 64l-54 -64h-147zM164 272q0 -73 45.5 -118t118.5 -45q74 0 117.5 46.5t43.5 117.5q0 76 -46 124 t-117 48t-116.5 -48.5t-45.5 -124.5zM164 869q26 26 49 36.5t54 10.5q12 0 52.5 -12.5t54.5 -12.5q37 0 67 34l54 -81q-45 -55 -94 -55q-13 0 -58.5 12.5t-54.5 12.5q-18 0 -29.5 -4t-40.5 -21z" />
<glyph unicode="&#x1eac;" horiz-adv-x="740" d="M7 0l308 739h108l310 -739h-151l-79 191h-263l-82 -191h-151zM170 806l147 138h107l145 -138h-145l-53 64l-54 -64h-147zM290 322h158l-79 224zM304 -79h133v-133h-133v133z" />
<glyph unicode="&#x1ead;" horiz-adv-x="660" d="M30 275q0 127 79.5 209.5t202.5 82.5q115 0 181 -87v74h122v-554h-122v72q-40 -45 -83 -65t-101 -20q-121 0 -200 81.5t-79 206.5zM131 631l147 138h107l145 -138h-145l-53 64l-54 -64h-147zM164 272q0 -73 45.5 -118t118.5 -45q74 0 117.5 46.5t43.5 117.5q0 76 -46 124 t-117 48t-116.5 -48.5t-45.5 -124.5zM264 -79h133v-133h-133v133z" />
<glyph unicode="&#x1eae;" horiz-adv-x="740" d="M7 0l308 739h108l310 -739h-151l-79 191h-263l-82 -191h-151zM204 945h98q18 -43 68 -43q54 0 62 43h102q-2 -62 -47.5 -100.5t-116.5 -38.5q-74 0 -118 36.5t-48 102.5zM290 322h158l-79 224zM296 1050l224 134l54 -92l-227 -120z" />
<glyph unicode="&#x1eaf;" horiz-adv-x="660" d="M30 275q0 127 79.5 209.5t202.5 82.5q115 0 181 -87v74h122v-554h-122v72q-40 -45 -83 -65t-101 -20q-121 0 -200 81.5t-79 206.5zM164 272q0 -73 45.5 -118t118.5 -45q74 0 117.5 46.5t43.5 117.5q0 76 -46 124t-117 48t-116.5 -48.5t-45.5 -124.5zM165 760h98 q18 -43 68 -43q54 0 62 43h102q-2 -62 -47.5 -100.5t-116.5 -38.5q-74 0 -118 36.5t-48 102.5zM257 865l224 134l54 -92l-227 -120z" />
<glyph unicode="&#x1eb0;" horiz-adv-x="740" d="M7 0l308 739h108l310 -739h-151l-79 191h-263l-82 -191h-151zM164 1092l54 92l224 -134l-51 -78zM204 945h98q18 -43 68 -43q54 0 62 43h102q-2 -62 -47.5 -100.5t-116.5 -38.5q-74 0 -118 36.5t-48 102.5zM290 322h158l-79 224z" />
<glyph unicode="&#x1eb1;" horiz-adv-x="660" d="M30 275q0 127 79.5 209.5t202.5 82.5q115 0 181 -87v74h122v-554h-122v72q-40 -45 -83 -65t-101 -20q-121 0 -200 81.5t-79 206.5zM125 907l54 92l224 -134l-51 -78zM164 272q0 -73 45.5 -118t118.5 -45q74 0 117.5 46.5t43.5 117.5q0 76 -46 124t-117 48t-116.5 -48.5 t-45.5 -124.5zM165 760h98q18 -43 68 -43q54 0 62 43h102q-2 -62 -47.5 -100.5t-116.5 -38.5q-74 0 -118 36.5t-48 102.5z" />
<glyph unicode="&#x1eb2;" horiz-adv-x="740" d="M7 0l308 739h108l310 -739h-151l-79 191h-263l-82 -191h-151zM204 945h98q18 -43 68 -43q54 0 62 43h102q-2 -62 -47.5 -100.5t-116.5 -38.5q-74 0 -118 36.5t-48 102.5zM241 1104q3 61 39 90t90 29t91 -31.5t37 -77.5t-58 -85q-21 -14 -26.5 -26.5t-5.5 -44.5h-85v15 q0 40 14 62.5t55 50.5q21 15 21 30q0 14 -12.5 23t-32.5 9q-36 0 -43 -44h-84zM290 322h158l-79 224z" />
<glyph unicode="&#x1eb3;" horiz-adv-x="660" d="M30 275q0 127 79.5 209.5t202.5 82.5q115 0 181 -87v74h122v-554h-122v72q-40 -45 -83 -65t-101 -20q-121 0 -200 81.5t-79 206.5zM164 272q0 -73 45.5 -118t118.5 -45q74 0 117.5 46.5t43.5 117.5q0 76 -46 124t-117 48t-116.5 -48.5t-45.5 -124.5zM165 760h98 q18 -43 68 -43q54 0 62 43h102q-2 -62 -47.5 -100.5t-116.5 -38.5q-74 0 -118 36.5t-48 102.5zM202 919q3 61 39 90t90 29t91 -31.5t37 -77.5t-58 -85q-21 -14 -26.5 -26.5t-5.5 -44.5h-85v15q0 40 14 62.5t55 50.5q21 15 21 30q0 14 -12.5 23t-32.5 9q-36 0 -43 -44h-84z " />
<glyph unicode="&#x1eb4;" horiz-adv-x="740" d="M7 0l308 739h108l310 -739h-151l-79 191h-263l-82 -191h-151zM203 1061q26 26 49 36.5t54 10.5q12 0 52.5 -12.5t54.5 -12.5q37 0 67 34l54 -81q-45 -55 -94 -55q-13 0 -58.5 12.5t-54.5 12.5q-18 0 -29.5 -4t-40.5 -21zM204 945h98q18 -43 68 -43q54 0 62 43h102 q-2 -62 -47.5 -100.5t-116.5 -38.5q-74 0 -118 36.5t-48 102.5zM290 322h158l-79 224z" />
<glyph unicode="&#x1eb5;" horiz-adv-x="660" d="M30 275q0 127 79.5 209.5t202.5 82.5q115 0 181 -87v74h122v-554h-122v72q-40 -45 -83 -65t-101 -20q-121 0 -200 81.5t-79 206.5zM164 272q0 -73 45.5 -118t118.5 -45q74 0 117.5 46.5t43.5 117.5q0 76 -46 124t-117 48t-116.5 -48.5t-45.5 -124.5zM164 876 q26 26 49 36.5t54 10.5q12 0 52.5 -12.5t54.5 -12.5q37 0 67 34l54 -81q-45 -55 -94 -55q-13 0 -58.5 12.5t-54.5 12.5q-18 0 -29.5 -4t-40.5 -21zM165 760h98q18 -43 68 -43q54 0 62 43h102q-2 -62 -47.5 -100.5t-116.5 -38.5q-74 0 -118 36.5t-48 102.5z" />
<glyph unicode="&#x1eb6;" horiz-adv-x="740" d="M7 0l308 739h108l310 -739h-151l-79 191h-263l-82 -191h-151zM204 945h98q18 -43 68 -43q54 0 62 43h102q-2 -62 -47.5 -100.5t-116.5 -38.5q-74 0 -118 36.5t-48 102.5zM290 322h158l-79 224zM304 -79h133v-133h-133v133z" />
<glyph unicode="&#x1eb7;" horiz-adv-x="660" d="M30 275q0 127 79.5 209.5t202.5 82.5q115 0 181 -87v74h122v-554h-122v72q-40 -45 -83 -65t-101 -20q-121 0 -200 81.5t-79 206.5zM164 272q0 -73 45.5 -118t118.5 -45q74 0 117.5 46.5t43.5 117.5q0 76 -46 124t-117 48t-116.5 -48.5t-45.5 -124.5zM164 770h98 q18 -43 68 -43q54 0 62 43h102q-2 -62 -47.5 -100.5t-116.5 -38.5q-74 0 -118 36.5t-48 102.5zM264 -79h133v-133h-133v133z" />
<glyph unicode="&#x1eb8;" horiz-adv-x="520" d="M68 0v739h397v-131h-260v-174h249v-131h-249v-172h260v-131h-397zM194 -79h133v-133h-133v133z" />
<glyph unicode="&#x1eb9;" d="M30 275q0 122 85 207t207 85q124 0 205 -84.5t81 -213.5q0 -27 -5 -51h-429q12 -50 53 -79.5t100 -29.5q41 0 68.5 12.5t53.5 42.5h145q-27 -82 -101.5 -129.5t-162.5 -47.5q-127 0 -213.5 83t-86.5 205zM170 335h307q-13 53 -52.5 81.5t-100.5 28.5q-121 0 -154 -110z M256 -79h133v-133h-133v133z" />
<glyph unicode="&#x1eba;" horiz-adv-x="520" d="M68 0v739h397v-131h-260v-174h249v-131h-249v-172h260v-131h-397zM138 939q3 61 39 90t90 29t91 -31.5t37 -77.5t-58 -85q-21 -14 -26.5 -26.5t-5.5 -44.5h-85v15q0 40 14 62.5t55 50.5q21 15 21 30q0 14 -12.5 23t-32.5 9q-36 0 -43 -44h-84z" />
<glyph unicode="&#x1ebb;" d="M30 275q0 122 85 207t207 85q124 0 205 -84.5t81 -213.5q0 -27 -5 -51h-429q12 -50 53 -79.5t100 -29.5q41 0 68.5 12.5t53.5 42.5h145q-27 -82 -101.5 -129.5t-162.5 -47.5q-127 0 -213.5 83t-86.5 205zM170 335h307q-13 53 -52.5 81.5t-100.5 28.5q-121 0 -154 -110z M193 754q3 61 39 90t90 29t91 -31.5t37 -77.5t-58 -85q-21 -14 -26.5 -26.5t-5.5 -44.5h-85v15q0 40 14 62.5t55 50.5q21 15 21 30q0 14 -12.5 23t-32.5 9q-36 0 -43 -44h-84z" />
<glyph unicode="&#x1ebc;" horiz-adv-x="520" d="M68 0v739h397v-131h-260v-174h249v-131h-249v-172h260v-131h-397zM101 887q26 26 49 36.5t54 10.5q12 0 52.5 -12.5t54.5 -12.5q37 0 67 34l54 -81q-45 -55 -94 -55q-13 0 -58.5 12.5t-54.5 12.5q-18 0 -29.5 -4t-40.5 -21z" />
<glyph unicode="&#x1ebd;" d="M30 275q0 122 85 207t207 85q124 0 205 -84.5t81 -213.5q0 -27 -5 -51h-429q12 -50 53 -79.5t100 -29.5q41 0 68.5 12.5t53.5 42.5h145q-27 -82 -101.5 -129.5t-162.5 -47.5q-127 0 -213.5 83t-86.5 205zM156 712q26 26 49 36.5t54 10.5q12 0 52.5 -12.5t54.5 -12.5 q37 0 67 34l54 -81q-45 -55 -94 -55q-13 0 -58.5 12.5t-54.5 12.5q-18 0 -29.5 -4t-40.5 -21zM170 335h307q-13 53 -52.5 81.5t-100.5 28.5q-121 0 -154 -110z" />
<glyph unicode="&#x1ebe;" horiz-adv-x="520" d="M68 0v739h397v-131h-260v-174h249v-131h-249v-172h260v-131h-397zM68 806l147 138h107l145 -138h-145l-53 64l-54 -64h-147zM174 1042l224 134l54 -92l-227 -120z" />
<glyph unicode="&#x1ebf;" d="M30 275q0 122 85 207t207 85q124 0 205 -84.5t81 -213.5q0 -27 -5 -51h-429q12 -50 53 -79.5t100 -29.5q41 0 68.5 12.5t53.5 42.5h145q-27 -82 -101.5 -129.5t-162.5 -47.5q-127 0 -213.5 83t-86.5 205zM123 621l147 138h107l145 -138h-145l-53 64l-54 -64h-147z M170 335h307q-13 53 -52.5 81.5t-100.5 28.5q-121 0 -154 -110zM229 857l224 134l54 -92l-227 -120z" />
<glyph unicode="&#x1ec0;" horiz-adv-x="520" d="M68 0v739h397v-131h-260v-174h249v-131h-249v-172h260v-131h-397zM68 806l147 138h107l145 -138h-145l-53 64l-54 -64h-147zM82 1084l54 92l224 -134l-51 -78z" />
<glyph unicode="&#x1ec1;" d="M30 275q0 122 85 207t207 85q124 0 205 -84.5t81 -213.5q0 -27 -5 -51h-429q12 -50 53 -79.5t100 -29.5q41 0 68.5 12.5t53.5 42.5h145q-27 -82 -101.5 -129.5t-162.5 -47.5q-127 0 -213.5 83t-86.5 205zM123 621l147 138h107l145 -138h-145l-53 64l-54 -64h-147z M137 899l54 92l224 -134l-51 -78zM170 335h307q-13 53 -52.5 81.5t-100.5 28.5q-121 0 -154 -110z" />
<glyph unicode="&#x1ec2;" horiz-adv-x="520" d="M68 0v739h397v-131h-260v-174h249v-131h-249v-172h260v-131h-397zM68 806l147 138h107l145 -138h-145l-53 64l-54 -64h-147zM210 1117q3 61 39 90t90 29t91 -31.5t37 -77.5t-58 -85q-21 -14 -26.5 -26.5t-5.5 -44.5h-85v15q0 40 14 62.5t55 50.5q21 15 21 30 q0 14 -12.5 23t-32.5 9q-36 0 -43 -44h-84z" />
<glyph unicode="&#x1ec3;" d="M30 275q0 122 85 207t207 85q124 0 205 -84.5t81 -213.5q0 -27 -5 -51h-429q12 -50 53 -79.5t100 -29.5q41 0 68.5 12.5t53.5 42.5h145q-27 -82 -101.5 -129.5t-162.5 -47.5q-127 0 -213.5 83t-86.5 205zM123 621l147 138h107l145 -138h-145l-53 64l-54 -64h-147z M170 335h307q-13 53 -52.5 81.5t-100.5 28.5q-121 0 -154 -110zM265 932q3 61 39 90t90 29t91 -31.5t37 -77.5t-58 -85q-21 -14 -26.5 -26.5t-5.5 -44.5h-85v15q0 40 14 62.5t55 50.5q21 15 21 30q0 14 -12.5 23t-32.5 9q-36 0 -43 -44h-84z" />
<glyph unicode="&#x1ec4;" horiz-adv-x="520" d="M68 0v739h397v-131h-260v-174h249v-131h-249v-172h260v-131h-397zM68 806l147 138h107l145 -138h-145l-53 64l-54 -64h-147zM101 1054q26 26 49 36.5t54 10.5q12 0 52.5 -12.5t54.5 -12.5q37 0 67 34l54 -81q-45 -55 -94 -55q-13 0 -58.5 12.5t-54.5 12.5q-18 0 -29.5 -4 t-40.5 -21z" />
<glyph unicode="&#x1ec5;" d="M30 275q0 122 85 207t207 85q124 0 205 -84.5t81 -213.5q0 -27 -5 -51h-429q12 -50 53 -79.5t100 -29.5q41 0 68.5 12.5t53.5 42.5h145q-27 -82 -101.5 -129.5t-162.5 -47.5q-127 0 -213.5 83t-86.5 205zM123 621l147 138h107l145 -138h-145l-53 64l-54 -64h-147z M156 869q26 26 49 36.5t54 10.5q12 0 52.5 -12.5t54.5 -12.5q37 0 67 34l54 -81q-45 -55 -94 -55q-13 0 -58.5 12.5t-54.5 12.5q-18 0 -29.5 -4t-40.5 -21zM170 335h307q-13 53 -52.5 81.5t-100.5 28.5q-121 0 -154 -110z" />
<glyph unicode="&#x1ec6;" horiz-adv-x="520" d="M68 0v739h397v-131h-260v-174h249v-131h-249v-172h260v-131h-397zM68 806l147 138h107l145 -138h-145l-53 64l-54 -64h-147zM194 -79h133v-133h-133v133z" />
<glyph unicode="&#x1ec7;" d="M30 275q0 122 85 207t207 85q124 0 205 -84.5t81 -213.5q0 -27 -5 -51h-429q12 -50 53 -79.5t100 -29.5q41 0 68.5 12.5t53.5 42.5h145q-27 -82 -101.5 -129.5t-162.5 -47.5q-127 0 -213.5 83t-86.5 205zM123 631l147 138h107l145 -138h-145l-53 64l-54 -64h-147z M170 335h307q-13 53 -52.5 81.5t-100.5 28.5q-121 0 -154 -110zM256 -79h133v-133h-133v133z" />
<glyph unicode="&#x1ec8;" horiz-adv-x="280" d="M8 939q3 61 39 90t90 29t91 -31.5t37 -77.5t-58 -85q-21 -14 -26.5 -26.5t-5.5 -44.5h-85v15q0 40 14 62.5t55 50.5q21 15 21 30q0 14 -12.5 23t-32.5 9q-36 0 -43 -44h-84zM68 0v739h137v-739h-137z" />
<glyph unicode="&#x1ec9;" horiz-adv-x="240" d="M-8 754q3 61 39 90t90 29t91 -31.5t37 -77.5t-58 -85q-21 -14 -26.5 -26.5t-5.5 -44.5h-85v15q0 40 14 62.5t55 50.5q21 15 21 30q0 14 -12.5 23t-32.5 9q-36 0 -43 -44h-84zM54 0v554h133v-554h-133z" />
<glyph unicode="&#x1eca;" horiz-adv-x="280" d="M68 0v739h137v-739h-137zM71 -79h133v-133h-133v133z" />
<glyph unicode="&#x1ecb;" horiz-adv-x="240" d="M54 0v554h133v-554h-133zM54 -79h133v-133h-133v133zM55 634v133h133v-133h-133z" />
<glyph unicode="&#x1ecc;" horiz-adv-x="840" d="M30 369q0 162 112.5 272.5t277.5 110.5q158 0 269 -112t111 -270q0 -162 -110 -272.5t-271 -110.5q-163 0 -276 111t-113 271zM168 369q0 -105 72.5 -177.5t177.5 -72.5t174.5 71t69.5 178q0 106 -70.5 179t-173.5 73q-107 0 -178.5 -72t-71.5 -179zM354 -79h133v-133 h-133v133z" />
<glyph unicode="&#x1ecd;" d="M30 277q0 119 86 204.5t207 85.5q125 0 210.5 -85t85.5 -209q0 -117 -87 -201.5t-208 -84.5q-122 0 -208 85t-86 205zM164 279q0 -71 47 -120.5t114 -49.5q66 0 113 49t47 119q0 69 -47 118.5t-114 49.5q-65 0 -112.5 -49t-47.5 -117zM257 -79h133v-133h-133v133z" />
<glyph unicode="&#x1ece;" horiz-adv-x="840" d="M30 369q0 162 112.5 272.5t277.5 110.5q158 0 269 -112t111 -270q0 -162 -110 -272.5t-271 -110.5q-163 0 -276 111t-113 271zM168 369q0 -105 72.5 -177.5t177.5 -72.5t174.5 71t69.5 178q0 106 -70.5 179t-173.5 73q-107 0 -178.5 -72t-71.5 -179zM291 939q3 61 39 90 t90 29t91 -31.5t37 -77.5t-58 -85q-21 -14 -26.5 -26.5t-5.5 -44.5h-85v15q0 40 14 62.5t55 50.5q21 15 21 30q0 14 -12.5 23t-32.5 9q-36 0 -43 -44h-84z" />
<glyph unicode="&#x1ecf;" d="M30 277q0 119 86 204.5t207 85.5q125 0 210.5 -85t85.5 -209q0 -117 -87 -201.5t-208 -84.5q-122 0 -208 85t-86 205zM164 279q0 -71 47 -120.5t114 -49.5q66 0 113 49t47 119q0 69 -47 118.5t-114 49.5q-65 0 -112.5 -49t-47.5 -117zM194 754q3 61 39 90t90 29t91 -31.5 t37 -77.5t-58 -85q-21 -14 -26.5 -26.5t-5.5 -44.5h-85v15q0 40 14 62.5t55 50.5q21 15 21 30q0 14 -12.5 23t-32.5 9q-36 0 -43 -44h-84z" />
<glyph unicode="&#x1ed0;" horiz-adv-x="840" d="M30 369q0 162 112.5 272.5t277.5 110.5q158 0 269 -112t111 -270q0 -162 -110 -272.5t-271 -110.5q-163 0 -276 111t-113 271zM168 369q0 -105 72.5 -177.5t177.5 -72.5t174.5 71t69.5 178q0 106 -70.5 179t-173.5 73q-107 0 -178.5 -72t-71.5 -179zM221 806l147 138h107 l145 -138h-145l-53 64l-54 -64h-147zM327 1042l224 134l54 -92l-227 -120z" />
<glyph unicode="&#x1ed1;" d="M30 277q0 119 86 204.5t207 85.5q125 0 210.5 -85t85.5 -209q0 -117 -87 -201.5t-208 -84.5q-122 0 -208 85t-86 205zM124 621l147 138h107l145 -138h-145l-53 64l-54 -64h-147zM164 279q0 -71 47 -120.5t114 -49.5q66 0 113 49t47 119q0 69 -47 118.5t-114 49.5 q-65 0 -112.5 -49t-47.5 -117zM230 857l224 134l54 -92l-227 -120z" />
<glyph unicode="&#x1ed2;" horiz-adv-x="840" d="M30 369q0 162 112.5 272.5t277.5 110.5q158 0 269 -112t111 -270q0 -162 -110 -272.5t-271 -110.5q-163 0 -276 111t-113 271zM168 369q0 -105 72.5 -177.5t177.5 -72.5t174.5 71t69.5 178q0 106 -70.5 179t-173.5 73q-107 0 -178.5 -72t-71.5 -179zM221 806l147 138h107 l145 -138h-145l-53 64l-54 -64h-147zM235 1084l54 92l224 -134l-51 -78z" />
<glyph unicode="&#x1ed3;" d="M30 277q0 119 86 204.5t207 85.5q125 0 210.5 -85t85.5 -209q0 -117 -87 -201.5t-208 -84.5q-122 0 -208 85t-86 205zM124 621l147 138h107l145 -138h-145l-53 64l-54 -64h-147zM138 899l54 92l224 -134l-51 -78zM164 279q0 -71 47 -120.5t114 -49.5q66 0 113 49t47 119 q0 69 -47 118.5t-114 49.5q-65 0 -112.5 -49t-47.5 -117z" />
<glyph unicode="&#x1ed4;" horiz-adv-x="840" d="M30 369q0 162 112.5 272.5t277.5 110.5q158 0 269 -112t111 -270q0 -162 -110 -272.5t-271 -110.5q-163 0 -276 111t-113 271zM168 369q0 -105 72.5 -177.5t177.5 -72.5t174.5 71t69.5 178q0 106 -70.5 179t-173.5 73q-107 0 -178.5 -72t-71.5 -179zM221 806l147 138h107 l145 -138h-145l-53 64l-54 -64h-147zM363 1117q3 61 39 90t90 29t91 -31.5t37 -77.5t-58 -85q-21 -14 -26.5 -26.5t-5.5 -44.5h-85v15q0 40 14 62.5t55 50.5q21 15 21 30q0 14 -12.5 23t-32.5 9q-36 0 -43 -44h-84z" />
<glyph unicode="&#x1ed5;" d="M30 277q0 119 86 204.5t207 85.5q125 0 210.5 -85t85.5 -209q0 -117 -87 -201.5t-208 -84.5q-122 0 -208 85t-86 205zM124 621l147 138h107l145 -138h-145l-53 64l-54 -64h-147zM164 279q0 -71 47 -120.5t114 -49.5q66 0 113 49t47 119q0 69 -47 118.5t-114 49.5 q-65 0 -112.5 -49t-47.5 -117zM266 932q3 61 39 90t90 29t91 -31.5t37 -77.5t-58 -85q-21 -14 -26.5 -26.5t-5.5 -44.5h-85v15q0 40 14 62.5t55 50.5q21 15 21 30q0 14 -12.5 23t-32.5 9q-36 0 -43 -44h-84z" />
<glyph unicode="&#x1ed6;" horiz-adv-x="840" d="M30 369q0 162 112.5 272.5t277.5 110.5q158 0 269 -112t111 -270q0 -162 -110 -272.5t-271 -110.5q-163 0 -276 111t-113 271zM168 369q0 -105 72.5 -177.5t177.5 -72.5t174.5 71t69.5 178q0 106 -70.5 179t-173.5 73q-107 0 -178.5 -72t-71.5 -179zM221 806l147 138h107 l145 -138h-145l-53 64l-54 -64h-147zM254 1054q26 26 49 36.5t54 10.5q12 0 52.5 -12.5t54.5 -12.5q37 0 67 34l54 -81q-45 -55 -94 -55q-13 0 -58.5 12.5t-54.5 12.5q-18 0 -29.5 -4t-40.5 -21z" />
<glyph unicode="&#x1ed7;" d="M30 277q0 119 86 204.5t207 85.5q125 0 210.5 -85t85.5 -209q0 -117 -87 -201.5t-208 -84.5q-122 0 -208 85t-86 205zM124 621l147 138h107l145 -138h-145l-53 64l-54 -64h-147zM157 869q26 26 49 36.5t54 10.5q12 0 52.5 -12.5t54.5 -12.5q37 0 67 34l54 -81 q-45 -55 -94 -55q-13 0 -58.5 12.5t-54.5 12.5q-18 0 -29.5 -4t-40.5 -21zM164 279q0 -71 47 -120.5t114 -49.5q66 0 113 49t47 119q0 69 -47 118.5t-114 49.5q-65 0 -112.5 -49t-47.5 -117z" />
<glyph unicode="&#x1ed8;" horiz-adv-x="840" d="M30 369q0 162 112.5 272.5t277.5 110.5q158 0 269 -112t111 -270q0 -162 -110 -272.5t-271 -110.5q-163 0 -276 111t-113 271zM168 369q0 -105 72.5 -177.5t177.5 -72.5t174.5 71t69.5 178q0 106 -70.5 179t-173.5 73q-107 0 -178.5 -72t-71.5 -179zM221 806l147 138h107 l145 -138h-145l-53 64l-54 -64h-147zM354 -79h133v-133h-133v133z" />
<glyph unicode="&#x1ed9;" d="M30 277q0 119 86 204.5t207 85.5q125 0 210.5 -85t85.5 -209q0 -117 -87 -201.5t-208 -84.5q-122 0 -208 85t-86 205zM124 631l147 138h107l145 -138h-145l-53 64l-54 -64h-147zM164 279q0 -71 47 -120.5t114 -49.5q66 0 113 49t47 119q0 69 -47 118.5t-114 49.5 q-65 0 -112.5 -49t-47.5 -117zM257 -79h133v-133h-133v133z" />
<glyph unicode="&#x1eda;" horiz-adv-x="859" d="M30 369q0 162 112.5 272.5t277.5 110.5q81 0 153 -32.5t125 -89.5q34 42 34 109h95q0 -109 -73 -187q46 -86 46 -182q0 -162 -110 -272.5t-271 -110.5q-163 0 -276 111t-113 271zM168 369q0 -105 72.5 -177.5t177.5 -72.5t174.5 71t69.5 178q0 106 -70.5 179t-173.5 73 q-107 0 -178.5 -72t-71.5 -179zM327 857l224 134l54 -92l-227 -120z" />
<glyph unicode="&#x1edb;" horiz-adv-x="722" d="M30 277q0 119 86 204.5t207 85.5q74 0 137.5 -32.5t104.5 -89.5q33 43 33 109h95q0 -119 -86 -198q12 -39 12 -83q0 -117 -87 -201.5t-208 -84.5q-122 0 -208 85t-86 205zM164 279q0 -71 47 -120.5t114 -49.5q66 0 113 49t47 119q0 69 -47 118.5t-114 49.5 q-65 0 -112.5 -49t-47.5 -117zM230 682l224 134l54 -92l-227 -120z" />
<glyph unicode="&#x1edc;" horiz-adv-x="859" d="M30 369q0 162 112.5 272.5t277.5 110.5q81 0 153 -32.5t125 -89.5q34 42 34 109h95q0 -109 -73 -187q46 -86 46 -182q0 -162 -110 -272.5t-271 -110.5q-163 0 -276 111t-113 271zM168 369q0 -105 72.5 -177.5t177.5 -72.5t174.5 71t69.5 178q0 106 -70.5 179t-173.5 73 q-107 0 -178.5 -72t-71.5 -179zM235 899l54 92l224 -134l-51 -78z" />
<glyph unicode="&#x1edd;" horiz-adv-x="722" d="M30 277q0 119 86 204.5t207 85.5q74 0 137.5 -32.5t104.5 -89.5q33 43 33 109h95q0 -119 -86 -198q12 -39 12 -83q0 -117 -87 -201.5t-208 -84.5q-122 0 -208 85t-86 205zM138 724l54 92l224 -134l-51 -78zM164 279q0 -71 47 -120.5t114 -49.5q66 0 113 49t47 119 q0 69 -47 118.5t-114 49.5q-65 0 -112.5 -49t-47.5 -117z" />
<glyph unicode="&#x1ede;" horiz-adv-x="859" d="M30 369q0 162 112.5 272.5t277.5 110.5q81 0 153 -32.5t125 -89.5q34 42 34 109h95q0 -109 -73 -187q46 -86 46 -182q0 -162 -110 -272.5t-271 -110.5q-163 0 -276 111t-113 271zM168 369q0 -105 72.5 -177.5t177.5 -72.5t174.5 71t69.5 178q0 106 -70.5 179t-173.5 73 q-107 0 -178.5 -72t-71.5 -179zM291 939q3 61 39 90t90 29t91 -31.5t37 -77.5t-58 -85q-21 -14 -26.5 -26.5t-5.5 -44.5h-85v15q0 40 14 62.5t55 50.5q21 15 21 30q0 14 -12.5 23t-32.5 9q-36 0 -43 -44h-84z" />
<glyph unicode="&#x1edf;" horiz-adv-x="722" d="M30 277q0 119 86 204.5t207 85.5q74 0 137.5 -32.5t104.5 -89.5q33 43 33 109h95q0 -119 -86 -198q12 -39 12 -83q0 -117 -87 -201.5t-208 -84.5q-122 0 -208 85t-86 205zM164 279q0 -71 47 -120.5t114 -49.5q66 0 113 49t47 119q0 69 -47 118.5t-114 49.5 q-65 0 -112.5 -49t-47.5 -117zM194 754q3 61 39 90t90 29t91 -31.5t37 -77.5t-58 -85q-21 -14 -26.5 -26.5t-5.5 -44.5h-85v15q0 40 14 62.5t55 50.5q21 15 21 30q0 14 -12.5 23t-32.5 9q-36 0 -43 -44h-84z" />
<glyph unicode="&#x1ee0;" horiz-adv-x="859" d="M30 369q0 162 112.5 272.5t277.5 110.5q81 0 153 -32.5t125 -89.5q34 42 34 109h95q0 -109 -73 -187q46 -86 46 -182q0 -162 -110 -272.5t-271 -110.5q-163 0 -276 111t-113 271zM168 369q0 -105 72.5 -177.5t177.5 -72.5t174.5 71t69.5 178q0 106 -70.5 179t-173.5 73 q-107 0 -178.5 -72t-71.5 -179zM254 887q26 26 49 36.5t54 10.5q12 0 52.5 -12.5t54.5 -12.5q37 0 67 34l54 -81q-45 -55 -94 -55q-13 0 -58.5 12.5t-54.5 12.5q-18 0 -29.5 -4t-40.5 -21z" />
<glyph unicode="&#x1ee1;" horiz-adv-x="722" d="M30 277q0 119 86 204.5t207 85.5q74 0 137.5 -32.5t104.5 -89.5q33 43 33 109h95q0 -119 -86 -198q12 -39 12 -83q0 -117 -87 -201.5t-208 -84.5q-122 0 -208 85t-86 205zM157 712q26 26 49 36.5t54 10.5q12 0 52.5 -12.5t54.5 -12.5q37 0 67 34l54 -81q-45 -55 -94 -55 q-13 0 -58.5 12.5t-54.5 12.5q-18 0 -29.5 -4t-40.5 -21zM164 279q0 -71 47 -120.5t114 -49.5q66 0 113 49t47 119q0 69 -47 118.5t-114 49.5q-65 0 -112.5 -49t-47.5 -117z" />
<glyph unicode="&#x1ee2;" horiz-adv-x="859" d="M30 369q0 162 112.5 272.5t277.5 110.5q81 0 153 -32.5t125 -89.5q34 42 34 109h95q0 -109 -73 -187q46 -86 46 -182q0 -162 -110 -272.5t-271 -110.5q-163 0 -276 111t-113 271zM168 369q0 -105 72.5 -177.5t177.5 -72.5t174.5 71t69.5 178q0 106 -70.5 179t-173.5 73 q-107 0 -178.5 -72t-71.5 -179zM354 -79h133v-133h-133v133z" />
<glyph unicode="&#x1ee3;" horiz-adv-x="722" d="M30 277q0 119 86 204.5t207 85.5q74 0 137.5 -32.5t104.5 -89.5q33 43 33 109h95q0 -119 -86 -198q12 -39 12 -83q0 -117 -87 -201.5t-208 -84.5q-122 0 -208 85t-86 205zM164 279q0 -71 47 -120.5t114 -49.5q66 0 113 49t47 119q0 69 -47 118.5t-114 49.5 q-65 0 -112.5 -49t-47.5 -117zM257 -79h133v-133h-133v133z" />
<glyph unicode="&#x1ee4;" d="M68 271v468h137v-468q0 -82 28.5 -117t84.5 -35q55 0 83.5 34.5t28.5 117.5v468h137v-468q0 -138 -68.5 -211t-181.5 -73q-112 0 -180.5 73.5t-68.5 210.5zM252 -79h133v-133h-133v133z" />
<glyph unicode="&#x1ee5;" horiz-adv-x="600" d="M54 257v297h133v-271q0 -103 26 -138.5t79 -35.5q69 0 101 51q21 35 21 133v261h133v-554h-123v53q-37 -37 -73 -51.5t-86 -14.5q-211 0 -211 270zM235 -79h133v-133h-133v133z" />
<glyph unicode="&#x1ee6;" d="M68 271v468h137v-468q0 -82 28.5 -117t84.5 -35q55 0 83.5 34.5t28.5 117.5v468h137v-468q0 -138 -68.5 -211t-181.5 -73q-112 0 -180.5 73.5t-68.5 210.5zM189 939q3 61 39 90t90 29t91 -31.5t37 -77.5t-58 -85q-21 -14 -26.5 -26.5t-5.5 -44.5h-85v15q0 40 14 62.5 t55 50.5q21 15 21 30q0 14 -12.5 23t-32.5 9q-36 0 -43 -44h-84z" />
<glyph unicode="&#x1ee7;" horiz-adv-x="600" d="M54 257v297h133v-271q0 -103 26 -138.5t79 -35.5q69 0 101 51q21 35 21 133v261h133v-554h-123v53q-37 -37 -73 -51.5t-86 -14.5q-211 0 -211 270zM172 754q3 61 39 90t90 29t91 -31.5t37 -77.5t-58 -85q-21 -14 -26.5 -26.5t-5.5 -44.5h-85v15q0 40 14 62.5t55 50.5 q21 15 21 30q0 14 -12.5 23t-32.5 9q-36 0 -43 -44h-84z" />
<glyph unicode="&#x1ee8;" horiz-adv-x="748" d="M68 271v468h137v-468q0 -71 18 -102q31 -50 95 -50q63 0 94 50q18 31 18 102v468h137v-139q62 50 62 139h95q0 -91 -46 -154t-111 -95v-219q0 -122 -50 -189q-33 -44 -86.5 -69.5t-113.5 -25.5q-65 0 -121 29.5t-88 80.5q-40 64 -40 174zM225 857l224 134l54 -92 l-227 -120z" />
<glyph unicode="&#x1ee9;" horiz-adv-x="729" d="M54 257v297h133v-271q0 -105 27 -139q26 -35 78 -35q71 0 101 51q21 31 21 133v261h133v-138q61 50 61 138h95q0 -90 -45.5 -153.5t-110.5 -94.5v-306h-123v53q-37 -37 -73 -51.5t-86 -14.5q-112 0 -169 82q-23 35 -32.5 76.5t-9.5 111.5zM208 682l224 134l54 -92 l-227 -120z" />
<glyph unicode="&#x1eea;" horiz-adv-x="748" d="M68 271v468h137v-468q0 -71 18 -102q31 -50 95 -50q63 0 94 50q18 31 18 102v468h137v-139q62 50 62 139h95q0 -91 -46 -154t-111 -95v-219q0 -122 -50 -189q-33 -44 -86.5 -69.5t-113.5 -25.5q-65 0 -121 29.5t-88 80.5q-40 64 -40 174zM133 899l54 92l224 -134l-51 -78 z" />
<glyph unicode="&#x1eeb;" horiz-adv-x="729" d="M54 257v297h133v-271q0 -105 27 -139q26 -35 78 -35q71 0 101 51q21 31 21 133v261h133v-138q61 50 61 138h95q0 -90 -45.5 -153.5t-110.5 -94.5v-306h-123v53q-37 -37 -73 -51.5t-86 -14.5q-112 0 -169 82q-23 35 -32.5 76.5t-9.5 111.5zM116 724l54 92l224 -134 l-51 -78z" />
<glyph unicode="&#x1eec;" horiz-adv-x="748" d="M68 271v468h137v-468q0 -71 18 -102q31 -50 95 -50q63 0 94 50q18 31 18 102v468h137v-139q62 50 62 139h95q0 -91 -46 -154t-111 -95v-219q0 -122 -50 -189q-33 -44 -86.5 -69.5t-113.5 -25.5q-65 0 -121 29.5t-88 80.5q-40 64 -40 174zM189 939q3 61 39 90t90 29 t91 -31.5t37 -77.5t-58 -85q-21 -14 -26.5 -26.5t-5.5 -44.5h-85v15q0 40 14 62.5t55 50.5q21 15 21 30q0 14 -12.5 23t-32.5 9q-36 0 -43 -44h-84z" />
<glyph unicode="&#x1eed;" horiz-adv-x="729" d="M54 257v297h133v-271q0 -105 27 -139q26 -35 78 -35q71 0 101 51q21 31 21 133v261h133v-138q61 50 61 138h95q0 -90 -45.5 -153.5t-110.5 -94.5v-306h-123v53q-37 -37 -73 -51.5t-86 -14.5q-112 0 -169 82q-23 35 -32.5 76.5t-9.5 111.5zM172 754q3 61 39 90t90 29 t91 -31.5t37 -77.5t-58 -85q-21 -14 -26.5 -26.5t-5.5 -44.5h-85v15q0 40 14 62.5t55 50.5q21 15 21 30q0 14 -12.5 23t-32.5 9q-36 0 -43 -44h-84z" />
<glyph unicode="&#x1eee;" horiz-adv-x="748" d="M68 271v468h137v-468q0 -71 18 -102q31 -50 95 -50q63 0 94 50q18 31 18 102v468h137v-139q62 50 62 139h95q0 -91 -46 -154t-111 -95v-219q0 -122 -50 -189q-33 -44 -86.5 -69.5t-113.5 -25.5q-65 0 -121 29.5t-88 80.5q-40 64 -40 174zM152 887q26 26 49 36.5t54 10.5 q12 0 52.5 -12.5t54.5 -12.5q37 0 67 34l54 -81q-45 -55 -94 -55q-13 0 -58.5 12.5t-54.5 12.5q-18 0 -29.5 -4t-40.5 -21z" />
<glyph unicode="&#x1eef;" horiz-adv-x="729" d="M54 257v297h133v-271q0 -105 27 -139q26 -35 78 -35q71 0 101 51q21 31 21 133v261h133v-138q61 50 61 138h95q0 -90 -45.5 -153.5t-110.5 -94.5v-306h-123v53q-37 -37 -73 -51.5t-86 -14.5q-112 0 -169 82q-23 35 -32.5 76.5t-9.5 111.5zM135 712q26 26 49 36.5t54 10.5 q12 0 52.5 -12.5t54.5 -12.5q37 0 67 34l54 -81q-45 -55 -94 -55q-13 0 -58.5 12.5t-54.5 12.5q-18 0 -29.5 -4t-40.5 -21z" />
<glyph unicode="&#x1ef0;" horiz-adv-x="748" d="M68 271v468h137v-468q0 -71 18 -102q31 -50 95 -50q63 0 94 50q18 31 18 102v468h137v-139q62 50 62 139h95q0 -91 -46 -154t-111 -95v-219q0 -122 -50 -189q-33 -44 -86.5 -69.5t-113.5 -25.5q-65 0 -121 29.5t-88 80.5q-40 64 -40 174zM252 -79h133v-133h-133v133z" />
<glyph unicode="&#x1ef1;" horiz-adv-x="729" d="M54 257v297h133v-271q0 -105 27 -139q26 -35 78 -35q71 0 101 51q21 31 21 133v261h133v-138q61 50 61 138h95q0 -90 -45.5 -153.5t-110.5 -94.5v-306h-123v53q-37 -37 -73 -51.5t-86 -14.5q-112 0 -169 82q-23 35 -32.5 76.5t-9.5 111.5zM235 -79h133v-133h-133v133z " />
<glyph unicode="&#x1ef2;" horiz-adv-x="620" d="M3 739h148l164 -340l163 340h148l-243 -466v-273h-137v273zM130 899l54 92l224 -134l-51 -78z" />
<glyph unicode="&#x1ef3;" horiz-adv-x="580" d="M6 554h152l123 -359l134 359h153l-320 -739h-143l104 237zM102 724l54 92l224 -134l-51 -78z" />
<glyph unicode="&#x1ef4;" horiz-adv-x="620" d="M3 739h148l164 -340l163 340h148l-243 -466v-273h-137v273zM249 -79h133v-133h-133v133z" />
<glyph unicode="&#x1ef5;" horiz-adv-x="580" d="M6 554h152l123 -359l134 359h153l-320 -739h-143l104 237zM383 -79h133v-133h-133v133z" />
<glyph unicode="&#x1ef6;" horiz-adv-x="620" d="M3 739h148l164 -340l163 340h148l-243 -466v-273h-137v273zM186 939q3 61 39 90t90 29t91 -31.5t37 -77.5t-58 -85q-21 -14 -26.5 -26.5t-5.5 -44.5h-85v15q0 40 14 62.5t55 50.5q21 15 21 30q0 14 -12.5 23t-32.5 9q-36 0 -43 -44h-84z" />
<glyph unicode="&#x1ef7;" horiz-adv-x="580" d="M6 554h152l123 -359l134 359h153l-320 -739h-143l104 237zM158 754q3 61 39 90t90 29t91 -31.5t37 -77.5t-58 -85q-21 -14 -26.5 -26.5t-5.5 -44.5h-85v15q0 40 14 62.5t55 50.5q21 15 21 30q0 14 -12.5 23t-32.5 9q-36 0 -43 -44h-84z" />
<glyph unicode="&#x1ef8;" horiz-adv-x="620" d="M3 739h148l164 -340l163 340h148l-243 -466v-273h-137v273zM149 887q26 26 49 36.5t54 10.5q12 0 52.5 -12.5t54.5 -12.5q37 0 67 34l54 -81q-45 -55 -94 -55q-13 0 -58.5 12.5t-54.5 12.5q-18 0 -29.5 -4t-40.5 -21z" />
<glyph unicode="&#x1ef9;" horiz-adv-x="580" d="M6 554h152l123 -359l134 359h153l-320 -739h-143l104 237zM121 712q26 26 49 36.5t54 10.5q12 0 52.5 -12.5t54.5 -12.5q37 0 67 34l54 -81q-45 -55 -94 -55q-13 0 -58.5 12.5t-54.5 12.5q-18 0 -29.5 -4t-40.5 -21z" />
<glyph unicode="&#x2000;" horiz-adv-x="618" />
<glyph unicode="&#x2001;" horiz-adv-x="1236" />
<glyph unicode="&#x2002;" horiz-adv-x="618" />
<glyph unicode="&#x2003;" horiz-adv-x="1236" />
<glyph unicode="&#x2004;" horiz-adv-x="412" />
<glyph unicode="&#x2005;" horiz-adv-x="309" />
<glyph unicode="&#x2006;" horiz-adv-x="206" />
<glyph unicode="&#x2007;" horiz-adv-x="206" />
<glyph unicode="&#x2008;" horiz-adv-x="154" />
<glyph unicode="&#x2009;" horiz-adv-x="247" />
<glyph unicode="&#x200a;" horiz-adv-x="68" />
<glyph unicode="&#x2010;" horiz-adv-x="420" d="M74 229v118h277v-118h-277z" />
<glyph unicode="&#x2011;" horiz-adv-x="420" d="M74 229v118h277v-118h-277z" />
<glyph unicode="&#x2012;" horiz-adv-x="420" d="M74 229v118h277v-118h-277z" />
<glyph unicode="&#x2013;" horiz-adv-x="500" d="M0 229v118h500v-118h-500z" />
<glyph unicode="&#x2014;" horiz-adv-x="1000" d="M0 229v118h1000v-118h-1000z" />
<glyph unicode="&#x2016;" horiz-adv-x="600" d="M93 -137v876h138v-876h-138zM369 -137v876h138v-876h-138z" />
<glyph unicode="&#x2018;" horiz-adv-x="280" d="M72 466v140q0 60 36 96.5t97 36.5v-67q-32 -6 -45.5 -19t-13.5 -38q0 -10 1 -16h58v-133h-133z" />
<glyph unicode="&#x2019;" horiz-adv-x="280" d="M72 466v67q32 6 45.5 20t13.5 40q0 11 -1 18h-58v128h133v-140q0 -60 -34.5 -96.5t-98.5 -36.5z" />
<glyph unicode="&#x201a;" horiz-adv-x="280" d="M70 0v128h133v-135q0 -60 -34.5 -96.5t-98.5 -36.5v67q32 6 45.5 19t13.5 37q0 11 -1 17h-58z" />
<glyph unicode="&#x201c;" horiz-adv-x="480" d="M70 466v140q0 60 36 96.5t97 36.5v-67q-32 -6 -45.5 -19t-13.5 -39q0 -9 1 -15h58v-133h-133zM277 466v140q0 60 36 96.5t97 36.5v-67q-32 -6 -45.5 -19t-13.5 -37q0 -11 1 -17h58v-133h-133z" />
<glyph unicode="&#x201d;" horiz-adv-x="480" d="M70 466v67q31 6 45 20.5t14 39.5q0 11 -1 18h-58v128h133v-140q0 -60 -35 -96.5t-98 -36.5zM277 466v67q32 6 45.5 20t13.5 40q0 11 -1 18h-58v128h133v-140q0 -60 -35 -96.5t-98 -36.5z" />
<glyph unicode="&#x201e;" horiz-adv-x="480" d="M70 0v128h133v-135q0 -60 -34.5 -96.5t-98.5 -36.5v67q32 6 45.5 19t13.5 37q0 11 -1 17h-58zM277 0v128h133v-135q0 -60 -35 -96.5t-98 -36.5v67q32 6 45.5 19t13.5 37q0 11 -1 17h-58z" />
<glyph unicode="&#x2020;" horiz-adv-x="560" d="M48 436v118h163v185h133v-185h161v-118h-161v-564h-133v564h-163z" />
<glyph unicode="&#x2021;" horiz-adv-x="560" d="M48 260v118h162v95h-162v118h162v148h133v-148h162v-118h-162v-95h162v-118h-162v-388h-133v388h-162z" />
<glyph unicode="&#x2022;" horiz-adv-x="600" d="M134 316q0 69 49.5 118.5t118.5 49.5q70 0 119.5 -49t49.5 -119q0 -71 -49.5 -120t-121.5 -49q-68 0 -117 50t-49 119z" />
<glyph unicode="&#x2026;" horiz-adv-x="1000" d="M100 0v128h133v-128h-133zM432 0v128h133v-128h-133zM765 0v128h134v-128h-134z" />
<glyph unicode="&#x202f;" horiz-adv-x="247" />
<glyph unicode="&#x2030;" horiz-adv-x="1280" d="M21 571q0 76 53 128.5t129 52.5q73 0 126.5 -53t53.5 -127q0 -75 -53 -128t-128 -53t-128 53t-53 127zM129 572q0 -31 21.5 -52.5t51.5 -21.5t52 22t22 52t-22 52t-52 22t-51.5 -21.5t-21.5 -52.5zM223 0l305 739h103l-306 -739h-102zM473 167q0 76 53 128.5t129 52.5 q73 0 126.5 -53t53.5 -127q0 -75 -53 -128t-128 -53t-128 53t-53 127zM581 168q0 -31 21.5 -52.5t51.5 -21.5t52 22t22 52t-22 52t-52 22t-51.5 -21.5t-21.5 -52.5zM886 167q0 76 53 128.5t129 52.5q74 0 127 -53t53 -127q0 -75 -53 -128t-128 -53t-128 53t-53 127zM994 168 q0 -31 21.5 -52.5t51.5 -21.5t52 22t22 52t-22 52t-52 22t-51.5 -21.5t-21.5 -52.5z" />
<glyph unicode="&#x2031;" horiz-adv-x="1693" d="M21 571q0 76 53 128.5t129 52.5q73 0 126.5 -53t53.5 -127q0 -75 -53 -128t-128 -53t-128 53t-53 127zM129 572q0 -31 21.5 -52.5t51.5 -21.5t52 22t22 52t-22 52t-52 22t-51.5 -21.5t-21.5 -52.5zM223 0l305 739h103l-306 -739h-102zM473 167q0 76 53 128.5t129 52.5 q73 0 126.5 -53t53.5 -127q0 -75 -53 -128t-128 -53t-128 53t-53 127zM581 168q0 -31 21.5 -52.5t51.5 -21.5t52 22t22 52t-22 52t-52 22t-51.5 -21.5t-21.5 -52.5zM886 167q0 76 53 128.5t129 52.5q74 0 127 -53t53 -127q0 -75 -53 -128t-128 -53t-128 53t-53 127zM994 168 q0 -31 21.5 -52.5t51.5 -21.5t52 22t22 52t-22 52t-52 22t-51.5 -21.5t-21.5 -52.5zM1299 167q0 76 53 128.5t129 52.5q73 0 126.5 -53t53.5 -127q0 -75 -53 -128t-128 -53t-128 53t-53 127zM1407 168q0 -31 21.5 -52.5t51.5 -21.5t52 22t22 52t-22 52t-52 22t-51.5 -21.5 t-21.5 -52.5z" />
<glyph unicode="&#x2039;" horiz-adv-x="240" d="M36 239v100l139 130v-123l-67 -57l67 -58v-123z" />
<glyph unicode="&#x203a;" horiz-adv-x="240" d="M73 108v123l67 58l-67 57v123l139 -130v-100z" />
<glyph unicode="&#x203b;" horiz-adv-x="600" d="M0 250q0 26 19 45t45 19q27 0 45.5 -19t18.5 -45t-18.5 -45t-45.5 -19q-26 0 -45 19t-19 45zM77 125l125 125l-125 125l98 98l125 -125l125 125l98 -98l-125 -125l125 -125l-98 -98l-125 125l-125 -125zM236 14q0 27 19 45.5t45 18.5t45 -18.5t19 -45.5q0 -26 -19 -45 t-45 -19t-45 19t-19 45zM236 486q0 26 19 45t45 19t45 -19t19 -45q0 -27 -19 -45.5t-45 -18.5t-45 18.5t-19 45.5zM472 250q0 26 18.5 45t45.5 19q26 0 45 -19t19 -45t-19 -45t-45 -19q-27 0 -45.5 19t-18.5 45z" />
<glyph unicode="&#x203d;" horiz-adv-x="560" d="M32 520q7 88 47.5 144t105.5 77v98h133v-94q74 -19 120.5 -79.5t46.5 -142.5q0 -50 -22.5 -89.5t-79.5 -89.5q-41 -36 -52.5 -64t-12.5 -93h-133v396q-16 -25 -20 -63h-133zM185 0v128h133v-128h-133zM318 452q34 36 34 75q0 45 -34 73v-148z" />
<glyph unicode="&#x2044;" horiz-adv-x="160" d="M-121 0l306 739h95l-306 -739h-95z" />
<glyph unicode="&#x2045;" horiz-adv-x="373" d="M54 59v123q0 73 63 123q-63 51 -63 124v123q0 85 78.5 134.5t186.5 49.5v-122q-127 0 -127 -62v-123q0 -62 127 -62v-122q-127 0 -127 -63v-123q0 -62 127 -62v-122q-108 0 -186.5 49.5t-78.5 134.5z" />
<glyph unicode="&#x2046;" horiz-adv-x="373" d="M54 -3q127 0 127 62v123q0 63 -127 63v122q127 0 127 62v123q0 62 -127 62v122q108 0 186.5 -49.5t78.5 -134.5v-123q0 -73 -63 -123q63 -51 63 -124v-123q0 -85 -78.5 -134.5t-186.5 -49.5v122z" />
<glyph unicode="&#x2052;" horiz-adv-x="560" d="M41 598q0 33 23 56.5t57 23.5q33 0 56.5 -23.5t23.5 -56.5t-23.5 -56.5t-56.5 -23.5q-34 0 -57 23.5t-23 56.5zM73 0l284 739h130l-284 -739h-130zM359 141q0 33 23.5 56.5t56.5 23.5q34 0 57 -23.5t23 -56.5t-23 -56.5t-57 -23.5q-33 0 -56.5 23.5t-23.5 56.5z" />
<glyph unicode="&#x205f;" horiz-adv-x="309" />
<glyph unicode="&#x20a1;" horiz-adv-x="780" d="M30 372q0 136 87 241.5t218 131.5v77h110v-71q104 -9 187 -67.5t128 -156.5h-153q-63 82 -162 92v-499q81 10 154 86h161q-41 -95 -125.5 -153t-189.5 -65v-71h-110v79q-133 29 -219 134t-86 242zM168 371q0 -81 46.5 -146.5t120.5 -91.5v475q-75 -24 -121 -88.5 t-46 -148.5z" />
<glyph unicode="&#x20a4;" horiz-adv-x="560" d="M0 282v105h90l-17 26h-73v105h41q1 98 70 166t169 68q95 0 160.5 -58.5t73.5 -152.5h-135q-11 43 -36.5 66t-61.5 23q-43 0 -74 -32.5t-33 -79.5h234v-105h-190l21 -26h169v-105h-90q15 -30 15 -82q0 -38 -13 -75q53 0 81.5 26t28.5 69q0 21 -10 54h132q11 -29 11 -52 q0 -103 -75 -168q-35 -30 -76.5 -42t-110.5 -12h-260v125h139q20 34 20 73q0 41 -34 84h-166z" />
<glyph unicode="&#x20a6;" horiz-adv-x="740" d="M-1 253v122h69v63h-69v122h69v179h156l102 -179h204v179h137v-179h69v-122h-69v-63h69v-122h-69v-253h-153l-146 253h-163v-253h-137v253h-69zM205 375h93l-36 63h-57v-63zM395 438l36 -63h99v63h-135zM500 253l30 -52v52h-30z" />
<glyph unicode="&#x20a9;" horiz-adv-x="900" d="M7 253v122h107l-19 63h-88v122h53l-53 179h140l45 -179h167l44 179h100l43 -179h167l45 179h140l-52 -179h52v-122h-88l-18 -63h106v-122h-142l-74 -253h-109l-62 253h-116l-63 -253h-108l-74 253h-143zM223 438l16 -63h75l15 63h-106zM269 253l8 -30l7 30h-15zM426 375 h56l-16 63h-25zM575 438l15 -63h76l16 63h-107zM620 253l7 -30l8 30h-15z" />
<glyph unicode="&#x20ab;" horiz-adv-x="644" d="M54 0h535v-122h-535v122zM54 347q0 106 68 179t168 73q94 0 146 -60v84h-107v73h107v43h113v-43h40v-73h-40v-512h-104v61q-65 -72 -155 -72q-100 0 -168 71.5t-68 175.5zM167 352q0 -62 41 -105.5t100 -43.5q57 0 97 42.5t40 103.5q0 62 -40.5 104t-99.5 42 q-58 0 -98 -41.5t-40 -101.5z" />
<glyph unicode="&#x20ac;" horiz-adv-x="560" d="M-33 393l24 88h79q33 142 107.5 205.5t198.5 63.5q62 0 109.5 -14.5t109.5 -51.5l-39 -103q-98 58 -183 58q-68 0 -108 -37t-63 -121h315l-33 -88h-289v-45h272l-34 -88h-233q18 -73 64.5 -114t114.5 -41q49 0 146 40v-123q-81 -33 -160 -33q-93 0 -165 46 q-52 31 -81.5 82t-49.5 143h-101l24 88h69v19q0 15 1 26h-95z" />
<glyph unicode="&#x20b1;" horiz-adv-x="560" d="M-1 136v97h69v506h183q132 0 189 -34q100 -61 100 -194q0 -64 -26 -116.5t-71 -80.5q-31 -19 -73 -26t-121 -7h-44v-48h75v-97h-75v-136h-137v136h-69zM205 412h40q89 0 123 23.5t34 73.5q0 57 -34.5 78t-116.5 21h-46v-196z" />
<glyph unicode="&#x2103;" horiz-adv-x="1242" d="M50 534q0 64 44.5 108t109.5 44q62 0 104 -44.5t42 -108.5t-43.5 -108.5t-106.5 -44.5t-106.5 44.5t-43.5 109.5zM106 533q0 -40 28 -68t66 -28q39 0 66 28t27 68t-26.5 68t-64.5 28q-40 0 -68 -28t-28 -68zM404 372q0 157 111.5 268.5t268.5 111.5q115 0 208.5 -59.5 t141.5 -165.5h-153q-38 49 -84 71t-110 22q-105 0 -175 -72t-70 -177q0 -104 73 -178t175 -74q54 0 96 20t87 67h161q-43 -101 -135.5 -160t-205.5 -59q-162 0 -275.5 112.5t-113.5 272.5z" />
<glyph unicode="&#x2113;" horiz-adv-x="563" d="M54 245q47 11 85 30q-2 44 -2 67q0 54 2.5 96.5t8.5 91.5t19 85t32.5 67t50 47t70.5 16q63 0 109 -36.5t46 -92.5q0 -118 -52.5 -223t-143.5 -176q9 -92 48 -92q24 0 41 17.5t17 42.5h124q0 -81 -53 -139.5t-129 -58.5q-123 0 -167 161q-38 -15 -78 -24zM275 389 q75 100 75 227q0 5 -30 5q-43 0 -45 -232z" />
<glyph unicode="&#x2116;" horiz-adv-x="1092" d="M5 0v147h113v592h156l306 -538v538h309v-136h-172v-603h-153l-309 537v-537h-250zM746 78v100h363v-100h-363zM746 377q0 76 53 128.5t129 52.5q74 0 127 -53t53 -127q0 -75 -53 -128t-128 -53t-128 53t-53 127zM854 378q0 -31 21.5 -52.5t51.5 -21.5t52 22t22 52t-22 52 t-52 22t-51.5 -21.5t-21.5 -52.5z" />
<glyph unicode="&#x2117;" horiz-adv-x="740" d="M20 337q0 145 102.5 247.5t247.5 102.5t247.5 -102.5t102.5 -247.5t-102.5 -247.5t-247.5 -102.5t-247.5 102.5t-102.5 247.5zM80 337q0 -120 85 -205t205 -85t205 85t85 205t-85 205t-205 85t-205 -85t-85 -205zM259 138v399h112q75 0 110 -19q62 -34 62 -109 q0 -35 -16 -64.5t-44 -45.5q-33 -18 -113 -18h-15v-143h-96zM355 370h13q45 0 62 8.5t17 29.5q0 25 -17 32.5t-59 7.5h-16v-78z" />
<glyph unicode="&#x2118;" horiz-adv-x="708" d="M54 312q0 161 139 295l76 -80q-77 -74 -77 -215q0 -16 1 -24q60 134 122.5 212.5t136.5 78.5q94 0 148 -87.5t54 -207.5t-54 -208.5t-148 -88.5q-60 0 -135 65l73 83q11 -10 62 -10q23 0 37 13t19.5 40.5t6.5 47.5t1 58q0 30 -0.5 45.5t-3.5 40.5t-9.5 38t-19.5 23 t-31 10t-41.5 -30.5t-51.5 -89.5t-48 -107t-48 -119q39 -97 39 -220q0 -46 -40 -75t-94 -29q-44 0 -75 30.5t-31 73.5q0 81 52 216q-60 133 -60 221zM158 -125q0 -8 10 -8q38 0 38 8q0 11 -27 72q-21 -39 -21 -72z" />
<glyph unicode="&#x211e;" horiz-adv-x="580" d="M68 0v739h213q76 0 121 -12t81 -43q78 -66 78 -182q0 -181 -193 -229l61 -83l113 73l52 -82l-107 -70l81 -111h-169l-26 38l-29 -18l-52 82l26 17l-113 164v-283h-137zM205 386h67q79 0 115 26.5t36 85.5q0 55 -33 82.5t-124 27.5h-61v-222z" />
<glyph unicode="&#x2120;" horiz-adv-x="1065" d="M54 447h117q0 -51 56 -51q24 0 39.5 10.5t15.5 27.5q0 21 -17 32q-13 8 -82 30q-111 34 -111 122q0 53 45 90.5t109 37.5q69 0 113.5 -38t43.5 -101h-117q2 21 -8.5 32t-31.5 11q-17 0 -28.5 -8.5t-11.5 -21.5q0 -15 21 -26q6 -3 53 -18q77 -24 106 -55t29 -78 q0 -60 -48.5 -101.5t-119.5 -41.5q-75 0 -123.5 40t-49.5 107zM477 307v432h143l125 -293l123 293h143v-432h-113v263l-110 -263h-88l-110 263v-263h-113z" />
<glyph unicode="&#x2122;" horiz-adv-x="1000" d="M54 643v96h295v-96h-91v-336h-113v336h-91zM412 307v432h143l125 -293l123 293h143v-432h-113v263l-110 -263h-88l-110 263v-263h-113z" />
<glyph unicode="&#x2126;" horiz-adv-x="771" d="M20 338q0 150 107 254q107 105 257 105q151 0 257 -104q107 -104 107 -254q0 -61 -19.5 -116.5t-55.5 -85.5h59v-138h-249l-15 135q61 27 100.5 81t39.5 124q0 93 -66 158q-64 62 -150 65l1 -2q-101 0 -166.5 -64t-65.5 -158q0 -70 39 -123.5t101 -80.5l-15 -135h-253 v138h62q-36 30 -55.5 84.5t-19.5 116.5z" />
<glyph unicode="&#x2127;" horiz-adv-x="771" d="M24 401q0 61 19.5 116.5t55.5 85.5h-59v138h249l15 -135q-61 -27 -100.5 -81t-39.5 -124q0 -93 66 -158q64 -62 150 -65l-1 2q101 0 166.5 64t65.5 158q0 70 -39 123.5t-101 80.5l15 135h253v-138h-62q36 -30 55.5 -84.5t19.5 -116.5q0 -150 -107 -254 q-107 -105 -257 -105q-151 0 -257 104q-107 104 -107 254z" />
<glyph unicode="&#x212e;" horiz-adv-x="847" d="M54 333q0 140 109.5 236t260.5 96q150 0 259.5 -96t109.5 -236v-10h-594q-10 0 -10 -10v-184q0 -4 3 -7q93 -103 232 -103q69 0 131 29t106 81h55q-52 -61 -129 -95t-163 -34q-151 0 -260.5 96t-109.5 237zM189 352q0 -10 10 -10h449q10 0 10 10v184q0 4 -3 7 q-44 49 -104.5 76t-126.5 27q-139 0 -232 -103q-3 -3 -3 -7v-184z" />
<glyph unicode="&#x2190;" horiz-adv-x="1000" d="M115 250l123 255l124 -60l-60 -126h590v-138h-590l60 -126l-124 -60z" />
<glyph unicode="&#x2191;" horiz-adv-x="726" d="M108 512l255 123l255 -123l-60 -124l-126 60v-590h-138v590l-126 -60z" />
<glyph unicode="&#x2192;" horiz-adv-x="1000" d="M108 181v138h590l-60 126l124 60l123 -255l-123 -255l-124 60l60 126h-590z" />
<glyph unicode="&#x2193;" horiz-adv-x="726" d="M108 -12l60 124l126 -60v590h138v-590l126 60l60 -124l-255 -123z" />
<glyph unicode="&#x2202;" horiz-adv-x="494" d="M23 185q0 100 56.5 174.5t144.5 74.5q57 0 108 -21q-8 239 -134 239q-16 0 -55 -41l-102 94q48 50 157 50q84 0 147.5 -56t94.5 -142.5t31 -186.5t-31 -186.5t-94.5 -143t-147.5 -56.5q-75 0 -125 59.5t-50 141.5zM161 185q0 -23 0.5 -35.5t4 -29.5t11.5 -25t21 -8 q118 0 133 209q-49 35 -107 35q-21 0 -34.5 -12.5t-19.5 -36t-7.5 -45t-1.5 -52.5z" />
<glyph unicode="&#x2211;" horiz-adv-x="713" d="M81 15l157 300l-157 299v138h551v-138h-395l156 -300l-156 -299h395v-138h-551v138z" />
<glyph unicode="&#x2212;" horiz-adv-x="600" d="M54 181v138h492v-138h-492z" />
<glyph unicode="&#x2213;" horiz-adv-x="600" d="M54 43v138h177v57h138v-57h177v-138h-177v-177h-138v177h-177zM54 362v138h492v-138h-492z" />
<glyph unicode="&#x2215;" horiz-adv-x="0" d="M-200 0l306 739h95l-306 -739h-95z" />
<glyph unicode="&#x2217;" horiz-adv-x="469" d="M54 207v85l119 -6l-64 103l76 39l53 -104l55 105l71 -43l-65 -100l116 7v-86l-116 6l63 -96l-68 -46l-56 106l-52 -106l-77 37l63 107z" />
<glyph unicode="&#x221a;" horiz-adv-x="549" d="M-25 461l194 94l169 -343l114 705l90 -13l-152 -939h-56l-225 460l-95 -47z" />
<glyph unicode="&#x221e;" horiz-adv-x="746" d="M32 310q0 85 59 144.5t143 59.5q80 0 138 -86q60 86 138 86q86 0 145 -59t59 -145q0 -87 -57.5 -144.5t-144.5 -57.5q-42 0 -80 30t-60 66q-19 -36 -58 -66t-82 -30q-86 0 -143 57.5t-57 144.5zM154 310q0 -32 23 -53t57 -21q20 0 40 18.5t30 37.5l10 18q-4 9 -11 21.5 t-28 33.5t-41 21q-35 0 -57.5 -21.5t-22.5 -54.5zM430 310q1 -3 4 -8t11.5 -18t17.5 -22.5t22.5 -17.5t26.5 -8q33 0 56.5 21.5t23.5 52.5q0 33 -23.5 54.5t-58.5 21.5q-20 0 -40 -19t-30 -38z" />
<glyph unicode="&#x2222;" horiz-adv-x="600" d="M84 201v98l233 117q-30 37 -69 61l57 93q69 -44 111 -105l51 26l49 -98l-51 -25q19 -60 19 -118t-19 -118l51 -25l-49 -98l-51 26q-42 -61 -111 -105l-57 93q39 24 69 61zM230 250l136 -68q9 33 9 68t-9 68z" />
<glyph unicode="&#x2248;" horiz-adv-x="600" d="M51 118q44 71 72.5 97t75.5 26q39 0 77 -16l67 -27q54 -22 71 -22q36 0 77 74l64 -74q-39 -64 -71.5 -90.5t-73.5 -26.5q-33 0 -91 24l-54 22q-47 19 -64 19q-26 0 -47 -22q-11 -11 -40 -59zM51 325q44 71 72.5 97t75.5 26q39 0 77 -16l67 -27q54 -22 71 -22q36 0 77 74 l64 -74q-39 -64 -71.5 -90.5t-73.5 -26.5q-33 0 -91 24l-54 22q-47 19 -64 19q-26 0 -47 -22q-11 -11 -40 -59z" />
<glyph unicode="&#x2260;" horiz-adv-x="600" d="M54 89v138h158l23 46h-181v138h249l85 174l124 -62l-55 -112h89v-138h-158l-23 -46h181v-138h-249l-85 -174l-124 62l55 112h-89z" />
<glyph unicode="&#x2264;" horiz-adv-x="600" d="M65 437v108l427 338v-176l-273 -216l273 -216v-176zM108 -69v138h384v-138h-384z" />
<glyph unicode="&#x2265;" horiz-adv-x="600" d="M108 -69v138h384v-138h-384zM108 99v176l273 216l-273 216v176l427 -338v-108z" />
<glyph unicode="&#x22c6;" horiz-adv-x="560" d="M12 302l30 94l200 -77l-11 214h98l-11 -214l200 77l30 -94l-207 -55l135 -166l-80 -58l-116 180l-116 -180l-80 58l135 166z" />
<glyph unicode="&#x2300;" horiz-adv-x="600" d="M43 70l58 58q-34 58 -34 122q0 97 68 165t165 68q64 0 122 -34l58 58l77 -77l-58 -58q34 -58 34 -122q0 -97 -68 -165t-165 -68q-64 0 -122 34l-58 -58zM176 250q0 -23 7 -40l157 157q-17 7 -40 7q-51 0 -87.5 -36.5t-36.5 -87.5zM260 133q17 -7 40 -7q51 0 87.5 36.5 t36.5 87.5q0 23 -7 40z" />
<glyph unicode="&#x2329;" horiz-adv-x="295" d="M54 301l48 438h138l-48 -438l48 -438h-138z" />
<glyph unicode="&#x232a;" horiz-adv-x="295" d="M54 -137l48 438l-48 438h138l48 -438l-48 -438h-138z" />
<glyph unicode="&#x2422;" horiz-adv-x="660" d="M-7 496v116l61 23v104h133v-56l143 53v-117l-143 -52v-64q38 38 78 54.5t94 16.5q119 0 199 -84t80 -209q0 -126 -76.5 -210t-193.5 -84q-62 0 -105.5 19t-86.5 65v-71h-122v518zM179 281q0 -76 46 -124t118 -48q71 0 116 47.5t45 123.5q0 74 -46.5 123t-117.5 49 q-70 0 -115.5 -48t-45.5 -123z" />
<glyph unicode="&#x2423;" horiz-adv-x="500" d="M54 -92v308h122v-186h148v186h122v-308h-392z" />
<glyph unicode="&#x25ca;" horiz-adv-x="494" d="M18 377l196 363h63l189 -366l-197 -374h-60zM111 376l129 -259l133 257l-128 251z" />
<glyph unicode="&#x25e6;" horiz-adv-x="600" d="M134 316q0 70 49.5 119t119.5 49t119 -49t49 -119t-49 -119.5t-119 -49.5q-71 0 -120 49.5t-49 119.5zM272 316q0 -13 9 -22t22 -9q12 0 21 9t9 22q0 12 -9 21t-21 9q-13 0 -22 -9t-9 -21z" />
<glyph unicode="&#x266a;" horiz-adv-x="672" d="M138 110q0 56 50 89.5t118 33.5q20 0 38 -3v509h126q0 -31 16 -71.5t31.5 -67.5t43.5 -71q51 -82 79 -146t28 -133h-130q0 69 -64 173v-313q0 -56 -50 -89.5t-118 -33.5t-118 33.5t-50 89.5z" />
<glyph unicode="&#x26ad;" horiz-adv-x="560" d="M-101 250q0 115 81 196t196 81q55 0 104 -20q49 20 105 20q114 0 195.5 -81t81.5 -196t-81.5 -196t-195.5 -81q-56 0 -105 20q-49 -20 -104 -20q-115 0 -196 81t-81 196zM37 250q0 -48 30 -86t76 -49q-35 61 -35 135t35 135q-46 -11 -76 -49t-30 -86zM246 250 q0 -52 34 -92q35 42 35 92t-35 92q-34 -40 -34 -92zM417 115q46 11 76.5 49t30.5 86t-30.5 86t-76.5 49q36 -63 36 -135t-36 -135z" />
<glyph unicode="&#x26ae;" horiz-adv-x="560" d="M-229 250q0 112 57 194.5t151 82.5q93 0 150.5 -82.5t57.5 -194.5t-57.5 -194.5t-150.5 -82.5q-94 0 -151 82.5t-57 194.5zM-91 250q0 -139 70 -139q42 0 64 41t22 98t-22 98t-64 41q-70 0 -70 -139zM211 -304v1108h138v-1108h-138zM373 250q0 112 57.5 194.5t150.5 82.5 q94 0 151 -82.5t57 -194.5t-57 -194.5t-151 -82.5q-93 0 -150.5 82.5t-57.5 194.5zM495 250q0 -57 22 -98t64 -41q70 0 70 139t-70 139q-42 0 -64 -41t-22 -98z" />
<glyph unicode="&#x27e6;" horiz-adv-x="660" d="M54 -137v876h552v-130h-138v-616h138v-130h-552zM192 -7h138v616h-138v-616z" />
<glyph unicode="&#x27e7;" horiz-adv-x="660" d="M54 -7h138v616h-138v130h552v-876h-552v130zM330 -7h138v616h-138v-616z" />
<glyph unicode="&#x2a7d;" horiz-adv-x="600" d="M65 437v108l427 338v-176l-273 -216l273 -216v-176zM108 70v176l384 -304v-176z" />
<glyph unicode="&#x2a7e;" horiz-adv-x="600" d="M65 -58l384 304v-176l-384 -304v176zM65 99v176l273 216l-273 216v176l427 -338v-108z" />
<glyph unicode="&#xe000;" horiz-adv-x="555" d="M0 0v555h555v-555h-555z" />
<glyph unicode="&#xe001;" horiz-adv-x="637" d="M14 0l254 554h99l256 -554h-147l-62 135h-189l-64 -135h-147zM152 770h98q18 -43 68 -43q54 0 62 43h102q-2 -62 -47.5 -100.5t-116.5 -38.5q-74 0 -118 36.5t-48 102.5zM276 258h83l-41 107zM283 -79h133v-133h-133v133z" />
<glyph unicode="&#xe002;" horiz-adv-x="637" d="M14 0l254 554h99l256 -554h-147l-62 135h-189l-64 -135h-147zM113 907l54 92l224 -134l-51 -78zM153 760h98q18 -43 68 -43q54 0 62 43h102q-2 -62 -47.5 -100.5t-116.5 -38.5q-74 0 -118 36.5t-48 102.5zM276 258h83l-41 107z" />
<glyph unicode="&#xe003;" horiz-adv-x="637" d="M14 0l254 554h99l256 -554h-147l-62 135h-189l-64 -135h-147zM153 760h98q18 -43 68 -43q54 0 62 43h102q-2 -62 -47.5 -100.5t-116.5 -38.5q-74 0 -118 36.5t-48 102.5zM190 919q3 61 39 90t90 29t91 -31.5t37 -77.5t-58 -85q-21 -14 -26.5 -26.5t-5.5 -44.5h-85v15 q0 40 14 62.5t55 50.5q21 15 21 30q0 14 -12.5 23t-32.5 9q-36 0 -43 -44h-84zM276 258h83l-41 107z" />
<glyph unicode="&#xe004;" horiz-adv-x="637" d="M14 0l254 554h99l256 -554h-147l-62 135h-189l-64 -135h-147zM152 876q26 26 49 36.5t54 10.5q12 0 52.5 -12.5t54.5 -12.5q37 0 67 34l54 -81q-45 -55 -94 -55q-13 0 -58.5 12.5t-54.5 12.5q-18 0 -29.5 -4t-40.5 -21zM153 760h98q18 -43 68 -43q54 0 62 43h102 q-2 -62 -47.5 -100.5t-116.5 -38.5q-74 0 -118 36.5t-48 102.5zM276 258h83l-41 107z" />
<glyph unicode="&#xe005;" horiz-adv-x="637" d="M14 0l254 554h99l256 -554h-147l-62 135h-189l-64 -135h-147zM119 621l147 138h107l145 -138h-145l-53 64l-54 -64h-147zM225 857l224 134l54 -92l-227 -120zM276 258h83l-41 107z" />
<glyph unicode="&#xe006;" horiz-adv-x="637" d="M14 0l254 554h99l256 -554h-147l-62 135h-189l-64 -135h-147zM119 631l147 138h107l145 -138h-145l-53 64l-54 -64h-147zM276 258h83l-41 107zM283 -79h133v-133h-133v133z" />
</font>
</defs>
</svg>
