<?xml version="1.0" standalone="no"?>
<!DOCTYPE svg PUBLIC "-//W3C//DTD SVG 1.1//EN" "http://www.w3.org/Graphics/SVG/1.1/DTD/svg11.dtd" >
<svg xmlns="http://www.w3.org/2000/svg">
<metadata></metadata>
<defs>
<font id="texgyreadventoritalic" horiz-adv-x="683" >
<font-face units-per-em="1000" ascent="808" descent="-192" />
<missing-glyph horiz-adv-x="277" />
<glyph unicode="IJ" horiz-adv-x="669" d="M33 0l137 739h74l-137 -739h-74zM211 146q0 18 2 29h73q6 -64 28 -92.5t74 -28.5q62 0 100 43t56 134l95 508h74l-95 -508q-22 -121 -83.5 -183t-157.5 -62q-77 0 -121.5 41t-44.5 119z" />
<glyph unicode="ij" horiz-adv-x="405" d="M33 0l101 547h74l-101 -547h-74zM89 -192l13 71q64 4 94.5 38.5t47.5 120.5l94 509h74l-94 -509q-35 -220 -229 -230zM146 607l23 126h74l-23 -126h-74zM350 607l23 126h74l-23 -126h-74z" />
<glyph unicode="fk" horiz-adv-x="787" d="M71 0l89 480h-85l12 67h85q20 99 81 145.5t147 46.5h17l-12 -67h-15q-64 0 -98 -29.5t-46 -95.5h135l-12 -67h-135l-89 -480h-74zM318 0l137 739h74l-97 -524l316 332h91l-264 -275l177 -272h-92l-141 219l-106 -106l-21 -113h-74z" />
<glyph unicode="ff" horiz-adv-x="573" d="M71 0l89 480h-85l12 67h85q20 99 81 145.5t147 46.5h17l-12 -67h-15q-64 0 -98 -29.5t-46 -95.5h173q20 99 81 145.5t147 46.5h17l-12 -67h-15q-64 0 -98 -29.5t-46 -95.5h135l-12 -67h-135l-89 -480h-74l89 480h-173l-89 -480h-74z" />
<glyph unicode="fi" horiz-adv-x="487" d="M71 0l89 480h-85l12 67h85q20 99 81 145.5t147 46.5h17l-12 -67h-15q-64 0 -98 -29.5t-46 -95.5h135l-12 -67h-135l-89 -480h-74zM320 0l101 547h74l-101 -547h-74zM433 607l23 126h74l-23 -126h-74z" />
<glyph unicode="fl" horiz-adv-x="485" d="M71 0l89 480h-85l12 67h85q20 99 81 145.5t147 46.5h17l-12 -67h-15q-64 0 -98 -29.5t-46 -95.5h135l-12 -67h-135l-89 -480h-74zM318 0l137 739h74l-137 -739h-74z" />
<glyph unicode="ffi" horiz-adv-x="732" d="M71 0l89 480h-85l12 67h85q20 99 81 145.5t147 46.5h17l-12 -67h-15q-64 0 -98 -29.5t-46 -95.5h173q20 99 81 145.5t147 46.5h17l-12 -67h-15q-64 0 -98 -29.5t-46 -95.5h135l-12 -67h-135l-89 -480h-74l89 480h-173l-89 -480h-74zM565 0l101 547h74l-101 -547h-74z M677 607l23 126h74l-23 -126h-74z" />
<glyph unicode="ffl" horiz-adv-x="732" d="M71 0l89 480h-85l12 67h85q20 99 81 145.5t147 46.5h17l-12 -67h-15q-64 0 -98 -29.5t-46 -95.5h173q20 99 81 145.5t147 46.5h17l-12 -67h-15q-64 0 -98 -29.5t-46 -95.5h135l-12 -67h-135l-89 -480h-74l89 480h-173l-89 -480h-74zM565 0l137 739h74l-137 -739h-74z" />
<glyph unicode=" "  horiz-adv-x="277" />
<glyph unicode="&#x09;" horiz-adv-x="277" />
<glyph unicode="&#xa0;" horiz-adv-x="277" />
<glyph unicode="!" horiz-adv-x="295" d="M81 0l23 126h74l-23 -126h-74zM118 197l100 542h74l-100 -542h-74z" />
<glyph unicode="&#x22;" horiz-adv-x="309" d="M139 513l42 226h50l-42 -226h-50zM252 513l42 226h50l-42 -226h-50z" />
<glyph unicode="#" horiz-adv-x="554" d="M21 237l11 60h128l59 156h-121l11 60h132l85 226h64l-84 -226h127l83 226h66l-83 -226h111l-11 -60h-122l-57 -156h115l-11 -60h-126l-87 -237h-66l87 237h-129l-88 -237h-66l89 237h-117zM226 297h128l57 156h-127z" />
<glyph unicode="$" horiz-adv-x="554" d="M82 178q0 18 6 50h68q-2 -24 -2 -32q0 -47 29.5 -76.5t77.5 -29.5q65 0 110.5 47.5t45.5 114.5q0 41 -23 65.5t-89 45.5q-78 24 -108 59.5t-30 90.5q0 79 51.5 139.5t131.5 75.5l15 82h66l-15 -82q68 -15 98.5 -51.5t30.5 -103.5q0 -4 -2 -26h-70q2 23 2 32q0 38 -27 62 t-69 24q-59 0 -99.5 -42.5t-40.5 -106.5q0 -29 22.5 -48.5t81.5 -39.5q90 -31 120.5 -67.5t30.5 -96.5q0 -83 -56 -150.5t-152 -84.5l-16 -85h-66l16 85q-57 8 -97.5 47t-40.5 102z" />
<glyph unicode="%" horiz-adv-x="775" d="M87 542q0 78 64 142.5t148 64.5q62 0 103.5 -41t41.5 -102q0 -81 -64 -145t-145 -64q-64 0 -106 41t-42 104zM153 0l468 739h75l-471 -739h-72zM155 552q0 -37 25 -62t63 -25q53 0 93 39t40 91q0 36 -25.5 61t-62.5 25q-53 0 -93 -38.5t-40 -90.5zM398 132q0 80 64.5 143 t147.5 63q62 0 103.5 -41t41.5 -102q0 -81 -64 -144.5t-146 -63.5q-64 0 -105.5 41t-41.5 104zM466 142q0 -37 25.5 -62t62.5 -25q53 0 93 39t40 91q0 35 -25.5 60t-62.5 25q-52 0 -92.5 -39t-40.5 -89z" />
<glyph unicode="&#x26;" horiz-adv-x="757" d="M63 173q0 61 34 119t93 95l71 37q10 5 17 9q-55 75 -55 127q0 76 63 134t146 58q66 0 107.5 -37.5t41.5 -97.5q0 -69 -39.5 -115t-140.5 -91l115 -138l146 208h82l-184 -261l153 -182l-60 -51l-141 166q-107 -166 -256 -166q-88 0 -140.5 50.5t-52.5 135.5zM135 177 q0 -53 37 -87.5t94 -34.5q51 0 104 39t97 112l-146 174q-102 -47 -144 -92.5t-42 -110.5zM300 572q0 -23 12 -45t45 -63q92 38 122 66t30 73q0 38 -23.5 59.5t-64.5 21.5q-46 0 -83.5 -34t-37.5 -78z" />
<glyph unicode="'" horiz-adv-x="198" d="M139 513l42 226h50l-42 -226h-50z" />
<glyph unicode="(" horiz-adv-x="369" d="M76 221q0 98 44.5 203t130 193t191.5 122l-12 -63q-135 -81 -206 -201.5t-71 -242.5q0 -194 141 -292l-12 -65q-98 39 -152 135.5t-54 210.5z" />
<glyph unicode=")" horiz-adv-x="369" d="M-20 -125l12 64q118 63 198 190.5t80 252.5q0 185 -142 292l12 65q94 -34 150.5 -133t56.5 -214q0 -100 -45 -203.5t-130 -189t-192 -124.5z" />
<glyph unicode="*" horiz-adv-x="425" d="M142 602l10 52l105 -22l-40 102l55 18l34 -100l70 82l41 -38l-73 -81l103 -16l-9 -52l-102 21l39 -100l-53 -19l-35 101l-70 -80l-44 36l75 79z" />
<glyph unicode="+" horiz-adv-x="606" d="M86 213v74h203v203h74v-203h203v-74h-203v-203h-74v203h-203z" />
<glyph unicode="," horiz-adv-x="277" d="M49 -67l124 193h73l-124 -193h-73z" />
<glyph unicode="-" horiz-adv-x="332" d="M50 233l12 63h272l-12 -63h-272z" />
<glyph unicode="." horiz-adv-x="277" d="M71 0l23 126h74l-23 -126h-74z" />
<glyph unicode="/" horiz-adv-x="437" d="M-14 -128l449 867h69l-451 -867h-67z" />
<glyph unicode="0" horiz-adv-x="554" d="M41 175q0 49 10 94l39 210q25 136 102.5 204.5t195.5 68.5q89 0 146 -50.5t57 -126.5q0 -47 -9 -96l-39 -210q-53 -282 -296 -282q-95 0 -150.5 50.5t-55.5 137.5zM118 189q0 -60 39 -97t103 -37q86 0 138 53.5t74 172.5l33 181q9 52 9 88q0 63 -39.5 98.5t-100.5 35.5 q-175 0 -215 -222l-33 -181q-8 -37 -8 -92z" />
<glyph unicode="1" horiz-adv-x="554" d="M250 672l12 67h199l-137 -739h-73l125 672h-126z" />
<glyph unicode="2" horiz-adv-x="554" d="M3 0l12 67l306 250q107 87 143 136t36 107q0 56 -36 90t-96 34q-76 0 -127.5 -49t-65.5 -135h-73q17 112 94.5 182t184.5 70q88 0 142 -49.5t54 -130.5q0 -74 -39 -134t-143 -144l-280 -227h369l-12 -67h-469z" />
<glyph unicode="3" horiz-adv-x="554" d="M41 171q0 22 3 60h73l-1 -15q0 -86 33.5 -123.5t97.5 -37.5q77 0 135.5 59t58.5 138q0 74 -45.5 105t-135.5 31l12 66l39 -2q61 0 103.5 40t42.5 101q0 40 -25 65.5t-68 25.5q-53 0 -92 -36.5t-45 -92.5h-73q19 93 81.5 145t143.5 52q70 0 112.5 -41t42.5 -107 q0 -113 -108 -181q92 -49 92 -153q0 -112 -84 -197.5t-194 -85.5q-88 0 -143.5 52t-55.5 132z" />
<glyph unicode="4" horiz-adv-x="554" d="M7 135l12 67l461 537h87l-100 -537h68l-12 -67h-68l-25 -135h-73l25 135h-375zM105 202h289l81 435z" />
<glyph unicode="5" horiz-adv-x="554" d="M37 190v42h72q0 -89 39.5 -133t104.5 -44q88 0 152.5 69t64.5 162q0 66 -40 107.5t-104 41.5q-86 0 -168 -82l-53 22l133 364h335l-12 -67h-276l-74 -204q74 35 136 35q89 0 144.5 -57.5t55.5 -148.5q0 -122 -92.5 -216t-208.5 -94q-86 0 -147.5 57t-61.5 146z" />
<glyph unicode="6" horiz-adv-x="554" d="M36 189q0 71 24.5 125.5t109.5 152.5l233 272h85l-221 -257q50 21 91 21q84 0 137.5 -57t53.5 -147q0 -126 -90 -219t-212 -93q-93 0 -152 56.5t-59 145.5zM113 204q0 -68 40.5 -108.5t107.5 -40.5q84 0 147.5 70.5t63.5 160.5q0 67 -38.5 108t-102.5 41 q-86 0 -152 -68.5t-66 -162.5z" />
<glyph unicode="7" horiz-adv-x="554" d="M78 0l431 672h-350l12 67h426l-12 -67l-429 -672h-78z" />
<glyph unicode="8" horiz-adv-x="554" d="M48 176q0 74 44.5 138.5t120.5 98.5q-37 28 -49.5 52t-12.5 62q0 91 73 158t163 67q73 0 118 -41.5t45 -107.5q0 -62 -29 -113t-90 -77q95 -50 95 -146q0 -116 -81 -198t-196 -82q-92 0 -146.5 51.5t-54.5 137.5zM125 181q0 -55 38 -90.5t96 -35.5q79 0 135.5 57.5 t56.5 137.5q0 56 -36.5 90.5t-95.5 34.5q-79 0 -136.5 -56.5t-57.5 -137.5zM228 541q0 -41 30 -69t74 -28q57 0 99 44t42 99q0 44 -27 70.5t-73 26.5q-59 0 -102 -42.5t-43 -100.5z" />
<glyph unicode="9" horiz-adv-x="554" d="M82 435q0 128 89.5 222.5t210.5 94.5q95 0 154 -56t59 -146q0 -71 -32 -137q-22 -46 -103 -141l-233 -272h-85l222 257q-50 -21 -91 -21q-83 0 -137 56.5t-54 142.5zM159 455q0 -68 38 -109.5t102 -41.5q89 0 154 68t65 160q0 68 -41 110t-107 42q-86 0 -148.5 -71.5 t-62.5 -157.5z" />
<glyph unicode=":" horiz-adv-x="277" d="M71 0l23 126h74l-23 -126h-74zM143 381l23 126h74l-23 -126h-74z" />
<glyph unicode=";" horiz-adv-x="277" d="M-1 -67l125 193h72l-124 -193h-73zM171 381l23 126h74l-23 -126h-74z" />
<glyph unicode="&#x3c;" horiz-adv-x="606" d="M125 222v56l378 317v-96l-296 -249l296 -249v-96z" />
<glyph unicode="=" horiz-adv-x="606" d="M86 121v74h480v-74h-480zM86 305v74h480v-74h-480z" />
<glyph unicode="&#x3e;" horiz-adv-x="606" d="M125 1l296 249l-296 249v96l378 -317v-56l-378 -317v96z" />
<glyph unicode="?" horiz-adv-x="591" d="M129 508q26 118 101 181t178 63q86 0 137.5 -48t51.5 -127q0 -64 -25 -108t-101 -104q-65 -52 -94.5 -91t-37.5 -81h-70q9 102 139 204q66 52 85 81q27 39 27 89q0 52 -35 84.5t-91 32.5q-148 0 -195 -176h-70zM231 0l23 126h74l-23 -126h-74z" />
<glyph unicode="@" horiz-adv-x="867" d="M103 298q0 118 64.5 223t172 168t228.5 63q123 0 204 -74.5t81 -188.5q0 -78 -45 -160.5t-113.5 -136t-132.5 -53.5q-36 0 -54 13t-25 44q-66 -52 -129 -52q-52 0 -82.5 30.5t-30.5 82.5q0 72 48 151.5t119.5 132t135.5 52.5q82 0 102 -69l26 50h61l-145 -278 q-26 -54 -30 -64t-4 -21q0 -8 9 -14t22 -6q40 0 90.5 42.5t87.5 112.5t37 136q0 96 -69.5 157t-178.5 61q-153 0 -274.5 -120.5t-121.5 -272.5q0 -117 77.5 -192.5t197.5 -75.5q137 0 252 99l34 -33q-130 -118 -304 -118q-134 0 -222 88t-88 223zM313 271q0 -32 17.5 -50.5 t46.5 -18.5q40 0 76 28.5t79 93.5q66 101 66 158q0 26 -16 42t-45 17h-5q-44 0 -96 -44.5t-87.5 -108.5t-35.5 -117z" />
<glyph unicode="A" horiz-adv-x="740" d="M-19 0l454 739h83l181 -739h-81l-61 249h-344l-154 -249h-78zM254 316h287l-80 339z" />
<glyph unicode="B" horiz-adv-x="574" d="M46 0l137 739h173q113 0 167 -35t54 -109q0 -67 -29.5 -121.5t-90.5 -79.5q56 -27 78.5 -57t22.5 -77q0 -57 -23 -109.5t-62 -86.5q-40 -35 -95.5 -49.5t-148.5 -14.5h-183zM132 67h101q138 0 193 46t55 129q0 65 -50 92q-37 20 -157 20h-91zM198 421h90q68 0 105 9 t62 32q45 42 45 116q0 53 -35.5 73.5t-129.5 20.5h-90z" />
<glyph unicode="C" horiz-adv-x="813" d="M76 290q0 123 63 229.5t170 169.5t230 63q114 0 197.5 -57t102.5 -148h-82q-61 137 -228 137q-96 0 -183 -51.5t-140 -138.5t-53 -184q0 -111 74 -183t187 -72q154 0 281 139h82q-67 -98 -165 -152.5t-210 -54.5q-145 0 -235.5 84.5t-90.5 218.5z" />
<glyph unicode="D" horiz-adv-x="744" d="M46 0l137 739h174q186 0 269 -58q118 -81 118 -233q0 -102 -43 -192t-122 -154q-68 -54 -146 -78t-188 -24h-199zM132 67h103q116 0 188 22.5t129 75.5q53 49 84 122t31 148q0 116 -73.5 176.5t-245.5 60.5h-103z" />
<glyph unicode="E" horiz-adv-x="536" d="M46 0l137 739h404l-12 -67h-330l-50 -265h319l-12 -67h-319l-51 -273h330l-12 -67h-404z" />
<glyph unicode="F" horiz-adv-x="485" d="M46 0l137 739h375l-12 -67h-301l-50 -267h290l-12 -67h-290l-63 -338h-74z" />
<glyph unicode="G" horiz-adv-x="872" d="M77 300q0 88 38.5 171t102 144.5t150 99t177.5 37.5q121 0 206 -57.5t106 -152.5h-84q-23 65 -85.5 103.5t-145.5 38.5q-157 0 -272.5 -111t-115.5 -261q0 -116 76.5 -186.5t194.5 -70.5q105 0 197.5 60t140.5 159h-414l12 67h503q-37 -147 -166 -250.5t-282 -103.5 q-149 0 -244 87.5t-95 225.5z" />
<glyph unicode="H" d="M46 0l137 739h74l-60 -325h383l60 325h74l-137 -739h-74l64 347h-383l-64 -347h-74z" />
<glyph unicode="I" horiz-adv-x="226" d="M46 0l137 739h74l-137 -739h-74z" />
<glyph unicode="J" horiz-adv-x="482" d="M11 146q0 18 2 29h73q6 -64 28 -92.5t74 -28.5q62 0 100 43t56 134l95 508h74l-95 -508q-22 -121 -83.5 -183t-157.5 -62q-77 0 -121.5 41t-44.5 119z" />
<glyph unicode="K" horiz-adv-x="591" d="M46 0l137 739h74l-79 -425l421 425h93l-359 -360l222 -379h-93l-187 320l-118 -118l-37 -202h-74z" />
<glyph unicode="L" horiz-adv-x="462" d="M46 0l137 739h74l-125 -672h306l-12 -67h-380z" />
<glyph unicode="M" horiz-adv-x="919" d="M46 0l137 739h115l152 -629l385 629h115l-137 -739h-74l122 658l-400 -658h-64l-155 658l-122 -658h-74z" />
<glyph unicode="N" horiz-adv-x="740" d="M46 0l137 739h100l300 -613l114 613h74l-137 -739h-74l-320 650l-120 -650h-74z" />
<glyph unicode="O" horiz-adv-x="869" d="M76 302q0 115 66.5 219.5t176 167.5t229.5 63q133 0 227.5 -89.5t94.5 -226.5q0 -114 -66.5 -218.5t-176 -167.5t-229.5 -63q-135 0 -228.5 90t-93.5 225zM153 316q0 -110 74.5 -185.5t182.5 -75.5q149 0 266 112.5t117 254.5q0 114 -74 188t-189 74q-143 0 -260 -114 t-117 -254z" />
<glyph unicode="P" horiz-adv-x="592" d="M46 0l137 739h205q131 0 189 -39.5t58 -127.5q0 -57 -20.5 -110.5t-57.5 -90.5q-39 -39 -94 -55.5t-146 -16.5h-142l-55 -299h-74zM188 366h137q72 0 113.5 12t68.5 41q23 25 37 63t14 76q0 64 -47 92q-36 22 -161 22h-105z" />
<glyph unicode="Q" horiz-adv-x="871" d="M75 299q0 120 68 225.5t178 166.5t230 61q149 0 240.5 -84.5t91.5 -220.5q0 -103 -48.5 -198.5t-131.5 -155.5q44 -38 88 -38q9 0 16 1l-13 -69q-54 1 -84.5 14t-65.5 50q-102 -64 -233 -64q-145 0 -240.5 89t-95.5 223zM151 279q88 26 169 26q103 0 175.5 -36 t163.5 -127q79 70 113 137t34 148q0 115 -73.5 186t-192.5 71q-159 0 -273.5 -114t-114.5 -285zM171 216q16 -60 88 -110.5t162 -50.5q89 0 172 45q-66 73 -136 105t-163 32q-68 0 -123 -21z" />
<glyph unicode="R" horiz-adv-x="607" d="M46 0l137 739h183q150 0 213.5 -44.5t63.5 -141.5q0 -114 -73 -190.5t-190 -86.5l156 -276h-92l-187 335q141 0 200 24q48 20 78.5 71t30.5 111q0 71 -50 101t-167 30h-104l-125 -672h-74z" />
<glyph unicode="S" horiz-adv-x="498" d="M26 165q0 10 2 42h79q0 -80 31.5 -116t95.5 -36q72 0 124.5 52.5t52.5 124.5q0 46 -30 72.5t-109 51.5q-97 30 -127 65.5t-30 98.5q0 89 72.5 160.5t173.5 71.5q78 0 125.5 -44.5t47.5 -117.5q0 -11 -3 -38h-77q0 132 -106 132q-65 0 -110.5 -47.5t-45.5 -105.5 q0 -15 6.5 -34t15.5 -28q11 -11 29 -19.5t72 -26.5q110 -37 141 -76q32 -41 32 -101q0 -102 -81 -180.5t-188 -78.5q-85 0 -139 49.5t-54 128.5z" />
<glyph unicode="T" horiz-adv-x="426" d="M102 672l12 67h412l-12 -67h-169l-125 -672h-74l125 672h-169z" />
<glyph unicode="U" horiz-adv-x="655" d="M89 173q0 44 11 105l85 461h74l-85 -461q-9 -48 -9 -90q0 -59 40 -96t104 -37q84 0 140.5 55t77.5 168l85 461h74l-85 -461q-27 -145 -107.5 -218t-197.5 -73q-92 0 -149.5 52t-57.5 134z" />
<glyph unicode="V" horiz-adv-x="702" d="M117 739h81l140 -647l381 647h80l-443 -739h-72z" />
<glyph unicode="W" horiz-adv-x="960" d="M117 739h76l63 -643l296 643h70l58 -643l301 643h76l-349 -739h-95l-52 606l-274 -606h-96z" />
<glyph unicode="X" horiz-adv-x="609" d="M-22 0l321 378l-170 361h87l141 -296l250 296h86l-304 -361l182 -378h-88l-149 316l-269 -316h-87z" />
<glyph unicode="Y" horiz-adv-x="592" d="M109 739h82l133 -414l292 414h81l-349 -492l-46 -247h-74l46 247z" />
<glyph unicode="Z" horiz-adv-x="480" d="M-13 0l12 67l476 605h-352l12 67h435l-12 -67l-475 -605h373l-12 -67h-457z" />
<glyph unicode="[" horiz-adv-x="351" d="M102 86q0 26 10 78l55 298q16 101 84.5 176.5t168.5 100.5l-14 -75q-76 -29 -115 -78t-57 -138l-50 -271q-10 -51 -10 -88q0 -95 100 -139l-14 -75q-158 48 -158 211z" />
<glyph unicode="\" horiz-adv-x="605" d="M191 739h72l171 -739h-71z" />
<glyph unicode="]" horiz-adv-x="351" d="M-16 -125l14 75q75 27 115.5 78.5t56.5 137.5l50 272q10 51 10 88q0 96 -100 138l14 75q73 -22 115.5 -75t42.5 -123q0 -43 -9 -91l-55 -297q-20 -106 -85.5 -178t-168.5 -100z" />
<glyph unicode="^" horiz-adv-x="606" d="M21 180l347 559h84l139 -559h-81l-114 477l-292 -477h-83z" />
<glyph unicode="_" horiz-adv-x="500" d="M-53 -125l11 58h500l-11 -58h-500z" />
<glyph unicode="`" horiz-adv-x="375" d="M137 708l46 58l171 -116l-45 -56z" />
<glyph unicode="a" d="M58 216q0 139 103 241.5t243 102.5q139 0 195 -110l18 97h74l-101 -547h-74l18 96q-61 -62 -111 -85.5t-120 -23.5q-110 0 -177.5 63t-67.5 166zM135 235q0 -80 50.5 -130t132.5 -50q100 0 176.5 80t76.5 184q0 75 -49.5 124t-124.5 49q-104 0 -183 -77.5t-79 -179.5z " />
<glyph unicode="b" horiz-adv-x="682" d="M33 0l137 739h74l-53 -286q43 51 104.5 79t129.5 28q105 0 173 -65t68 -165q0 -139 -104 -241t-244 -102q-67 0 -117.5 28t-76.5 79l-17 -94h-74zM148 237q0 -78 51 -130t130 -52q104 0 182 79t78 184q0 78 -49 126t-129 48q-103 0 -183 -78.5t-80 -176.5z" />
<glyph unicode="c" horiz-adv-x="647" d="M58 222q0 133 106 235.5t244 102.5q94 0 158.5 -48t82.5 -131h-83q-20 53 -64.5 82t-105.5 29q-104 0 -182.5 -78t-78.5 -181q0 -78 51.5 -128t131.5 -50q61 0 102.5 21t105.5 85h83q-70 -95 -141.5 -134.5t-158.5 -39.5q-112 0 -181.5 65t-69.5 170z" />
<glyph unicode="d" horiz-adv-x="685" d="M58 217q0 137 105 240t245 103q127 0 195 -100l52 279h74l-137 -739h-74l18 99q-53 -60 -106.5 -86t-124.5 -26q-107 0 -177 65t-70 165zM135 236q0 -81 51 -131t134 -50q99 0 177.5 80.5t78.5 182.5q0 75 -52.5 124.5t-131.5 49.5q-101 0 -179 -78t-78 -178z" />
<glyph unicode="e" horiz-adv-x="650" d="M58 220q0 135 102.5 237.5t237.5 102.5q104 0 170.5 -64t66.5 -164q0 -32 -9 -83h-495q-2 -24 -2 -28q0 -70 52 -118t127 -48q61 0 121.5 35t92.5 90h77q-48 -88 -130.5 -140.5t-173.5 -52.5q-102 0 -169.5 66.5t-67.5 166.5zM146 316h419q-4 81 -52.5 128.5t-127.5 47.5 q-78 0 -145 -49.5t-94 -126.5z" />
<glyph unicode="f" horiz-adv-x="314" d="M71 0l89 480h-85l12 67h85q20 99 81 145.5t147 46.5h17l-12 -67h-15q-64 0 -98 -29.5t-46 -95.5h135l-12 -67h-135l-89 -480h-74z" />
<glyph unicode="g" horiz-adv-x="673" d="M30 -17h72q33 -77 70 -103.5t107 -26.5q97 0 158.5 56t81.5 165l7 37q-81 -124 -231 -124q-104 0 -171 65t-67 167q0 135 103 238t236 103q67 0 109.5 -22.5t83.5 -87.5l18 97h74l-84 -449q-17 -88 -35 -132t-55 -83q-92 -98 -242 -98q-99 0 -158.5 47t-76.5 151z M134 236q0 -78 45 -129.5t128 -51.5q100 0 177.5 80.5t77.5 189.5q0 72 -50.5 119.5t-126.5 47.5q-96 0 -173.5 -76t-77.5 -180z" />
<glyph unicode="h" horiz-adv-x="610" d="M33 0l137 739h74l-49 -263q76 84 185 84q94 0 146.5 -48.5t52.5 -135.5q0 -26 -10 -82l-54 -294h-74l54 294q7 44 7 72q0 55 -39 90.5t-100 35.5q-76 0 -129 -49.5t-71 -142.5l-56 -300h-74z" />
<glyph unicode="i" horiz-adv-x="200" d="M33 0l101 547h74l-101 -547h-74zM146 607l23 126h74l-23 -126h-74z" />
<glyph unicode="j" horiz-adv-x="203" d="M-111 -192l13 71q64 4 94.5 38.5t47.5 120.5l94 509h74l-94 -509q-35 -220 -229 -230zM150 607l23 126h74l-23 -126h-74z" />
<glyph unicode="k" horiz-adv-x="502" d="M33 0l137 739h74l-97 -524l316 332h91l-264 -275l177 -272h-92l-141 219l-106 -106l-21 -113h-74z" />
<glyph unicode="l" horiz-adv-x="200" d="M33 0l137 739h74l-137 -739h-74z" />
<glyph unicode="m" horiz-adv-x="938" d="M33 0l101 547h74l-11 -63q47 47 81 61.5t85 14.5q128 0 159 -105q49 56 97 80.5t112 24.5q81 0 130.5 -43.5t49.5 -114.5q0 -31 -8 -77l-60 -325h-74l59 317q6 36 6 62q0 52 -31.5 82.5t-86.5 30.5q-69 0 -117 -43.5t-65 -131.5l-59 -317h-74l59 319q6 31 6 53 q0 59 -34 89.5t-87 30.5q-68 0 -116 -46.5t-63 -126.5l-59 -319h-74z" />
<glyph unicode="n" horiz-adv-x="610" d="M33 0l101 547h74l-13 -71q87 84 188 84q90 0 143 -49t53 -132q0 -35 -11 -92l-53 -287h-74l53 287q8 45 8 74q0 60 -37.5 95.5t-101.5 35.5q-76 0 -129 -47t-71 -144l-56 -301h-74z" />
<glyph unicode="o" horiz-adv-x="655" d="M57 215q0 141 105 243t243 102q104 0 169 -63t65 -165q0 -140 -102 -242.5t-234 -102.5q-109 0 -177.5 63.5t-68.5 164.5zM134 228q0 -77 49.5 -125t129.5 -48q104 0 176.5 78.5t72.5 191.5q0 73 -48 120t-122 47q-105 0 -181.5 -78.5t-76.5 -185.5z" />
<glyph unicode="p" horiz-adv-x="682" d="M-3 -192l137 739h74l-17 -94q37 49 100 78t134 29q108 0 174 -65t66 -170q0 -133 -104.5 -235.5t-240.5 -102.5q-140 0 -196 107l-53 -286h-74zM147 227q0 -74 51 -123t127 -49q101 0 182 76.5t81 185.5q0 76 -50.5 125.5t-128.5 49.5q-99 0 -180.5 -76.5t-81.5 -188.5z " />
<glyph unicode="q" horiz-adv-x="682" d="M57 217q0 137 103.5 240t241.5 103q145 0 197 -107l17 94h74l-137 -739h-74l53 286q-91 -107 -237 -107q-104 0 -171 65t-67 165zM134 229q0 -76 49.5 -125t126.5 -49q105 0 185 78t80 185q0 75 -51.5 124.5t-130.5 49.5q-103 0 -181 -79t-78 -184z" />
<glyph unicode="r" horiz-adv-x="301" d="M33 0l101 547h74l-14 -78q30 45 69.5 66t102.5 25l-14 -73q-158 -17 -186 -168l-59 -319h-74z" />
<glyph unicode="s" horiz-adv-x="388" d="M13 117q0 20 3 44h73q0 -62 20.5 -84t62.5 -22q46 0 79.5 33.5t33.5 78.5q0 31 -16 47.5t-72 40.5q-45 20 -62.5 30t-28.5 23q-26 29 -26 72q0 72 57.5 126t130.5 54q55 0 91 -33.5t36 -84.5q0 -19 -1 -30h-75q0 80 -65 80q-37 0 -67 -28.5t-30 -63.5q0 -38 38 -59 q18 -9 95 -44q72 -32 72 -108q0 -83 -61 -142.5t-142 -59.5q-66 0 -106 38t-40 92z" />
<glyph unicode="t" horiz-adv-x="339" d="M71 480l12 67h112l36 192h74l-36 -192h129l-12 -67h-129l-89 -480h-74l89 480h-112z" />
<glyph unicode="u" horiz-adv-x="608" d="M69 155q0 47 9 97l55 295h74l-55 -295q-6 -26 -6 -67q0 -62 34 -96t100 -34q77 0 132.5 50.5t76.5 160.5l53 281h74l-102 -547h-74l16 85q-40 -53 -85.5 -75.5t-110.5 -22.5q-87 0 -139 45.5t-52 122.5z" />
<glyph unicode="v" horiz-adv-x="554" d="M79 547h75l107 -460l281 460h75l-331 -547h-78z" />
<glyph unicode="w" horiz-adv-x="831" d="M78 547h74l89 -458l202 391h61l56 -391l263 458h72l-313 -547h-79l-52 363l-185 -363h-80z" />
<glyph unicode="x" horiz-adv-x="480" d="M-22 0l242 279l-141 268h84l109 -211l186 211h85l-240 -268l139 -279h-85l-106 219l-189 -219h-84z" />
<glyph unicode="y" horiz-adv-x="536" d="M67 -192l127 210l-114 529h81l92 -436l266 436h79l-453 -739h-78z" />
<glyph unicode="z" horiz-adv-x="425" d="M-20 0l12 67l379 413h-292l12 67h376l-11 -63l-377 -417h318l-12 -67h-405z" />
<glyph unicode="{" horiz-adv-x="351" d="M64 272l13 69q47 8 65.5 26t25.5 64l32 170q23 89 55.5 112.5t122.5 25.5l-13 -67q-49 -4 -63 -15.5t-25 -55.5l-32 -170q-12 -58 -34 -82.5t-78 -42.5q41 -14 55.5 -31.5t14.5 -53.5l-3 -38l-32 -170q-3 -15 -3 -31q0 -21 11 -29t44 -11l10 -1l-13 -67q-73 2 -93 14 q-37 22 -37 71q0 32 4 54l32 170l3 32q0 28 -11.5 38.5t-50.5 18.5z" />
<glyph unicode="|" horiz-adv-x="672" d="M322 -125v864h74v-864h-74z" />
<glyph unicode="}" horiz-adv-x="351" d="M-16 -126l12 67q49 4 62.5 14.5t26.5 57.5l31 170q8 52 33 79.5t78 43.5q-45 20 -57.5 34.5t-12.5 44.5q0 23 5 46l32 170q1 4 1 31q0 21 -10 28.5t-42 10.5l-11 1l12 67q73 -2 93 -14q38 -23 38 -77q0 -15 -5 -47l-32 -170l-4 -41q0 -21 13.5 -31.5t48.5 -17.5l-13 -69 q-49 -9 -63.5 -23t-27.5 -66l-31 -170q-15 -81 -53 -110t-124 -29z" />
<glyph unicode="~" horiz-adv-x="606" d="M69 257q48 65 86 92.5t80 27.5q29 0 73 -19l60 -27q50 -23 75 -22q47 0 111 81l35 -47q-35 -51 -79 -81.5t-83 -30.5q-28 0 -87 26l-50 22q-47 20 -69 20q-31 0 -53 -16.5t-66 -72.5z" />
<glyph unicode="&#xa1;" horiz-adv-x="295" d="M44 -192l100 542h74l-100 -542h-74zM158 421l23 126h74l-23 -126h-74z" />
<glyph unicode="&#xa2;" horiz-adv-x="554" d="M83 338q0 100 73 180.5t187 95.5l17 93h67l-17 -93q64 -11 104.5 -50t50.5 -101h-82q-1 2 -2.5 4.5t-2.5 4.5l-1 3q-35 72 -123 72q-77 0 -135.5 -58.5t-58.5 -135.5q0 -61 37 -98.5t97 -37.5q83 0 153 73h80q-28 -54 -84 -92t-119 -47l-16 -89h-67l16 89 q-77 7 -125.5 59t-48.5 128z" />
<glyph unicode="&#xa3;" horiz-adv-x="554" d="M28 0l12 67h138q30 28 48 69t18 84q0 31 -15.5 59.5t-53.5 67.5h-124l13 67h76q-12 40 -12 67q0 111 88.5 191t197.5 80q93 0 152 -53.5t59 -129.5q0 -4 -2 -28h-70q0 65 -41 104t-110 39q-81 0 -139 -61t-58 -147q0 -24 15 -62h283l-13 -67h-216q47 -64 47 -128 q0 -68 -56 -152h57q102 0 155.5 54t53.5 147h72q0 -126 -79 -197t-211 -71h-285z" />
<glyph unicode="&#xa4;" horiz-adv-x="554" d="M21 111l51 42q-23 39 -23 97q0 110 78 202l-35 43l64 54l35 -42q54 28 86 37.5t72 9.5q87 0 142 -47l51 42l43 -54l-49 -43q24 -55 24 -100q0 -55 -21.5 -109.5t-57.5 -89.5l34 -42l-64 -53l-33 42q-88 -50 -163 -50q-42 0 -73 11t-66 39l-51 -42zM121 270q0 -67 41 -107 t110 -40q87 0 151.5 64.5t64.5 152.5q0 67 -42 104t-105 37q-89 0 -154.5 -64.5t-65.5 -146.5z" />
<glyph unicode="&#xa5;" horiz-adv-x="554" d="M67 237l12 67h182l-32 92h-140l13 67h104l-97 276h76l145 -412l290 412h76l-195 -276h102l-13 -67h-138l-66 -92h180l-12 -67h-205l-44 -237h-74l44 237h-208z" />
<glyph unicode="&#xa6;" horiz-adv-x="672" d="M322 -125v346h74v-346h-74zM322 393v346h74v-346h-74z" />
<glyph unicode="&#xa7;" horiz-adv-x="615" d="M84 22q0 16 3 42h68q-1 -9 -1 -25q0 -50 32.5 -81t84.5 -31q55 0 98 38.5t43 86.5q0 43 -78 85l-130 70q-47 26 -67.5 49.5t-20.5 53.5q0 53 31.5 101.5t86.5 79.5q-24 28 -24 70q0 76 61.5 133.5t144.5 57.5q62 0 106 -35.5t44 -85.5q0 -3 -2 -25h-71q-3 78 -93 78 q-49 0 -84.5 -32.5t-35.5 -76.5q0 -47 45 -70l143 -74q85 -44 85 -116q0 -93 -104 -169q31 -38 31 -76q0 -92 -69 -151.5t-155 -59.5q-76 0 -124 47.5t-48 115.5zM188 333q0 -14 11.5 -29.5t29.5 -25.5l181 -96q71 47 71 118q0 42 -45 65l-171 89q-33 -21 -55 -55.5 t-22 -65.5z" />
<glyph unicode="&#xa8;" horiz-adv-x="369" d="M155 607l23 126h74l-23 -126h-74zM302 607l23 126h74l-23 -126h-74z" />
<glyph unicode="&#xa9;" horiz-adv-x="747" d="M44 341q0 146 103.5 250t249.5 104t250 -104t104 -250t-104 -249.5t-250 -103.5t-249.5 103.5t-103.5 249.5zM81 341q0 -131 92.5 -223.5t223.5 -92.5t224 92.5t93 223.5t-93 224t-224 93t-223.5 -93t-92.5 -224zM163 296q-2 105 81.5 182.5t198.5 77.5q74 0 126.5 -35.5 t60.5 -90.5h-61q-36 74 -135 74q-85 0 -149 -58t-63 -135q1 -58 44 -95.5t109 -37.5q90 0 164 75h62q-39 -60 -101 -93.5t-134 -33.5q-89 0 -145 47.5t-58 122.5z" />
<glyph unicode="&#xaa;" horiz-adv-x="369" d="M61 319l9 52h318l-9 -52h-318zM115 569q0 68 57.5 122t130.5 54q53 0 88 -51l8 45h48l-54 -291h-48l8 45q-49 -52 -114 -52q-52 0 -88 37t-36 91zM168 575q0 -35 24 -60t58 -25q44 0 82 38t38 82q0 36 -22.5 61t-56.5 25q-47 0 -85 -37.5t-38 -83.5z" />
<glyph unicode="&#xab;" horiz-adv-x="425" d="M66 300l149 199l53 -32l-124 -167l62 -168l-65 -33zM240 300l149 199l53 -32l-124 -167l62 -168l-65 -33z" />
<glyph unicode="&#xac;" horiz-adv-x="606" d="M86 305v74h480v-221h-74v147h-406z" />
<glyph unicode="&#xad;" horiz-adv-x="332" d="M50 233l12 63h272l-12 -63h-272z" />
<glyph unicode="&#xae;" horiz-adv-x="747" d="M44 341q0 146 103.5 250t249.5 104t250 -104t104 -250t-104 -249.5t-250 -103.5t-249.5 103.5t-103.5 249.5zM81 341q0 -131 92.5 -223.5t223.5 -92.5t224 92.5t93 223.5t-93 224t-224 93t-223.5 -93t-92.5 -224zM215 133l77 416h116q92 0 131 -25.5t41 -81.5 q1 -62 -40 -105.5t-108 -52.5l97 -151h-73l-124 197q96 -1 132 13q26 10 42 35t15 54q-1 36 -29.5 50.5t-96.5 14.5h-56l-67 -364h-57z" />
<glyph unicode="&#xaf;" horiz-adv-x="485" d="M162 639l12 62h337l-12 -62h-337z" />
<glyph unicode="&#xb0;" horiz-adv-x="400" d="M127 532q0 62 45 105.5t110 43.5q62 0 106 -44.5t44 -105.5q0 -62 -44.5 -106t-108.5 -44q-63 0 -107.5 44t-44.5 107zM184 532q0 -39 28 -66.5t67 -27.5q40 0 68 27.5t28 65.5t-28 65.5t-66 27.5q-40 0 -68.5 -27t-28.5 -65z" />
<glyph unicode="&#xb1;" horiz-adv-x="606" d="M86 0v74h480v-74h-480zM86 287v74h203v203h74v-203h203v-74h-203v-146h-74v146h-203z" />
<glyph unicode="&#xb2;" horiz-adv-x="332" d="M37 297l9 49l191 146q76 58 93 80t17 57q0 29 -22.5 47.5t-58.5 18.5q-94 0 -114 -107h-57q11 74 60.5 116.5t122.5 42.5q57 0 92 -31t35 -82q0 -43 -25.5 -79t-89.5 -85l-161 -121h223l-9 -52h-306z" />
<glyph unicode="&#xb3;" horiz-adv-x="332" d="M61 402q0 18 3 41h57l-1 -35q-1 -27 23 -47t57 -20q45 0 80 31.5t35 71.5q0 79 -111 79h-9l10 50h24q41 0 67.5 20t26.5 51q0 24 -15 37.5t-41 13.5q-70 0 -82 -75h-57q8 55 49.5 91t97.5 36q49 0 77.5 -25.5t28.5 -68.5q0 -32 -17.5 -60t-46.5 -43q56 -29 56 -94 t-55 -116t-126 -51q-59 0 -95 32t-36 81z" />
<glyph unicode="&#xb4;" horiz-adv-x="375" d="M202 650l214 116l24 -58l-214 -114z" />
<glyph unicode="&#xb5;" horiz-adv-x="608" d="M-3 -192l137 739h74l-52 -281q-7 -38 -7 -68q0 -143 149 -143q73 0 121 47t70 164l53 281h74l-102 -547h-74l16 85q-34 -53 -72.5 -75.5t-94.5 -22.5q-112 0 -165 107l-53 -286h-74z" />
<glyph unicode="&#xb6;" horiz-adv-x="564" d="M105 510q0 96 70 162.5t192 66.5h231l-161 -872h-74l149 805h-116l-149 -805h-74l90 488q-75 8 -116.5 48t-41.5 107z" />
<glyph unicode="&#xb7;" horiz-adv-x="277" d="M99 250q0 26 18.5 44.5t44.5 18.5t44.5 -18.5t18.5 -44.5t-18.5 -44.5t-44.5 -18.5t-44.5 18.5t-18.5 44.5z" />
<glyph unicode="&#xb8;" horiz-adv-x="324" d="M19 -166l54 6q2 -18 10.5 -25.5t27.5 -7.5q24 0 41 18.5t17 45.5q1 19 -10 29.5t-30 10.5q-29 0 -51 -19l-28 19l55 94h39l-27 -53q22 5 34 5q37 0 60 -20.5t23 -54.5q0 -7 -2 -19q-8 -48 -45.5 -81t-87.5 -33q-73 0 -80 85z" />
<glyph unicode="&#xb9;" horiz-adv-x="332" d="M197 687l9 52h134l-81 -442h-58l72 390h-76z" />
<glyph unicode="&#xba;" horiz-adv-x="369" d="M62 319l9 52h305l-9 -52h-305zM111 567q0 70 56 124t129 54q53 0 88.5 -36t35.5 -90q0 -69 -56.5 -123t-129.5 -54q-52 0 -87.5 36t-35.5 89zM164 572q0 -35 23.5 -58t58.5 -23q49 0 85 37.5t36 88.5q0 32 -23.5 55.5t-56.5 23.5q-50 0 -86.5 -37t-36.5 -87z" />
<glyph unicode="&#xbb;" horiz-adv-x="425" d="M35 132l124 168l-62 167l65 32l75 -199l-149 -201zM209 132l124 168l-62 167l65 32l75 -199l-149 -201z" />
<glyph unicode="&#xbc;" horiz-adv-x="831" d="M187 0l479 739h54l-479 -739h-54zM204 687l9 52h134l-81 -442h-58l72 390h-76zM454 79l9 48l285 315h63l-58 -311h42l-9 -52h-42l-15 -79h-58l15 79h-232zM534 131h161l43 227z" />
<glyph unicode="&#xbd;" horiz-adv-x="831" d="M177 0l479 739h54l-479 -739h-54zM194 687l9 52h134l-81 -442h-58l72 390h-76zM476 0l9 49l191 146q76 58 93 80t17 57q0 29 -22.5 47.5t-58.5 18.5q-94 0 -114 -107h-57q11 74 60.5 116.5t122.5 42.5q57 0 92 -31t35 -82q0 -43 -25.5 -79t-89.5 -85l-161 -121h223 l-9 -52h-306z" />
<glyph unicode="&#xbe;" horiz-adv-x="831" d="M61 402q0 18 3 41h57l-1 -35q-1 -27 23 -47t57 -20q45 0 80 31.5t35 71.5q0 79 -111 79h-9l10 50h24q41 0 67.5 20t26.5 51q0 24 -15 37.5t-41 13.5q-70 0 -82 -75h-57q8 55 49.5 91t97.5 36q49 0 77.5 -25.5t28.5 -68.5q0 -32 -17.5 -60t-46.5 -43q56 -29 56 -94 t-55 -116t-126 -51q-59 0 -95 32t-36 81zM197 0l479 739h54l-479 -739h-54zM454 79l9 48l285 315h63l-58 -311h42l-9 -52h-42l-15 -79h-58l15 79h-232zM534 131h161l43 227z" />
<glyph unicode="&#xbf;" horiz-adv-x="591" d="M35 -30q0 64 25 108t101 104q65 52 94.5 91t37.5 81h70q-9 -102 -139 -204q-66 -52 -85 -81q-27 -39 -27 -89q0 -52 35 -84.5t91 -32.5q148 0 195 176h70q-26 -118 -101 -181t-178 -63q-86 0 -137.5 48t-51.5 127zM304 421l23 126h74l-23 -126h-74z" />
<glyph unicode="&#xc0;" horiz-adv-x="740" d="M-19 0l454 739h83l181 -739h-81l-61 249h-344l-154 -249h-78zM254 316h287l-80 339zM353 890l46 58l171 -116l-45 -56z" />
<glyph unicode="&#xc1;" horiz-adv-x="740" d="M-19 0l454 739h83l181 -739h-81l-61 249h-344l-154 -249h-78zM254 316h287l-80 339zM417 832l214 116l24 -58l-214 -114z" />
<glyph unicode="&#xc2;" horiz-adv-x="740" d="M-19 0l454 739h83l181 -739h-81l-61 249h-344l-154 -249h-78zM254 316h287l-80 339zM309 789l168 126h66l120 -126h-89l-72 74l-102 -74h-91z" />
<glyph unicode="&#xc3;" horiz-adv-x="740" d="M-19 0l454 739h83l181 -739h-81l-61 249h-344l-154 -249h-78zM254 316h287l-80 339zM352 851q49 51 89 51q14 0 55 -18.5t50 -18.5q36 0 71 38l21 -46q-40 -55 -92 -55q-27 0 -96 33q-7 4 -17 4q-9 0 -18 -5.5t-40 -27.5z" />
<glyph unicode="&#xc4;" horiz-adv-x="740" d="M-19 0l454 739h83l181 -739h-81l-61 249h-344l-154 -249h-78zM254 316h287l-80 339zM374 789l23 126h74l-23 -126h-74zM521 789l23 126h74l-23 -126h-74z" />
<glyph unicode="&#xc5;" horiz-adv-x="740" d="M-19 0l454 739h83l181 -739h-81l-61 249h-344l-154 -249h-78zM254 316h287l-80 339zM396 843q0 50 35.5 86.5t84.5 36.5q39 0 62.5 -24t23.5 -63q0 -44 -38 -79.5t-84 -35.5q-36 0 -60 22.5t-24 56.5zM438 854q0 -20 14 -33t36 -13q26 0 49 21t23 45q0 20 -15 34t-36 14 q-27 0 -49 -21t-22 -47z" />
<glyph unicode="&#xc6;" horiz-adv-x="992" d="M-19 0l648 739h414l-12 -67h-319l-50 -265h308l-12 -67h-308l-51 -273h319l-12 -67h-393l46 250h-271l-219 -250h-88zM348 317h224l60 327z" />
<glyph unicode="&#xc7;" horiz-adv-x="813" d="M76 290q0 123 63 229.5t170 169.5t230 63q114 0 197.5 -57t102.5 -148h-82q-61 137 -228 137q-96 0 -183 -51.5t-140 -138.5t-53 -184q0 -111 74 -183t187 -72q154 0 281 139h82q-66 -98 -163.5 -152t-208.5 -55l-18 -35q22 5 34 5q37 0 60 -20.5t23 -54.5q0 -7 -2 -19 q-8 -48 -45.5 -81t-87.5 -33q-73 0 -80 85l54 6q2 -18 10.5 -25.5t27.5 -7.5q24 0 41 18.5t17 45.5q1 19 -10 29.5t-30 10.5q-29 0 -51 -19l-28 19l45 78q-130 11 -209.5 93.5t-79.5 207.5z" />
<glyph unicode="&#xc8;" horiz-adv-x="536" d="M46 0l137 739h404l-12 -67h-330l-50 -265h319l-12 -67h-319l-51 -273h330l-12 -67h-404zM261 890l46 58l171 -116l-45 -56z" />
<glyph unicode="&#xc9;" horiz-adv-x="536" d="M46 0l137 739h404l-12 -67h-330l-50 -265h319l-12 -67h-319l-51 -273h330l-12 -67h-404zM326 832l214 116l24 -58l-214 -114z" />
<glyph unicode="&#xca;" horiz-adv-x="536" d="M46 0l137 739h404l-12 -67h-330l-50 -265h319l-12 -67h-319l-51 -273h330l-12 -67h-404zM218 789l168 126h66l120 -126h-89l-72 74l-102 -74h-91z" />
<glyph unicode="&#xcb;" horiz-adv-x="536" d="M46 0l137 739h404l-12 -67h-330l-50 -265h319l-12 -67h-319l-51 -273h330l-12 -67h-404zM282 789l23 126h74l-23 -126h-74zM429 789l23 126h74l-23 -126h-74z" />
<glyph unicode="&#xcc;" horiz-adv-x="226" d="M46 0l137 739h74l-137 -739h-74zM92 890l46 58l171 -116l-45 -56z" />
<glyph unicode="&#xcd;" horiz-adv-x="226" d="M46 0l137 739h74l-137 -739h-74zM165 832l214 116l24 -58l-214 -114z" />
<glyph unicode="&#xce;" horiz-adv-x="226" d="M46 0l137 739h74l-137 -739h-74zM53 789l168 126h66l120 -126h-89l-72 74l-102 -74h-91z" />
<glyph unicode="&#xcf;" horiz-adv-x="226" d="M46 0l137 739h74l-137 -739h-74zM117 789l23 126h74l-23 -126h-74zM264 789l23 126h74l-23 -126h-74z" />
<glyph unicode="&#xd0;" horiz-adv-x="790" d="M63 347l12 67h93l61 325h174q100 0 162 -13.5t107 -44.5q118 -82 118 -230q0 -216 -165 -349q-68 -54 -146 -78t-188 -24h-199l64 347h-93zM179 67h103q115 0 187 22.5t129 75.5q53 49 84 122t31 148q0 116 -73.5 176.5t-245.5 60.5h-103l-49 -258h206l-12 -67h-206z" />
<glyph unicode="&#xd1;" horiz-adv-x="740" d="M46 0l137 739h100l300 -613l114 613h74l-137 -739h-74l-320 650l-120 -650h-74zM352 851q49 51 89 51q14 0 55 -18.5t50 -18.5q36 0 71 38l21 -46q-40 -55 -92 -55q-27 0 -96 33q-7 4 -17 4q-9 0 -18 -5.5t-40 -27.5z" />
<glyph unicode="&#xd2;" horiz-adv-x="869" d="M76 302q0 115 66.5 219.5t176 167.5t229.5 63q133 0 227.5 -89.5t94.5 -226.5q0 -114 -66.5 -218.5t-176 -167.5t-229.5 -63q-135 0 -228.5 90t-93.5 225zM153 316q0 -110 74.5 -185.5t182.5 -75.5q149 0 266 112.5t117 254.5q0 114 -74 188t-189 74q-143 0 -260 -114 t-117 -254zM422 890l46 58l171 -116l-45 -56z" />
<glyph unicode="&#xd3;" horiz-adv-x="869" d="M76 302q0 115 66.5 219.5t176 167.5t229.5 63q133 0 227.5 -89.5t94.5 -226.5q0 -114 -66.5 -218.5t-176 -167.5t-229.5 -63q-135 0 -228.5 90t-93.5 225zM153 316q0 -110 74.5 -185.5t182.5 -75.5q149 0 266 112.5t117 254.5q0 114 -74 188t-189 74q-143 0 -260 -114 t-117 -254zM486 832l214 116l24 -58l-214 -114z" />
<glyph unicode="&#xd4;" horiz-adv-x="869" d="M76 302q0 115 66.5 219.5t176 167.5t229.5 63q133 0 227.5 -89.5t94.5 -226.5q0 -114 -66.5 -218.5t-176 -167.5t-229.5 -63q-135 0 -228.5 90t-93.5 225zM153 316q0 -110 74.5 -185.5t182.5 -75.5q149 0 266 112.5t117 254.5q0 114 -74 188t-189 74q-143 0 -260 -114 t-117 -254zM378 789l168 126h66l120 -126h-89l-72 74l-102 -74h-91z" />
<glyph unicode="&#xd5;" horiz-adv-x="869" d="M76 302q0 115 66.5 219.5t176 167.5t229.5 63q133 0 227.5 -89.5t94.5 -226.5q0 -114 -66.5 -218.5t-176 -167.5t-229.5 -63q-135 0 -228.5 90t-93.5 225zM153 316q0 -110 74.5 -185.5t182.5 -75.5q149 0 266 112.5t117 254.5q0 114 -74 188t-189 74q-143 0 -260 -114 t-117 -254zM421 851q49 51 89 51q14 0 55 -18.5t50 -18.5q36 0 71 38l21 -46q-40 -55 -92 -55q-27 0 -96 33q-7 4 -17 4q-9 0 -18 -5.5t-40 -27.5z" />
<glyph unicode="&#xd6;" horiz-adv-x="869" d="M76 302q0 115 66.5 219.5t176 167.5t229.5 63q133 0 227.5 -89.5t94.5 -226.5q0 -114 -66.5 -218.5t-176 -167.5t-229.5 -63q-135 0 -228.5 90t-93.5 225zM153 316q0 -110 74.5 -185.5t182.5 -75.5q149 0 266 112.5t117 254.5q0 114 -74 188t-189 74q-143 0 -260 -114 t-117 -254zM443 789l23 126h74l-23 -126h-74zM590 789l23 126h74l-23 -126h-74z" />
<glyph unicode="&#xd7;" horiz-adv-x="606" d="M130 106l144 144l-144 144l52 52l144 -144l144 144l52 -52l-144 -144l144 -144l-52 -52l-144 144l-144 -144z" />
<glyph unicode="&#xd8;" horiz-adv-x="868" d="M42 -42l117 124q-86 84 -86 212q0 119 65.5 225.5t172 169.5t223.5 63q116 0 199 -56l117 125l45 -43l-114 -122q86 -84 86 -214q0 -115 -66 -221t-174.5 -170t-225.5 -64q-51 0 -104 15t-89 40l-118 -125zM150 309q0 -56 12 -90t49 -81l471 503q-62 43 -158 43 q-147 0 -260.5 -117t-113.5 -258zM259 97q75 -42 151 -42q146 0 263 111.5t117 259.5q0 53 -11 86t-43 78l-7 10z" />
<glyph unicode="&#xd9;" horiz-adv-x="655" d="M89 173q0 44 11 105l85 461h74l-85 -461q-9 -48 -9 -90q0 -59 40 -96t104 -37q84 0 140.5 55t77.5 168l85 461h74l-85 -461q-27 -145 -107.5 -218t-197.5 -73q-92 0 -149.5 52t-57.5 134zM312 890l46 58l171 -116l-45 -56z" />
<glyph unicode="&#xda;" horiz-adv-x="655" d="M89 173q0 44 11 105l85 461h74l-85 -461q-9 -48 -9 -90q0 -59 40 -96t104 -37q84 0 140.5 55t77.5 168l85 461h74l-85 -461q-27 -145 -107.5 -218t-197.5 -73q-92 0 -149.5 52t-57.5 134zM376 832l214 116l24 -58l-214 -114z" />
<glyph unicode="&#xdb;" horiz-adv-x="655" d="M89 173q0 44 11 105l85 461h74l-85 -461q-9 -48 -9 -90q0 -59 40 -96t104 -37q84 0 140.5 55t77.5 168l85 461h74l-85 -461q-27 -145 -107.5 -218t-197.5 -73q-92 0 -149.5 52t-57.5 134zM268 789l168 126h66l120 -126h-89l-72 74l-102 -74h-91z" />
<glyph unicode="&#xdc;" horiz-adv-x="655" d="M89 173q0 44 11 105l85 461h74l-85 -461q-9 -48 -9 -90q0 -59 40 -96t104 -37q84 0 140.5 55t77.5 168l85 461h74l-85 -461q-27 -145 -107.5 -218t-197.5 -73q-92 0 -149.5 52t-57.5 134zM333 789l23 126h74l-23 -126h-74zM480 789l23 126h74l-23 -126h-74z" />
<glyph unicode="&#xdd;" horiz-adv-x="592" d="M109 739h82l133 -414l292 414h81l-349 -492l-46 -247h-74l46 247zM343 832l214 116l24 -58l-214 -114z" />
<glyph unicode="&#xde;" horiz-adv-x="592" d="M46 0l137 739h74l-27 -147h130q131 0 189 -39.5t58 -127.5q0 -57 -20.5 -110.5t-57.5 -90.5q-39 -39 -94 -55.5t-146 -16.5h-141l-28 -152h-74zM160 219h137q72 0 113.5 12t68.5 41q23 25 37 63t14 76q0 64 -47 92q-36 22 -161 22h-105z" />
<glyph unicode="&#xdf;" horiz-adv-x="554" d="M29 0l89 481q27 140 90 205.5t165 65.5q77 0 125 -45.5t48 -118.5q0 -132 -115 -199q104 -36 104 -144q0 -105 -73 -181.5t-174 -76.5q-128 0 -165 122l-20 -109h-74zM141 203h51q-4 -20 -4 -31q0 -52 30.5 -84.5t79.5 -32.5q64 0 112 52.5t48 122.5q0 53 -41.5 83 t-116.5 30q-21 0 -43 -2l13 67h15q79 0 131.5 49t52.5 117q0 50 -30 80t-79 30q-68 0 -108.5 -48.5t-59.5 -154.5z" />
<glyph unicode="&#xe0;" d="M58 216q0 139 103 241.5t243 102.5q139 0 195 -110l18 97h74l-101 -547h-74l18 96q-61 -62 -111 -85.5t-120 -23.5q-110 0 -177.5 63t-67.5 166zM135 235q0 -80 50.5 -130t132.5 -50q100 0 176.5 80t76.5 184q0 75 -49.5 124t-124.5 49q-104 0 -183 -77.5t-79 -179.5z M280 708l46 58l171 -116l-45 -56z" />
<glyph unicode="&#xe1;" d="M58 216q0 139 103 241.5t243 102.5q139 0 195 -110l18 97h74l-101 -547h-74l18 96q-61 -62 -111 -85.5t-120 -23.5q-110 0 -177.5 63t-67.5 166zM135 235q0 -80 50.5 -130t132.5 -50q100 0 176.5 80t76.5 184q0 75 -49.5 124t-124.5 49q-104 0 -183 -77.5t-79 -179.5z M344 650l214 116l24 -58l-214 -114z" />
<glyph unicode="&#xe2;" d="M58 216q0 139 103 241.5t243 102.5q139 0 195 -110l18 97h74l-101 -547h-74l18 96q-61 -62 -111 -85.5t-120 -23.5q-110 0 -177.5 63t-67.5 166zM135 235q0 -80 50.5 -130t132.5 -50q100 0 176.5 80t76.5 184q0 75 -49.5 124t-124.5 49q-104 0 -183 -77.5t-79 -179.5z M235 607l168 126h66l120 -126h-89l-72 74l-102 -74h-91z" />
<glyph unicode="&#xe3;" d="M58 216q0 139 103 241.5t243 102.5q139 0 195 -110l18 97h74l-101 -547h-74l18 96q-61 -62 -111 -85.5t-120 -23.5q-110 0 -177.5 63t-67.5 166zM135 235q0 -80 50.5 -130t132.5 -50q100 0 176.5 80t76.5 184q0 75 -49.5 124t-124.5 49q-104 0 -183 -77.5t-79 -179.5z M277 669q49 51 89 51q14 0 55 -18.5t50 -18.5q36 0 71 38l21 -46q-40 -55 -92 -55q-27 0 -96 33q-7 4 -17 4q-9 0 -18 -5.5t-40 -27.5z" />
<glyph unicode="&#xe4;" d="M58 216q0 139 103 241.5t243 102.5q139 0 195 -110l18 97h74l-101 -547h-74l18 96q-61 -62 -111 -85.5t-120 -23.5q-110 0 -177.5 63t-67.5 166zM135 235q0 -80 50.5 -130t132.5 -50q100 0 176.5 80t76.5 184q0 75 -49.5 124t-124.5 49q-104 0 -183 -77.5t-79 -179.5z M300 607l23 126h74l-23 -126h-74zM447 607l23 126h74l-23 -126h-74z" />
<glyph unicode="&#xe5;" d="M58 216q0 139 103 241.5t243 102.5q139 0 195 -110l18 97h74l-101 -547h-74l18 96q-61 -62 -111 -85.5t-120 -23.5q-110 0 -177.5 63t-67.5 166zM135 235q0 -80 50.5 -130t132.5 -50q100 0 176.5 80t76.5 184q0 75 -49.5 124t-124.5 49q-104 0 -183 -77.5t-79 -179.5z M323 658q0 50 35.5 86.5t84.5 36.5q38 0 61.5 -24t23.5 -63q0 -44 -38 -79.5t-84 -35.5q-36 0 -59.5 22.5t-23.5 56.5zM365 669q0 -20 13.5 -33t35.5 -13q26 0 49.5 21t23.5 45q0 20 -15 34t-37 14q-26 0 -48 -21t-22 -47z" />
<glyph unicode="&#xe6;" horiz-adv-x="1157" d="M58 219q0 131 103 236t241 105q144 0 198 -108l18 95h71l-18 -95q105 108 235 108q104 0 170 -63.5t66 -163.5q0 -40 -10 -86h-495q-1 -10 -1 -22q0 -72 52.5 -121t129.5 -49q62 0 121 34t90 89h77q-36 -79 -124.5 -135t-177.5 -56q-128 0 -200 105l-17 -92h-71l17 92 q-102 -105 -233 -105q-109 0 -175.5 64t-66.5 168zM135 231q0 -77 50 -126.5t127 -49.5q104 0 183 79.5t79 184.5q0 77 -49.5 125t-128.5 48q-107 0 -184 -79t-77 -182zM653 314h420q-1 82 -49 130t-128 48q-81 0 -150 -50.5t-93 -127.5z" />
<glyph unicode="&#xe7;" horiz-adv-x="647" d="M58 222q0 133 106 235.5t244 102.5q94 0 158.5 -48t82.5 -131h-83q-20 53 -64.5 82t-105.5 29q-104 0 -182.5 -78t-78.5 -181q0 -78 51.5 -128t131.5 -50q61 0 102.5 21t105.5 85h83q-68 -93 -138.5 -132.5t-155.5 -41.5l-18 -35q22 5 34 5q37 0 60 -20.5t23 -54.5 q0 -7 -2 -19q-8 -48 -45.5 -81t-87.5 -33q-73 0 -80 85l54 6q2 -18 10.5 -25.5t27.5 -7.5q24 0 41 18.5t17 45.5q1 19 -10 29.5t-30 10.5q-29 0 -51 -19l-28 19l45 78q-98 10 -157.5 73t-59.5 160z" />
<glyph unicode="&#xe8;" horiz-adv-x="650" d="M58 220q0 135 102.5 237.5t237.5 102.5q104 0 170.5 -64t66.5 -164q0 -32 -9 -83h-495q-2 -24 -2 -28q0 -70 52 -118t127 -48q61 0 121.5 35t92.5 90h77q-48 -88 -130.5 -140.5t-173.5 -52.5q-102 0 -169.5 66.5t-67.5 166.5zM146 316h419q-4 81 -52.5 128.5t-127.5 47.5 q-78 0 -145 -49.5t-94 -126.5zM274 708l46 58l171 -116l-45 -56z" />
<glyph unicode="&#xe9;" horiz-adv-x="650" d="M58 220q0 135 102.5 237.5t237.5 102.5q104 0 170.5 -64t66.5 -164q0 -32 -9 -83h-495q-2 -24 -2 -28q0 -70 52 -118t127 -48q61 0 121.5 35t92.5 90h77q-48 -88 -130.5 -140.5t-173.5 -52.5q-102 0 -169.5 66.5t-67.5 166.5zM146 316h419q-4 81 -52.5 128.5t-127.5 47.5 q-78 0 -145 -49.5t-94 -126.5zM338 650l214 116l24 -58l-214 -114z" />
<glyph unicode="&#xea;" horiz-adv-x="650" d="M58 220q0 135 102.5 237.5t237.5 102.5q104 0 170.5 -64t66.5 -164q0 -32 -9 -83h-495q-2 -24 -2 -28q0 -70 52 -118t127 -48q61 0 121.5 35t92.5 90h77q-48 -88 -130.5 -140.5t-173.5 -52.5q-102 0 -169.5 66.5t-67.5 166.5zM146 316h419q-4 81 -52.5 128.5t-127.5 47.5 q-78 0 -145 -49.5t-94 -126.5zM229 607l168 126h66l120 -126h-89l-72 74l-102 -74h-91z" />
<glyph unicode="&#xeb;" horiz-adv-x="650" d="M58 220q0 135 102.5 237.5t237.5 102.5q104 0 170.5 -64t66.5 -164q0 -32 -9 -83h-495q-2 -24 -2 -28q0 -70 52 -118t127 -48q61 0 121.5 35t92.5 90h77q-48 -88 -130.5 -140.5t-173.5 -52.5q-102 0 -169.5 66.5t-67.5 166.5zM146 316h419q-4 81 -52.5 128.5t-127.5 47.5 q-78 0 -145 -49.5t-94 -126.5zM294 607l23 126h74l-23 -126h-74zM441 607l23 126h74l-23 -126h-74z" />
<glyph unicode="&#xec;" horiz-adv-x="200" d="M33 0l101 547h74l-101 -547h-74zM45 708l46 58l171 -116l-45 -56z" />
<glyph unicode="&#xed;" horiz-adv-x="200" d="M33 0l101 547h74l-101 -547h-74zM118 650l214 116l24 -58l-214 -114z" />
<glyph unicode="&#xee;" horiz-adv-x="200" d="M5 607l168 126h66l120 -126h-89l-72 74l-102 -74h-91zM33 0l101 547h74l-101 -547h-74z" />
<glyph unicode="&#xef;" horiz-adv-x="200" d="M33 0l101 547h74l-101 -547h-74zM70 607l23 126h74l-23 -126h-74zM217 607l23 126h74l-23 -126h-74z" />
<glyph unicode="&#xf0;" horiz-adv-x="655" d="M57 220q0 134 101 235.5t234 101.5q44 0 91 -17l-74 92l-95 -40l-28 45l86 37l-46 45l55 37q10 -8 58 -55l100 40l29 -45l-93 -37q168 -173 168 -313q0 -149 -99.5 -254t-241.5 -105q-111 0 -178 63.5t-67 169.5zM134 229q0 -79 49.5 -126.5t131.5 -47.5q103 0 177 77.5 t74 186.5q0 77 -47.5 125t-123.5 48q-106 0 -183.5 -78t-77.5 -185z" />
<glyph unicode="&#xf1;" horiz-adv-x="610" d="M33 0l101 547h74l-13 -71q87 84 188 84q90 0 143 -49t53 -132q0 -35 -11 -92l-53 -287h-74l53 287q8 45 8 74q0 60 -37.5 95.5t-101.5 35.5q-76 0 -129 -47t-71 -144l-56 -301h-74zM251 669q49 51 89 51q14 0 55 -18.5t50 -18.5q36 0 71 38l21 -46q-40 -55 -92 -55 q-27 0 -96 33q-7 4 -17 4q-9 0 -18 -5.5t-40 -27.5z" />
<glyph unicode="&#xf2;" horiz-adv-x="655" d="M57 215q0 141 105 243t243 102q104 0 169 -63t65 -165q0 -140 -102 -242.5t-234 -102.5q-109 0 -177.5 63.5t-68.5 164.5zM134 228q0 -77 49.5 -125t129.5 -48q104 0 176.5 78.5t72.5 191.5q0 73 -48 120t-122 47q-105 0 -181.5 -78.5t-76.5 -185.5zM281 708l46 58 l171 -116l-45 -56z" />
<glyph unicode="&#xf3;" horiz-adv-x="655" d="M57 215q0 141 105 243t243 102q104 0 169 -63t65 -165q0 -140 -102 -242.5t-234 -102.5q-109 0 -177.5 63.5t-68.5 164.5zM134 228q0 -77 49.5 -125t129.5 -48q104 0 176.5 78.5t72.5 191.5q0 73 -48 120t-122 47q-105 0 -181.5 -78.5t-76.5 -185.5zM345 650l214 116 l24 -58l-214 -114z" />
<glyph unicode="&#xf4;" horiz-adv-x="655" d="M57 215q0 141 105 243t243 102q104 0 169 -63t65 -165q0 -140 -102 -242.5t-234 -102.5q-109 0 -177.5 63.5t-68.5 164.5zM134 228q0 -77 49.5 -125t129.5 -48q104 0 176.5 78.5t72.5 191.5q0 73 -48 120t-122 47q-105 0 -181.5 -78.5t-76.5 -185.5zM236 607l168 126h66 l120 -126h-89l-72 74l-102 -74h-91z" />
<glyph unicode="&#xf5;" horiz-adv-x="655" d="M57 215q0 141 105 243t243 102q104 0 169 -63t65 -165q0 -140 -102 -242.5t-234 -102.5q-109 0 -177.5 63.5t-68.5 164.5zM134 228q0 -77 49.5 -125t129.5 -48q104 0 176.5 78.5t72.5 191.5q0 73 -48 120t-122 47q-105 0 -181.5 -78.5t-76.5 -185.5zM278 669q49 51 89 51 q14 0 55 -18.5t50 -18.5q36 0 71 38l21 -46q-40 -55 -92 -55q-27 0 -96 33q-7 4 -17 4q-9 0 -18 -5.5t-40 -27.5z" />
<glyph unicode="&#xf6;" horiz-adv-x="655" d="M57 215q0 141 105 243t243 102q104 0 169 -63t65 -165q0 -140 -102 -242.5t-234 -102.5q-109 0 -177.5 63.5t-68.5 164.5zM134 228q0 -77 49.5 -125t129.5 -48q104 0 176.5 78.5t72.5 191.5q0 73 -48 120t-122 47q-105 0 -181.5 -78.5t-76.5 -185.5zM301 607l23 126h74 l-23 -126h-74zM448 607l23 126h74l-23 -126h-74z" />
<glyph unicode="&#xf7;" horiz-adv-x="606" d="M86 213v74h480v-74h-480zM263 65q0 26 18.5 44.5t44.5 18.5t44.5 -18.5t18.5 -44.5t-18.5 -44.5t-44.5 -18.5t-44.5 18.5t-18.5 44.5zM263 435q0 26 18.5 44.5t44.5 18.5t44.5 -18.5t18.5 -44.5t-18.5 -44.5t-44.5 -18.5t-44.5 18.5t-18.5 44.5z" />
<glyph unicode="&#xf8;" horiz-adv-x="653" d="M46 2l62 66q-28 41 -38.5 73t-10.5 73q0 93 51 174t129.5 126.5t160.5 45.5q83 0 141 -41l70 74l46 -42l-70 -73q52 -55 52 -138q0 -144 -100.5 -248.5t-239.5 -104.5q-82 0 -145 41l-63 -66zM136 225q0 -55 23 -104l332 347q-45 24 -96 24q-100 0 -179.5 -82t-79.5 -185 zM203 79q40 -16 54.5 -20t41.5 -4q112 0 187.5 80.5t75.5 200.5q0 45 -25 90z" />
<glyph unicode="&#xf9;" horiz-adv-x="608" d="M69 155q0 47 9 97l55 295h74l-55 -295q-6 -26 -6 -67q0 -62 34 -96t100 -34q77 0 132.5 50.5t76.5 160.5l53 281h74l-102 -547h-74l16 85q-40 -53 -85.5 -75.5t-110.5 -22.5q-87 0 -139 45.5t-52 122.5zM253 708l46 58l171 -116l-45 -56z" />
<glyph unicode="&#xfa;" horiz-adv-x="608" d="M69 155q0 47 9 97l55 295h74l-55 -295q-6 -26 -6 -67q0 -62 34 -96t100 -34q77 0 132.5 50.5t76.5 160.5l53 281h74l-102 -547h-74l16 85q-40 -53 -85.5 -75.5t-110.5 -22.5q-87 0 -139 45.5t-52 122.5zM317 650l214 116l24 -58l-214 -114z" />
<glyph unicode="&#xfb;" horiz-adv-x="608" d="M69 155q0 47 9 97l55 295h74l-55 -295q-6 -26 -6 -67q0 -62 34 -96t100 -34q77 0 132.5 50.5t76.5 160.5l53 281h74l-102 -547h-74l16 85q-40 -53 -85.5 -75.5t-110.5 -22.5q-87 0 -139 45.5t-52 122.5zM208 607l168 126h66l120 -126h-89l-72 74l-102 -74h-91z" />
<glyph unicode="&#xfc;" horiz-adv-x="608" d="M69 155q0 47 9 97l55 295h74l-55 -295q-6 -26 -6 -67q0 -62 34 -96t100 -34q77 0 132.5 50.5t76.5 160.5l53 281h74l-102 -547h-74l16 85q-40 -53 -85.5 -75.5t-110.5 -22.5q-87 0 -139 45.5t-52 122.5zM273 607l23 126h74l-23 -126h-74zM420 607l23 126h74l-23 -126h-74 z" />
<glyph unicode="&#xfd;" horiz-adv-x="536" d="M67 -192l127 210l-114 529h81l92 -436l266 436h79l-453 -739h-78zM283 650l214 116l24 -58l-214 -114z" />
<glyph unicode="&#xfe;" horiz-adv-x="682" d="M-3 -192l173 931h74l-53 -286q37 49 100 78t134 29q108 0 174 -65t66 -170q0 -133 -104.5 -235.5t-240.5 -102.5q-140 0 -196 107l-53 -286h-74zM147 227q0 -74 51 -123t127 -49q101 0 182 76.5t81 185.5q0 77 -50.5 126t-129.5 49q-98 0 -179.5 -76.5t-81.5 -188.5z" />
<glyph unicode="&#xff;" horiz-adv-x="536" d="M67 -192l127 210l-114 529h81l92 -436l266 436h79l-453 -739h-78zM239 607l23 126h74l-23 -126h-74zM386 607l23 126h74l-23 -126h-74z" />
<glyph unicode="&#x100;" horiz-adv-x="740" d="M-19 0l454 739h83l181 -739h-81l-61 249h-344l-154 -249h-78zM254 316h287l-80 339zM323 821l12 62h337l-12 -62h-337z" />
<glyph unicode="&#x101;" d="M58 216q0 139 103 241.5t243 102.5q139 0 195 -110l18 97h74l-101 -547h-74l18 96q-61 -62 -111 -85.5t-120 -23.5q-110 0 -177.5 63t-67.5 166zM135 235q0 -80 50.5 -130t132.5 -50q100 0 176.5 80t76.5 184q0 75 -49.5 124t-124.5 49q-104 0 -183 -77.5t-79 -179.5z M249 639l12 62h337l-12 -62h-337z" />
<glyph unicode="&#x102;" horiz-adv-x="740" d="M-19 0l454 739h83l181 -739h-81l-61 249h-344l-154 -249h-78zM254 316h287l-80 339zM356 911h64q4 -36 22.5 -49t58.5 -13q38 0 67 16.5t39 45.5h53q-35 -117 -172 -117q-62 0 -95.5 26.5t-36.5 90.5z" />
<glyph unicode="&#x103;" d="M58 216q0 139 103 241.5t243 102.5q139 0 195 -110l18 97h74l-101 -547h-74l18 96q-61 -62 -111 -85.5t-120 -23.5q-110 0 -177.5 63t-67.5 166zM135 235q0 -80 50.5 -130t132.5 -50q100 0 176.5 80t76.5 184q0 75 -49.5 124t-124.5 49q-104 0 -183 -77.5t-79 -179.5z M277 729h64q4 -36 22.5 -49t58.5 -13q38 0 67 16.5t39 45.5h53q-35 -117 -172 -117q-62 0 -95.5 26.5t-36.5 90.5z" />
<glyph unicode="&#x104;" horiz-adv-x="740" d="M-19 0l454 739h83l181 -739q-46 -23 -74 -56t-28 -60q0 -60 36 -60q29 0 50 4l-14 -74q-27 -4 -60 -4q-46 0 -67 31t-21 72q0 44 27 80q29 40 70 67l-61 249h-344l-154 -249h-78zM254 316h287l-80 339z" />
<glyph unicode="&#x105;" d="M58 216q0 139 103 241.5t243 102.5q139 0 195 -110l18 97h74l-101 -547q-46 -23 -74 -56t-28 -60q0 -60 36 -60q29 0 50 4l-14 -74q-27 -4 -60 -4q-46 0 -67 31t-21 72q0 81 104 147l18 96q-61 -62 -111 -85.5t-120 -23.5q-110 0 -177.5 63t-67.5 166zM135 235 q0 -80 50.5 -130t132.5 -50q100 0 176.5 80t76.5 184q0 75 -49.5 124t-124.5 49q-104 0 -183 -77.5t-79 -179.5z" />
<glyph unicode="&#x106;" horiz-adv-x="813" d="M76 290q0 123 63 229.5t170 169.5t230 63q114 0 197.5 -57t102.5 -148h-82q-61 137 -228 137q-96 0 -183 -51.5t-140 -138.5t-53 -184q0 -111 74 -183t187 -72q154 0 281 139h82q-67 -98 -165 -152.5t-210 -54.5q-145 0 -235.5 84.5t-90.5 218.5zM477 832l214 116l24 -58 l-214 -114z" />
<glyph unicode="&#x107;" horiz-adv-x="647" d="M58 222q0 133 106 235.5t244 102.5q94 0 158.5 -48t82.5 -131h-83q-20 53 -64.5 82t-105.5 29q-104 0 -182.5 -78t-78.5 -181q0 -78 51.5 -128t131.5 -50q61 0 102.5 21t105.5 85h83q-70 -95 -141.5 -134.5t-158.5 -39.5q-112 0 -181.5 65t-69.5 170zM348 650l214 116 l24 -58l-214 -114z" />
<glyph unicode="&#x108;" horiz-adv-x="813" d="M76 290q0 123 63 229.5t170 169.5t230 63q114 0 197.5 -57t102.5 -148h-82q-61 137 -228 137q-96 0 -183 -51.5t-140 -138.5t-53 -184q0 -111 74 -183t187 -72q154 0 281 139h82q-67 -98 -165 -152.5t-210 -54.5q-145 0 -235.5 84.5t-90.5 218.5zM369 789l168 126h66 l120 -126h-89l-72 74l-102 -74h-91z" />
<glyph unicode="&#x109;" horiz-adv-x="647" d="M58 222q0 133 106 235.5t244 102.5q94 0 158.5 -48t82.5 -131h-83q-20 53 -64.5 82t-105.5 29q-104 0 -182.5 -78t-78.5 -181q0 -78 51.5 -128t131.5 -50q61 0 102.5 21t105.5 85h83q-70 -95 -141.5 -134.5t-158.5 -39.5q-112 0 -181.5 65t-69.5 170zM239 607l168 126h66 l120 -126h-89l-72 74l-102 -74h-91z" />
<glyph unicode="&#x10a;" horiz-adv-x="813" d="M76 290q0 123 63 229.5t170 169.5t230 63q114 0 197.5 -57t102.5 -148h-82q-61 137 -228 137q-96 0 -183 -51.5t-140 -138.5t-53 -184q0 -111 74 -183t187 -72q154 0 281 139h82q-67 -98 -165 -152.5t-210 -54.5q-145 0 -235.5 84.5t-90.5 218.5zM509 789l23 126h74 l-23 -126h-74z" />
<glyph unicode="&#x10b;" horiz-adv-x="647" d="M58 222q0 133 106 235.5t244 102.5q94 0 158.5 -48t82.5 -131h-83q-20 53 -64.5 82t-105.5 29q-104 0 -182.5 -78t-78.5 -181q0 -78 51.5 -128t131.5 -50q61 0 102.5 21t105.5 85h83q-70 -95 -141.5 -134.5t-158.5 -39.5q-112 0 -181.5 65t-69.5 170zM380 607l23 126h74 l-23 -126h-74z" />
<glyph unicode="&#x10c;" horiz-adv-x="813" d="M76 290q0 123 63 229.5t170 169.5t230 63q114 0 197.5 -57t102.5 -148h-82q-61 137 -228 137q-96 0 -183 -51.5t-140 -138.5t-53 -184q0 -111 74 -183t187 -72q154 0 281 139h82q-67 -98 -165 -152.5t-210 -54.5q-145 0 -235.5 84.5t-90.5 218.5zM392 915h89l72 -74 l102 74h91l-168 -126h-66z" />
<glyph unicode="&#x10d;" horiz-adv-x="647" d="M58 222q0 133 106 235.5t244 102.5q94 0 158.5 -48t82.5 -131h-83q-20 53 -64.5 82t-105.5 29q-104 0 -182.5 -78t-78.5 -181q0 -78 51.5 -128t131.5 -50q61 0 102.5 21t105.5 85h83q-70 -95 -141.5 -134.5t-158.5 -39.5q-112 0 -181.5 65t-69.5 170zM263 733h89l72 -74 l102 74h91l-168 -126h-66z" />
<glyph unicode="&#x10e;" horiz-adv-x="744" d="M46 0l137 739h174q186 0 269 -58q118 -81 118 -233q0 -102 -43 -192t-122 -154q-68 -54 -146 -78t-188 -24h-199zM132 67h103q116 0 188 22.5t129 75.5q53 49 84 122t31 148q0 116 -73.5 176.5t-245.5 60.5h-103zM265 915h89l72 -74l102 74h91l-168 -126h-66z" />
<glyph unicode="&#x10f;" horiz-adv-x="685" d="M58 217q0 137 105 240t245 103q127 0 195 -100l52 279h74l-137 -739h-74l18 99q-53 -60 -106.5 -86t-124.5 -26q-107 0 -177 65t-70 165zM135 236q0 -81 51 -131t134 -50q99 0 177.5 80.5t78.5 182.5q0 75 -52.5 124.5t-131.5 49.5q-101 0 -179 -78t-78 -178zM759 560 l84 179h74l-87 -179h-71z" />
<glyph unicode="&#x110;" horiz-adv-x="790" d="M63 347l12 67h93l61 325h174q100 0 162 -13.5t107 -44.5q118 -82 118 -230q0 -216 -165 -349q-68 -54 -146 -78t-188 -24h-199l64 347h-93zM179 67h103q115 0 187 22.5t129 75.5q53 49 84 122t31 148q0 116 -73.5 176.5t-245.5 60.5h-103l-49 -258h206l-12 -67h-206z" />
<glyph unicode="&#x111;" horiz-adv-x="685" d="M58 217q0 137 105 240t245 103q127 0 195 -100l27 142h-152l12 63h152l13 74h74l-14 -74h63l-11 -63h-63l-112 -602h-74l18 99q-53 -60 -106.5 -86t-124.5 -26q-107 0 -177 65t-70 165zM135 236q0 -81 51 -131t134 -50q99 0 177.5 80.5t78.5 182.5q0 74 -52.5 124 t-131.5 50q-101 0 -179 -78t-78 -178z" />
<glyph unicode="&#x112;" horiz-adv-x="536" d="M46 0l137 739h404l-12 -67h-330l-50 -265h319l-12 -67h-319l-51 -273h330l-12 -67h-404zM231 821l12 62h337l-12 -62h-337z" />
<glyph unicode="&#x113;" horiz-adv-x="650" d="M58 220q0 135 102.5 237.5t237.5 102.5q104 0 170.5 -64t66.5 -164q0 -32 -9 -83h-495q-2 -24 -2 -28q0 -70 52 -118t127 -48q61 0 121.5 35t92.5 90h77q-48 -88 -130.5 -140.5t-173.5 -52.5q-102 0 -169.5 66.5t-67.5 166.5zM146 316h419q-4 81 -52.5 128.5t-127.5 47.5 q-78 0 -145 -49.5t-94 -126.5zM243 639l12 62h337l-12 -62h-337z" />
<glyph unicode="&#x114;" horiz-adv-x="536" d="M46 0l137 739h404l-12 -67h-330l-50 -265h319l-12 -67h-319l-51 -273h330l-12 -67h-404zM265 911h64q4 -36 22.5 -49t58.5 -13q38 0 67 16.5t39 45.5h53q-35 -117 -172 -117q-62 0 -95.5 26.5t-36.5 90.5z" />
<glyph unicode="&#x115;" horiz-adv-x="650" d="M58 220q0 135 102.5 237.5t237.5 102.5q104 0 170.5 -64t66.5 -164q0 -32 -9 -83h-495q-2 -24 -2 -28q0 -70 52 -118t127 -48q61 0 121.5 35t92.5 90h77q-48 -88 -130.5 -140.5t-173.5 -52.5q-102 0 -169.5 66.5t-67.5 166.5zM146 316h419q-4 81 -52.5 128.5t-127.5 47.5 q-78 0 -145 -49.5t-94 -126.5zM271 729h64q4 -36 22.5 -49t58.5 -13q38 0 67 16.5t39 45.5h53q-35 -117 -172 -117q-62 0 -95.5 26.5t-36.5 90.5z" />
<glyph unicode="&#x116;" horiz-adv-x="536" d="M46 0l137 739h404l-12 -67h-330l-50 -265h319l-12 -67h-319l-51 -273h330l-12 -67h-404zM358 789l23 126h74l-23 -126h-74z" />
<glyph unicode="&#x117;" horiz-adv-x="650" d="M58 220q0 135 102.5 237.5t237.5 102.5q104 0 170.5 -64t66.5 -164q0 -32 -9 -83h-495q-2 -24 -2 -28q0 -70 52 -118t127 -48q61 0 121.5 35t92.5 90h77q-48 -88 -130.5 -140.5t-173.5 -52.5q-102 0 -169.5 66.5t-67.5 166.5zM146 316h419q-4 81 -52.5 128.5t-127.5 47.5 q-78 0 -145 -49.5t-94 -126.5zM370 607l23 126h74l-23 -126h-74z" />
<glyph unicode="&#x118;" horiz-adv-x="536" d="M46 0l137 739h404l-12 -67h-330l-50 -265h319l-12 -67h-319l-51 -273h330l-12 -67q-46 -23 -74 -56t-28 -60q0 -60 36 -60q29 0 50 4l-13 -74q-28 -4 -60 -4q-46 0 -67.5 31t-21.5 72q0 81 104 147h-330z" />
<glyph unicode="&#x119;" horiz-adv-x="650" d="M58 220q0 135 102.5 237.5t237.5 102.5q104 0 170.5 -64t66.5 -164q0 -32 -9 -83h-495q-2 -24 -2 -28q0 -70 52 -118t127 -48q61 0 121.5 35t92.5 90h77q-53 -98 -147 -150q-39 -23 -55.5 -33t-45.5 -31.5t-41 -41t-12 -40.5q0 -60 36 -60q29 0 50 4l-14 -74 q-27 -4 -60 -4q-46 0 -67 31t-21 72q0 74 85 134h-12q-102 0 -169.5 66.5t-67.5 166.5zM146 316h419q-4 81 -52.5 128.5t-127.5 47.5q-78 0 -145 -49.5t-94 -126.5z" />
<glyph unicode="&#x11a;" horiz-adv-x="536" d="M46 0l137 739h404l-12 -67h-330l-50 -265h319l-12 -67h-319l-51 -273h330l-12 -67h-404zM241 915h89l72 -74l102 74h91l-168 -126h-66z" />
<glyph unicode="&#x11b;" horiz-adv-x="650" d="M58 220q0 135 102.5 237.5t237.5 102.5q104 0 170.5 -64t66.5 -164q0 -32 -9 -83h-495q-2 -24 -2 -28q0 -70 52 -118t127 -48q61 0 121.5 35t92.5 90h77q-48 -88 -130.5 -140.5t-173.5 -52.5q-102 0 -169.5 66.5t-67.5 166.5zM146 316h419q-4 81 -52.5 128.5t-127.5 47.5 q-78 0 -145 -49.5t-94 -126.5zM253 733h89l72 -74l102 74h91l-168 -126h-66z" />
<glyph unicode="&#x11c;" horiz-adv-x="872" d="M77 300q0 88 38.5 171t102 144.5t150 99t177.5 37.5q121 0 206 -57.5t106 -152.5h-84q-23 65 -85.5 103.5t-145.5 38.5q-157 0 -272.5 -111t-115.5 -261q0 -116 76.5 -186.5t194.5 -70.5q105 0 197.5 60t140.5 159h-414l12 67h503q-37 -147 -166 -250.5t-282 -103.5 q-149 0 -244 87.5t-95 225.5zM375 789l168 126h66l120 -126h-89l-72 74l-102 -74h-91z" />
<glyph unicode="&#x11d;" horiz-adv-x="673" d="M30 -17h72q33 -77 70 -103.5t107 -26.5q97 0 158.5 56t81.5 165l7 37q-81 -124 -231 -124q-104 0 -171 65t-67 167q0 135 103 238t236 103q67 0 109.5 -22.5t83.5 -87.5l18 97h74l-84 -449q-17 -88 -35 -132t-55 -83q-92 -98 -242 -98q-99 0 -158.5 47t-76.5 151z M134 236q0 -78 45 -129.5t128 -51.5q100 0 177.5 80.5t77.5 189.5q0 72 -50.5 119.5t-126.5 47.5q-96 0 -173.5 -76t-77.5 -180zM227 607l168 126h66l120 -126h-89l-72 74l-102 -74h-91z" />
<glyph unicode="&#x11e;" horiz-adv-x="872" d="M77 300q0 88 38.5 171t102 144.5t150 99t177.5 37.5q121 0 206 -57.5t106 -152.5h-84q-23 65 -85.5 103.5t-145.5 38.5q-157 0 -272.5 -111t-115.5 -261q0 -116 76.5 -186.5t194.5 -70.5q105 0 197.5 60t140.5 159h-414l12 67h503q-37 -147 -166 -250.5t-282 -103.5 q-149 0 -244 87.5t-95 225.5zM422 911h64q4 -36 22.5 -49t58.5 -13q38 0 67 16.5t39 45.5h53q-35 -117 -172 -117q-62 0 -95.5 26.5t-36.5 90.5z" />
<glyph unicode="&#x11f;" horiz-adv-x="673" d="M30 -17h72q33 -77 70 -103.5t107 -26.5q97 0 158.5 56t81.5 165l7 37q-81 -124 -231 -124q-104 0 -171 65t-67 167q0 135 103 238t236 103q67 0 109.5 -22.5t83.5 -87.5l18 97h74l-84 -449q-17 -88 -35 -132t-55 -83q-92 -98 -242 -98q-99 0 -158.5 47t-76.5 151z M134 236q0 -78 45 -129.5t128 -51.5q100 0 177.5 80.5t77.5 189.5q0 72 -50.5 119.5t-126.5 47.5q-96 0 -173.5 -76t-77.5 -180zM269 729h64q4 -36 22.5 -49t58.5 -13q38 0 67 16.5t39 45.5h53q-35 -117 -172 -117q-62 0 -95.5 26.5t-36.5 90.5z" />
<glyph unicode="&#x120;" horiz-adv-x="872" d="M77 300q0 88 38.5 171t102 144.5t150 99t177.5 37.5q121 0 206 -57.5t106 -152.5h-84q-23 65 -85.5 103.5t-145.5 38.5q-157 0 -272.5 -111t-115.5 -261q0 -116 76.5 -186.5t194.5 -70.5q105 0 197.5 60t140.5 159h-414l12 67h503q-37 -147 -166 -250.5t-282 -103.5 q-149 0 -244 87.5t-95 225.5zM515 789l23 126h74l-23 -126h-74z" />
<glyph unicode="&#x121;" horiz-adv-x="673" d="M30 -17h72q33 -77 70 -103.5t107 -26.5q97 0 158.5 56t81.5 165l7 37q-81 -124 -231 -124q-104 0 -171 65t-67 167q0 135 103 238t236 103q67 0 109.5 -22.5t83.5 -87.5l18 97h74l-84 -449q-17 -88 -35 -132t-55 -83q-92 -98 -242 -98q-99 0 -158.5 47t-76.5 151z M134 236q0 -78 45 -129.5t128 -51.5q100 0 177.5 80.5t77.5 189.5q0 72 -50.5 119.5t-126.5 47.5q-96 0 -173.5 -76t-77.5 -180zM368 607l23 126h74l-23 -126h-74z" />
<glyph unicode="&#x122;" horiz-adv-x="872" d="M77 300q0 88 38.5 171t102 144.5t150 99t177.5 37.5q121 0 206 -57.5t106 -152.5h-84q-23 65 -85.5 103.5t-145.5 38.5q-157 0 -272.5 -111t-115.5 -261q0 -116 76.5 -186.5t194.5 -70.5q105 0 197.5 60t140.5 159h-414l12 67h503q-37 -147 -166 -250.5t-282 -103.5 q-149 0 -244 87.5t-95 225.5zM296 -232l84 179h74l-87 -179h-71z" />
<glyph unicode="&#x123;" horiz-adv-x="673" d="M30 -17h72q33 -77 70 -103.5t107 -26.5q97 0 158.5 56t81.5 165l7 37q-81 -124 -231 -124q-104 0 -171 65t-67 167q0 135 103 238t236 103q67 0 109.5 -22.5t83.5 -87.5l18 97h74l-84 -449q-17 -88 -35 -132t-55 -83q-92 -98 -242 -98q-99 0 -158.5 47t-76.5 151z M134 236q0 -78 45 -129.5t128 -51.5q100 0 177.5 80.5t77.5 189.5q0 72 -50.5 119.5t-126.5 47.5q-96 0 -173.5 -76t-77.5 -180zM343 613l87 179h71l-84 -179h-74z" />
<glyph unicode="&#x124;" d="M46 0l137 739h74l-60 -325h383l60 325h74l-137 -739h-74l64 347h-383l-64 -347h-74zM281 789l168 126h66l120 -126h-89l-72 74l-102 -74h-91z" />
<glyph unicode="&#x125;" horiz-adv-x="610" d="M33 0l137 739h74l-49 -263q76 84 185 84q94 0 146.5 -48.5t52.5 -135.5q0 -26 -10 -82l-54 -294h-74l54 294q7 44 7 72q0 55 -39 90.5t-100 35.5q-76 0 -129 -49.5t-71 -142.5l-56 -300h-74zM245 789l168 126h66l120 -126h-89l-72 74l-102 -74h-91z" />
<glyph unicode="&#x126;" d="M46 0l105 565h-64l12 64h64l20 110h74l-20 -110h383l20 110h74l-20 -110h67l-12 -64h-67l-105 -565h-74l64 347h-383l-64 -347h-74zM197 414h383l28 151h-383z" />
<glyph unicode="&#x127;" horiz-adv-x="610" d="M32 0l114 615h-53l12 64h54l11 60h74l-11 -60h99l-12 -64h-99l-27 -139q73 84 190 84q124 0 173 -85q36 -64 13 -181l-54 -294h-74l54 294q17 93 -11 138q-36 60 -121 60q-89 0 -149 -68q-37 -40 -53 -124l-56 -300h-74z" />
<glyph unicode="&#x128;" horiz-adv-x="226" d="M46 0l137 739h74l-137 -739h-74zM95 851q49 51 89 51q14 0 55 -18.5t50 -18.5q36 0 71 38l21 -46q-40 -55 -92 -55q-27 0 -96 33q-7 4 -17 4q-9 0 -18 -5.5t-40 -27.5z" />
<glyph unicode="&#x129;" horiz-adv-x="200" d="M33 0l101 547h74l-101 -547h-74zM47 669q49 51 89 51q14 0 55 -18.5t50 -18.5q36 0 71 38l21 -46q-40 -55 -92 -55q-27 0 -96 33q-7 4 -17 4q-9 0 -18 -5.5t-40 -27.5z" />
<glyph unicode="&#x12a;" horiz-adv-x="226" d="M46 0l137 739h74l-137 -739h-74zM66 821l12 62h337l-12 -62h-337z" />
<glyph unicode="&#x12b;" horiz-adv-x="200" d="M19 639l12 62h337l-12 -62h-337zM33 0l101 547h74l-101 -547h-74z" />
<glyph unicode="&#x12c;" horiz-adv-x="226" d="M46 0l137 739h74l-137 -739h-74zM100 911h64q4 -36 22.5 -49t58.5 -13q38 0 67 16.5t39 45.5h53q-35 -117 -172 -117q-62 0 -95.5 26.5t-36.5 90.5z" />
<glyph unicode="&#x12d;" horiz-adv-x="200" d="M33 0l101 547h74l-101 -547h-74zM47 729h64q4 -36 22.5 -49t58.5 -13q38 0 67 16.5t39 45.5h53q-35 -117 -172 -117q-62 0 -95.5 26.5t-36.5 90.5z" />
<glyph unicode="&#x12e;" horiz-adv-x="226" d="M-58 -147q0 63 60 115q14 12 44 32l137 739h74l-137 -739q-46 -23 -74 -56t-28 -60q0 -60 36 -60q29 0 50 4l-14 -74q-27 -4 -60 -4q-46 0 -67 31t-21 72z" />
<glyph unicode="&#x12f;" horiz-adv-x="200" d="M-71 -147q0 81 104 147l101 547h74l-101 -547q-46 -23 -74 -56t-28 -60q0 -60 36 -60q29 0 50 4l-14 -74q-27 -4 -60 -4q-46 0 -67 31t-21 72zM146 607l23 126h74l-23 -126h-74z" />
<glyph unicode="&#x130;" horiz-adv-x="226" d="M46 0l137 739h74l-137 -739h-74zM193 789l23 126h74l-23 -126h-74z" />
<glyph unicode="&#x131;" horiz-adv-x="200" d="M33 0l101 547h74l-101 -547h-74z" />
<glyph unicode="&#x134;" horiz-adv-x="482" d="M11 146q0 18 2 29h73q6 -64 28 -92.5t74 -28.5q62 0 100 43t56 134l95 508h74l-95 -508q-22 -121 -83.5 -183t-157.5 -62q-77 0 -121.5 41t-44.5 119zM309 789l168 126h66l120 -126h-89l-72 74l-102 -74h-91z" />
<glyph unicode="&#x135;" horiz-adv-x="203" d="M-111 -192l13 71q64 4 94.5 38.5t47.5 120.5l94 509h74l-94 -509q-35 -220 -229 -230zM9 607l168 126h66l120 -126h-89l-72 74l-102 -74h-91z" />
<glyph unicode="&#x136;" horiz-adv-x="591" d="M46 0l137 739h74l-79 -425l421 425h93l-359 -360l222 -379h-93l-187 320l-118 -118l-37 -202h-74zM182 -232l84 179h74l-87 -179h-71z" />
<glyph unicode="&#x137;" horiz-adv-x="502" d="M33 0l137 739h74l-97 -524l316 332h91l-264 -275l177 -272h-92l-141 219l-106 -106l-21 -113h-74zM132 -232l84 179h74l-87 -179h-71z" />
<glyph unicode="&#x139;" horiz-adv-x="462" d="M46 0l137 739h74l-125 -672h306l-12 -67h-380zM165 832l214 116l24 -58l-214 -114z" />
<glyph unicode="&#x13a;" horiz-adv-x="200" d="M33 0l137 739h74l-137 -739h-74zM152 832l214 116l24 -58l-214 -114z" />
<glyph unicode="&#x13b;" horiz-adv-x="462" d="M46 0l137 739h74l-125 -672h306l-12 -67h-380zM127 -232l84 179h74l-87 -179h-71z" />
<glyph unicode="&#x13c;" horiz-adv-x="200" d="M-39 -232l84 179h74l-87 -179h-71zM33 0l137 739h74l-137 -739h-74z" />
<glyph unicode="&#x13d;" horiz-adv-x="462" d="M46 0l137 739h74l-125 -672h306l-12 -67h-380zM287 560l84 179h74l-87 -179h-71z" />
<glyph unicode="&#x13e;" horiz-adv-x="200" d="M33 0l137 739h74l-137 -739h-74zM274 560l84 179h74l-87 -179h-71z" />
<glyph unicode="&#x13f;" horiz-adv-x="462" d="M46 0l137 739h74l-125 -672h306l-12 -67h-380zM336 320l23 126h74l-23 -126h-74z" />
<glyph unicode="&#x140;" horiz-adv-x="274" d="M33 0l137 739h74l-137 -739h-74zM229 320l23 126h74l-23 -126h-74z" />
<glyph unicode="&#x141;" horiz-adv-x="517" d="M40 226l16 84l108 81l65 348h74l-58 -313l181 132l-15 -84l-182 -132l-51 -275h306l-12 -67h-380l57 307z" />
<glyph unicode="&#x142;" horiz-adv-x="300" d="M64 298l13 74l90 53l58 314h74l-52 -287l93 55l-14 -73l-93 -55l-71 -379h-74l66 352z" />
<glyph unicode="&#x143;" horiz-adv-x="740" d="M46 0l137 739h100l300 -613l114 613h74l-137 -739h-74l-320 650l-120 -650h-74zM418 832l214 116l24 -58l-214 -114z" />
<glyph unicode="&#x144;" horiz-adv-x="610" d="M33 0l101 547h74l-13 -71q87 84 188 84q90 0 143 -49t53 -132q0 -35 -11 -92l-53 -287h-74l53 287q8 45 8 74q0 60 -37.5 95.5t-101.5 35.5q-76 0 -129 -47t-71 -144l-56 -301h-74zM318 650l214 116l24 -58l-214 -114z" />
<glyph unicode="&#x145;" horiz-adv-x="740" d="M46 0l137 739h100l300 -613l114 613h74l-137 -739h-74l-320 650l-120 -650h-74zM231 -232l84 179h74l-87 -179h-71z" />
<glyph unicode="&#x146;" horiz-adv-x="610" d="M33 0l101 547h74l-13 -71q87 84 188 84q90 0 143 -49t53 -132q0 -35 -11 -92l-53 -287h-74l53 287q8 45 8 74q0 60 -37.5 95.5t-101.5 35.5q-76 0 -129 -47t-71 -144l-56 -301h-74zM165 -232l84 179h74l-87 -179h-71z" />
<glyph unicode="&#x147;" horiz-adv-x="740" d="M46 0l137 739h100l300 -613l114 613h74l-137 -739h-74l-320 650l-120 -650h-74zM333 915h89l72 -74l102 74h91l-168 -126h-66z" />
<glyph unicode="&#x148;" horiz-adv-x="610" d="M33 0l101 547h74l-13 -71q87 84 188 84q90 0 143 -49t53 -132q0 -35 -11 -92l-53 -287h-74l53 287q8 45 8 74q0 60 -37.5 95.5t-101.5 35.5q-76 0 -129 -47t-71 -144l-56 -301h-74zM233 733h89l72 -74l102 74h91l-168 -126h-66z" />
<glyph unicode="&#x14a;" horiz-adv-x="740" d="M46 0l137 739h100l300 -613l114 613h74l-139 -745q-22 -121 -83.5 -183t-157.5 -62q-77 0 -121.5 41t-44.5 119q0 18 2 29h73q6 -64 28 -92.5t74 -28.5q55 0 98 47t55 111l5 26l-320 649l-120 -650h-74z" />
<glyph unicode="&#x14b;" horiz-adv-x="610" d="M33 0l101 547h74l-13 -71q87 84 188 84q90 0 143 -49t53 -132q0 -35 -11 -92l-46 -249q-35 -220 -229 -230l13 71q64 4 94.5 38.5t47.5 120.5l46 249q8 45 8 74q0 60 -37.5 95.5t-101.5 35.5q-76 0 -129 -47t-71 -144l-56 -301h-74z" />
<glyph unicode="&#x14c;" horiz-adv-x="869" d="M76 302q0 115 66.5 219.5t176 167.5t229.5 63q133 0 227.5 -89.5t94.5 -226.5q0 -114 -66.5 -218.5t-176 -167.5t-229.5 -63q-135 0 -228.5 90t-93.5 225zM153 316q0 -110 74.5 -185.5t182.5 -75.5q149 0 266 112.5t117 254.5q0 114 -74 188t-189 74q-143 0 -260 -114 t-117 -254zM392 821l12 62h337l-12 -62h-337z" />
<glyph unicode="&#x14d;" horiz-adv-x="655" d="M57 215q0 141 105 243t243 102q104 0 169 -63t65 -165q0 -140 -102 -242.5t-234 -102.5q-109 0 -177.5 63.5t-68.5 164.5zM134 228q0 -77 49.5 -125t129.5 -48q104 0 176.5 78.5t72.5 191.5q0 73 -48 120t-122 47q-105 0 -181.5 -78.5t-76.5 -185.5zM250 639l12 62h337 l-12 -62h-337z" />
<glyph unicode="&#x14e;" horiz-adv-x="869" d="M76 302q0 115 66.5 219.5t176 167.5t229.5 63q133 0 227.5 -89.5t94.5 -226.5q0 -114 -66.5 -218.5t-176 -167.5t-229.5 -63q-135 0 -228.5 90t-93.5 225zM153 316q0 -110 74.5 -185.5t182.5 -75.5q149 0 266 112.5t117 254.5q0 114 -74 188t-189 74q-143 0 -260 -114 t-117 -254zM425 911h64q4 -36 22.5 -49t58.5 -13q38 0 67 16.5t39 45.5h53q-35 -117 -172 -117q-62 0 -95.5 26.5t-36.5 90.5z" />
<glyph unicode="&#x14f;" horiz-adv-x="655" d="M57 215q0 141 105 243t243 102q104 0 169 -63t65 -165q0 -140 -102 -242.5t-234 -102.5q-109 0 -177.5 63.5t-68.5 164.5zM134 228q0 -77 49.5 -125t129.5 -48q104 0 176.5 78.5t72.5 191.5q0 73 -48 120t-122 47q-105 0 -181.5 -78.5t-76.5 -185.5zM278 729h64 q4 -36 22.5 -49t58.5 -13q38 0 67 16.5t39 45.5h53q-35 -117 -172 -117q-62 0 -95.5 26.5t-36.5 90.5z" />
<glyph unicode="&#x150;" horiz-adv-x="869" d="M76 302q0 115 66.5 219.5t176 167.5t229.5 63q133 0 227.5 -89.5t94.5 -226.5q0 -114 -66.5 -218.5t-176 -167.5t-229.5 -63q-135 0 -228.5 90t-93.5 225zM153 316q0 -110 74.5 -185.5t182.5 -75.5q149 0 266 112.5t117 254.5q0 114 -74 188t-189 74q-143 0 -260 -114 t-117 -254zM431 826l192 122l31 -50l-194 -122zM626 826l193 122l30 -50l-194 -122z" />
<glyph unicode="&#x151;" horiz-adv-x="655" d="M57 215q0 141 105 243t243 102q104 0 169 -63t65 -165q0 -140 -102 -242.5t-234 -102.5q-109 0 -177.5 63.5t-68.5 164.5zM134 228q0 -77 49.5 -125t129.5 -48q104 0 176.5 78.5t72.5 191.5q0 73 -48 120t-122 47q-105 0 -181.5 -78.5t-76.5 -185.5zM288 634l192 122 l31 -50l-194 -122zM483 634l193 122l30 -50l-194 -122z" />
<glyph unicode="&#x152;" horiz-adv-x="1194" d="M76 300q0 182 139 317t327 135q103 0 175.5 -41.5t105.5 -118.5l28 147h394l-13 -67h-319l-49 -265h308l-12 -67h-308l-51 -273h319l-12 -67h-394l28 151q-128 -164 -330 -164q-152 0 -244 85.5t-92 227.5zM153 313q0 -111 72.5 -184.5t193.5 -73.5q95 0 181 51 t138.5 139.5t52.5 190.5q0 111 -72.5 179.5t-190.5 68.5q-150 0 -262.5 -112t-112.5 -259z" />
<glyph unicode="&#x153;" horiz-adv-x="1137" d="M58 217q0 94 50.5 174t128.5 124.5t161 44.5q79 0 128 -31.5t91 -114.5q34 56 110 101t162 45q102 0 168 -62t66 -159q0 -32 -13 -91h-488q-2 -26 -2 -32q0 -65 53 -113t131 -48q131 0 209 124h75q-36 -78 -119 -135t-177 -57q-80 0 -141.5 37.5t-84.5 113.5 q-42 -50 -61 -68.5t-45 -34.5q-79 -48 -158 -48q-107 0 -175.5 64t-68.5 166zM135 230q0 -77 48.5 -126t124.5 -49q100 0 176 80.5t76 184.5q0 77 -48 124.5t-125 47.5q-101 0 -176.5 -78t-75.5 -184zM635 315h419v12q0 70 -50.5 117.5t-125.5 47.5q-79 0 -142 -45.5 t-101 -131.5z" />
<glyph unicode="&#x154;" horiz-adv-x="607" d="M46 0l137 739h183q150 0 213.5 -44.5t63.5 -141.5q0 -114 -73 -190.5t-190 -86.5l156 -276h-92l-187 335q141 0 200 24q48 20 78.5 71t30.5 111q0 71 -50 101t-167 30h-104l-125 -672h-74zM360 832l214 116l24 -58l-214 -114z" />
<glyph unicode="&#x155;" horiz-adv-x="301" d="M33 0l101 547h74l-14 -78q30 45 69.5 66t102.5 25l-14 -73q-158 -17 -186 -168l-59 -319h-74zM151 650l214 116l24 -58l-214 -114z" />
<glyph unicode="&#x156;" horiz-adv-x="607" d="M46 0l137 739h183q150 0 213.5 -44.5t63.5 -141.5q0 -114 -73 -190.5t-190 -86.5l156 -276h-92l-187 335q141 0 200 24q48 20 78.5 71t30.5 111q0 71 -50 101t-167 30h-104l-125 -672h-74zM173 -232l84 179h74l-87 -179h-71z" />
<glyph unicode="&#x157;" horiz-adv-x="301" d="M-39 -232l84 179h74l-87 -179h-71zM33 0l101 547h74l-14 -78q30 45 69.5 66t102.5 25l-14 -73q-158 -17 -186 -168l-59 -319h-74z" />
<glyph unicode="&#x158;" horiz-adv-x="607" d="M46 0l137 739h183q150 0 213.5 -44.5t63.5 -141.5q0 -114 -73 -190.5t-190 -86.5l156 -276h-92l-187 335q141 0 200 24q48 20 78.5 71t30.5 111q0 71 -50 101t-167 30h-104l-125 -672h-74zM275 915h89l72 -74l102 74h91l-168 -126h-66z" />
<glyph unicode="&#x159;" horiz-adv-x="301" d="M33 0l101 547h74l-14 -78q30 45 69.5 66t102.5 25l-14 -73q-158 -17 -186 -168l-59 -319h-74zM66 733h89l72 -74l102 74h91l-168 -126h-66z" />
<glyph unicode="&#x15a;" horiz-adv-x="498" d="M26 165q0 10 2 42h79q0 -80 31.5 -116t95.5 -36q72 0 124.5 52.5t52.5 124.5q0 46 -30 72.5t-109 51.5q-97 30 -127 65.5t-30 98.5q0 89 72.5 160.5t173.5 71.5q78 0 125.5 -44.5t47.5 -117.5q0 -11 -3 -38h-77q0 132 -106 132q-65 0 -110.5 -47.5t-45.5 -105.5 q0 -15 6.5 -34t15.5 -28q11 -11 29 -19.5t72 -26.5q110 -37 141 -76q32 -41 32 -101q0 -102 -81 -180.5t-188 -78.5q-85 0 -139 49.5t-54 128.5zM299 832l214 116l24 -58l-214 -114z" />
<glyph unicode="&#x15b;" horiz-adv-x="388" d="M13 117q0 20 3 44h73q0 -62 20.5 -84t62.5 -22q46 0 79.5 33.5t33.5 78.5q0 31 -16 47.5t-72 40.5q-45 20 -62.5 30t-28.5 23q-26 29 -26 72q0 72 57.5 126t130.5 54q55 0 91 -33.5t36 -84.5q0 -19 -1 -30h-75q0 80 -65 80q-37 0 -67 -28.5t-30 -63.5q0 -38 38 -59 q18 -9 95 -44q72 -32 72 -108q0 -83 -61 -142.5t-142 -59.5q-66 0 -106 38t-40 92zM208 650l214 116l24 -58l-214 -114z" />
<glyph unicode="&#x15c;" horiz-adv-x="498" d="M26 165q0 10 2 42h79q0 -80 31.5 -116t95.5 -36q72 0 124.5 52.5t52.5 124.5q0 46 -30 72.5t-109 51.5q-97 30 -127 65.5t-30 98.5q0 89 72.5 160.5t173.5 71.5q78 0 125.5 -44.5t47.5 -117.5q0 -11 -3 -38h-77q0 132 -106 132q-65 0 -110.5 -47.5t-45.5 -105.5 q0 -15 6.5 -34t15.5 -28q11 -11 29 -19.5t72 -26.5q110 -37 141 -76q32 -41 32 -101q0 -102 -81 -180.5t-188 -78.5q-85 0 -139 49.5t-54 128.5zM191 789l168 126h66l120 -126h-89l-72 74l-102 -74h-91z" />
<glyph unicode="&#x15d;" horiz-adv-x="388" d="M13 117q0 20 3 44h73q0 -62 20.5 -84t62.5 -22q46 0 79.5 33.5t33.5 78.5q0 31 -16 47.5t-72 40.5q-45 20 -62.5 30t-28.5 23q-26 29 -26 72q0 72 57.5 126t130.5 54q55 0 91 -33.5t36 -84.5q0 -19 -1 -30h-75q0 80 -65 80q-37 0 -67 -28.5t-30 -63.5q0 -38 38 -59 q18 -9 95 -44q72 -32 72 -108q0 -83 -61 -142.5t-142 -59.5q-66 0 -106 38t-40 92zM99 607l168 126h66l120 -126h-89l-72 74l-102 -74h-91z" />
<glyph unicode="&#x15e;" horiz-adv-x="498" d="M26 165q0 10 2 42h79q0 -80 31.5 -116t95.5 -36q72 0 124.5 52.5t52.5 124.5q0 46 -30 72.5t-109 51.5q-97 30 -127 65.5t-30 98.5q0 89 72.5 160.5t173.5 71.5q78 0 125.5 -44.5t47.5 -117.5q0 -11 -3 -38h-77q0 132 -106 132q-65 0 -110.5 -47.5t-45.5 -105.5 q0 -15 6.5 -34t15.5 -28q11 -11 29 -19.5t72 -26.5q110 -37 141 -76q32 -41 32 -101q0 -100 -79 -178.5t-184 -80.5l-18 -35q22 5 34 5q37 0 60 -20.5t23 -54.5q0 -7 -2 -19q-8 -48 -45.5 -81t-87.5 -33q-73 0 -80 85l54 6q2 -18 10.5 -25.5t27.5 -7.5q24 0 41 18.5t17 45.5 q1 19 -10 29.5t-30 10.5q-29 0 -51 -19l-28 19l46 78q-72 10 -116 58t-44 118z" />
<glyph unicode="&#x15f;" horiz-adv-x="388" d="M13 117q0 20 3 44h73q0 -62 20.5 -84t62.5 -22q46 0 79.5 33.5t33.5 78.5q0 31 -16 47.5t-72 40.5q-45 20 -62.5 30t-28.5 23q-26 29 -26 72q0 72 57.5 126t130.5 54q55 0 91 -33.5t36 -84.5q0 -19 -1 -30h-75q0 80 -65 80q-37 0 -67 -28.5t-30 -63.5q0 -38 38 -59 q18 -9 95 -44q72 -32 72 -108q0 -80 -57 -138.5t-135 -63.5l-18 -35q22 5 34 5q37 0 60 -20.5t23 -54.5q0 -7 -2 -19q-8 -48 -45.5 -81t-87.5 -33q-73 0 -80 85l54 6q2 -18 10.5 -25.5t27.5 -7.5q24 0 41 18.5t17 45.5q1 19 -10 29.5t-30 10.5q-29 0 -51 -19l-28 19l46 78 q-54 8 -86 44t-32 84z" />
<glyph unicode="&#x160;" horiz-adv-x="498" d="M26 165q0 10 2 42h79q0 -80 31.5 -116t95.5 -36q72 0 124.5 52.5t52.5 124.5q0 46 -30 72.5t-109 51.5q-97 30 -127 65.5t-30 98.5q0 89 72.5 160.5t173.5 71.5q78 0 125.5 -44.5t47.5 -117.5q0 -11 -3 -38h-77q0 132 -106 132q-65 0 -110.5 -47.5t-45.5 -105.5 q0 -15 6.5 -34t15.5 -28q11 -11 29 -19.5t72 -26.5q110 -37 141 -76q32 -41 32 -101q0 -102 -81 -180.5t-188 -78.5q-85 0 -139 49.5t-54 128.5zM214 915h89l72 -74l102 74h91l-168 -126h-66z" />
<glyph unicode="&#x161;" horiz-adv-x="388" d="M13 117q0 20 3 44h73q0 -62 20.5 -84t62.5 -22q46 0 79.5 33.5t33.5 78.5q0 31 -16 47.5t-72 40.5q-45 20 -62.5 30t-28.5 23q-26 29 -26 72q0 72 57.5 126t130.5 54q55 0 91 -33.5t36 -84.5q0 -19 -1 -30h-75q0 80 -65 80q-37 0 -67 -28.5t-30 -63.5q0 -38 38 -59 q18 -9 95 -44q72 -32 72 -108q0 -83 -61 -142.5t-142 -59.5q-66 0 -106 38t-40 92zM123 733h89l72 -74l102 74h91l-168 -126h-66z" />
<glyph unicode="&#x162;" horiz-adv-x="426" d="M79 -166l54 6q2 -18 10.5 -25.5t27.5 -7.5q24 0 41 18.5t17 45.5q1 19 -10 29.5t-30 10.5q-29 0 -51 -19l-28 19l52 89h-16l125 672h-169l12 67h412l-12 -67h-169l-125 -672h-19l-24 -48q22 5 34 5q37 0 60 -20.5t23 -54.5q0 -7 -2 -19q-8 -48 -45.5 -81t-87.5 -33 q-73 0 -80 85z" />
<glyph unicode="&#x163;" horiz-adv-x="339" d="M39 -166l54 6q2 -18 10.5 -25.5t27.5 -7.5q24 0 41 18.5t17 45.5q1 19 -10 29.5t-30 10.5q-29 0 -51 -19l-28 19l52 89h-28l89 480h-112l12 67h112l36 192h74l-36 -192h129l-12 -67h-129l-89 -480h-7l-24 -48q22 5 34 5q37 0 60 -20.5t23 -54.5q0 -7 -2 -19 q-8 -48 -45.5 -81t-87.5 -33q-73 0 -80 85z" />
<glyph unicode="&#x164;" horiz-adv-x="426" d="M102 672l12 67h412l-12 -67h-169l-125 -672h-74l125 672h-169zM176 915h89l72 -74l102 74h91l-168 -126h-66z" />
<glyph unicode="&#x165;" horiz-adv-x="339" d="M71 480l12 67h112l36 192h74l-36 -192h129l-12 -67h-129l-89 -480h-74l89 480h-112zM307 579l84 179h74l-87 -179h-71z" />
<glyph unicode="&#x168;" horiz-adv-x="655" d="M89 173q0 44 11 105l85 461h74l-85 -461q-9 -48 -9 -90q0 -59 40 -96t104 -37q84 0 140.5 55t77.5 168l85 461h74l-85 -461q-27 -145 -107.5 -218t-197.5 -73q-92 0 -149.5 52t-57.5 134zM311 851q49 51 89 51q14 0 55 -18.5t50 -18.5q36 0 71 38l21 -46q-40 -55 -92 -55 q-27 0 -96 33q-7 4 -17 4q-9 0 -18 -5.5t-40 -27.5z" />
<glyph unicode="&#x169;" horiz-adv-x="608" d="M69 155q0 47 9 97l55 295h74l-55 -295q-6 -26 -6 -67q0 -62 34 -96t100 -34q77 0 132.5 50.5t76.5 160.5l53 281h74l-102 -547h-74l16 85q-40 -53 -85.5 -75.5t-110.5 -22.5q-87 0 -139 45.5t-52 122.5zM250 669q49 51 89 51q14 0 55 -18.5t50 -18.5q36 0 71 38l21 -46 q-40 -55 -92 -55q-27 0 -96 33q-7 4 -17 4q-9 0 -18 -5.5t-40 -27.5z" />
<glyph unicode="&#x16a;" horiz-adv-x="655" d="M89 173q0 44 11 105l85 461h74l-85 -461q-9 -48 -9 -90q0 -59 40 -96t104 -37q84 0 140.5 55t77.5 168l85 461h74l-85 -461q-27 -145 -107.5 -218t-197.5 -73q-92 0 -149.5 52t-57.5 134zM282 821l12 62h337l-12 -62h-337z" />
<glyph unicode="&#x16b;" horiz-adv-x="608" d="M69 155q0 47 9 97l55 295h74l-55 -295q-6 -26 -6 -67q0 -62 34 -96t100 -34q77 0 132.5 50.5t76.5 160.5l53 281h74l-102 -547h-74l16 85q-40 -53 -85.5 -75.5t-110.5 -22.5q-87 0 -139 45.5t-52 122.5zM222 639l12 62h337l-12 -62h-337z" />
<glyph unicode="&#x16c;" horiz-adv-x="655" d="M89 173q0 44 11 105l85 461h74l-85 -461q-9 -48 -9 -90q0 -59 40 -96t104 -37q84 0 140.5 55t77.5 168l85 461h74l-85 -461q-27 -145 -107.5 -218t-197.5 -73q-92 0 -149.5 52t-57.5 134zM315 911h64q4 -36 22.5 -49t58.5 -13q38 0 67 16.5t39 45.5h53 q-35 -117 -172 -117q-62 0 -95.5 26.5t-36.5 90.5z" />
<glyph unicode="&#x16d;" horiz-adv-x="608" d="M69 155q0 47 9 97l55 295h74l-55 -295q-6 -26 -6 -67q0 -62 34 -96t100 -34q77 0 132.5 50.5t76.5 160.5l53 281h74l-102 -547h-74l16 85q-40 -53 -85.5 -75.5t-110.5 -22.5q-87 0 -139 45.5t-52 122.5zM250 729h64q4 -36 22.5 -49t58.5 -13q38 0 67 16.5t39 45.5h53 q-35 -117 -172 -117q-62 0 -95.5 26.5t-36.5 90.5z" />
<glyph unicode="&#x16e;" horiz-adv-x="655" d="M89 173q0 44 11 105l85 461h74l-85 -461q-9 -48 -9 -90q0 -59 40 -96t104 -37q84 0 140.5 55t77.5 168l85 461h74l-85 -461q-27 -145 -107.5 -218t-197.5 -73q-92 0 -149.5 52t-57.5 134zM355 843q0 50 35.5 86.5t84.5 36.5q39 0 62.5 -24t23.5 -63q0 -44 -38 -79.5 t-84 -35.5q-36 0 -60 22.5t-24 56.5zM397 854q0 -20 14 -33t36 -13q26 0 49 21t23 45q0 20 -15 34t-36 14q-27 0 -49 -21t-22 -47z" />
<glyph unicode="&#x16f;" horiz-adv-x="608" d="M69 155q0 47 9 97l55 295h74l-55 -295q-6 -26 -6 -67q0 -62 34 -96t100 -34q77 0 132.5 50.5t76.5 160.5l53 281h74l-102 -547h-74l16 85q-40 -53 -85.5 -75.5t-110.5 -22.5q-87 0 -139 45.5t-52 122.5zM296 658q0 50 35.5 86.5t84.5 36.5q38 0 61.5 -24t23.5 -63 q0 -44 -38 -79.5t-84 -35.5q-36 0 -59.5 22.5t-23.5 56.5zM338 669q0 -20 13.5 -33t35.5 -13q26 0 49.5 21t23.5 45q0 20 -15 34t-37 14q-26 0 -48 -21t-22 -47z" />
<glyph unicode="&#x170;" horiz-adv-x="655" d="M89 173q0 44 11 105l85 461h74l-85 -461q-9 -48 -9 -90q0 -59 40 -96t104 -37q84 0 140.5 55t77.5 168l85 461h74l-85 -461q-27 -145 -107.5 -218t-197.5 -73q-92 0 -149.5 52t-57.5 134zM321 826l192 122l31 -50l-194 -122zM516 826l193 122l30 -50l-194 -122z" />
<glyph unicode="&#x171;" horiz-adv-x="608" d="M69 155q0 47 9 97l55 295h74l-55 -295q-6 -26 -6 -67q0 -62 34 -96t100 -34q77 0 132.5 50.5t76.5 160.5l53 281h74l-102 -547h-74l16 85q-40 -53 -85.5 -75.5t-110.5 -22.5q-87 0 -139 45.5t-52 122.5zM260 634l192 122l31 -50l-194 -122zM455 634l193 122l30 -50 l-194 -122z" />
<glyph unicode="&#x172;" horiz-adv-x="655" d="M89 173q0 44 11 105l85 461h74l-85 -461q-9 -48 -9 -90q0 -59 40 -96t104 -37q84 0 140.5 55t77.5 168l85 461h74l-85 -461q-38 -202 -180 -266q-124 -55 -124 -128q0 -23 8.5 -41.5t28.5 -18.5q27 0 50 4l-14 -74q-27 -4 -60 -4q-46 0 -67.5 31t-21.5 72q0 74 85 134 h-10q-92 0 -149.5 52t-57.5 134z" />
<glyph unicode="&#x173;" horiz-adv-x="608" d="M69 155q0 47 9 97l55 295h74l-55 -295q-6 -26 -6 -67q0 -62 34 -96t100 -34q77 0 132.5 50.5t76.5 160.5l53 281h74l-102 -547q-46 -23 -74 -56t-28 -60q0 -23 8.5 -41.5t28.5 -18.5q27 0 50 4l-14 -74q-27 -4 -60 -4q-46 0 -67.5 31t-21.5 72q0 80 105 147l3 22l8 42 l4 21q-40 -53 -85.5 -75.5t-110.5 -22.5q-87 0 -139 45.5t-52 122.5z" />
<glyph unicode="&#x174;" horiz-adv-x="960" d="M117 739h76l63 -643l296 643h70l58 -643l301 643h76l-349 -739h-95l-52 606l-274 -606h-96zM420 789l168 126h66l120 -126h-89l-72 74l-102 -74h-91z" />
<glyph unicode="&#x175;" horiz-adv-x="831" d="M78 547h74l89 -458l202 391h61l56 -391l263 458h72l-313 -547h-79l-52 363l-185 -363h-80zM320 607l168 126h66l120 -126h-89l-72 74l-102 -74h-91z" />
<glyph unicode="&#x176;" horiz-adv-x="592" d="M109 739h82l133 -414l292 414h81l-349 -492l-46 -247h-74l46 247zM235 789l168 126h66l120 -126h-89l-72 74l-102 -74h-91z" />
<glyph unicode="&#x177;" horiz-adv-x="536" d="M67 -192l127 210l-114 529h81l92 -436l266 436h79l-453 -739h-78zM174 607l168 126h66l120 -126h-89l-72 74l-102 -74h-91z" />
<glyph unicode="&#x178;" horiz-adv-x="592" d="M109 739h82l133 -414l292 414h81l-349 -492l-46 -247h-74l46 247zM299 789l23 126h74l-23 -126h-74zM446 789l23 126h74l-23 -126h-74z" />
<glyph unicode="&#x179;" horiz-adv-x="480" d="M-13 0l12 67l476 605h-352l12 67h435l-12 -67l-475 -605h373l-12 -67h-457zM293 832l214 116l24 -58l-214 -114z" />
<glyph unicode="&#x17a;" horiz-adv-x="425" d="M-20 0l12 67l379 413h-292l12 67h376l-11 -63l-377 -417h318l-12 -67h-405zM222 650l214 116l24 -58l-214 -114z" />
<glyph unicode="&#x17b;" horiz-adv-x="480" d="M-13 0l12 67l476 605h-352l12 67h435l-12 -67l-475 -605h373l-12 -67h-457zM325 789l23 126h74l-23 -126h-74z" />
<glyph unicode="&#x17c;" horiz-adv-x="425" d="M-20 0l12 67l379 413h-292l12 67h376l-11 -63l-377 -417h318l-12 -67h-405zM254 607l23 126h74l-23 -126h-74z" />
<glyph unicode="&#x17d;" horiz-adv-x="480" d="M-13 0l12 67l476 605h-352l12 67h435l-12 -67l-475 -605h373l-12 -67h-457zM208 915h89l72 -74l102 74h91l-168 -126h-66z" />
<glyph unicode="&#x17e;" horiz-adv-x="425" d="M-20 0l12 67l379 413h-292l12 67h376l-11 -63l-377 -417h318l-12 -67h-405zM137 733h89l72 -74l102 74h91l-168 -126h-66z" />
<glyph unicode="&#x17f;" horiz-adv-x="314" d="M71 0l89 480h-85l12 67h85q11 54 28 85.5t49 56.5q64 50 151 50h17l-12 -67h-15q-64 0 -98 -29.5t-46 -95.5l-101 -547h-74z" />
<glyph unicode="&#x18e;" horiz-adv-x="536" d="M46 0l13 67h330l50 273h-319l13 67h319l49 265h-330l12 67h404l-137 -739h-404z" />
<glyph unicode="&#x192;" horiz-adv-x="554" d="M-51 -146l25 64l20 -2q5 -1 24 -1q71 0 110 36.5t78 140.5l159 425h-113l25 67h111l9 23q82 211 235 211q10 0 23 -3l-23 -66q-11 2 -19 2h-2q-45 1 -76 -29.5t-67 -114.5l-10 -23h112l-24 -67h-112l-160 -431q-32 -86 -53.5 -122.5t-56.5 -64.5q-67 -52 -161 -52 q-21 0 -54 7z" />
<glyph unicode="&#x1a0;" horiz-adv-x="869" d="M76 302q0 115 66.5 219.5t176 167.5t229.5 63q70 0 134 -28t110 -78q37 36 44 93h62q-9 -82 -72 -138q44 -73 44 -165q0 -114 -66.5 -218.5t-176 -167.5t-229.5 -63q-77 0 -148 34t-114 92q-60 81 -60 189zM153 316q0 -110 74.5 -185.5t182.5 -75.5q149 0 266 112.5 t117 254.5q0 114 -74 188t-189 74q-143 0 -260 -114t-117 -254z" />
<glyph unicode="&#x1a1;" horiz-adv-x="698" d="M57 215q0 62 24.5 123.5t68.5 108.5q105 113 255 113q67 0 119.5 -28t82.5 -77q36 36 43 92h62q-9 -90 -82 -147q9 -38 9 -68q0 -136 -96 -237q-102 -108 -240 -108q-109 0 -177.5 63.5t-68.5 164.5zM134 228q0 -77 49.5 -125t129.5 -48q104 0 176.5 78.5t72.5 191.5 q0 73 -48 120t-122 47q-105 0 -181.5 -78.5t-76.5 -185.5z" />
<glyph unicode="&#x1af;" horiz-adv-x="729" d="M89 173q0 44 11 105l85 461h74l-85 -461q-9 -48 -9 -90q0 -59 40 -96t104 -37q93 0 155 70q43 49 63 153l85 461h74l-21 -115q64 41 73 115h62q-13 -126 -149 -187l-50 -274q-24 -130 -89 -200q-86 -91 -216 -91q-92 0 -149.5 52t-57.5 134z" />
<glyph unicode="&#x1b0;" horiz-adv-x="698" d="M69 155q0 47 9 97l55 295h74l-55 -295q-6 -39 -6 -67q0 -49 21 -82q14 -22 45 -35t68 -13q87 0 149 68q41 45 60 143l53 281h74l-22 -115q65 40 74 115h62q-13 -125 -149 -187l-67 -360h-74l16 85q-40 -53 -85.5 -75.5t-110.5 -22.5q-87 0 -139 45.5t-52 122.5z" />
<glyph unicode="&#x1dd;" horiz-adv-x="650" d="M58 215q0 32 9 83h495q2 24 2 28q0 70 -52 118t-127 48q-61 0 -121.5 -35t-92.5 -90h-77q48 88 130.5 140.5t173.5 52.5q102 0 169.5 -66.5t67.5 -166.5q0 -135 -102.5 -237.5t-237.5 -102.5q-104 0 -170.5 64t-66.5 164zM128 231q4 -81 52.5 -128.5t127.5 -47.5 q78 0 145 49.5t94 126.5h-419z" />
<glyph unicode="&#x1e6;" horiz-adv-x="872" d="M77 300q0 88 38.5 171t102 144.5t150 99t177.5 37.5q121 0 206 -57.5t106 -152.5h-84q-23 65 -85.5 103.5t-145.5 38.5q-157 0 -272.5 -111t-115.5 -261q0 -116 76.5 -186.5t194.5 -70.5q105 0 197.5 60t140.5 159h-414l12 67h503q-37 -147 -166 -250.5t-282 -103.5 q-149 0 -244 87.5t-95 225.5zM398 915h89l72 -74l102 74h91l-168 -126h-66z" />
<glyph unicode="&#x1e7;" horiz-adv-x="673" d="M30 -17h72q33 -77 70 -103.5t107 -26.5q97 0 158.5 56t81.5 165l7 37q-81 -124 -231 -124q-104 0 -171 65t-67 167q0 135 103 238t236 103q67 0 109.5 -22.5t83.5 -87.5l18 97h74l-84 -449q-17 -88 -35 -132t-55 -83q-92 -98 -242 -98q-99 0 -158.5 47t-76.5 151z M134 236q0 -78 45 -129.5t128 -51.5q100 0 177.5 80.5t77.5 189.5q0 72 -50.5 119.5t-126.5 47.5q-96 0 -173.5 -76t-77.5 -180zM251 733h89l72 -74l102 74h91l-168 -126h-66z" />
<glyph unicode="&#x1ea;" horiz-adv-x="869" d="M76 302q0 115 66.5 219.5t176 167.5t229.5 63q133 0 227.5 -89.5t94.5 -226.5q0 -138 -94.5 -257.5t-234.5 -167.5q-60 -20 -100 -52t-40 -75q0 -60 36 -60q29 0 50 4l-14 -74q-27 -4 -60 -4q-46 0 -67 31t-21 72q0 75 85 134h-12q-135 0 -228.5 90t-93.5 225zM153 316 q0 -110 74.5 -185.5t182.5 -75.5q149 0 266 112.5t117 254.5q0 114 -74 188t-189 74q-143 0 -260 -114t-117 -254z" />
<glyph unicode="&#x1eb;" horiz-adv-x="655" d="M57 215q0 141 105 243t243 102q104 0 169 -63t65 -165q0 -99 -55 -183.5t-141 -127.5q-30 -15 -50.5 -27t-43 -29.5t-34 -38t-11.5 -42.5q0 -60 36 -60q29 0 50 4l-13 -74q-28 -4 -61 -4q-46 0 -67 31t-21 72q0 74 85 134h-10q-109 0 -177.5 63.5t-68.5 164.5zM134 228 q0 -77 49.5 -125t129.5 -48q104 0 176.5 78.5t72.5 191.5q0 73 -48 120t-122 47q-105 0 -181.5 -78.5t-76.5 -185.5z" />
<glyph unicode="&#x1f4;" horiz-adv-x="872" d="M77 300q0 88 38.5 171t102 144.5t150 99t177.5 37.5q121 0 206 -57.5t106 -152.5h-84q-23 65 -85.5 103.5t-145.5 38.5q-157 0 -272.5 -111t-115.5 -261q0 -116 76.5 -186.5t194.5 -70.5q105 0 197.5 60t140.5 159h-414l12 67h503q-37 -147 -166 -250.5t-282 -103.5 q-149 0 -244 87.5t-95 225.5zM483 832l214 116l24 -58l-214 -114z" />
<glyph unicode="&#x1f5;" horiz-adv-x="673" d="M30 -17h72q33 -77 70 -103.5t107 -26.5q97 0 158.5 56t81.5 165l7 37q-81 -124 -231 -124q-104 0 -171 65t-67 167q0 135 103 238t236 103q67 0 109.5 -22.5t83.5 -87.5l18 97h74l-84 -449q-17 -88 -35 -132t-55 -83q-92 -98 -242 -98q-99 0 -158.5 47t-76.5 151z M134 236q0 -78 45 -129.5t128 -51.5q100 0 177.5 80.5t77.5 189.5q0 72 -50.5 119.5t-126.5 47.5q-96 0 -173.5 -76t-77.5 -180zM336 650l214 116l24 -58l-214 -114z" />
<glyph unicode="&#x1fa;" horiz-adv-x="740" d="M-19 0l454 739h83l181 -739h-81l-61 249h-344l-154 -249h-78zM254 316h287l-80 339zM396 843q0 50 35.5 86.5t84.5 36.5q39 0 62.5 -24t23.5 -63q0 -44 -38 -79.5t-84 -35.5q-36 0 -60 22.5t-24 56.5zM438 854q0 -20 14 -33t36 -13q26 0 49 21t23 45q0 20 -15 34t-36 14 q-27 0 -49 -21t-22 -47zM456 1042l214 116l24 -58l-214 -114z" />
<glyph unicode="&#x1fb;" d="M58 216q0 139 103 241.5t243 102.5q139 0 195 -110l18 97h74l-101 -547h-74l18 96q-61 -62 -111 -85.5t-120 -23.5q-110 0 -177.5 63t-67.5 166zM135 235q0 -80 50.5 -130t132.5 -50q100 0 176.5 80t76.5 184q0 75 -49.5 124t-124.5 49q-104 0 -183 -77.5t-79 -179.5z M321 651q0 50 35.5 86.5t84.5 36.5q39 0 62.5 -24t23.5 -63q0 -44 -38 -79.5t-84 -35.5q-36 0 -60 22.5t-24 56.5zM363 662q0 -20 14 -33t36 -13q26 0 49 21t23 45q0 20 -15 34t-36 14q-27 0 -49 -21t-22 -47zM381 850l214 116l24 -58l-214 -114z" />
<glyph unicode="&#x1fc;" horiz-adv-x="992" d="M-19 0l648 739h414l-12 -67h-319l-50 -265h308l-12 -67h-308l-51 -273h319l-12 -67h-393l46 250h-271l-219 -250h-88zM348 317h224l60 327zM627 832l214 116l24 -58l-214 -114z" />
<glyph unicode="&#x1fd;" horiz-adv-x="1157" d="M58 219q0 131 103 236t241 105q144 0 198 -108l18 95h71l-18 -95q105 108 235 108q104 0 170 -63.5t66 -163.5q0 -40 -10 -86h-495q-1 -10 -1 -22q0 -72 52.5 -121t129.5 -49q62 0 121 34t90 89h77q-36 -79 -124.5 -135t-177.5 -56q-128 0 -200 105l-17 -92h-71l17 92 q-102 -105 -233 -105q-109 0 -175.5 64t-66.5 168zM135 231q0 -77 50 -126.5t127 -49.5q104 0 183 79.5t79 184.5q0 77 -49.5 125t-128.5 48q-107 0 -184 -79t-77 -182zM596 650l214 116l24 -58l-214 -114zM653 314h420q-1 82 -49 130t-128 48q-81 0 -150 -50.5t-93 -127.5z " />
<glyph unicode="&#x1fe;" horiz-adv-x="868" d="M42 -42l117 124q-86 84 -86 212q0 119 65.5 225.5t172 169.5t223.5 63q116 0 199 -56l117 125l45 -43l-114 -122q86 -84 86 -214q0 -115 -66 -221t-174.5 -170t-225.5 -64q-51 0 -104 15t-89 40l-118 -125zM150 309q0 -56 12 -90t49 -81l471 503q-62 43 -158 43 q-147 0 -260.5 -117t-113.5 -258zM259 97q75 -42 151 -42q146 0 263 111.5t117 259.5q0 53 -11 86t-43 78l-7 10zM482 832l214 116l24 -58l-214 -114z" />
<glyph unicode="&#x1ff;" horiz-adv-x="653" d="M46 2l62 66q-28 41 -38.5 73t-10.5 73q0 93 51 174t129.5 126.5t160.5 45.5q83 0 141 -41l70 74l46 -42l-70 -73q52 -55 52 -138q0 -144 -100.5 -248.5t-239.5 -104.5q-82 0 -145 41l-63 -66zM136 225q0 -55 23 -104l332 347q-45 24 -96 24q-100 0 -179.5 -82t-79.5 -185 zM203 79q40 -16 54.5 -20t41.5 -4q112 0 187.5 80.5t75.5 200.5q0 45 -25 90zM341 650l214 116l24 -58l-214 -114z" />
<glyph unicode="&#x200;" horiz-adv-x="740" d="M-19 0l454 739h83l181 -739h-81l-61 249h-344l-154 -249h-78zM232 898l49 50l147 -122l-47 -50zM254 316h287l-80 339zM427 898l50 50l146 -122l-47 -50z" />
<glyph unicode="&#x201;" d="M58 216q0 139 103 241.5t243 102.5q139 0 195 -110l18 97h74l-101 -547h-74l18 96q-61 -62 -111 -85.5t-120 -23.5q-110 0 -177.5 63t-67.5 166zM135 235q0 -80 50.5 -130t132.5 -50q100 0 176.5 80t76.5 184q0 75 -49.5 124t-124.5 49q-104 0 -183 -77.5t-79 -179.5z M157 706l49 50l147 -122l-47 -50zM352 706l50 50l146 -122l-47 -50z" />
<glyph unicode="&#x204;" horiz-adv-x="536" d="M46 0l137 739h404l-12 -67h-330l-50 -265h319l-12 -67h-319l-51 -273h330l-12 -67h-404zM141 898l49 50l147 -122l-47 -50zM336 898l50 50l146 -122l-47 -50z" />
<glyph unicode="&#x205;" horiz-adv-x="650" d="M58 220q0 135 102.5 237.5t237.5 102.5q104 0 170.5 -64t66.5 -164q0 -32 -9 -83h-495q-2 -24 -2 -28q0 -70 52 -118t127 -48q61 0 121.5 35t92.5 90h77q-48 -88 -130.5 -140.5t-173.5 -52.5q-102 0 -169.5 66.5t-67.5 166.5zM146 316h419q-4 81 -52.5 128.5t-127.5 47.5 q-78 0 -145 -49.5t-94 -126.5zM151 706l49 50l147 -122l-47 -50zM346 706l50 50l146 -122l-47 -50z" />
<glyph unicode="&#x208;" horiz-adv-x="226" d="M-24 898l49 50l147 -122l-47 -50zM46 0l137 739h74l-137 -739h-74zM171 898l50 50l146 -122l-47 -50z" />
<glyph unicode="&#x209;" horiz-adv-x="200" d="M-73 706l49 50l147 -122l-47 -50zM33 0l101 547h74l-101 -547h-74zM122 706l50 50l146 -122l-47 -50z" />
<glyph unicode="&#x20c;" horiz-adv-x="869" d="M76 302q0 115 66.5 219.5t176 167.5t229.5 63q133 0 227.5 -89.5t94.5 -226.5q0 -114 -66.5 -218.5t-176 -167.5t-229.5 -63q-135 0 -228.5 90t-93.5 225zM153 316q0 -110 74.5 -185.5t182.5 -75.5q149 0 266 112.5t117 254.5q0 114 -74 188t-189 74q-143 0 -260 -114 t-117 -254zM301 898l49 50l147 -122l-47 -50zM496 898l50 50l146 -122l-47 -50z" />
<glyph unicode="&#x20d;" horiz-adv-x="655" d="M57 215q0 141 105 243t243 102q104 0 169 -63t65 -165q0 -140 -102 -242.5t-234 -102.5q-109 0 -177.5 63.5t-68.5 164.5zM134 228q0 -77 49.5 -125t129.5 -48q104 0 176.5 78.5t72.5 191.5q0 73 -48 120t-122 47q-105 0 -181.5 -78.5t-76.5 -185.5zM158 706l49 50 l147 -122l-47 -50zM353 706l50 50l146 -122l-47 -50z" />
<glyph unicode="&#x210;" horiz-adv-x="607" d="M46 0l137 739h183q150 0 213.5 -44.5t63.5 -141.5q0 -114 -73 -190.5t-190 -86.5l156 -276h-92l-187 335q141 0 200 24q48 20 78.5 71t30.5 111q0 71 -50 101t-167 30h-104l-125 -672h-74zM175 898l49 50l147 -122l-47 -50zM370 898l50 50l146 -122l-47 -50z" />
<glyph unicode="&#x211;" horiz-adv-x="301" d="M-36 706l49 50l147 -122l-47 -50zM33 0l101 547h74l-14 -78q30 45 69.5 66t102.5 25l-14 -73q-158 -17 -186 -168l-59 -319h-74zM159 706l50 50l146 -122l-47 -50z" />
<glyph unicode="&#x214;" horiz-adv-x="655" d="M89 173q0 44 11 105l85 461h74l-85 -461q-9 -48 -9 -90q0 -59 40 -96t104 -37q84 0 140.5 55t77.5 168l85 461h74l-85 -461q-27 -145 -107.5 -218t-197.5 -73q-92 0 -149.5 52t-57.5 134zM191 898l49 50l147 -122l-47 -50zM386 898l50 50l146 -122l-47 -50z" />
<glyph unicode="&#x215;" horiz-adv-x="608" d="M69 155q0 47 9 97l55 295h74l-55 -295q-6 -26 -6 -67q0 -62 34 -96t100 -34q77 0 132.5 50.5t76.5 160.5l53 281h74l-102 -547h-74l16 85q-40 -53 -85.5 -75.5t-110.5 -22.5q-87 0 -139 45.5t-52 122.5zM130 706l49 50l147 -122l-47 -50zM325 706l50 50l146 -122l-47 -50 z" />
<glyph unicode="&#x218;" horiz-adv-x="498" d="M26 165q0 10 2 42h79q0 -80 31.5 -116t95.5 -36q72 0 124.5 52.5t52.5 124.5q0 46 -30 72.5t-109 51.5q-97 30 -127 65.5t-30 98.5q0 89 72.5 160.5t173.5 71.5q78 0 125.5 -44.5t47.5 -117.5q0 -11 -3 -38h-77q0 132 -106 132q-65 0 -110.5 -47.5t-45.5 -105.5 q0 -15 6.5 -34t15.5 -28q11 -11 29 -19.5t72 -26.5q110 -37 141 -76q32 -41 32 -101q0 -102 -81 -180.5t-188 -78.5q-85 0 -139 49.5t-54 128.5zM112 -232l84 179h74l-87 -179h-71z" />
<glyph unicode="&#x219;" horiz-adv-x="388" d="M13 117q0 20 3 44h73q0 -62 20.5 -84t62.5 -22q46 0 79.5 33.5t33.5 78.5q0 31 -16 47.5t-72 40.5q-45 20 -62.5 30t-28.5 23q-26 29 -26 72q0 72 57.5 126t130.5 54q55 0 91 -33.5t36 -84.5q0 -19 -1 -30h-75q0 80 -65 80q-37 0 -67 -28.5t-30 -63.5q0 -38 38 -59 q18 -9 95 -44q72 -32 72 -108q0 -83 -61 -142.5t-142 -59.5q-66 0 -106 38t-40 92zM55 -232l84 179h74l-87 -179h-71z" />
<glyph unicode="&#x21a;" horiz-adv-x="426" d="M74 -232l84 179h74l-87 -179h-71zM102 672l12 67h412l-12 -67h-169l-125 -672h-74l125 672h-169z" />
<glyph unicode="&#x21b;" horiz-adv-x="339" d="M30 -232l84 179h74l-87 -179h-71zM71 480l12 67h112l36 192h74l-36 -192h129l-12 -67h-129l-89 -480h-74l89 480h-112z" />
<glyph unicode="&#x258;" horiz-adv-x="650" d="M58 249q10 52 22 83q38 101 127.5 164.5t193.5 63.5q135 0 199.5 -102.5t14.5 -237.5q-37 -100 -129 -166.5t-194 -66.5q-91 0 -154 52.5t-78 140.5h77q12 -55 59 -90t108 -35q75 0 145 48t96 118l8 28h-495zM144 316h419q2 77 -47 126.5t-127 49.5q-79 0 -145 -47.5 t-100 -128.5z" />
<glyph unicode="&#x259;" horiz-adv-x="650" d="M58 215q0 32 9 83h495q2 24 2 28q0 70 -52 118t-127 48q-61 0 -121.5 -35t-92.5 -90h-77q48 88 130.5 140.5t173.5 52.5q102 0 169.5 -66.5t67.5 -166.5q0 -135 -102.5 -237.5t-237.5 -102.5q-104 0 -170.5 64t-66.5 164zM128 231q4 -81 52.5 -128.5t127.5 -47.5 q78 0 145 49.5t94 126.5h-419z" />
<glyph unicode="&#x2be;" horiz-adv-x="520" d="M116 442q-1 4 2 7.5t7 3.5h56q2 0 6 -4q27 -70 107 -70q65 0 114.5 49t49.5 114q0 49 -32.5 80.5t-82.5 31.5q-39 0 -65.5 -13.5t-67.5 -54.5q-2 -2 -6 -2h-55q-5 0 -6.5 3.5t1.5 7.5q48 66 98 93.5t110 27.5q78 0 125.5 -45t48.5 -119q-1 -93 -74 -164t-169 -71 q-65 0 -110 33.5t-57 91.5z" />
<glyph unicode="&#x2bf;" horiz-adv-x="520" d="M125 481q1 92 74.5 163.5t169.5 71.5q65 0 109.5 -33.5t57.5 -91.5q1 -4 -2.5 -7.5t-7.5 -3.5h-56q-2 0 -6 4q-27 70 -107 70q-65 0 -114.5 -49t-49.5 -114q0 -49 32.5 -80.5t82.5 -31.5q39 0 65.5 13.5t67.5 54.5q2 2 6 2h55q5 0 6.5 -3.5t-1.5 -7.5 q-48 -66 -97.5 -93.5t-109.5 -27.5q-78 0 -126 45t-49 119z" />
<glyph unicode="&#x2c6;" horiz-adv-x="502" d="M156 607l168 126h66l120 -126h-89l-72 74l-102 -74h-91z" />
<glyph unicode="&#x2c7;" horiz-adv-x="502" d="M180 733h89l72 -74l102 74h91l-168 -126h-66z" />
<glyph unicode="&#x2d8;" horiz-adv-x="453" d="M174 729h64q4 -36 22.5 -49t58.5 -13q38 0 67 16.5t39 45.5h53q-35 -117 -172 -117q-62 0 -95.5 26.5t-36.5 90.5z" />
<glyph unicode="&#x2d9;" horiz-adv-x="222" d="M157 607l23 126h74l-23 -126h-74z" />
<glyph unicode="&#x2da;" horiz-adv-x="332" d="M159 658q0 50 35.5 86.5t84.5 36.5q38 0 61.5 -24t23.5 -63q0 -44 -38 -79.5t-84 -35.5q-36 0 -59.5 22.5t-23.5 56.5zM201 669q0 -20 13.5 -33t35.5 -13q26 0 49.5 21t23.5 45q0 20 -15 34t-37 14q-26 0 -48 -21t-22 -47z" />
<glyph unicode="&#x2db;" horiz-adv-x="302" d="M12 -147q0 81 104 147h74q-46 -23 -74 -56t-28 -60q0 -60 36 -60q29 0 50 4l-14 -74q-27 -4 -60 -4q-46 0 -67 31t-21 72z" />
<glyph unicode="&#x2dc;" horiz-adv-x="439" d="M167 669q49 51 89 51q14 0 55 -18.5t50 -18.5q36 0 71 38l21 -46q-40 -55 -92 -55q-27 0 -96 33q-7 4 -17 4q-9 0 -18 -5.5t-40 -27.5z" />
<glyph unicode="&#x2dd;" horiz-adv-x="552" d="M233 634l192 122l31 -50l-194 -122zM428 634l193 122l30 -50l-194 -122z" />
<glyph unicode="&#x300;" horiz-adv-x="0" d="M-392 708l46 58l171 -116l-45 -56z" />
<glyph unicode="&#x301;" horiz-adv-x="0" d="M-327 650l214 116l24 -58l-214 -114z" />
<glyph unicode="&#x302;" horiz-adv-x="0" d="M-436 607l168 126h66l120 -126h-89l-72 74l-102 -74h-91z" />
<glyph unicode="&#x303;" horiz-adv-x="0" d="M-394 669q49 51 89 51q14 0 55 -18.5t50 -18.5q36 0 71 38l21 -46q-40 -55 -92 -55q-27 0 -96 33q-7 4 -17 4q-9 0 -18 -5.5t-40 -27.5z" />
<glyph unicode="&#x304;" horiz-adv-x="0" d="M-422 639l12 62h337l-12 -62h-337z" />
<glyph unicode="&#x306;" horiz-adv-x="0" d="M-394 729h64q4 -36 22.5 -49t58.5 -13q38 0 67 16.5t39 45.5h53q-35 -117 -172 -117q-62 0 -95.5 26.5t-36.5 90.5z" />
<glyph unicode="&#x307;" horiz-adv-x="0" d="M-295 607l23 126h74l-23 -126h-74z" />
<glyph unicode="&#x308;" horiz-adv-x="0" d="M-371 607l23 126h74l-23 -126h-74zM-224 607l23 126h74l-23 -126h-74z" />
<glyph unicode="&#x309;" horiz-adv-x="0" d="M-348 686q17 57 48.5 81t78.5 24q40 0 63 -18.5t23 -50.5q0 -28 -19 -50q-10 -10 -35 -27h-1q-41 -26 -46 -56h-54q5 53 61 90q38 25 38 40q0 22 -35 22q-48 0 -67 -55h-55z" />
<glyph unicode="&#x30a;" horiz-adv-x="0" d="M-348 658q0 50 35.5 86.5t84.5 36.5q38 0 61.5 -24t23.5 -63q0 -44 -38 -79.5t-84 -35.5q-36 0 -59.5 22.5t-23.5 56.5zM-306 669q0 -20 13.5 -33t35.5 -13q26 0 49.5 21t23.5 45q0 20 -15 34t-37 14q-26 0 -48 -21t-22 -47z" />
<glyph unicode="&#x30b;" horiz-adv-x="0" d="M-384 634l192 122l31 -50l-194 -122zM-189 634l193 122l30 -50l-194 -122z" />
<glyph unicode="&#x30c;" horiz-adv-x="0" d="M-412 733h89l72 -74l102 74h91l-168 -126h-66z" />
<glyph unicode="&#x30f;" horiz-adv-x="0" d="M-514 706l49 50l147 -122l-47 -50zM-319 706l50 50l146 -122l-47 -50z" />
<glyph unicode="&#x311;" horiz-adv-x="0" d="M-415 612q35 117 172 117q62 0 95.5 -26.5t36.5 -90.5h-64q-4 36 -22.5 49t-58.5 13q-38 0 -67 -16.5t-39 -45.5h-53z" />
<glyph unicode="&#x323;" horiz-adv-x="0" d="M-442 -186l23 126h74l-23 -126h-74z" />
<glyph unicode="&#x326;" horiz-adv-x="0" d="M-481 -232l84 179h74l-87 -179h-71z" />
<glyph unicode="&#x32e;" horiz-adv-x="0" d="M-535 -64h64q4 -36 22.5 -49t58.5 -13q38 0 67 16.5t39 45.5h53q-35 -117 -172 -117q-62 0 -95.5 26.5t-36.5 90.5z" />
<glyph unicode="&#x32f;" horiz-adv-x="0" d="M-557 -181q35 117 172 117q62 0 95.5 -26.5t36.5 -90.5h-64q-4 36 -22.5 49t-58.5 13q-38 0 -67 -16.5t-39 -45.5h-53z" />
<glyph unicode="&#x330;" horiz-adv-x="0" d="M-540 -124q49 51 89 51q14 0 55 -18.5t50 -18.5q36 0 71 38l21 -46q-40 -55 -92 -55q-27 0 -96 33q-7 4 -17 4q-9 0 -18 -5.5t-40 -27.5z" />
<glyph unicode="&#x331;" horiz-adv-x="0" d="M-569 -154l12 62h337l-12 -62h-337z" />
<glyph unicode="&#x332;" horiz-adv-x="0" d="M-569 -154l12 62h337l-12 -62h-337z" />
<glyph unicode="&#x391;" horiz-adv-x="740" d="M-19 0l454 739h83l181 -739h-81l-61 249h-344l-154 -249h-78zM254 316h287l-80 339z" />
<glyph unicode="&#x392;" horiz-adv-x="574" d="M46 0l137 739h173q113 0 167 -35t54 -109q0 -67 -29.5 -121.5t-90.5 -79.5q56 -27 78.5 -57t22.5 -77q0 -57 -23 -109.5t-62 -86.5q-40 -35 -95.5 -49.5t-148.5 -14.5h-183zM132 67h101q138 0 193 46t55 129q0 65 -50 92q-37 20 -157 20h-91zM198 421h90q68 0 105 9 t62 32q45 42 45 116q0 53 -35.5 73.5t-129.5 20.5h-90z" />
<glyph unicode="&#x393;" horiz-adv-x="485" d="M46 0l137 739h375l-12 -67h-301l-125 -672h-74z" />
<glyph unicode="&#x394;" horiz-adv-x="645" d="M-31 0l406 680h74l168 -680h-648zM102 75h408l-117 497z" />
<glyph unicode="&#x395;" horiz-adv-x="536" d="M46 0l137 739h404l-12 -67h-330l-50 -265h319l-12 -67h-319l-51 -273h330l-12 -67h-404z" />
<glyph unicode="&#x396;" horiz-adv-x="480" d="M-13 0l12 67l476 605h-352l12 67h435l-12 -67l-475 -605h373l-12 -67h-457z" />
<glyph unicode="&#x397;" d="M46 0l137 739h74l-60 -325h383l60 325h74l-137 -739h-74l64 347h-383l-64 -347h-74z" />
<glyph unicode="&#x398;" horiz-adv-x="869" d="M76 302q0 115 66.5 219.5t176 167.5t229.5 63q133 0 227.5 -89.5t94.5 -226.5q0 -114 -66.5 -218.5t-176 -167.5t-229.5 -63q-135 0 -228.5 90t-93.5 225zM153 316q0 -110 74.5 -185.5t182.5 -75.5q149 0 266 112.5t117 254.5q0 114 -74 188t-189 74q-143 0 -260 -114 t-117 -254zM319 333l14 74h294l-13 -74h-295z" />
<glyph unicode="&#x399;" horiz-adv-x="226" d="M46 0l137 739h74l-137 -739h-74z" />
<glyph unicode="&#x39a;" horiz-adv-x="591" d="M46 0l137 739h74l-79 -425l421 425h93l-359 -360l222 -379h-93l-187 320l-118 -118l-37 -202h-74z" />
<glyph unicode="&#x39b;" horiz-adv-x="740" d="M-19 0l454 739h83l181 -739h-81l-157 655l-402 -655h-78z" />
<glyph unicode="&#x39c;" horiz-adv-x="919" d="M46 0l137 739h115l152 -629l385 629h115l-137 -739h-74l122 658l-400 -658h-64l-155 658l-122 -658h-74z" />
<glyph unicode="&#x39d;" horiz-adv-x="740" d="M46 0l137 739h100l300 -613l114 613h74l-137 -739h-74l-320 650l-120 -650h-74z" />
<glyph unicode="&#x39e;" d="M2 0l14 74h619l-14 -74h-619zM125 665l14 74h619l-14 -74h-619zM139 333l13 74h469l-13 -74h-469z" />
<glyph unicode="&#x39f;" horiz-adv-x="869" d="M76 302q0 115 66.5 219.5t176 167.5t229.5 63q133 0 227.5 -89.5t94.5 -226.5q0 -114 -66.5 -218.5t-176 -167.5t-229.5 -63q-135 0 -228.5 90t-93.5 225zM153 316q0 -110 74.5 -185.5t182.5 -75.5q149 0 266 112.5t117 254.5q0 114 -74 188t-189 74q-143 0 -260 -114 t-117 -254z" />
<glyph unicode="&#x3a0;" horiz-adv-x="636" d="M32 0l120 680h547l-120 -680h-83l107 606h-381l-107 -606h-83z" />
<glyph unicode="&#x3a1;" horiz-adv-x="592" d="M46 0l137 739h205q131 0 189 -39.5t58 -127.5q0 -57 -20.5 -110.5t-57.5 -90.5q-39 -39 -94 -55.5t-146 -16.5h-142l-55 -299h-74zM188 366h137q72 0 113.5 12t68.5 41q23 25 37 63t14 76q0 64 -47 92q-36 22 -161 22h-105z" />
<glyph unicode="&#x3a3;" horiz-adv-x="453" d="M-21 0l11 68l219 278l-115 265l12 69h414l-13 -74h-319l115 -260l-215 -272h338l-13 -74h-434z" />
<glyph unicode="&#x3a4;" horiz-adv-x="426" d="M102 672l12 67h412l-12 -67h-169l-125 -672h-74l125 672h-169z" />
<glyph unicode="&#x3a5;" horiz-adv-x="592" d="M109 739h82l133 -414l292 414h81l-349 -492l-46 -247h-74l46 247z" />
<glyph unicode="&#x3a6;" horiz-adv-x="809" d="M101 370q12 66 66 115.5t125.5 74.5t154.5 30l27 149h74l-27 -149q126 -8 203.5 -65t59.5 -155q-18 -99 -116.5 -156t-228.5 -65l-28 -149h-74l28 149q-81 5 -143.5 30t-97.5 74.5t-23 116.5zM175 370q-9 -48 19.5 -81.5t75 -48t109.5 -17.5l54 293q-100 -5 -172.5 -40.5 t-85.5 -105.5zM453 223q101 5 172.5 40.5t84.5 106.5q13 70 -45.5 105.5t-157.5 40.5z" />
<glyph unicode="&#x3a7;" horiz-adv-x="609" d="M-22 0l321 378l-170 361h87l141 -296l250 296h86l-304 -361l182 -378h-88l-149 316l-269 -316h-87z" />
<glyph unicode="&#x3a8;" horiz-adv-x="795" d="M134 547l36 192h74l-36 -192q-16 -91 36 -156.5t144 -77.5l79 426h74l-79 -426q97 12 174 77.5t93 156.5l36 192h74l-36 -192q-22 -121 -124.5 -208.5t-229.5 -100.5l-45 -238h-74l45 238q-123 13 -193 100.5t-48 208.5z" />
<glyph unicode="&#x3a9;" horiz-adv-x="797" d="M54 -2l14 76h82q-42 31 -66 87t-24 122q0 30 4 53q15 94 79.5 176t157.5 130t190 48q129 0 219.5 -84.5t90.5 -206.5q0 -29 -6 -59q-16 -82 -64.5 -156t-111.5 -110h79l-14 -76h-232l14 78q91 25 160.5 97.5t87.5 166.5q5 25 5 44q0 95 -70 161.5t-171 66.5 q-115 0 -215 -82t-118 -194q-3 -20 -3 -40q0 -79 45 -138.5t116 -81.5l-14 -78h-235z" />
<glyph unicode="&#x3b1;" horiz-adv-x="712" d="M81 262q23 122 115.5 210t205.5 88q63 0 105 -37.5t59 -101.5q35 75 70 126h84q-72 -101 -147 -289q-7 -44 -9 -71t0 -60t17.5 -49.5t43.5 -16.5l-13 -74q-99 0 -116 127q-92 -127 -200 -127q-111 0 -173 81t-42 194zM155 262q-15 -83 29.5 -142t124.5 -59q63 0 108 56.5 t82 147.5q8 58 0.5 106.5t-36 81.5t-75.5 33q-82 0 -149 -66.5t-84 -157.5z" />
<glyph unicode="&#x3b2;" horiz-adv-x="484" d="M-34 -216q49 117 67 216l101 547q16 85 81 146.5t144 61.5q70 0 103.5 -59t18.5 -140q-10 -50 -45.5 -93t-85.5 -68q47 -30 68.5 -79.5t11.5 -107.5q-17 -91 -77.5 -157.5t-136.5 -66.5q-60 0 -106 31l-3 -15q-19 -107 -65 -216h-76zM126 100q36 -42 104 -42 q47 0 81 44.5t45 105.5q12 65 -31.5 109t-113.5 44l12 68q65 0 119.5 35.5t64.5 91.5q10 51 -6 88t-56 37q-48 0 -87.5 -40t-49.5 -94z" />
<glyph unicode="&#x3b3;" horiz-adv-x="477" d="M55 547h106q131 -155 129 -395l240 395h81l-337 -555l-31 -163h-74l32 171q28 152 -11.5 293.5t-134.5 253.5z" />
<glyph unicode="&#x3b4;" horiz-adv-x="697" d="M78 215q0 131 92.5 230t220.5 113l-161 124l30 61h393l-13 -67h-283q92 -74 211 -157q92 -63 92 -187q0 -140 -102 -242.5t-234 -102.5q-109 0 -177.5 63.5t-68.5 164.5zM155 228q0 -77 49.5 -125t129.5 -48q104 0 176.5 78.5t72.5 191.5q0 73 -48 120t-122 47 q-105 0 -181.5 -78.5t-76.5 -185.5z" />
<glyph unicode="&#x3b5;" horiz-adv-x="571" d="M66 179q16 84 116 121q-73 37 -59 117q14 73 87 117.5t161 44.5q116 0 231 -56l-39 -61q-87 43 -206 43q-59 0 -105.5 -22.5t-54.5 -65.5q-3 -16 0.5 -29t14.5 -22.5t22.5 -16t33.5 -10.5t37.5 -6.5t43.5 -3.5t43.5 -1h45.5l-12 -66h-47.5t-46 -1t-47 -3.5t-41.5 -6 t-39 -10t-30 -14.5t-23.5 -20.5t-11.5 -27.5q-12 -61 36 -98.5t122 -37.5q115 0 207 41l18 -60q-126 -55 -239 -55q-104 0 -169.5 59t-48.5 151z" />
<glyph unicode="&#x3b6;" horiz-adv-x="424" d="M84 274q21 113 84.5 216t158.5 182h-169l12 67h298l-12 -67h-27q-107 -69 -178 -174.5t-93 -223.5q-8 -43 -11 -72.5t-1.5 -61.5t17 -49t44.5 -17h25q48 0 70.5 -42t12.5 -99l-19 -104h-67l19 104q5 27 -2.5 47t-27.5 20h-25q-55 0 -85.5 41t-32.5 102t9 131z" />
<glyph unicode="&#x3b7;" horiz-adv-x="542" d="M33 0l101 547h74l-11 -61q76 74 165 74q79 0 124 -57t31 -138l-100 -536h-74l100 536q9 50 -18.5 85.5t-76.5 35.5q-60 0 -108.5 -47t-72.5 -118l-60 -321h-74z" />
<glyph unicode="&#x3b8;" horiz-adv-x="544" d="M99 358q15 77 37 142.5t55.5 124.5t82 93t107.5 34t95.5 -34t48 -92.5t9.5 -124.5t-17 -143q-18 -98 -51 -177.5t-92.5 -136.5t-133.5 -57q-56 0 -92.5 32t-49.5 86.5t-12.5 117.5t13.5 135zM167 321q-9 -67 -11.5 -125t22 -96.5t75.5 -38.5q39 0 70.5 21.5t52.5 61 t35 81t25 96.5h-269zM180 395h270q8 48 12 83.5t3 75.5t-10 65.5t-31 42t-56 16.5q-43 0 -75 -23t-53.5 -67.5t-34.5 -87.5t-25 -105z" />
<glyph unicode="&#x3b9;" horiz-adv-x="325" d="M137 219l60 328h74l-60 -328q-5 -25 -7 -38.5t-4.5 -36t-1 -35t5.5 -26.5t13.5 -20t24.5 -6l-13 -74q-47 0 -73 35.5t-27 88t8 112.5z" />
<glyph unicode="&#x3ba;" horiz-adv-x="502" d="M33 0l101 547h74l-61 -332l316 332h91l-264 -275l177 -272h-92l-141 219l-106 -106l-21 -113h-74z" />
<glyph unicode="&#x3bb;" horiz-adv-x="609" d="M33 0l338 495l-6 41q-8 59 -34 97.5t-74 38.5l14 74q71 0 114.5 -53.5t54.5 -134.5l76 -558h-78l-54 394l-269 -394h-82z" />
<glyph unicode="&#x3bc;" horiz-adv-x="608" d="M1 -171l133 718h74l-51 -278q-2 -90 29 -145.5t101 -55.5q69 0 121 55.5t83 145.5l51 278h74l-101 -547h-74l17 92q-83 -99 -185 -98q-104 -1 -149 98l-49 -263h-74z" />
<glyph unicode="&#x3bd;" horiz-adv-x="493" d="M101 547h77l44 -463q140 114 172 281q15 84 20 182h75q-5 -91 -21 -182q-21 -112 -90 -211.5t-172 -165.5l-54 21z" />
<glyph unicode="&#x3be;" horiz-adv-x="395" d="M74 224q11 57 49.5 106t92.5 79q-39 24 -57.5 63t-9.5 86q12 65 61 114h-52l12 67h269l-12 -67h-114q-33 -10 -57.5 -42t-32.5 -72q-9 -51 28 -82.5t96 -31.5l-12 -67q-65 0 -120 -44.5t-67 -108.5q-27 -150 43 -150h21q46 0 65 -42t9 -99l-19 -104h-67l19 104 q13 67 -20 67h-22q-69 0 -94 66t-9 158z" />
<glyph unicode="&#x3bf;" horiz-adv-x="655" d="M57 215q0 141 105 243t243 102q104 0 169 -63t65 -165q0 -140 -102 -242.5t-234 -102.5q-109 0 -177.5 63.5t-68.5 164.5zM134 228q0 -77 49.5 -125t129.5 -48q104 0 176.5 78.5t72.5 191.5q0 73 -48 120t-122 47q-105 0 -181.5 -78.5t-76.5 -185.5z" />
<glyph unicode="&#x3c0;" horiz-adv-x="736" d="M101 365q14 75 72 128.5t128 53.5h443l-13 -74h-134l-88 -473h-74l88 473h-148l-88 -473h-74l88 473h-13q-40 0 -72.5 -32t-40.5 -76h-74z" />
<glyph unicode="&#x3c1;" horiz-adv-x="606" d="M1 -171l83 445q22 116 105.5 201t187.5 85t156.5 -85t30.5 -201t-106 -201.5t-187 -85.5q-92 0 -154 65l-42 -223h-74zM134 144q19 -40 59 -61.5t91 -21.5q74 0 132 63.5t74 149.5q16 85 -19 148.5t-108 63.5t-131 -63.5t-74 -148.5z" />
<glyph unicode="&#x3c2;" horiz-adv-x="541" d="M85 280q21 114 99.5 197t176.5 83q70 0 114.5 -46t42.5 -116l-68 -11q1 43 -28 71t-74 28q-69 0 -121.5 -61.5t-67.5 -144.5q-16 -83 14 -144.5t98 -61.5h38q61 0 97.5 -41t25.5 -100l-19 -104h-67l19 104q6 29 -15.5 48t-54.5 19h-37q-99 0 -146.5 83t-26.5 197z" />
<glyph unicode="&#x3c3;" horiz-adv-x="729" d="M78 215q0 141 105 243t243 102q30 0 57 -6q118 8 279 42l2 -72q-85 -18 -172 -24q68 -63 68 -168q0 -140 -102 -242.5t-234 -102.5q-109 0 -177.5 63.5t-68.5 164.5zM155 228q0 -77 49.5 -125t129.5 -48q104 0 176.5 78.5t72.5 191.5q0 73 -48 120t-122 47 q-105 0 -181.5 -78.5t-76.5 -185.5z" />
<glyph unicode="&#x3c4;" horiz-adv-x="479" d="M121 473l13 74h353l-13 -74h-140l-47 -254q-11 -62 20.5 -107t90.5 -45l-13 -74q-90 0 -139.5 66.5t-32.5 159.5l47 254h-139z" />
<glyph unicode="&#x3c5;" horiz-adv-x="541" d="M67 182l67 365h74l-67 -365q-10 -50 19 -85.5t79 -35.5q65 0 116 56.5t65 132.5q27 144 29 297h75q-2 -147 -30 -297q-19 -106 -96.5 -184.5t-172.5 -78.5q-80 0 -126.5 57.5t-31.5 137.5z" />
<glyph unicode="&#x3c6;" horiz-adv-x="704" d="M83 274q15 82 66 156t127 123l33 -60q-60 -38 -100 -96t-52 -123q-15 -79 25.5 -138t114.5 -72l34 186q11 61 28.5 112.5t43.5 98t64.5 73t84.5 26.5q57 0 88 -43.5t32 -107t-10 -135.5q-20 -109 -107.5 -190t-197.5 -95l-30 -160h-74l30 160q-105 14 -162.5 94.5 t-37.5 190.5zM371 64q79 13 140.5 72t76.5 138q4 23 6.5 38t5.5 36.5t3 36t-1 32t-5.5 28.5t-12 21.5t-19 15t-27.5 4.5q-21 0 -38.5 -8.5t-31 -29.5t-22.5 -38t-17.5 -51.5t-12 -52t-11.5 -56.5z" />
<glyph unicode="&#x3c7;" horiz-adv-x="561" d="M1 -171l243 359l-110 359h83l84 -275l186 275h83l-243 -359l110 -359h-83l-84 275l-186 -275h-83z" />
<glyph unicode="&#x3c8;" horiz-adv-x="704" d="M68 182l67 365h74l-67 -365q-10 -56 34.5 -85t120.5 -35l125 677h74l-125 -677q78 6 134 35t66 85l67 365h74l-67 -365q-16 -84 -98 -134.5t-190 -59.5l-29 -159h-74l29 159q-104 9 -167.5 59.5t-47.5 134.5z" />
<glyph unicode="&#x3c9;" horiz-adv-x="719" d="M86 286q21 112 76 261h68q-44 -117 -70 -261q-6 -32 -9.5 -53.5t-6 -51t0 -48t9 -36.5t21 -27t36.5 -9q54 0 83.5 50t47.5 136q4 41 18 118h74q-31 -172 -24 -233q9 -71 61 -71q22 0 39.5 8.5t31 27t22.5 36.5t17.5 48.5t12.5 50.5t11 54q27 147 27 261h68 q0 -147 -21 -261q-11 -58 -29 -109t-45 -95t-65 -69.5t-83 -25.5q-91 0 -113 95q-61 -95 -147 -95q-45 0 -73.5 25.5t-39 69.5t-10 95t11.5 109z" />
<glyph unicode="&#x3d1;" horiz-adv-x="578" d="M74 219l27 146h74l-27 -146q-12 -64 17 -111t87 -47q57 0 104 47t59 111l34 187q-55 2 -97.5 7.5t-84 18t-67 32t-37.5 51t-4 73.5q14 77 80 130.5t145 53.5q87 0 134.5 -66.5t30.5 -158.5l-14 -76h37l-12 -67h-37l-34 -185q-18 -95 -90.5 -163.5t-160.5 -68.5t-135 68.5 t-29 163.5zM225 588q-6 -33 10 -56t52.5 -35t77.5 -17.5t96 -7.5l14 75q12 64 -17 111.5t-87 47.5q-51 0 -93.5 -34.5t-52.5 -83.5z" />
<glyph unicode="&#x3d5;" horiz-adv-x="655" d="M57 215q0 129 90 227.5t216 114.5l34 182h75l-34 -181q91 -11 146 -72t55 -154q0 -131 -91.5 -231t-214.5 -112l-30 -160h-75l30 161q-91 13 -146 74t-55 151zM134 228q0 -66 37 -111.5t100 -57.5l80 429q-92 -16 -154.5 -90t-62.5 -170zM346 57q93 13 154.5 88.5 t61.5 179.5q0 64 -37.5 108.5t-98.5 55.5z" />
<glyph unicode="&#x3d6;" horiz-adv-x="719" d="M86 286q21 112 76 261h68q-44 -117 -70 -261q-6 -32 -9.5 -53.5t-6 -51t0 -48t9 -36.5t21 -27t36.5 -9q54 0 83.5 50t47.5 136q4 41 18 118h74q-31 -172 -24 -233q9 -71 61 -71q22 0 39.5 8.5t31 27t22.5 36.5t17.5 48.5t12.5 50.5t11 54q13 70 14.5 130.5t-9 114.5 t-44 85t-87.5 31q-112 0 -223 -36l-10 64q125 38 245 38q67 0 113.5 -37t65 -97.5t22.5 -137t-13 -155.5q-11 -58 -29 -109t-45 -95t-65 -69.5t-83 -25.5q-91 0 -113 95q-61 -95 -147 -95q-45 0 -73.5 25.5t-39 69.5t-10 95t11.5 109z" />
<glyph unicode="&#x3f5;" horiz-adv-x="647" d="M58 222q0 133 106 235.5t244 102.5q85 0 146.5 -39.5t86.5 -110.5h-89q-50 82 -156 82q-83 0 -153 -53t-96 -132h311l-12 -67h-311v-7q0 -78 51.5 -128t131.5 -50q55 0 93.5 17t89.5 65h89q-65 -82 -132.5 -116t-148.5 -34q-112 0 -181.5 65t-69.5 170z" />
<glyph unicode="&#x400;" horiz-adv-x="536" d="M46 0l137 739h404l-12 -67h-330l-50 -265h319l-12 -67h-319l-51 -273h330l-12 -67h-404zM309 955l40 52l181 -117l-39 -51z" />
<glyph unicode="&#x401;" horiz-adv-x="536" d="M46 0l137 739h404l-12 -67h-330l-50 -265h319l-12 -67h-319l-51 -273h330l-12 -67h-404zM284 805l23 126h74l-23 -126h-74zM431 805l23 126h74l-23 -126h-74z" />
<glyph unicode="&#x402;" horiz-adv-x="426" d="M102 672l12 67h412l-12 -67h-169l-37 -196q76 84 185 84q94 0 146.5 -48.5t52.5 -135.5q0 -26 -10 -82l-54 -294q-17 -90 -63 -137t-136 -47h-25l11 58q58 0 93.5 34.5t45.5 91.5l54 294q7 42 7 72q0 55 -39 90.5t-100 35.5q-40 0 -80.5 -18.5t-66.5 -49.5 q-22 -25 -33 -50.5t-20 -73.5l-56 -300h-74l125 672h-169z" />
<glyph unicode="&#x403;" horiz-adv-x="485" d="M46 0l137 739h375l-12 -67h-301l-125 -672h-74zM332 836l214 116l24 -58l-214 -114z" />
<glyph unicode="&#x404;" horiz-adv-x="813" d="M75 290q0 123 63 229.5t170 169.5t230 63q114 0 197.5 -57t102.5 -148h-82q-26 58 -64 88q-66 49 -164 49q-87 0 -163.5 -39t-132.5 -111q-44 -57 -63 -120h410l-13 -67h-411q-3 -18 -3 -37q0 -111 74 -183t187 -72q154 0 281 139h82q-67 -98 -165 -152.5t-210 -54.5 q-145 0 -235.5 84.5t-90.5 218.5z" />
<glyph unicode="&#x405;" horiz-adv-x="498" d="M26 165q0 10 2 42h79q0 -65 18 -97q31 -55 109 -55q72 0 124.5 52.5t52.5 124.5q0 46 -30 72.5t-109 51.5q-97 30 -126 66q-31 38 -31 98q0 79 62 151q70 81 184 81q78 0 125.5 -44.5t47.5 -117.5q0 -11 -3 -38h-77q0 62 -18 88q-30 44 -88 44q-76 0 -120 -57 q-36 -48 -36 -96q0 -15 6.5 -34t15.5 -28q11 -11 29 -19.5t72 -26.5q64 -22 94.5 -38.5t46.5 -37.5q32 -40 32 -101q0 -91 -68 -168q-82 -91 -201 -91q-85 0 -139 49.5t-54 128.5z" />
<glyph unicode="&#x406;" horiz-adv-x="226" d="M46 0l137 739h74l-137 -739h-74z" />
<glyph unicode="&#x407;" horiz-adv-x="226" d="M46 0l137 739h74l-137 -739h-74zM122 805l23 126h74l-23 -126h-74zM269 805l23 126h74l-23 -126h-74z" />
<glyph unicode="&#x408;" horiz-adv-x="482" d="M11 146q0 18 2 29h73q3 -34 6 -46q15 -75 96 -75q82 0 124 78q19 34 32 99l95 508h74l-95 -508q-22 -121 -83.5 -183t-157.5 -62q-86 0 -133 53q-33 39 -33 107z" />
<glyph unicode="&#x409;" horiz-adv-x="1139" d="M50 0l443 739h72l73 -318h219q132 0 199 -35.5t67 -125.5q0 -57 -23 -109.5t-62 -86.5q-40 -35 -95.5 -49.5t-148.5 -14.5h-143l-140 647l-381 -647h-80zM652 354l64 -287h82q145 0 197 49q51 49 51 126q0 65 -50 92q-37 20 -157 20h-187z" />
<glyph unicode="&#x40a;" horiz-adv-x="1031" d="M46 0l137 739h74l-59 -320h383l59 320h74l-59 -318h94q135 0 200.5 -35.5t65.5 -125.5q0 -57 -23 -109.5t-62 -86.5q-40 -35 -95.5 -49.5t-148.5 -14.5h-183l65 352h-383l-65 -352h-74zM589 67h101q145 0 197 49q51 49 51 126q0 65 -50 92q-37 20 -157 20h-88z" />
<glyph unicode="&#x40b;" horiz-adv-x="426" d="M102 672l12 67h412l-12 -67h-169l-37 -196q76 84 185 84q94 0 146.5 -48.5t52.5 -135.5q0 -26 -10 -82l-54 -294h-74l54 294q7 33 7 72q0 55 -39 90.5t-100 35.5q-40 0 -80.5 -18.5t-66.5 -49.5q-22 -25 -33 -50.5t-20 -73.5l-56 -300h-74l125 672h-169z" />
<glyph unicode="&#x40c;" horiz-adv-x="552" d="M46 0l137 739h74l-137 -739h-74zM205 379l355 360h93l-350 -360l222 -379h-102zM332 836l214 116l24 -58l-214 -114z" />
<glyph unicode="&#x40d;" horiz-adv-x="740" d="M46 0l137 739h77l-116 -613l527 613h100l-137 -739h-74l120 650l-560 -650h-74zM401 955l40 52l181 -117l-39 -51z" />
<glyph unicode="&#x40e;" horiz-adv-x="592" d="M92 0l175 252l-158 487h82l133 -414l292 414h81l-524 -739h-81zM291 864h64q4 -34 19 -46q18 -16 62 -16t74 21q23 14 32 41h53q-17 -59 -64 -89q-44 -28 -108 -28q-68 0 -103 34q-26 26 -29 83z" />
<glyph unicode="&#x40f;" d="M46 0l137 739h74l-124 -672h383l124 672h74l-137 -739h-219l-28 -154h-73l29 154h-240z" />
<glyph unicode="&#x410;" horiz-adv-x="740" d="M-19 0l454 739h83l181 -739h-81l-61 249h-344l-154 -249h-78zM254 316h287l-80 339z" />
<glyph unicode="&#x411;" horiz-adv-x="574" d="M46 0l144 739h464l-13 -67h-390l-39 -198h109q142 0 210.5 -42t68.5 -134q0 -141 -97.5 -219.5t-273.5 -78.5h-183zM133 67h104q135 0 210.5 53t75.5 160q0 70 -55 98.5t-165 28.5h-104z" />
<glyph unicode="&#x412;" horiz-adv-x="574" d="M46 0l144 739h203q126 0 178 -43q42 -36 42 -106q0 -67 -33.5 -121t-85.5 -75q96 -34 96 -133q0 -123 -88.5 -192t-245.5 -69h-210zM133 67h131q115 0 182.5 43t67.5 136q0 61 -50 84.5t-157 23.5h-118zM202 419h120q215 0 215 162q0 54 -43.5 72.5t-134.5 18.5h-108z " />
<glyph unicode="&#x413;" horiz-adv-x="485" d="M46 0l137 739h415l-12 -67h-341l-125 -672h-74z" />
<glyph unicode="&#x414;" horiz-adv-x="896" d="M2 -154l42 227h131l399 666h72l150 -666h131l-42 -227h-73l29 154h-738l-29 -154h-72zM254 73h462l-124 574z" />
<glyph unicode="&#x415;" horiz-adv-x="536" d="M46 0l137 739h404l-12 -67h-330l-50 -265h319l-12 -67h-319l-51 -273h330l-12 -67h-404z" />
<glyph unicode="&#x416;" horiz-adv-x="927" d="M30 0l360 360l-222 379h93l218 -379l-360 -360h-89zM425 0l137 739h74l-137 -739h-74zM580 379l360 360h88l-359 -360l222 -379h-93z" />
<glyph unicode="&#x417;" horiz-adv-x="578" d="M-20 194h79q14 -44 69.5 -91.5t140.5 -47.5q104 0 174.5 47t70.5 135q0 54 -37 87t-94 33h-124l13 67h126q65 0 113.5 43t48.5 104q0 53 -48.5 83t-114.5 30q-48 0 -90 -14t-68.5 -34t-46 -39.5t-27.5 -33.5l-8 -14h-75l11 22t35.5 49t63 61.5t94.5 48.5t128 22 q91 0 157.5 -46.5t66.5 -122.5q0 -63 -39 -116t-93 -80q35 -11 60 -49t25 -90q0 -119 -98 -190t-243 -71q-60 0 -109 18.5t-77 44.5t-48 57t-27.5 52.5t-8.5 34.5z" />
<glyph unicode="&#x418;" horiz-adv-x="740" d="M46 0l137 739h77l-116 -613l527 613h100l-137 -739h-74l120 650l-560 -650h-74z" />
<glyph unicode="&#x419;" horiz-adv-x="740" d="M46 0l137 739h77l-116 -613l527 613h100l-137 -739h-74l120 650l-560 -650h-74zM333 860h64q4 -34 19 -46q18 -16 62 -16t74 21q23 14 32 41h53q-17 -59 -64 -89q-44 -28 -108 -28q-68 0 -103 34q-26 26 -29 83z" />
<glyph unicode="&#x41a;" horiz-adv-x="552" d="M46 0l137 739h74l-137 -739h-74zM205 379l355 360h93l-350 -360l222 -379h-102z" />
<glyph unicode="&#x41b;" horiz-adv-x="702" d="M50 0l443 739h72l167 -739h-81l-140 647l-381 -647h-80z" />
<glyph unicode="&#x41c;" horiz-adv-x="919" d="M46 0l137 739h115l152 -629l385 629h115l-137 -739h-74l122 658l-400 -658h-64l-155 658l-122 -658h-74z" />
<glyph unicode="&#x41d;" d="M46 0l137 739h74l-60 -325h383l60 325h74l-137 -739h-74l64 347h-383l-64 -347h-74z" />
<glyph unicode="&#x41e;" horiz-adv-x="869" d="M76 302q0 115 66.5 219.5t176 167.5t229.5 63q77 0 146.5 -33.5t114.5 -92.5q61 -82 61 -190q0 -114 -66.5 -218.5t-176 -167.5t-229.5 -63q-77 0 -148 34t-114 92q-60 81 -60 189zM153 316q0 -110 74.5 -185.5t182.5 -75.5q149 0 266 112.5t117 254.5q0 114 -74 188 t-189 74q-143 0 -260 -114t-117 -254z" />
<glyph unicode="&#x41f;" d="M46 0l137 739h531l-137 -739h-74l124 672h-383l-124 -672h-74z" />
<glyph unicode="&#x420;" horiz-adv-x="592" d="M46 0l137 739h205q131 0 189 -39.5t58 -127.5q0 -57 -20.5 -110.5t-57.5 -90.5q-39 -39 -94 -55.5t-146 -16.5h-142l-55 -299h-74zM188 366h137q72 0 113.5 12t68.5 41q23 25 37 63t14 76q0 64 -47 92q-36 22 -161 22h-105z" />
<glyph unicode="&#x421;" horiz-adv-x="813" d="M76 290q0 123 63 229.5t170 169.5t230 63q114 0 197.5 -57t102.5 -148h-82q-26 58 -64 88q-66 49 -164 49q-87 0 -163.5 -39t-132.5 -111q-80 -104 -80 -224q0 -111 74 -183t187 -72q154 0 281 139h82q-67 -98 -165 -152.5t-210 -54.5q-145 0 -235.5 84.5t-90.5 218.5z " />
<glyph unicode="&#x422;" horiz-adv-x="486" d="M102 672l12 67h412l-12 -67h-169l-125 -672h-74l125 672h-169z" />
<glyph unicode="&#x423;" horiz-adv-x="592" d="M92 0l175 252l-158 487h82l133 -414l292 414h81l-524 -739h-81z" />
<glyph unicode="&#x424;" horiz-adv-x="908" d="M76 332q0 114 66 218t175 167.5t229 63.5l8 41h74l-9 -41q77 -1 147 -35t113 -91q60 -81 60 -189q0 -114 -65 -218.5t-173.5 -168t-227.5 -63.5l-15 -76h-74l15 76q-77 1 -147 34.5t-115 91.5q-61 82 -61 190zM153 346q0 -113 73.5 -187t187.5 -75l120 629 q-72 0 -142 -31.5t-122.5 -81.5t-84.5 -117.5t-32 -136.5zM487 84q143 1 259 115t116 253q0 109 -74 184.5t-181 76.5z" />
<glyph unicode="&#x425;" horiz-adv-x="609" d="M-22 0l321 378l-170 361h87l141 -296l250 296h86l-304 -361l182 -378h-88l-149 316l-269 -316h-87z" />
<glyph unicode="&#x426;" d="M46 0l137 739h74l-125 -666h381l127 666h74l-123 -666h117l-42 -227h-73l29 154h-576z" />
<glyph unicode="&#x427;" horiz-adv-x="591" d="M33 363q0 26 10 82l54 294h74l-54 -294q-7 -33 -7 -72q0 -55 39 -90.5t100 -35.5q40 0 80.5 18.5t66.5 49.5q22 25 33 50.5t20 73.5l56 300h74l-137 -739h-74l49 263q-76 -84 -185 -84q-94 0 -146.5 48.5t-52.5 135.5z" />
<glyph unicode="&#x428;" horiz-adv-x="992" d="M46 0l137 739h74l-125 -666h316l127 666h74l-123 -666h296l127 666h74l-138 -739h-839z" />
<glyph unicode="&#x429;" horiz-adv-x="992" d="M46 0l137 739h74l-125 -666h316l127 666h74l-123 -666h296l127 666h74l-124 -666h117l-42 -227h-73l29 154h-884z" />
<glyph unicode="&#x42a;" horiz-adv-x="614" d="M5 666l11 73h246l-52 -265h109q142 0 210.5 -42t68.5 -134q0 -141 -97.5 -219.5t-273.5 -78.5h-183l126 666h-165zM131 67h104q135 0 210.5 53t75.5 160q0 70 -55 98.5t-165 28.5h-104z" />
<glyph unicode="&#x42b;" horiz-adv-x="764" d="M43 0l144 739h74l-52 -265h109q142 0 210.5 -42t68.5 -134q0 -141 -97.5 -219.5t-273.5 -78.5h-183zM130 67h104q135 0 210.5 53t75.5 160q0 70 -55 98.5t-165 28.5h-104zM614 0l137 739h74l-137 -739h-74z" />
<glyph unicode="&#x42c;" horiz-adv-x="574" d="M43 0l144 739h74l-52 -265h109q142 0 210.5 -42t68.5 -134q0 -141 -97.5 -219.5t-273.5 -78.5h-183zM130 67h104q135 0 210.5 53t75.5 160q0 70 -55 98.5t-165 28.5h-104z" />
<glyph unicode="&#x42d;" horiz-adv-x="869" d="M94 194h88q33 -63 93.5 -101t134.5 -38q127 0 235 85.5t138 206.5h-408l13 67h405v8q0 114 -74 188t-189 74q-77 0 -151 -37.5t-130 -99.5h-88q68 92 171.5 148.5t215.5 56.5q77 0 146.5 -33.5t114.5 -92.5q61 -82 61 -190q0 -114 -66.5 -218.5t-176 -167.5t-229.5 -63 q-77 0 -148 34t-114 92q-27 36 -42 81z" />
<glyph unicode="&#x42e;" horiz-adv-x="1080" d="M46 0l144 739h74l-63 -325h110q44 141 174.5 239.5t277.5 98.5q141 0 232 -89t91 -223q0 -94 -43.5 -179.5t-111.5 -144.5t-152 -94t-164 -35q-141 0 -230.5 89t-89.5 222q0 24 3 49h-110l-68 -347h-74zM367 311q0 -111 72.5 -183.5t188.5 -72.5q91 0 179 49.5 t145.5 136.5t57.5 186q0 110 -73.5 183.5t-186.5 73.5q-91 0 -179 -49.5t-146 -137t-58 -186.5z" />
<glyph unicode="&#x42f;" horiz-adv-x="614" d="M14 0l294 279q-104 0 -158 45.5t-54 124.5q0 83 44 152t111 102q73 36 214 36h183l-144 -739h-74l131 672h-104q-114 0 -175 -27q-49 -21 -79.5 -71.5t-30.5 -112.5q0 -89 86 -113q26 -7 203 -7l-355 -341h-92z" />
<glyph unicode="&#x430;" d="M58 216q0 139 103 241.5t243 102.5q80 0 134 -36q35 -23 61 -74l18 97h74l-101 -547h-74l18 96q-61 -62 -111 -85.5t-120 -23.5q-110 0 -177.5 63t-67.5 166zM135 235q0 -80 50.5 -130t132.5 -50q100 0 176.5 80t76.5 184q0 75 -49.5 124t-124.5 49q-104 0 -183 -77.5 t-79 -179.5z" />
<glyph unicode="&#x431;" horiz-adv-x="655" d="M60 215q0 60 14 133t41 148t74.5 139t107.5 93q34 13 64.5 21t68.5 12.5t51.5 6t63.5 3t54 1.5q68 4 118 26l1 -66q-3 -1 -17 -7t-17.5 -7t-19.5 -5.5t-23 -3t-30 0.5q-14 -1 -71 -4.5t-79.5 -6t-64.5 -13t-77 -27.5q-34 -22 -60 -48.5t-39.5 -49t-22 -42t-10.5 -30.5 l-2 -11q100 82 223 82q104 0 169 -63t65 -165q0 -136 -96 -237q-102 -108 -240 -108q-108 0 -177 65.5t-69 162.5zM137 228q0 -77 49.5 -125t129.5 -48q104 0 176.5 78.5t72.5 191.5q0 73 -48 120t-122 47q-105 0 -181.5 -78.5t-76.5 -185.5z" />
<glyph unicode="&#x432;" horiz-adv-x="490" d="M29 0l106 547h190q73 0 106.5 -33t33.5 -80q0 -63 -54 -112q83 -36 83 -119q0 -92 -72.5 -147.5t-172.5 -55.5h-220zM116 68h145q68 1 112.5 33t44.5 89q0 40 -32 60.5t-88 20.5h-142zM169 338h112q58 0 84 27.5t26 62.5q0 50 -80 51h-115z" />
<glyph unicode="&#x433;" horiz-adv-x="442" d="M33 0l101 547h349l-13 -72h-277l-86 -475h-74z" />
<glyph unicode="&#x434;" horiz-adv-x="585" d="M-3 -140l39 212h98l287 475h78l112 -475h108l-39 -212h-74l27 140h-545l-27 -140h-64zM209 72h327l-90 388z" />
<glyph unicode="&#x435;" horiz-adv-x="650" d="M58 220q0 135 102.5 237.5t237.5 102.5q104 0 170.5 -64t66.5 -164q0 -32 -9 -83h-495q-2 -24 -2 -28q0 -70 52 -118t127 -48q61 0 121.5 35t92.5 90h77q-48 -88 -130.5 -140.5t-173.5 -52.5q-102 0 -169.5 66.5t-67.5 166.5zM146 316h419q-4 81 -52.5 128.5t-127.5 47.5 q-78 0 -145 -49.5t-94 -126.5z" />
<glyph unicode="&#x436;" horiz-adv-x="735" d="M-15 0l264 275l-177 272h92l172 -274l-260 -273h-91zM298 0l102 547h74l-102 -547h-74zM435 274l260 273h91l-264 -275l177 -272h-92z" />
<glyph unicode="&#x437;" horiz-adv-x="540" d="M33 151h67q1 -4 3.5 -10.5t12.5 -23t23.5 -29t38.5 -23t56 -10.5q68 0 117.5 32t49.5 85q0 40 -33 61.5t-86 21.5h-72l15 73h72q42 0 78 28.5t36 70.5q0 29 -28.5 47t-64.5 18q-38 0 -69.5 -19t-44.5 -37l-12 -19h-67q3 6 8 15.5t23.5 34t40.5 43.5t58.5 34.5t76.5 15.5 q71 0 109.5 -31t38.5 -83q0 -112 -94 -149q38 -6 62 -40.5t24 -77.5q0 -93 -68 -142.5t-184 -49.5q-49 0 -86 17t-55.5 41t-29.5 48t-13 41z" />
<glyph unicode="&#x438;" horiz-adv-x="610" d="M33 0l101 547h74l-78 -421l386 421h100l-101 -547h-74l86 458l-420 -458h-74z" />
<glyph unicode="&#x439;" horiz-adv-x="610" d="M33 0l101 547h74l-78 -421l386 421h100l-101 -547h-74l86 458l-420 -458h-74zM254 691h64q4 -34 19 -46q18 -16 62 -16t74 21q23 14 32 41h53q-17 -59 -64 -89q-44 -28 -108 -28q-68 0 -103 34q-26 26 -29 83z" />
<glyph unicode="&#x43a;" horiz-adv-x="471" d="M33 0l102 547h74l-102 -547h-74zM170 274l260 273h91l-264 -275l177 -272h-92q-12 19 -76.5 118.5t-95.5 155.5z" />
<glyph unicode="&#x43b;" horiz-adv-x="564" d="M47 0l331 547h78l129 -547h-75l-107 460l-281 -460h-75z" />
<glyph unicode="&#x43c;" horiz-adv-x="663" d="M33 0l101 547h75l107 -460l281 460h72l-101 -547h-74l71 371l-224 -371h-78l-88 371l-68 -371h-74z" />
<glyph unicode="&#x43d;" horiz-adv-x="588" d="M33 0l101 547h74l-40 -225h332l42 225h74l-101 -547h-74l49 263h-333l-50 -263h-74z" />
<glyph unicode="&#x43e;" horiz-adv-x="655" d="M57 215q0 62 24.5 123.5t68.5 108.5q105 113 255 113q104 0 169 -63t65 -165q0 -136 -96 -237q-102 -108 -240 -108q-109 0 -177.5 63.5t-68.5 164.5zM134 228q0 -77 49.5 -125t129.5 -48q104 0 176.5 78.5t72.5 191.5q0 73 -48 120t-122 47q-105 0 -181.5 -78.5 t-76.5 -185.5z" />
<glyph unicode="&#x43f;" horiz-adv-x="585" d="M33 0l101 547h482l-101 -547h-74l89 475h-335l-88 -475h-74z" />
<glyph unicode="&#x440;" horiz-adv-x="682" d="M-3 -192l137 739h74l-17 -94q37 49 100 78t134 29q108 0 174 -65t66 -170q0 -133 -104.5 -235.5t-240.5 -102.5q-140 0 -196 107l-53 -286h-74zM147 227q0 -74 51 -123t127 -49q117 0 200 95q28 31 45.5 78t17.5 89q0 76 -50.5 125.5t-128.5 49.5q-57 0 -112 -28t-95 -77 q-55 -68 -55 -160z" />
<glyph unicode="&#x441;" horiz-adv-x="647" d="M58 222q0 133 106 235.5t244 102.5q94 0 158.5 -48t82.5 -131h-83q-20 53 -64.5 82t-105.5 29q-104 0 -182.5 -78t-78.5 -181q0 -78 51.5 -128t131.5 -50q75 0 137 42q21 14 71 64h83q-56 -77 -106 -112q-91 -62 -194 -62q-56 0 -109 20.5t-84 54.5q-58 63 -58 160z" />
<glyph unicode="&#x442;" horiz-adv-x="441" d="M71 480l12 67h315l-12 -67h-129l-89 -480h-74l89 480h-112z" />
<glyph unicode="&#x443;" horiz-adv-x="536" d="M67 -192l127 210l-114 529h81l92 -436l266 436h79l-453 -739h-78z" />
<glyph unicode="&#x444;" horiz-adv-x="725" d="M57 215q0 62 24.5 123.5t68.5 108.5q105 113 255 113l5 39h74l-7 -39q104 -1 168 -64t64 -164q0 -136 -96 -237q-102 -106 -242 -108l-24 -127h-74l27 127q-108 1 -175.5 64t-67.5 164zM134 228q0 -77 49 -124.5t128 -48.5l80 437q-105 0 -181 -78.5t-76 -185.5zM383 55 q104 1 176.5 79.5t72.5 190.5q0 72 -47.5 119t-120.5 48z" />
<glyph unicode="&#x445;" horiz-adv-x="480" d="M-22 0l242 279l-141 268h84l109 -211l186 211h85l-240 -268l139 -279h-85l-106 219l-189 -219h-84z" />
<glyph unicode="&#x446;" horiz-adv-x="584" d="M33 0l101 547h74l-89 -475h286l88 475h74l-88 -475h100l-39 -212h-74l27 140h-460z" />
<glyph unicode="&#x447;" horiz-adv-x="427" d="M20 338q0 18 3 36l32 173h74l-30 -171q-3 -20 -3 -36q0 -50 28 -77t80 -27q36 0 76.5 15t61.5 34l51 262h74l-101 -547h-74l40 226q-28 -21 -69 -34.5t-71 -13.5q-70 0 -121 44.5t-51 115.5z" />
<glyph unicode="&#x448;" horiz-adv-x="878" d="M33 0l101 547h74l-89 -475h281l88 475h74l-88 -475h270l88 475h74l-101 -547h-772z" />
<glyph unicode="&#x449;" horiz-adv-x="878" d="M33 0l101 547h74l-89 -475h281l88 475h74l-88 -475h270l88 475h74l-88 -475h73l-39 -212h-74l27 140h-772z" />
<glyph unicode="&#x44a;" horiz-adv-x="570" d="M57 473l14 74h246l-34 -178h142q82 0 131 -40.5t49 -108.5q0 -94 -75.5 -157t-172.5 -63h-220l87 473h-167zM224 67h145q66 1 113 40t47 99q0 43 -32 69t-86 26h-142z" />
<glyph unicode="&#x44b;" horiz-adv-x="691" d="M30 0l106 547h74l-34 -178h142q82 0 131 -40.5t49 -108.5q0 -94 -75.5 -157t-172.5 -63h-220zM117 67h145q66 1 113 40t47 99q0 43 -32 69t-86 26h-142zM542 0l101 547h74l-101 -547h-74z" />
<glyph unicode="&#x44c;" horiz-adv-x="466" d="M30 0l106 547h74l-34 -178h142q82 0 131 -40.5t49 -108.5q0 -94 -75.5 -157t-172.5 -63h-220zM117 67h145q66 1 113 40t47 99q0 43 -32 69t-86 26h-142z" />
<glyph unicode="&#x44d;" horiz-adv-x="638" d="M63 161h83q19 -49 63 -77.5t104 -28.5q88 0 155.5 58.5t87.5 149.5h-305l11 59h300q1 75 -47.5 122.5t-122.5 47.5q-63 0 -117.5 -30t-90.5 -81h-81q19 35 47 66q105 113 255 113q104 0 169 -63t65 -165q0 -148 -94.5 -246.5t-241.5 -98.5q-92 0 -157 47.5t-83 126.5z " />
<glyph unicode="&#x44e;" horiz-adv-x="845" d="M33 0l106 547h73l-46 -240h105q32 109 127 181t208 72q106 0 170 -62.5t64 -163.5q0 -144 -104.5 -245.5t-235.5 -101.5q-111 0 -177 63.5t-66 166.5q0 15 1 23h-106l-46 -240h-73zM333 226q0 -77 49 -124t130 -47q99 0 175.5 78t76.5 186q0 77 -47 125t-125 48 q-101 0 -180 -78.5t-79 -187.5z" />
<glyph unicode="&#x44f;" horiz-adv-x="526" d="M-25 0l190 185q-55 14 -86.5 51.5t-31.5 90.5q0 95 75.5 157.5t172.5 62.5h220l-106 -547h-74l93 480h-145q-66 -1 -113 -40t-47 -99q0 -43 32 -69t86 -26h78l-252 -246h-92z" />
<glyph unicode="&#x450;" horiz-adv-x="650" d="M58 220q0 135 102.5 237.5t237.5 102.5q104 0 170.5 -64t66.5 -164q0 -32 -9 -83h-495q-2 -24 -2 -28q0 -70 52 -118t127 -48q61 0 121.5 35t92.5 90h77q-48 -88 -130.5 -140.5t-173.5 -52.5q-102 0 -169.5 66.5t-67.5 166.5zM146 316h419q-4 81 -52.5 128.5t-127.5 47.5 q-78 0 -145 -49.5t-94 -126.5zM324 763l40 52l181 -117l-39 -51z" />
<glyph unicode="&#x451;" horiz-adv-x="650" d="M58 220q0 135 102.5 237.5t237.5 102.5q104 0 170.5 -64t66.5 -164q0 -32 -9 -83h-495q-2 -24 -2 -28q0 -70 52 -118t127 -48q61 0 121.5 35t92.5 90h77q-48 -88 -130.5 -140.5t-173.5 -52.5q-102 0 -169.5 66.5t-67.5 166.5zM146 316h419q-4 81 -52.5 128.5t-127.5 47.5 q-78 0 -145 -49.5t-94 -126.5zM308 623l23 126h74l-23 -126h-74zM455 623l23 126h74l-23 -126h-74z" />
<glyph unicode="&#x452;" horiz-adv-x="339" d="M33 0l111 602h-66l12 62h66l14 75h74l-14 -75h189l-12 -62h-189l-36 -208q28 21 69 34.5t71 13.5q70 0 121 -44.5t51 -115.5q0 -18 -3 -36l-46 -246q-17 -90 -63 -137t-136 -47h-24l10 58q58 0 93.5 34.5t45.5 91.5l44 244q3 20 3 36q0 50 -28 77t-80 27q-36 0 -76.5 -15 t-61.5 -34l-65 -335h-74z" />
<glyph unicode="&#x453;" horiz-adv-x="442" d="M33 0l101 547h349l-13 -72h-277l-86 -475h-74zM250 664l214 116l24 -58l-214 -114z" />
<glyph unicode="&#x454;" horiz-adv-x="647" d="M58 222q0 133 106 235.5t244 102.5q94 0 158.5 -48t82.5 -131h-83q-20 53 -64.5 82t-105.5 29q-79 0 -146.5 -48t-97.5 -122h319l-10 -59h-323q-3 -15 -3 -30q0 -78 51.5 -128t131.5 -50q75 0 137 42q21 14 71 64h83q-56 -77 -106 -112q-91 -62 -194 -62q-56 0 -109 20.5 t-84 54.5q-58 63 -58 160z" />
<glyph unicode="&#x455;" horiz-adv-x="388" d="M13 117q0 4 2 26q0 10 1 18h73q0 -52 11 -70q22 -36 72 -36q46 0 79.5 33.5t33.5 78.5q0 31 -16 47.5t-72 40.5q-45 19 -62 29t-29 24q-26 31 -26 72q0 28 14 62t35 57q56 61 139 61q55 0 91 -33.5t36 -84.5q0 -19 -1 -30h-75q0 80 -65 80q-37 0 -67 -28.5t-30 -63.5 q0 -40 38 -59q18 -9 95 -44q72 -34 72 -108q0 -77 -54 -136q-62 -66 -149 -66q-76 0 -115 47q-31 38 -31 83z" />
<glyph unicode="&#x456;" horiz-adv-x="200" d="M33 0l101 547h74l-101 -547h-74zM147 613l23 126h74l-23 -126h-74z" />
<glyph unicode="&#x457;" horiz-adv-x="200" d="M33 0l101 547h73l-101 -547h-73zM74 623l23 126h74l-23 -126h-74zM221 623l23 126h74l-23 -126h-74z" />
<glyph unicode="&#x458;" horiz-adv-x="203" d="M-111 -192l13 71q64 4 94.5 38.5t47.5 120.5l94 509h74l-94 -509q-35 -220 -229 -230zM149 613l24 126h74l-24 -126h-74z" />
<glyph unicode="&#x459;" horiz-adv-x="913" d="M47 0l331 547h78l53 -227h184q226 0 226 -131q0 -107 -64.5 -148t-189.5 -41h-155l-107 460l-281 -460h-75zM525 253l42 -181h101q75 0 123 27.5t48 81.5q0 72 -160 72h-154z" />
<glyph unicode="&#x45a;" horiz-adv-x="874" d="M33 0l101 547h74l-40 -225h332l42 225h74l-42 -225h80q42 0 77.5 -6t71.5 -20t56.5 -43t20.5 -71q0 -44 -14.5 -76.5t-38.5 -52.5t-60.5 -32t-74.5 -16.5t-86 -4.5h-165l49 263h-333l-50 -263h-74zM528 72h81q80 0 135.5 26t55.5 83q0 40 -44 61t-114 21h-80z" />
<glyph unicode="&#x45b;" horiz-adv-x="339" d="M33 0l111 602h-66l12 62h66l14 75h74l-14 -75h189l-12 -62h-189l-36 -208q28 21 69 34.5t71 13.5q70 0 121 -44.5t51 -115.5q0 -18 -3 -36l-46 -246h-74l44 244q3 20 3 36q0 50 -28 77t-80 27q-36 0 -76.5 -15t-61.5 -34l-65 -335h-74z" />
<glyph unicode="&#x45c;" horiz-adv-x="471" d="M33 0l102 547h74l-102 -547h-74zM170 274l260 273h91l-264 -275l177 -272h-92q-12 19 -76.5 118.5t-95.5 155.5zM250 664l214 116l24 -58l-214 -114z" />
<glyph unicode="&#x45d;" horiz-adv-x="610" d="M33 0l101 547h74l-78 -421l386 421h100l-101 -547h-74l86 458l-420 -458h-74zM299 763l40 52l181 -117l-39 -51z" />
<glyph unicode="&#x45e;" horiz-adv-x="536" d="M67 -192l127 210l-114 529h81l92 -436l266 436h79l-453 -739h-78zM231 691h64q4 -34 19 -46q18 -16 62 -16t74 21q23 14 32 41h53q-17 -59 -64 -89q-44 -28 -108 -28q-68 0 -103 34q-26 26 -29 83z" />
<glyph unicode="&#x45f;" horiz-adv-x="610" d="M33 0l101 547h74l-89 -475h335l88 475h74l-101 -547h-200l-26 -140h-74l27 140h-209z" />
<glyph unicode="&#x48c;" horiz-adv-x="574" d="M46 0l105 564h-83l12 62h82l21 113h74l-21 -113h181l-12 -62h-180l-27 -143h94q133 0 199.5 -35.5t66.5 -125.5q0 -57 -23 -109.5t-62 -86.5q-40 -35 -95.5 -49.5t-148.5 -14.5h-183zM132 67h101q145 0 197 49q51 49 51 126q0 65 -50 92q-37 20 -157 20h-88z" />
<glyph unicode="&#x48d;" horiz-adv-x="466" d="M17 405l12 62h90l15 80h74l-15 -80h96l-12 -62h-96l-15 -84l80 -1q100 -2 151 -28q1 -1 12 -6t16.5 -8t15 -11.5t15 -17.5t10.5 -24t6 -33q2 -37 -10.5 -69t-23 -44.5t-29.5 -31.5q-47 -47 -211 -47h-165l75 405h-91zM120 72h81q84 0 152 36q10 5 21.5 21.5t16.5 38.5 t-6 40.5t-31 29.5q-26 15 -122 15h-80z" />
<glyph unicode="&#x48e;" horiz-adv-x="592" d="M46 0l137 739h205q131 0 189 -39.5t58 -127.5q0 -57 -20.5 -110.5t-57.5 -90.5q-39 -39 -94 -55.5t-146 -16.5h-142l-55 -299h-74zM188 366h137q72 0 113.5 12t68.5 41q23 25 37 63t14 76q0 64 -47 92q-36 22 -161 22h-105z" />
<glyph unicode="&#x48f;" horiz-adv-x="682" d="M-3 -192l137 739h74l-17 -94q37 49 100 78t134 29q108 0 174 -65t66 -170q0 -129 -100 -231l81 -118l-58 -25l-71 102q-92 -66 -197 -66q-140 0 -196 107l-53 -286h-74zM147 227q0 -74 51 -123t127 -49q85 0 155 53l-83 120l58 25l70 -103q28 31 45.5 78t17.5 89 q0 76 -50.5 125.5t-128.5 49.5q-57 0 -112 -28t-95 -77q-55 -68 -55 -160z" />
<glyph unicode="&#x490;" horiz-adv-x="549" d="M46 0l137 739h301l12 67h74l-24 -134h-301l-125 -672h-74z" />
<glyph unicode="&#x491;" horiz-adv-x="472" d="M33 0l101 547h276l14 73h74l-28 -145h-277l-86 -475h-74z" />
<glyph unicode="&#x492;" horiz-adv-x="485" d="M46 0l93 504h-83l12 62h83l32 173h375l-12 -67h-301l-20 -106h180l-12 -62h-179l-94 -504h-74z" />
<glyph unicode="&#x493;" horiz-adv-x="442" d="M1 285l12 62h84l37 200h349l-13 -72h-277l-23 -128h180l-12 -62h-179l-52 -285h-74l53 285h-85z" />
<glyph unicode="&#x494;" horiz-adv-x="485" d="M46 0l137 739h375l-12 -67h-301l-37 -196q76 84 185 84q94 0 146.5 -48.5t52.5 -135.5q0 -26 -10 -82l-54 -294q-17 -90 -63 -137t-136 -47h-25l11 58q58 0 93.5 34.5t45.5 91.5l54 294q7 42 7 72q0 55 -39 90.5t-100 35.5q-40 0 -80.5 -18.5t-66.5 -49.5 q-22 -25 -33 -50.5t-20 -73.5l-56 -300h-74z" />
<glyph unicode="&#x495;" horiz-adv-x="442" d="M33 0l101 547h349l-13 -72h-277l-24 -139q76 84 185 84q94 0 146.5 -48.5t52.5 -135.5q0 -26 -10 -82l-28 -154q-17 -90 -63 -137t-136 -47h-24l10 58q58 0 93.5 34.5t45.5 91.5l28 154q7 33 7 72q0 55 -39 90.5t-100 35.5q-40 0 -80.5 -18.5t-66.5 -49.5 q-22 -25 -33 -50.5t-20 -73.5l-30 -160h-74z" />
<glyph unicode="&#x496;" horiz-adv-x="927" d="M30 0l360 360l-222 379h93l218 -379l-360 -360h-89zM425 0l137 739h74l-137 -739h-74zM580 379l360 360h88l-359 -360l222 -379h-93z" />
<glyph unicode="&#x497;" horiz-adv-x="735" d="M-15 0l264 275l-177 272h92l172 -274l-260 -273h-91zM298 0l102 547h74l-102 -547h-74zM435 274l260 273h91l-264 -275l177 -272h-92z" />
<glyph unicode="&#x498;" horiz-adv-x="548" d="M-20 194h79q14 -44 69.5 -91.5t140.5 -47.5q104 0 174.5 47t70.5 135q0 54 -37 87t-94 33h-124l13 67h126q65 0 113.5 43t48.5 104q0 53 -48.5 83t-114.5 30q-48 0 -90 -14t-68.5 -34t-46 -39.5t-27.5 -33.5l-8 -14h-75l11 22t35.5 49t63 61.5t94.5 48.5t128 22 q91 0 157.5 -46.5t66.5 -122.5q0 -63 -39 -116t-93 -80q35 -11 60 -49t25 -90q0 -119 -98 -190t-243 -71q-60 0 -109 18.5t-77 44.5t-48 57t-27.5 52.5t-8.5 34.5z" />
<glyph unicode="&#x499;" horiz-adv-x="490" d="M33 151h67q1 -4 3.5 -10.5t12.5 -23t23.5 -29t38.5 -23t56 -10.5q68 0 117.5 32t49.5 85q0 40 -33 61.5t-86 21.5h-72l15 73h72q42 0 78 28.5t36 70.5q0 29 -28.5 47t-64.5 18q-38 0 -69.5 -19t-44.5 -37l-12 -19h-67q3 6 8 15.5t23.5 34t40.5 43.5t58.5 34.5t76.5 15.5 q71 0 109.5 -31t38.5 -83q0 -112 -94 -149q38 -6 62 -40.5t24 -77.5q0 -93 -68 -142.5t-184 -49.5q-49 0 -86 17t-55.5 41t-29.5 48t-13 41z" />
<glyph unicode="&#x49a;" horiz-adv-x="552" d="M46 0l137 739h74l-137 -739h-74zM205 379l355 360h93l-350 -360l222 -379h-102z" />
<glyph unicode="&#x49b;" horiz-adv-x="471" d="M33 0l102 547h74l-102 -547h-74zM170 274l260 273h91l-264 -275l177 -272h-92q-12 19 -76.5 118.5t-95.5 155.5z" />
<glyph unicode="&#x49c;" horiz-adv-x="552" d="M46 0l137 739h74l-137 -739h-74zM205 379l355 360h93l-350 -360l222 -379h-102z" />
<glyph unicode="&#x49d;" horiz-adv-x="471" d="M33 0l102 547h74l-102 -547h-74zM155 104l27 148l-12 22l20 21l26 140h64l-11 -57l161 169h91l-264 -275l177 -272h-92l-111 172l-13 -68h-63z" />
<glyph unicode="&#x49e;" horiz-adv-x="552" d="M46 0l112 606h-88l12 62h88l13 71h74l-13 -71h115l-12 -62h-115l-112 -606h-74zM205 379l355 360h93l-350 -360l222 -379h-102z" />
<glyph unicode="&#x49f;" horiz-adv-x="471" d="M17 433l12 62h96l10 52h74l-10 -52h99l-12 -62h-98l-81 -433h-74l81 433h-97zM170 274l260 273h91l-264 -275l177 -272h-92q-12 19 -76.5 118.5t-95.5 155.5z" />
<glyph unicode="&#x4a0;" horiz-adv-x="552" d="M46 0l137 739h74l-137 -739h-74zM205 379l355 360h93l-350 -360l222 -379h-102z" />
<glyph unicode="&#x4a1;" horiz-adv-x="471" d="M33 0l102 547h74l-102 -547h-74zM170 274l260 273h91l-264 -275l177 -272h-92q-12 19 -76.5 118.5t-95.5 155.5z" />
<glyph unicode="&#x4a2;" d="M46 0l137 739h74l-60 -325h383l60 325h74l-137 -739h-74l64 347h-383l-64 -347h-74z" />
<glyph unicode="&#x4a3;" horiz-adv-x="588" d="M33 0l101 547h74l-40 -225h332l42 225h74l-101 -547h-74l49 263h-333l-50 -263h-74z" />
<glyph unicode="&#x4a4;" d="M46 0l137 739h74l-60 -325h383l60 325h74l-137 -739h-74l64 347h-383l-64 -347h-74z" />
<glyph unicode="&#x4a5;" horiz-adv-x="588" d="M33 0l101 547h74l-40 -225h332l42 225h74l-101 -547h-74l49 263h-333l-50 -263h-74z" />
<glyph unicode="&#x4a6;" d="M46 0l137 739h531l-49 -263q76 84 185 84q94 0 146.5 -48.5t52.5 -135.5q0 -26 -10 -82l-54 -294q-17 -90 -63 -137t-136 -47h-24l10 58q58 0 93.5 34.5t45.5 91.5l54 294q7 42 7 72q0 55 -39 90.5t-100 35.5q-40 0 -80.5 -18.5t-66.5 -49.5q-22 -25 -33 -50.5t-20 -73.5 l-56 -300h-74l124 672h-383l-124 -672h-74z" />
<glyph unicode="&#x4a7;" horiz-adv-x="610" d="M33 0l101 547h482l-101 -547h-74l89 475h-335l-88 -475h-74z" />
<glyph unicode="&#x4a8;" horiz-adv-x="813" d="M76 290q0 123 63 229.5t170 169.5t230 63q114 0 197.5 -57t102.5 -148h-82q-26 58 -64 88q-66 49 -164 49q-87 0 -163.5 -39t-132.5 -111q-80 -104 -80 -224q0 -111 74 -183t187 -72q154 0 281 139h82q-67 -98 -165 -152.5t-210 -54.5q-145 0 -235.5 84.5t-90.5 218.5z " />
<glyph unicode="&#x4a9;" horiz-adv-x="647" d="M58 222q0 133 106 235.5t244 102.5q94 0 158.5 -48t82.5 -131h-83q-20 53 -64.5 82t-105.5 29q-104 0 -182.5 -78t-78.5 -181q0 -78 51.5 -128t131.5 -50q75 0 137 42q21 14 71 64h83q-56 -77 -106 -112q-91 -62 -194 -62q-56 0 -109 20.5t-84 54.5q-58 63 -58 160z" />
<glyph unicode="&#x4aa;" horiz-adv-x="813" d="M76 290q0 123 63 229.5t170 169.5t230 63q114 0 197.5 -57t102.5 -148h-82q-26 58 -64 88q-66 49 -164 49q-87 0 -163.5 -39t-132.5 -111q-80 -104 -80 -224q0 -111 74 -183t187 -72q154 0 281 139h82q-67 -98 -165 -152.5t-210 -54.5q-145 0 -235.5 84.5t-90.5 218.5z " />
<glyph unicode="&#x4ab;" horiz-adv-x="647" d="M58 222q0 133 106 235.5t244 102.5q94 0 158.5 -48t82.5 -131h-83q-20 53 -64.5 82t-105.5 29q-104 0 -182.5 -78t-78.5 -181q0 -78 51.5 -128t131.5 -50q75 0 137 42q21 14 71 64h83q-56 -77 -106 -112q-91 -62 -194 -62q-56 0 -109 20.5t-84 54.5q-58 63 -58 160z" />
<glyph unicode="&#x4ac;" horiz-adv-x="426" d="M102 672l12 67h412l-12 -67h-169l-125 -672h-74l125 672h-169z" />
<glyph unicode="&#x4ad;" horiz-adv-x="339" d="M71 480l12 67h315l-12 -67h-129l-89 -480h-74l89 480h-112z" />
<glyph unicode="&#x4ae;" horiz-adv-x="592" d="M109 739h82l133 -414l292 414h81l-349 -492l-46 -247h-74l46 247z" />
<glyph unicode="&#x4af;" horiz-adv-x="554" d="M79 547h75l107 -460l281 460h75l-331 -547l-38 -192h-77l37 192z" />
<glyph unicode="&#x4b0;" horiz-adv-x="592" d="M109 739h82l133 -414l292 414h81l-349 -492l-46 -247h-74l46 247z" />
<glyph unicode="&#x4b1;" horiz-adv-x="554" d="M79 547h75l107 -460l281 460h75l-331 -547l-38 -192h-77l37 192z" />
<glyph unicode="&#x4b2;" horiz-adv-x="609" d="M-22 0l321 378l-170 361h87l141 -296l250 296h86l-304 -361l182 -378h-88l-149 316l-269 -316h-87z" />
<glyph unicode="&#x4b3;" horiz-adv-x="480" d="M-22 0l242 279l-141 268h84l109 -211l186 211h85l-240 -268l139 -279h-85l-106 219l-189 -219h-84z" />
<glyph unicode="&#x4b4;" d="M46 0l137 739h74l-125 -666h381l127 666h74l-123 -666h117l-42 -227h-73l29 154h-576z" />
<glyph unicode="&#x4b5;" horiz-adv-x="584" d="M33 0l101 547h74l-89 -475h286l88 475h74l-88 -475h100l-39 -212h-74l27 140h-460z" />
<glyph unicode="&#x4b6;" horiz-adv-x="610" d="M33 363q0 26 10 82l54 294h74l-54 -294q-7 -33 -7 -72q0 -55 39 -90.5t100 -35.5q40 0 80.5 18.5t66.5 49.5q22 25 33 50.5t20 73.5l56 300h74l-137 -739h-74l49 263q-76 -84 -185 -84q-94 0 -146.5 48.5t-52.5 135.5z" />
<glyph unicode="&#x4b7;" horiz-adv-x="427" d="M23 374l32 173h74l-30 -171q-11 -68 16.5 -104t88.5 -36q36 0 76.5 15t61.5 34l51 262h74l-101 -547h-74l40 226q-28 -21 -69 -34.5t-71 -13.5q-79 0 -131.5 55t-37.5 141z" />
<glyph unicode="&#x4b8;" horiz-adv-x="610" d="M33 363q0 26 10 82l54 294h74l-54 -294q-7 -33 -7 -72q0 -55 39 -90.5t100 -35.5q40 0 80.5 18.5t66.5 49.5q22 25 33 50.5t20 73.5l56 300h74l-137 -739h-74l49 263q-76 -84 -185 -84q-94 0 -146.5 48.5t-52.5 135.5z" />
<glyph unicode="&#x4b9;" horiz-adv-x="427" d="M23 374l32 173h74l-30 -171q-11 -68 16.5 -104t88.5 -36q36 0 76.5 15t61.5 34l51 262h74l-101 -547h-74l40 226q-28 -21 -69 -34.5t-71 -13.5q-79 0 -131.5 55t-37.5 141z" />
<glyph unicode="&#x4ba;" horiz-adv-x="610" d="M33 0l137 739h74l-49 -263q76 84 185 84q94 0 146.5 -48.5t52.5 -135.5q0 -26 -10 -82l-54 -294h-74l54 294q7 33 7 72q0 55 -39 90.5t-100 35.5q-40 0 -80.5 -18.5t-66.5 -49.5q-22 -25 -33 -50.5t-20 -73.5l-56 -300h-74z" />
<glyph unicode="&#x4bb;" horiz-adv-x="427" d="M20 0l101 547h74l-40 -226q28 21 69 34.5t71 13.5q79 0 131.5 -55t37.5 -141l-32 -173h-74l30 171q11 68 -16.5 104t-88.5 36q-36 -1 -76.5 -15.5t-61.5 -33.5l-51 -262h-74z" />
<glyph unicode="&#x4bc;" horiz-adv-x="813" d="M76 290q0 123 63 229.5t170 169.5t230 63q114 0 197.5 -57t102.5 -148h-82q-26 58 -64 88q-66 49 -164 49q-87 0 -163.5 -39t-132.5 -111q-80 -104 -80 -224q0 -111 74 -183t187 -72q154 0 281 139h82q-67 -98 -165 -152.5t-210 -54.5q-145 0 -235.5 84.5t-90.5 218.5z " />
<glyph unicode="&#x4bd;" horiz-adv-x="647" d="M58 222q0 133 106 235.5t244 102.5q94 0 158.5 -48t82.5 -131h-83q-20 53 -64.5 82t-105.5 29q-104 0 -182.5 -78t-78.5 -181q0 -78 51.5 -128t131.5 -50q75 0 137 42q21 14 71 64h83q-56 -77 -106 -112q-91 -62 -194 -62q-56 0 -109 20.5t-84 54.5q-58 63 -58 160z" />
<glyph unicode="&#x4be;" horiz-adv-x="813" d="M76 290q0 123 63 229.5t170 169.5t230 63q114 0 197.5 -57t102.5 -148h-82q-26 58 -64 88q-66 49 -164 49q-87 0 -163.5 -39t-132.5 -111q-80 -104 -80 -224q0 -111 74 -183t187 -72q154 0 281 139h82q-67 -98 -165 -152.5t-210 -54.5q-145 0 -235.5 84.5t-90.5 218.5z " />
<glyph unicode="&#x4bf;" horiz-adv-x="647" d="M58 222q0 133 106 235.5t244 102.5q94 0 158.5 -48t82.5 -131h-83q-20 53 -64.5 82t-105.5 29q-104 0 -182.5 -78t-78.5 -181q0 -78 51.5 -128t131.5 -50q75 0 137 42q21 14 71 64h83q-56 -77 -106 -112q-91 -62 -194 -62q-56 0 -109 20.5t-84 54.5q-58 63 -58 160z" />
<glyph unicode="&#x4c0;" horiz-adv-x="226" d="M46 0l137 739h74l-137 -739h-74z" />
<glyph unicode="&#x4c1;" horiz-adv-x="927" d="M30 0l360 360l-222 379h93l218 -379l-360 -360h-89zM425 0l137 739h74l-137 -739h-74zM481 929h64q4 -34 19 -46q18 -16 62 -16t74 21q23 14 32 41h53q-17 -59 -64 -89q-44 -28 -108 -28q-68 0 -103 34q-26 26 -29 83zM580 379l360 360h88l-359 -360l222 -379h-93z" />
<glyph unicode="&#x4c2;" horiz-adv-x="735" d="M-15 0l264 275l-177 272h92l172 -274l-260 -273h-91zM298 0l102 547h74l-102 -547h-74zM312 737h64q4 -34 19 -46q18 -16 62 -16t74 21q23 14 32 41h53q-17 -59 -64 -89q-44 -28 -108 -28q-68 0 -103 34q-26 26 -29 83zM435 274l260 273h91l-264 -275l177 -272h-92z" />
<glyph unicode="&#x4c3;" horiz-adv-x="552" d="M46 0l137 739h74l-137 -739h-74zM205 379l355 360h93l-350 -360l222 -379h-102z" />
<glyph unicode="&#x4c4;" horiz-adv-x="471" d="M33 0l102 547h74l-102 -547h-74zM170 274l260 273h91l-264 -275l177 -272h-92q-12 19 -76.5 118.5t-95.5 155.5z" />
<glyph unicode="&#x4c7;" d="M46 0l137 739h74l-60 -325h383l60 325h74l-137 -739h-74l64 347h-383l-64 -347h-74z" />
<glyph unicode="&#x4c8;" horiz-adv-x="588" d="M33 0l101 547h74l-40 -225h332l42 225h74l-101 -547h-74l49 263h-333l-50 -263h-74z" />
<glyph unicode="&#x4cb;" horiz-adv-x="610" d="M33 363q0 26 10 82l54 294h74l-54 -294q-7 -33 -7 -72q0 -55 39 -90.5t100 -35.5q40 0 80.5 18.5t66.5 49.5q22 25 33 50.5t20 73.5l56 300h74l-137 -739h-74l49 263q-76 -84 -185 -84q-94 0 -146.5 48.5t-52.5 135.5z" />
<glyph unicode="&#x4cc;" horiz-adv-x="427" d="M23 374l32 173h74l-30 -171q-11 -68 16.5 -104t88.5 -36q36 0 76.5 15t61.5 34l51 262h74l-101 -547h-74l40 226q-28 -21 -69 -34.5t-71 -13.5q-79 0 -131.5 55t-37.5 141z" />
<glyph unicode="&#x4d0;" horiz-adv-x="740" d="M-19 0l454 739h83l181 -739h-81l-61 249h-344l-154 -249h-78zM254 316h287l-80 339zM360 929h64q4 -34 19 -46q18 -16 62 -16t74 21q23 14 32 41h53q-17 -59 -64 -89q-44 -28 -108 -28q-68 0 -103 34q-26 26 -29 83z" />
<glyph unicode="&#x4d1;" d="M58 216q0 139 103 241.5t243 102.5q80 0 134 -36q35 -23 61 -74l18 97h74l-101 -547h-74l18 96q-61 -62 -111 -85.5t-120 -23.5q-110 0 -177.5 63t-67.5 166zM135 235q0 -80 50.5 -130t132.5 -50q100 0 176.5 80t76.5 184q0 75 -49.5 124t-124.5 49q-104 0 -183 -77.5 t-79 -179.5zM285 737h64q4 -34 19 -46q18 -16 62 -16t74 21q23 14 32 41h53q-17 -59 -64 -89q-44 -28 -108 -28q-68 0 -103 34q-26 26 -29 83z" />
<glyph unicode="&#x4d2;" horiz-adv-x="740" d="M-19 0l454 739h83l181 -739h-81l-61 249h-344l-154 -249h-78zM254 316h287l-80 339zM380 812l23 126h74l-23 -126h-74zM527 812l23 126h74l-23 -126h-74z" />
<glyph unicode="&#x4d3;" d="M58 216q0 139 103 241.5t243 102.5q80 0 134 -36q35 -23 61 -74l18 97h74l-101 -547h-74l18 96q-61 -62 -111 -85.5t-120 -23.5q-110 0 -177.5 63t-67.5 166zM135 235q0 -80 50.5 -130t132.5 -50q100 0 176.5 80t76.5 184q0 75 -49.5 124t-124.5 49q-104 0 -183 -77.5 t-79 -179.5zM305 620l23 126h74l-23 -126h-74zM452 620l23 126h74l-23 -126h-74z" />
<glyph unicode="&#x4d4;" horiz-adv-x="992" d="M-19 0l648 739h414l-12 -67h-319l-50 -265h308l-12 -67h-308l-51 -273h319l-12 -67h-393l46 250h-271l-219 -250h-88zM348 317h224l60 327z" />
<glyph unicode="&#x4d5;" horiz-adv-x="1157" d="M58 219q0 117 87 220q102 121 257 121q144 0 198 -108l18 95h71l-18 -95q105 108 235 108q104 0 170 -63.5t66 -163.5q0 -40 -10 -86h-495q-1 -10 -1 -22q0 -72 52.5 -121t129.5 -49q62 0 121 34t90 89h77q-30 -65 -101 -119q-94 -72 -201 -72q-128 0 -200 105l-17 -92 h-71l17 92q-102 -105 -233 -105q-109 0 -175.5 64t-66.5 168zM135 231q0 -77 50 -126.5t127 -49.5q104 0 183 79.5t79 184.5q0 77 -49.5 125t-128.5 48q-128 0 -204 -101q-57 -76 -57 -160zM653 314h420q-1 82 -49 130t-128 48q-81 0 -150 -50.5t-93 -127.5z" />
<glyph unicode="&#x4d6;" horiz-adv-x="536" d="M46 0l137 739h404l-12 -67h-330l-50 -265h319l-12 -67h-319l-51 -273h330l-12 -67h-404zM268 929h64q4 -34 19 -46q18 -16 62 -16t74 21q23 14 32 41h53q-17 -59 -64 -89q-44 -28 -108 -28q-68 0 -103 34q-26 26 -29 83z" />
<glyph unicode="&#x4d7;" horiz-adv-x="650" d="M58 220q0 135 102.5 237.5t237.5 102.5q104 0 170.5 -64t66.5 -164q0 -32 -9 -83h-495q-2 -24 -2 -28q0 -70 52 -118t127 -48q61 0 121.5 35t92.5 90h77q-48 -88 -130.5 -140.5t-173.5 -52.5q-102 0 -169.5 66.5t-67.5 166.5zM146 316h419q-4 81 -52.5 128.5t-127.5 47.5 q-78 0 -145 -49.5t-94 -126.5zM279 737h64q4 -34 19 -46q18 -16 62 -16t74 21q23 14 32 41h53q-17 -59 -64 -89q-44 -28 -108 -28q-68 0 -103 34q-26 26 -29 83z" />
<glyph unicode="&#x4d8;" horiz-adv-x="869" d="M76 302q0 56 17 112h700v8q0 114 -74 188t-189 74q-77 0 -151 -37.5t-130 -99.5h-88q68 92 171.5 148.5t215.5 56.5q133 0 227.5 -88t94.5 -228q0 -86 -39.5 -168.5t-104 -144t-151.5 -99t-177 -37.5q-132 0 -226.5 89t-95.5 226zM153 316q1 -110 75 -185.5t182 -75.5 q128 0 235.5 85.5t137.5 206.5h-628q-2 -20 -2 -31z" />
<glyph unicode="&#x4d9;" horiz-adv-x="638" d="M58 215q0 32 9 83h495q2 24 2 28q0 70 -52 118t-127 48q-61 0 -121.5 -35t-92.5 -90h-77q48 88 130.5 140.5t173.5 52.5q102 0 169.5 -66.5t67.5 -166.5q0 -135 -102.5 -237.5t-237.5 -102.5q-104 0 -170.5 64t-66.5 164zM128 231q4 -81 52.5 -128.5t127.5 -47.5 q78 0 145 49.5t94 126.5h-419z" />
<glyph unicode="&#x4da;" horiz-adv-x="869" d="M76 302q0 56 17 112h700v8q0 114 -74 188t-189 74q-77 0 -151 -37.5t-130 -99.5h-88q68 92 171.5 148.5t215.5 56.5q133 0 227.5 -88t94.5 -228q0 -86 -39.5 -168.5t-104 -144t-151.5 -99t-177 -37.5q-132 0 -226.5 89t-95.5 226zM153 316q1 -110 75 -185.5t182 -75.5 q128 0 235.5 85.5t137.5 206.5h-628q-2 -20 -2 -31zM449 812l23 126h74l-23 -126h-74zM596 812l23 126h74l-23 -126h-74z" />
<glyph unicode="&#x4db;" horiz-adv-x="638" d="M58 215q0 32 9 83h495q2 24 2 28q0 70 -52 118t-127 48q-61 0 -121.5 -35t-92.5 -90h-77q48 88 130.5 140.5t173.5 52.5q102 0 169.5 -66.5t67.5 -166.5q0 -135 -102.5 -237.5t-237.5 -102.5q-104 0 -170.5 64t-66.5 164zM128 231q4 -81 52.5 -128.5t127.5 -47.5 q78 0 145 49.5t94 126.5h-419zM299 620l23 126h74l-23 -126h-74zM446 620l23 126h74l-23 -126h-74z" />
<glyph unicode="&#x4dc;" horiz-adv-x="927" d="M30 0l360 360l-222 379h93l218 -379l-360 -360h-89zM425 0l137 739h74l-137 -739h-74zM501 812l23 126h74l-23 -126h-74zM580 379l360 360h88l-359 -360l222 -379h-93zM648 812l23 126h74l-23 -126h-74z" />
<glyph unicode="&#x4dd;" horiz-adv-x="735" d="M-15 0l264 275l-177 272h92l172 -274l-260 -273h-91zM298 0l102 547h74l-102 -547h-74zM332 620l23 126h74l-23 -126h-74zM435 274l260 273h91l-264 -275l177 -272h-92zM479 620l23 126h74l-23 -126h-74z" />
<glyph unicode="&#x4de;" horiz-adv-x="548" d="M-20 194h79q14 -44 69.5 -91.5t140.5 -47.5q104 0 174.5 47t70.5 135q0 54 -37 87t-94 33h-124l13 67h126q65 0 113.5 43t48.5 104q0 53 -48.5 83t-114.5 30q-48 0 -90 -14t-68.5 -34t-46 -39.5t-27.5 -33.5l-8 -14h-75l11 22t35.5 49t63 61.5t94.5 48.5t128 22 q91 0 157.5 -46.5t66.5 -122.5q0 -63 -39 -116t-93 -80q35 -11 60 -49t25 -90q0 -119 -98 -190t-243 -71q-60 0 -109 18.5t-77 44.5t-48 57t-27.5 52.5t-8.5 34.5zM315 812l23 126h74l-23 -126h-74zM462 812l23 126h74l-23 -126h-74z" />
<glyph unicode="&#x4df;" horiz-adv-x="490" d="M33 151h67q1 -4 3.5 -10.5t12.5 -23t23.5 -29t38.5 -23t56 -10.5q68 0 117.5 32t49.5 85q0 40 -33 61.5t-86 21.5h-72l15 73h72q42 0 78 28.5t36 70.5q0 29 -28.5 47t-64.5 18q-38 0 -69.5 -19t-44.5 -37l-12 -19h-67q3 6 8 15.5t23.5 34t40.5 43.5t58.5 34.5t76.5 15.5 q71 0 109.5 -31t38.5 -83q0 -112 -94 -149q38 -6 62 -40.5t24 -77.5q0 -93 -68 -142.5t-184 -49.5q-49 0 -86 17t-55.5 41t-29.5 48t-13 41zM233 620l23 126h74l-23 -126h-74zM380 620l23 126h74l-23 -126h-74z" />
<glyph unicode="&#x4e0;" horiz-adv-x="548" d="M-20 194h79q14 -44 69.5 -91.5t140.5 -47.5q104 0 174.5 47t70.5 135q0 54 -37 87t-94 33h-124l13 67h126q65 0 113.5 43t48.5 104q0 53 -48.5 83t-114.5 30q-48 0 -90 -14t-68.5 -34t-46 -39.5t-27.5 -33.5l-8 -14h-75l11 22t35.5 49t63 61.5t94.5 48.5t128 22 q91 0 157.5 -46.5t66.5 -122.5q0 -63 -39 -116t-93 -80q35 -11 60 -49t25 -90q0 -119 -98 -190t-243 -71q-60 0 -109 18.5t-77 44.5t-48 57t-27.5 52.5t-8.5 34.5z" />
<glyph unicode="&#x4e1;" horiz-adv-x="490" d="M33 151h67q1 -4 3.5 -10.5t12.5 -23t23.5 -29t38.5 -23t56 -10.5q68 0 117.5 32t49.5 85q0 40 -33 61.5t-86 21.5h-72l15 73h72q42 0 78 28.5t36 70.5q0 29 -28.5 47t-64.5 18q-38 0 -69.5 -19t-44.5 -37l-12 -19h-67q3 6 8 15.5t23.5 34t40.5 43.5t58.5 34.5t76.5 15.5 q71 0 109.5 -31t38.5 -83q0 -112 -94 -149q38 -6 62 -40.5t24 -77.5q0 -93 -68 -142.5t-184 -49.5q-49 0 -86 17t-55.5 41t-29.5 48t-13 41z" />
<glyph unicode="&#x4e2;" horiz-adv-x="740" d="M46 0l137 739h77l-116 -613l527 613h100l-137 -739h-74l120 650l-560 -650h-74zM322 812l12 62h337l-12 -62h-337z" />
<glyph unicode="&#x4e3;" horiz-adv-x="610" d="M33 0l101 547h74l-78 -421l386 421h100l-101 -547h-74l86 458l-420 -458h-74zM220 620l12 62h337l-12 -62h-337z" />
<glyph unicode="&#x4e4;" horiz-adv-x="740" d="M46 0l137 739h77l-116 -613l527 613h100l-137 -739h-74l120 650l-560 -650h-74zM380 812l23 126h74l-23 -126h-74zM527 812l23 126h74l-23 -126h-74z" />
<glyph unicode="&#x4e5;" horiz-adv-x="610" d="M33 0l101 547h74l-78 -421l386 421h100l-101 -547h-74l86 458l-420 -458h-74zM278 620l23 126h74l-23 -126h-74zM425 620l23 126h74l-23 -126h-74z" />
<glyph unicode="&#x4e6;" horiz-adv-x="869" d="M76 302q0 115 66.5 219.5t176 167.5t229.5 63q77 0 146.5 -33.5t114.5 -92.5q61 -82 61 -190q0 -114 -66.5 -218.5t-176 -167.5t-229.5 -63q-77 0 -148 34t-114 92q-60 81 -60 189zM153 316q0 -110 74.5 -185.5t182.5 -75.5q149 0 266 112.5t117 254.5q0 114 -74 188 t-189 74q-143 0 -260 -114t-117 -254zM449 812l23 126h74l-23 -126h-74zM596 812l23 126h74l-23 -126h-74z" />
<glyph unicode="&#x4e7;" horiz-adv-x="655" d="M57 215q0 62 24.5 123.5t68.5 108.5q105 113 255 113q104 0 169 -63t65 -165q0 -136 -96 -237q-102 -108 -240 -108q-109 0 -177.5 63.5t-68.5 164.5zM134 228q0 -77 49.5 -125t129.5 -48q104 0 176.5 78.5t72.5 191.5q0 73 -48 120t-122 47q-105 0 -181.5 -78.5 t-76.5 -185.5zM306 620l23 126h74l-23 -126h-74zM453 620l23 126h74l-23 -126h-74z" />
<glyph unicode="&#x4e8;" horiz-adv-x="869" d="M76 302q0 115 66.5 219.5t176 167.5t229.5 63q77 0 146.5 -33.5t114.5 -92.5q61 -82 61 -190q0 -114 -66.5 -218.5t-176 -167.5t-229.5 -63q-77 0 -148 34t-114 92q-60 81 -60 189zM153 316q0 -110 74.5 -185.5t182.5 -75.5q127 0 235 85.5t139 206.5h-629q-2 -20 -2 -31 zM170 414h623v8q0 114 -74 188t-189 74q-116 0 -219.5 -78.5t-140.5 -191.5z" />
<glyph unicode="&#x4e9;" horiz-adv-x="655" d="M57 215q0 62 24.5 123.5t68.5 108.5q105 113 255 113q104 0 169 -63t65 -165q0 -136 -96 -237q-102 -108 -240 -108q-109 0 -177.5 63.5t-68.5 164.5zM134 228q0 -77 49.5 -125t129.5 -48q88 0 155.5 58.5t87.5 149.5h-420q-2 -22 -2 -35zM152 322h410v3q0 73 -48 120 t-122 47q-80 0 -146 -47.5t-94 -122.5z" />
<glyph unicode="&#x4ea;" horiz-adv-x="869" d="M76 302q0 115 66.5 219.5t176 167.5t229.5 63q77 0 146.5 -33.5t114.5 -92.5q61 -82 61 -190q0 -114 -66.5 -218.5t-176 -167.5t-229.5 -63q-77 0 -148 34t-114 92q-60 81 -60 189zM153 316q0 -110 74.5 -185.5t182.5 -75.5q127 0 235 85.5t139 206.5h-629q-2 -20 -2 -31 zM170 414h623v8q0 114 -74 188t-189 74q-116 0 -219.5 -78.5t-140.5 -191.5zM449 812l23 126h74l-23 -126h-74zM596 812l23 126h74l-23 -126h-74z" />
<glyph unicode="&#x4eb;" horiz-adv-x="655" d="M57 215q0 62 24.5 123.5t68.5 108.5q105 113 255 113q104 0 169 -63t65 -165q0 -136 -96 -237q-102 -108 -240 -108q-109 0 -177.5 63.5t-68.5 164.5zM134 228q0 -77 49.5 -125t129.5 -48q88 0 155.5 58.5t87.5 149.5h-420q-2 -22 -2 -35zM152 322h410v3q0 73 -48 120 t-122 47q-80 0 -146 -47.5t-94 -122.5zM306 620l23 126h74l-23 -126h-74zM453 620l23 126h74l-23 -126h-74z" />
<glyph unicode="&#x4ec;" horiz-adv-x="869" d="M94 194h88q33 -63 93.5 -101t134.5 -38q127 0 235 85.5t138 206.5h-408l13 67h405v8q0 114 -74 188t-189 74q-77 0 -151 -37.5t-130 -99.5h-88q68 92 171.5 148.5t215.5 56.5q77 0 146.5 -33.5t114.5 -92.5q61 -82 61 -190q0 -114 -66.5 -218.5t-176 -167.5t-229.5 -63 q-77 0 -148 34t-114 92q-27 36 -42 81zM449 812l23 126h74l-23 -126h-74zM596 812l23 126h74l-23 -126h-74z" />
<glyph unicode="&#x4ed;" horiz-adv-x="638" d="M63 161h83q19 -49 63 -77.5t104 -28.5q88 0 155.5 58.5t87.5 149.5h-305l11 59h300q1 75 -47.5 122.5t-122.5 47.5q-63 0 -117.5 -30t-90.5 -81h-81q19 35 47 66q105 113 255 113q104 0 169 -63t65 -165q0 -148 -94.5 -246.5t-241.5 -98.5q-92 0 -157 47.5t-83 126.5z M306 620l23 126h74l-23 -126h-74zM453 620l23 126h74l-23 -126h-74z" />
<glyph unicode="&#x4ee;" horiz-adv-x="592" d="M92 0l175 252l-158 487h82l133 -414l292 414h81l-524 -739h-81zM248 812l12 62h337l-12 -62h-337z" />
<glyph unicode="&#x4ef;" horiz-adv-x="536" d="M67 -192l127 210l-114 529h81l92 -436l266 436h79l-453 -739h-78zM184 620l12 62h337l-12 -62h-337z" />
<glyph unicode="&#x4f0;" horiz-adv-x="592" d="M92 0l175 252l-158 487h82l133 -414l292 414h81l-524 -739h-81zM306 812l23 126h74l-23 -126h-74zM453 812l23 126h74l-23 -126h-74z" />
<glyph unicode="&#x4f1;" horiz-adv-x="536" d="M67 -192l127 210l-114 529h81l92 -436l266 436h79l-453 -739h-78zM242 620l23 126h74l-23 -126h-74zM389 620l23 126h74l-23 -126h-74z" />
<glyph unicode="&#x4f2;" horiz-adv-x="592" d="M92 0l175 252l-158 487h82l133 -414l292 414h81l-524 -739h-81zM290 862l192 122l31 -50l-194 -122zM485 862l193 122l30 -50l-194 -122z" />
<glyph unicode="&#x4f3;" horiz-adv-x="536" d="M67 -192l127 210l-114 529h81l92 -436l266 436h79l-453 -739h-78zM226 670l192 122l31 -50l-194 -122zM421 670l193 122l30 -50l-194 -122z" />
<glyph unicode="&#x4f4;" horiz-adv-x="591" d="M33 363q0 26 10 82l54 294h74l-54 -294q-7 -33 -7 -72q0 -55 39 -90.5t100 -35.5q40 0 80.5 18.5t66.5 49.5q22 25 33 50.5t20 73.5l56 300h74l-137 -739h-74l49 263q-76 -84 -185 -84q-94 0 -146.5 48.5t-52.5 135.5zM241 812l23 126h74l-23 -126h-74zM388 812l23 126 h74l-23 -126h-74z" />
<glyph unicode="&#x4f5;" horiz-adv-x="427" d="M20 338q0 18 3 36l32 173h74l-30 -171q-3 -20 -3 -36q0 -50 28 -77t80 -27q36 0 76.5 15t61.5 34l51 262h74l-101 -547h-74l40 226q-28 -21 -69 -34.5t-71 -13.5q-70 0 -121 44.5t-51 115.5zM164 620l23 126h74l-23 -126h-74zM311 620l23 126h74l-23 -126h-74z" />
<glyph unicode="&#x4f8;" horiz-adv-x="764" d="M43 0l144 739h74l-52 -265h109q142 0 210.5 -42t68.5 -134q0 -141 -97.5 -219.5t-273.5 -78.5h-183zM130 67h104q135 0 210.5 53t75.5 160q0 70 -55 98.5t-165 28.5h-104zM392 812l23 126h74l-23 -126h-74zM539 812l23 126h74l-23 -126h-74zM614 0l137 739h74l-137 -739 h-74z" />
<glyph unicode="&#x4f9;" horiz-adv-x="691" d="M30 0l106 547h74l-34 -178h142q82 0 131 -40.5t49 -108.5q0 -94 -75.5 -157t-172.5 -63h-220zM117 67h145q66 1 113 40t47 99q0 43 -32 69t-86 26h-142zM319 620l23 126h74l-23 -126h-74zM466 620l23 126h74l-23 -126h-74zM542 0l101 547h74l-101 -547h-74z" />
<glyph unicode="&#xe3f;" horiz-adv-x="574" d="M46 0l137 739h185l15 83h55l-17 -86q156 -19 156 -141q0 -67 -29.5 -121.5t-90.5 -79.5q56 -27 78.5 -57t22.5 -77q0 -57 -23 -109.5t-62 -86.5q-65 -56 -188 -63l-15 -84h-55l16 83h-185zM132 67h101q138 0 193 46t55 129q0 65 -50 92q-37 20 -157 20h-91zM198 421h90 q68 0 105 9t62 32q45 42 45 116q0 53 -35.5 73.5t-129.5 20.5h-90z" />
<glyph unicode="&#x1e0c;" horiz-adv-x="744" d="M46 0l137 739h174q186 0 269 -58q118 -81 118 -233q0 -102 -43 -192t-122 -154q-68 -54 -146 -78t-188 -24h-199zM132 67h103q116 0 188 22.5t129 75.5q53 49 84 122t31 148q0 116 -73.5 176.5t-245.5 60.5h-103zM202 -186l23 126h74l-23 -126h-74z" />
<glyph unicode="&#x1e0d;" horiz-adv-x="685" d="M58 217q0 137 105 240t245 103q127 0 195 -100l52 279h74l-137 -739h-74l18 99q-53 -60 -106.5 -86t-124.5 -26q-107 0 -177 65t-70 165zM135 236q0 -81 51 -131t134 -50q99 0 177.5 80.5t78.5 182.5q0 75 -52.5 124.5t-131.5 49.5q-101 0 -179 -78t-78 -178zM242 -186 l23 126h74l-23 -126h-74z" />
<glyph unicode="&#x1e0e;" horiz-adv-x="744" d="M46 0l137 739h174q186 0 269 -58q118 -81 118 -233q0 -102 -43 -192t-122 -154q-68 -54 -146 -78t-188 -24h-199zM75 -154l12 62h337l-12 -62h-337zM132 67h103q116 0 188 22.5t129 75.5q53 49 84 122t31 148q0 116 -73.5 176.5t-245.5 60.5h-103z" />
<glyph unicode="&#x1e0f;" horiz-adv-x="685" d="M58 217q0 137 105 240t245 103q127 0 195 -100l52 279h74l-137 -739h-74l18 99q-53 -60 -106.5 -86t-124.5 -26q-107 0 -177 65t-70 165zM115 -154l12 62h337l-12 -62h-337zM135 236q0 -81 51 -131t134 -50q99 0 177.5 80.5t78.5 182.5q0 75 -52.5 124.5t-131.5 49.5 q-101 0 -179 -78t-78 -178z" />
<glyph unicode="&#x1e24;" d="M46 0l137 739h74l-60 -325h383l60 325h74l-137 -739h-74l64 347h-383l-64 -347h-74zM241 -186l23 126h74l-23 -126h-74z" />
<glyph unicode="&#x1e25;" horiz-adv-x="610" d="M33 0l137 739h74l-49 -263q76 84 185 84q94 0 146.5 -48.5t52.5 -135.5q0 -26 -10 -82l-54 -294h-74l54 294q7 44 7 72q0 55 -39 90.5t-100 35.5q-76 0 -129 -49.5t-71 -142.5l-56 -300h-74zM203 -186l23 126h74l-23 -126h-74z" />
<glyph unicode="&#x1e26;" d="M46 0l137 739h74l-60 -325h383l60 325h74l-137 -739h-74l64 347h-383l-64 -347h-74zM346 789l23 126h74l-23 -126h-74zM493 789l23 126h74l-23 -126h-74z" />
<glyph unicode="&#x1e27;" horiz-adv-x="610" d="M33 0l137 739h74l-49 -263q76 84 185 84q94 0 146.5 -48.5t52.5 -135.5q0 -26 -10 -82l-54 -294h-74l54 294q7 44 7 72q0 55 -39 90.5t-100 35.5q-76 0 -129 -49.5t-71 -142.5l-56 -300h-74zM309 789l23 126h74l-23 -126h-74zM456 789l23 126h74l-23 -126h-74z" />
<glyph unicode="&#x1e2a;" d="M46 0l137 739h74l-60 -325h383l60 325h74l-137 -739h-74l64 347h-383l-64 -347h-74zM148 -64h64q4 -36 22.5 -49t58.5 -13q38 0 67 16.5t39 45.5h53q-35 -117 -172 -117q-62 0 -95.5 26.5t-36.5 90.5z" />
<glyph unicode="&#x1e2b;" horiz-adv-x="610" d="M33 0l137 739h74l-49 -263q76 84 185 84q94 0 146.5 -48.5t52.5 -135.5q0 -26 -10 -82l-54 -294h-74l54 294q7 44 7 72q0 55 -39 90.5t-100 35.5q-76 0 -129 -49.5t-71 -142.5l-56 -300h-74zM110 -64h64q4 -36 22.5 -49t58.5 -13q38 0 67 16.5t39 45.5h53 q-35 -117 -172 -117q-62 0 -95.5 26.5t-36.5 90.5z" />
<glyph unicode="&#x1e36;" horiz-adv-x="462" d="M46 0l137 739h74l-125 -672h306l-12 -67h-380zM165 -186l23 126h74l-23 -126h-74z" />
<glyph unicode="&#x1e37;" horiz-adv-x="200" d="M-1 -186l23 126h74l-23 -126h-74zM33 0l137 739h74l-137 -739h-74z" />
<glyph unicode="&#x1e38;" horiz-adv-x="462" d="M46 0l137 739h74l-125 -672h306l-12 -67h-380zM66 821l12 62h337l-12 -62h-337zM165 -186l23 126h74l-23 -126h-74z" />
<glyph unicode="&#x1e39;" horiz-adv-x="200" d="M-1 -186l23 126h74l-23 -126h-74zM33 0l137 739h74l-137 -739h-74zM53 821l12 62h337l-12 -62h-337z" />
<glyph unicode="&#x1e42;" horiz-adv-x="919" d="M46 0l137 739h115l152 -629l385 629h115l-137 -739h-74l122 658l-400 -658h-64l-155 658l-122 -658h-74zM359 -186l23 126h74l-23 -126h-74z" />
<glyph unicode="&#x1e43;" horiz-adv-x="938" d="M33 0l101 547h74l-11 -63q47 47 81 61.5t85 14.5q128 0 159 -105q49 56 97 80.5t112 24.5q81 0 130.5 -43.5t49.5 -114.5q0 -31 -8 -77l-60 -325h-74l59 317q6 36 6 62q0 52 -31.5 82.5t-86.5 30.5q-69 0 -117 -43.5t-65 -131.5l-59 -317h-74l59 319q6 31 6 53 q0 59 -34 89.5t-87 30.5q-68 0 -116 -46.5t-63 -126.5l-59 -319h-74zM368 -186l23 126h74l-23 -126h-74z" />
<glyph unicode="&#x1e44;" horiz-adv-x="740" d="M46 0l137 739h100l300 -613l114 613h74l-137 -739h-74l-320 650l-120 -650h-74zM450 789l23 126h74l-23 -126h-74z" />
<glyph unicode="&#x1e45;" horiz-adv-x="610" d="M33 0l101 547h74l-13 -71q87 84 188 84q90 0 143 -49t53 -132q0 -35 -11 -92l-53 -287h-74l53 287q8 45 8 74q0 60 -37.5 95.5t-101.5 35.5q-76 0 -129 -47t-71 -144l-56 -301h-74zM350 607l23 126h74l-23 -126h-74z" />
<glyph unicode="&#x1e46;" horiz-adv-x="740" d="M46 0l137 739h100l300 -613l114 613h74l-137 -739h-74l-320 650l-120 -650h-74zM269 -186l23 126h74l-23 -126h-74z" />
<glyph unicode="&#x1e47;" horiz-adv-x="610" d="M33 0l101 547h74l-13 -71q87 84 188 84q90 0 143 -49t53 -132q0 -35 -11 -92l-53 -287h-74l53 287q8 45 8 74q0 60 -37.5 95.5t-101.5 35.5q-76 0 -129 -47t-71 -144l-56 -301h-74zM203 -186l23 126h74l-23 -126h-74z" />
<glyph unicode="&#x1e58;" horiz-adv-x="607" d="M46 0l137 739h183q150 0 213.5 -44.5t63.5 -141.5q0 -114 -73 -190.5t-190 -86.5l156 -276h-92l-187 335q141 0 200 24q48 20 78.5 71t30.5 111q0 71 -50 101t-167 30h-104l-125 -672h-74zM392 789l23 126h74l-23 -126h-74z" />
<glyph unicode="&#x1e59;" horiz-adv-x="301" d="M33 0l101 547h74l-14 -78q30 45 69.5 66t102.5 25l-14 -73q-158 -17 -186 -168l-59 -319h-74zM183 607l23 126h74l-23 -126h-74z" />
<glyph unicode="&#x1e5a;" horiz-adv-x="607" d="M46 0l137 739h183q150 0 213.5 -44.5t63.5 -141.5q0 -114 -73 -190.5t-190 -86.5l156 -276h-92l-187 335q141 0 200 24q48 20 78.5 71t30.5 111q0 71 -50 101t-167 30h-104l-125 -672h-74zM211 -186l23 126h74l-23 -126h-74z" />
<glyph unicode="&#x1e5b;" horiz-adv-x="301" d="M-1 -186l23 126h74l-23 -126h-74zM33 0l101 547h74l-14 -78q30 45 69.5 66t102.5 25l-14 -73q-158 -17 -186 -168l-59 -319h-74z" />
<glyph unicode="&#x1e5c;" horiz-adv-x="607" d="M46 0l137 739h183q150 0 213.5 -44.5t63.5 -141.5q0 -114 -73 -190.5t-190 -86.5l156 -276h-92l-187 335q141 0 200 24q48 20 78.5 71t30.5 111q0 71 -50 101t-167 30h-104l-125 -672h-74zM211 -186l23 126h74l-23 -126h-74zM265 821l12 62h337l-12 -62h-337z" />
<glyph unicode="&#x1e5d;" horiz-adv-x="301" d="M-1 -186l23 126h74l-23 -126h-74zM33 0l101 547h74l-14 -78q30 45 69.5 66t102.5 25l-14 -73q-158 -17 -186 -168l-59 -319h-74zM58 652l12 62h337l-12 -62h-337z" />
<glyph unicode="&#x1e62;" horiz-adv-x="498" d="M26 165q0 10 2 42h79q0 -80 31.5 -116t95.5 -36q72 0 124.5 52.5t52.5 124.5q0 46 -30 72.5t-109 51.5q-97 30 -127 65.5t-30 98.5q0 89 72.5 160.5t173.5 71.5q78 0 125.5 -44.5t47.5 -117.5q0 -11 -3 -38h-77q0 132 -106 132q-65 0 -110.5 -47.5t-45.5 -105.5 q0 -15 6.5 -34t15.5 -28q11 -11 29 -19.5t72 -26.5q110 -37 141 -76q32 -41 32 -101q0 -102 -81 -180.5t-188 -78.5q-85 0 -139 49.5t-54 128.5zM151 -186l23 126h74l-23 -126h-74z" />
<glyph unicode="&#x1e63;" horiz-adv-x="388" d="M13 117q0 20 3 44h73q0 -62 20.5 -84t62.5 -22q46 0 79.5 33.5t33.5 78.5q0 31 -16 47.5t-72 40.5q-45 20 -62.5 30t-28.5 23q-26 29 -26 72q0 72 57.5 126t130.5 54q55 0 91 -33.5t36 -84.5q0 -19 -1 -30h-75q0 80 -65 80q-37 0 -67 -28.5t-30 -63.5q0 -38 38 -59 q18 -9 95 -44q72 -32 72 -108q0 -83 -61 -142.5t-142 -59.5q-66 0 -106 38t-40 92zM93 -186l23 126h74l-23 -126h-74z" />
<glyph unicode="&#x1e6c;" horiz-adv-x="426" d="M102 672l12 67h412l-12 -67h-169l-125 -672h-74l125 672h-169zM112 -186l23 126h74l-23 -126h-74z" />
<glyph unicode="&#x1e6d;" horiz-adv-x="339" d="M69 -186l23 126h74l-23 -126h-74zM71 480l12 67h112l36 192h74l-36 -192h129l-12 -67h-129l-89 -480h-74l89 480h-112z" />
<glyph unicode="&#x1e6e;" horiz-adv-x="426" d="M-14 -154l12 62h337l-12 -62h-337zM102 672l12 67h412l-12 -67h-169l-125 -672h-74l125 672h-169z" />
<glyph unicode="&#x1e6f;" horiz-adv-x="339" d="M-58 -154l12 62h337l-12 -62h-337zM71 480l12 67h112l36 192h74l-36 -192h129l-12 -67h-129l-89 -480h-74l89 480h-112z" />
<glyph unicode="&#x1e80;" horiz-adv-x="960" d="M117 739h76l63 -643l296 643h70l58 -643l301 643h76l-349 -739h-95l-52 606l-274 -606h-96zM463 890l46 58l171 -116l-45 -56z" />
<glyph unicode="&#x1e81;" horiz-adv-x="831" d="M78 547h74l89 -458l202 391h61l56 -391l263 458h72l-313 -547h-79l-52 363l-185 -363h-80zM364 708l46 58l171 -116l-45 -56z" />
<glyph unicode="&#x1e82;" horiz-adv-x="960" d="M117 739h76l63 -643l296 643h70l58 -643l301 643h76l-349 -739h-95l-52 606l-274 -606h-96zM528 832l214 116l24 -58l-214 -114z" />
<glyph unicode="&#x1e83;" horiz-adv-x="831" d="M78 547h74l89 -458l202 391h61l56 -391l263 458h72l-313 -547h-79l-52 363l-185 -363h-80zM429 650l214 116l24 -58l-214 -114z" />
<glyph unicode="&#x1e84;" horiz-adv-x="960" d="M117 739h76l63 -643l296 643h70l58 -643l301 643h76l-349 -739h-95l-52 606l-274 -606h-96zM484 789l23 126h74l-23 -126h-74zM631 789l23 126h74l-23 -126h-74z" />
<glyph unicode="&#x1e85;" horiz-adv-x="831" d="M78 547h74l89 -458l202 391h61l56 -391l263 458h72l-313 -547h-79l-52 363l-185 -363h-80zM385 607l23 126h74l-23 -126h-74zM532 607l23 126h74l-23 -126h-74z" />
<glyph unicode="&#x1e92;" horiz-adv-x="480" d="M-13 0l12 67l476 605h-352l12 67h435l-12 -67l-475 -605h373l-12 -67h-457zM145 -186l23 126h74l-23 -126h-74z" />
<glyph unicode="&#x1e93;" horiz-adv-x="425" d="M-20 0l12 67l379 413h-292l12 67h376l-11 -63l-377 -417h318l-12 -67h-405zM107 -186l23 126h74l-23 -126h-74z" />
<glyph unicode="&#x1e97;" horiz-adv-x="339" d="M71 480l12 67h112l36 192h74l-36 -192h129l-12 -67h-129l-89 -480h-74l89 480h-112zM165 789l23 126h74l-23 -126h-74zM312 789l23 126h74l-23 -126h-74z" />
<glyph unicode="&#x1ea0;" horiz-adv-x="740" d="M-19 0l454 739h83l181 -739h-81l-61 249h-344l-154 -249h-78zM254 316h287l-80 339zM269 -186l23 126h74l-23 -126h-74z" />
<glyph unicode="&#x1ea1;" d="M58 216q0 139 103 241.5t243 102.5q139 0 195 -110l18 97h74l-101 -547h-74l18 96q-61 -62 -111 -85.5t-120 -23.5q-110 0 -177.5 63t-67.5 166zM135 235q0 -80 50.5 -130t132.5 -50q100 0 176.5 80t76.5 184q0 75 -49.5 124t-124.5 49q-104 0 -183 -77.5t-79 -179.5z M229 -186l23 126h74l-23 -126h-74z" />
<glyph unicode="&#x1ea2;" horiz-adv-x="740" d="M-19 0l454 739h83l181 -739h-81l-61 249h-344l-154 -249h-78zM254 316h287l-80 339zM398 878q17 57 48.5 81t78.5 24q40 0 63 -18.5t23 -50.5q0 -28 -19 -50q-10 -10 -35 -27h-1q-41 -26 -46 -56h-54q5 53 61 90q38 25 38 40q0 22 -35 22q-48 0 -67 -55h-55z" />
<glyph unicode="&#x1ea3;" d="M58 216q0 139 103 241.5t243 102.5q139 0 195 -110l18 97h74l-101 -547h-74l18 96q-61 -62 -111 -85.5t-120 -23.5q-110 0 -177.5 63t-67.5 166zM135 235q0 -80 50.5 -130t132.5 -50q100 0 176.5 80t76.5 184q0 75 -49.5 124t-124.5 49q-104 0 -183 -77.5t-79 -179.5z M323 686q31 105 127 105q40 0 63 -18.5t23 -50.5q0 -28 -19 -50q-10 -10 -35 -27h-1q-41 -26 -46 -56h-54q5 53 61 90q38 25 38 40q0 22 -35 22q-48 0 -67 -55h-55z" />
<glyph unicode="&#x1ea4;" horiz-adv-x="740" d="M-19 0l454 739h83l181 -739h-81l-61 249h-344l-154 -249h-78zM254 316h287l-80 339zM309 789l168 126h66l120 -126h-89l-72 74l-102 -74h-91zM447 991l214 116l24 -58l-214 -114z" />
<glyph unicode="&#x1ea5;" d="M58 216q0 139 103 241.5t243 102.5q139 0 195 -110l18 97h74l-101 -547h-74l18 96q-61 -62 -111 -85.5t-120 -23.5q-110 0 -177.5 63t-67.5 166zM135 235q0 -80 50.5 -130t132.5 -50q100 0 176.5 80t76.5 184q0 75 -49.5 124t-124.5 49q-104 0 -183 -77.5t-79 -179.5z M234 597l168 126h66l120 -126h-89l-72 74l-102 -74h-91zM372 799l214 116l24 -58l-214 -114z" />
<glyph unicode="&#x1ea6;" horiz-adv-x="740" d="M-19 0l454 739h83l181 -739h-81l-61 249h-344l-154 -249h-78zM254 316h287l-80 339zM309 789l168 126h66l120 -126h-89l-72 74l-102 -74h-91zM382 1049l46 58l171 -116l-45 -56z" />
<glyph unicode="&#x1ea7;" d="M58 216q0 139 103 241.5t243 102.5q139 0 195 -110l18 97h74l-101 -547h-74l18 96q-61 -62 -111 -85.5t-120 -23.5q-110 0 -177.5 63t-67.5 166zM135 235q0 -80 50.5 -130t132.5 -50q100 0 176.5 80t76.5 184q0 75 -49.5 124t-124.5 49q-104 0 -183 -77.5t-79 -179.5z M234 597l168 126h66l120 -126h-89l-72 74l-102 -74h-91zM307 857l46 58l171 -116l-45 -56z" />
<glyph unicode="&#x1ea8;" horiz-adv-x="740" d="M-19 0l454 739h83l181 -739h-81l-61 249h-344l-154 -249h-78zM254 316h287l-80 339zM309 789l168 126h66l120 -126h-89l-72 74l-102 -74h-91zM502 1044q17 57 48.5 81t78.5 24q40 0 63 -18.5t23 -50.5q0 -28 -19 -50q-10 -10 -35 -27h-1q-41 -26 -46 -56h-54q5 53 61 90 q38 25 38 40q0 22 -35 22q-48 0 -67 -55h-55z" />
<glyph unicode="&#x1ea9;" d="M58 216q0 139 103 241.5t243 102.5q139 0 195 -110l18 97h74l-101 -547h-74l18 96q-61 -62 -111 -85.5t-120 -23.5q-110 0 -177.5 63t-67.5 166zM135 235q0 -80 50.5 -130t132.5 -50q100 0 176.5 80t76.5 184q0 75 -49.5 124t-124.5 49q-104 0 -183 -77.5t-79 -179.5z M234 597l168 126h66l120 -126h-89l-72 74l-102 -74h-91zM427 852q31 105 127 105q40 0 63 -18.5t23 -50.5q0 -28 -19 -50q-10 -10 -35 -27h-1q-41 -26 -46 -56h-54q5 53 61 90q38 25 38 40q0 22 -35 22q-48 0 -67 -55h-55z" />
<glyph unicode="&#x1eaa;" horiz-adv-x="740" d="M-19 0l454 739h83l181 -739h-81l-61 249h-344l-154 -249h-78zM254 316h287l-80 339zM309 789l168 126h66l120 -126h-89l-72 74l-102 -74h-91zM378 994q49 51 89 51q14 0 55 -18.5t50 -18.5q36 0 71 38l21 -46q-40 -55 -92 -55q-27 0 -96 33q-7 4 -17 4q-9 0 -18 -5.5 t-40 -27.5z" />
<glyph unicode="&#x1eab;" d="M58 216q0 139 103 241.5t243 102.5q139 0 195 -110l18 97h74l-101 -547h-74l18 96q-61 -62 -111 -85.5t-120 -23.5q-110 0 -177.5 63t-67.5 166zM135 235q0 -80 50.5 -130t132.5 -50q100 0 176.5 80t76.5 184q0 75 -49.5 124t-124.5 49q-104 0 -183 -77.5t-79 -179.5z M234 597l168 126h66l120 -126h-89l-72 74l-102 -74h-91zM303 802q49 51 89 51q14 0 55 -18.5t50 -18.5q36 0 71 38l21 -46q-40 -55 -92 -55q-27 0 -96 33q-7 4 -17 4q-9 0 -18 -5.5t-40 -27.5z" />
<glyph unicode="&#x1eac;" horiz-adv-x="740" d="M-19 0l454 739h83l181 -739h-81l-61 249h-344l-154 -249h-78zM254 316h287l-80 339zM269 -186l23 126h74l-23 -126h-74zM309 789l168 126h66l120 -126h-89l-72 74l-102 -74h-91z" />
<glyph unicode="&#x1ead;" d="M58 216q0 139 103 241.5t243 102.5q139 0 195 -110l18 97h74l-101 -547h-74l18 96q-61 -62 -111 -85.5t-120 -23.5q-110 0 -177.5 63t-67.5 166zM135 235q0 -80 50.5 -130t132.5 -50q100 0 176.5 80t76.5 184q0 75 -49.5 124t-124.5 49q-104 0 -183 -77.5t-79 -179.5z M229 -186l23 126h74l-23 -126h-74zM235 607l168 126h66l120 -126h-89l-72 74l-102 -74h-91z" />
<glyph unicode="&#x1eae;" horiz-adv-x="740" d="M-19 0l454 739h83l181 -739h-81l-61 249h-344l-154 -249h-78zM254 316h287l-80 339zM357 911h64q4 -36 22.5 -49t58.5 -13q38 0 67 16.5t39 45.5h53q-35 -117 -172 -117q-62 0 -95.5 26.5t-36.5 90.5zM469 998l214 116l24 -58l-214 -114z" />
<glyph unicode="&#x1eaf;" d="M58 216q0 139 103 241.5t243 102.5q139 0 195 -110l18 97h74l-101 -547h-74l18 96q-61 -62 -111 -85.5t-120 -23.5q-110 0 -177.5 63t-67.5 166zM135 235q0 -80 50.5 -130t132.5 -50q100 0 176.5 80t76.5 184q0 75 -49.5 124t-124.5 49q-104 0 -183 -77.5t-79 -179.5z M282 719h64q4 -36 22.5 -49t58.5 -13q38 0 67 16.5t39 45.5h53q-35 -117 -172 -117q-62 0 -95.5 26.5t-36.5 90.5zM394 806l214 116l24 -58l-214 -114z" />
<glyph unicode="&#x1eb0;" horiz-adv-x="740" d="M-19 0l454 739h83l181 -739h-81l-61 249h-344l-154 -249h-78zM254 316h287l-80 339zM357 911h64q4 -36 22.5 -49t58.5 -13q38 0 67 16.5t39 45.5h53q-35 -117 -172 -117q-62 0 -95.5 26.5t-36.5 90.5zM364 1056l46 58l171 -116l-45 -56z" />
<glyph unicode="&#x1eb1;" d="M58 216q0 139 103 241.5t243 102.5q139 0 195 -110l18 97h74l-101 -547h-74l18 96q-61 -62 -111 -85.5t-120 -23.5q-110 0 -177.5 63t-67.5 166zM135 235q0 -80 50.5 -130t132.5 -50q100 0 176.5 80t76.5 184q0 75 -49.5 124t-124.5 49q-104 0 -183 -77.5t-79 -179.5z M282 719h64q4 -36 22.5 -49t58.5 -13q38 0 67 16.5t39 45.5h53q-35 -117 -172 -117q-62 0 -95.5 26.5t-36.5 90.5zM289 864l46 58l171 -116l-45 -56z" />
<glyph unicode="&#x1eb2;" horiz-adv-x="740" d="M-19 0l454 739h83l181 -739h-81l-61 249h-344l-154 -249h-78zM254 316h287l-80 339zM357 911h64q4 -36 22.5 -49t58.5 -13q38 0 67 16.5t39 45.5h53q-35 -117 -172 -117q-62 0 -95.5 26.5t-36.5 90.5zM420 995q17 57 48.5 81t78.5 24q40 0 63 -18.5t23 -50.5 q0 -28 -19 -50q-10 -10 -35 -27h-1q-41 -26 -46 -56h-54q5 53 61 90q38 25 38 40q0 22 -35 22q-48 0 -67 -55h-55z" />
<glyph unicode="&#x1eb3;" d="M58 216q0 139 103 241.5t243 102.5q139 0 195 -110l18 97h74l-101 -547h-74l18 96q-61 -62 -111 -85.5t-120 -23.5q-110 0 -177.5 63t-67.5 166zM135 235q0 -80 50.5 -130t132.5 -50q100 0 176.5 80t76.5 184q0 75 -49.5 124t-124.5 49q-104 0 -183 -77.5t-79 -179.5z M282 719h64q4 -36 22.5 -49t58.5 -13q38 0 67 16.5t39 45.5h53q-35 -117 -172 -117q-62 0 -95.5 26.5t-36.5 90.5zM345 803q31 105 127 105q40 0 63 -18.5t23 -50.5q0 -28 -19 -50q-10 -10 -35 -27h-1q-41 -26 -46 -56h-54q5 53 61 90q38 25 38 40q0 22 -35 22 q-48 0 -67 -55h-55z" />
<glyph unicode="&#x1eb4;" horiz-adv-x="740" d="M-19 0l454 739h83l181 -739h-81l-61 249h-344l-154 -249h-78zM254 316h287l-80 339zM357 911h64q4 -36 22.5 -49t58.5 -13q38 0 67 16.5t39 45.5h53q-35 -117 -172 -117q-62 0 -95.5 26.5t-36.5 90.5zM380 1002q49 51 89 51q14 0 55 -18.5t50 -18.5q36 0 71 38l21 -46 q-40 -55 -92 -55q-27 0 -96 33q-7 4 -17 4q-9 0 -18 -5.5t-40 -27.5z" />
<glyph unicode="&#x1eb5;" d="M58 216q0 139 103 241.5t243 102.5q139 0 195 -110l18 97h74l-101 -547h-74l18 96q-61 -62 -111 -85.5t-120 -23.5q-110 0 -177.5 63t-67.5 166zM135 235q0 -80 50.5 -130t132.5 -50q100 0 176.5 80t76.5 184q0 75 -49.5 124t-124.5 49q-104 0 -183 -77.5t-79 -179.5z M282 719h64q4 -36 22.5 -49t58.5 -13q38 0 67 16.5t39 45.5h53q-35 -117 -172 -117q-62 0 -95.5 26.5t-36.5 90.5zM305 810q49 51 89 51q14 0 55 -18.5t50 -18.5q36 0 71 38l21 -46q-40 -55 -92 -55q-27 0 -96 33q-7 4 -17 4q-9 0 -18 -5.5t-40 -27.5z" />
<glyph unicode="&#x1eb6;" horiz-adv-x="740" d="M-19 0l454 739h83l181 -739h-81l-61 249h-344l-154 -249h-78zM254 316h287l-80 339zM269 -186l23 126h74l-23 -126h-74zM356 911h64q4 -36 22.5 -49t58.5 -13q38 0 67 16.5t39 45.5h53q-35 -117 -172 -117q-62 0 -95.5 26.5t-36.5 90.5z" />
<glyph unicode="&#x1eb7;" d="M58 216q0 139 103 241.5t243 102.5q139 0 195 -110l18 97h74l-101 -547h-74l18 96q-61 -62 -111 -85.5t-120 -23.5q-110 0 -177.5 63t-67.5 166zM135 235q0 -80 50.5 -130t132.5 -50q100 0 176.5 80t76.5 184q0 75 -49.5 124t-124.5 49q-104 0 -183 -77.5t-79 -179.5z M229 -186l23 126h74l-23 -126h-74zM277 729h64q4 -36 22.5 -49t58.5 -13q38 0 67 16.5t39 45.5h53q-35 -117 -172 -117q-62 0 -95.5 26.5t-36.5 90.5z" />
<glyph unicode="&#x1eb8;" horiz-adv-x="536" d="M46 0l137 739h404l-12 -67h-330l-50 -265h319l-12 -67h-319l-51 -273h330l-12 -67h-404zM167 -186l23 126h74l-23 -126h-74z" />
<glyph unicode="&#x1eb9;" horiz-adv-x="650" d="M58 220q0 135 102.5 237.5t237.5 102.5q104 0 170.5 -64t66.5 -164q0 -32 -9 -83h-495q-2 -24 -2 -28q0 -70 52 -118t127 -48q61 0 121.5 35t92.5 90h77q-48 -88 -130.5 -140.5t-173.5 -52.5q-102 0 -169.5 66.5t-67.5 166.5zM146 316h419q-4 81 -52.5 128.5t-127.5 47.5 q-78 0 -145 -49.5t-94 -126.5zM223 -186l23 126h74l-23 -126h-74z" />
<glyph unicode="&#x1eba;" horiz-adv-x="536" d="M46 0l137 739h404l-12 -67h-330l-50 -265h319l-12 -67h-319l-51 -273h330l-12 -67h-404zM307 878q17 57 48.5 81t78.5 24q40 0 63 -18.5t23 -50.5q0 -28 -19 -50q-10 -10 -35 -27h-1q-41 -26 -46 -56h-54q5 53 61 90q38 25 38 40q0 22 -35 22q-48 0 -67 -55h-55z" />
<glyph unicode="&#x1ebb;" horiz-adv-x="650" d="M58 220q0 135 102.5 237.5t237.5 102.5q104 0 170.5 -64t66.5 -164q0 -32 -9 -83h-495q-2 -24 -2 -28q0 -70 52 -118t127 -48q61 0 121.5 35t92.5 90h77q-48 -88 -130.5 -140.5t-173.5 -52.5q-102 0 -169.5 66.5t-67.5 166.5zM146 316h419q-4 81 -52.5 128.5t-127.5 47.5 q-78 0 -145 -49.5t-94 -126.5zM317 686q31 105 127 105q40 0 63 -18.5t23 -50.5q0 -28 -19 -50q-10 -10 -35 -27h-1q-41 -26 -46 -56h-54q5 53 61 90q38 25 38 40q0 22 -35 22q-48 0 -67 -55h-55z" />
<glyph unicode="&#x1ebc;" horiz-adv-x="536" d="M46 0l137 739h404l-12 -67h-330l-50 -265h319l-12 -67h-319l-51 -273h330l-12 -67h-404zM260 851q49 51 89 51q14 0 55 -18.5t50 -18.5q36 0 71 38l21 -46q-40 -55 -92 -55q-27 0 -96 33q-7 4 -17 4q-9 0 -18 -5.5t-40 -27.5z" />
<glyph unicode="&#x1ebd;" horiz-adv-x="650" d="M58 220q0 135 102.5 237.5t237.5 102.5q104 0 170.5 -64t66.5 -164q0 -32 -9 -83h-495q-2 -24 -2 -28q0 -70 52 -118t127 -48q61 0 121.5 35t92.5 90h77q-48 -88 -130.5 -140.5t-173.5 -52.5q-102 0 -169.5 66.5t-67.5 166.5zM146 316h419q-4 81 -52.5 128.5t-127.5 47.5 q-78 0 -145 -49.5t-94 -126.5zM271 669q49 51 89 51q14 0 55 -18.5t50 -18.5q36 0 71 38l21 -46q-40 -55 -92 -55q-27 0 -96 33q-7 4 -17 4q-9 0 -18 -5.5t-40 -27.5z" />
<glyph unicode="&#x1ebe;" horiz-adv-x="536" d="M46 0l137 739h404l-12 -67h-330l-50 -265h319l-12 -67h-319l-51 -273h330l-12 -67h-404zM218 789l168 126h66l120 -126h-89l-72 74l-102 -74h-91zM356 991l214 116l24 -58l-214 -114z" />
<glyph unicode="&#x1ebf;" horiz-adv-x="650" d="M58 220q0 135 102.5 237.5t237.5 102.5q104 0 170.5 -64t66.5 -164q0 -32 -9 -83h-495q-2 -24 -2 -28q0 -70 52 -118t127 -48q61 0 121.5 35t92.5 90h77q-48 -88 -130.5 -140.5t-173.5 -52.5q-102 0 -169.5 66.5t-67.5 166.5zM146 316h419q-4 81 -52.5 128.5t-127.5 47.5 q-78 0 -145 -49.5t-94 -126.5zM228 597l168 126h66l120 -126h-89l-72 74l-102 -74h-91zM366 799l214 116l24 -58l-214 -114z" />
<glyph unicode="&#x1ec0;" horiz-adv-x="536" d="M46 0l137 739h404l-12 -67h-330l-50 -265h319l-12 -67h-319l-51 -273h330l-12 -67h-404zM218 789l168 126h66l120 -126h-89l-72 74l-102 -74h-91zM291 1049l46 58l171 -116l-45 -56z" />
<glyph unicode="&#x1ec1;" horiz-adv-x="650" d="M58 220q0 135 102.5 237.5t237.5 102.5q104 0 170.5 -64t66.5 -164q0 -32 -9 -83h-495q-2 -24 -2 -28q0 -70 52 -118t127 -48q61 0 121.5 35t92.5 90h77q-48 -88 -130.5 -140.5t-173.5 -52.5q-102 0 -169.5 66.5t-67.5 166.5zM146 316h419q-4 81 -52.5 128.5t-127.5 47.5 q-78 0 -145 -49.5t-94 -126.5zM228 597l168 126h66l120 -126h-89l-72 74l-102 -74h-91zM301 857l46 58l171 -116l-45 -56z" />
<glyph unicode="&#x1ec2;" horiz-adv-x="536" d="M46 0l137 739h404l-12 -67h-330l-50 -265h319l-12 -67h-319l-51 -273h330l-12 -67h-404zM218 789l168 126h66l120 -126h-89l-72 74l-102 -74h-91zM411 1044q31 105 127 105q40 0 63 -18.5t23 -50.5q0 -28 -19 -50q-10 -10 -35 -27h-1q-41 -26 -46 -56h-54q5 53 61 90 q38 25 38 40q0 22 -35 22q-48 0 -67 -55h-55z" />
<glyph unicode="&#x1ec3;" horiz-adv-x="650" d="M58 220q0 135 102.5 237.5t237.5 102.5q104 0 170.5 -64t66.5 -164q0 -32 -9 -83h-495q-2 -24 -2 -28q0 -70 52 -118t127 -48q61 0 121.5 35t92.5 90h77q-48 -88 -130.5 -140.5t-173.5 -52.5q-102 0 -169.5 66.5t-67.5 166.5zM146 316h419q-4 81 -52.5 128.5t-127.5 47.5 q-78 0 -145 -49.5t-94 -126.5zM228 597l168 126h66l120 -126h-89l-72 74l-102 -74h-91zM421 852q31 105 127 105q40 0 63 -18.5t23 -50.5q0 -28 -19 -50q-10 -10 -35 -27h-1q-41 -26 -46 -56h-54q5 53 61 90q38 25 38 40q0 22 -35 22q-48 0 -67 -55h-55z" />
<glyph unicode="&#x1ec4;" horiz-adv-x="536" d="M46 0l137 739h404l-12 -67h-330l-50 -265h319l-12 -67h-319l-51 -273h330l-12 -67h-404zM218 789l168 126h66l120 -126h-89l-72 74l-102 -74h-91zM287 994q49 51 89 51q14 0 55 -18.5t50 -18.5q36 0 71 38l21 -46q-40 -55 -92 -55q-27 0 -96 33q-7 4 -17 4q-9 0 -18 -5.5 t-40 -27.5z" />
<glyph unicode="&#x1ec5;" horiz-adv-x="650" d="M58 220q0 135 102.5 237.5t237.5 102.5q104 0 170.5 -64t66.5 -164q0 -32 -9 -83h-495q-2 -24 -2 -28q0 -70 52 -118t127 -48q61 0 121.5 35t92.5 90h77q-48 -88 -130.5 -140.5t-173.5 -52.5q-102 0 -169.5 66.5t-67.5 166.5zM146 316h419q-4 81 -52.5 128.5t-127.5 47.5 q-78 0 -145 -49.5t-94 -126.5zM228 597l168 126h66l120 -126h-89l-72 74l-102 -74h-91zM297 802q49 51 89 51q14 0 55 -18.5t50 -18.5q36 0 71 38l21 -46q-40 -55 -92 -55q-27 0 -96 33q-7 4 -17 4q-9 0 -18 -5.5t-40 -27.5z" />
<glyph unicode="&#x1ec6;" horiz-adv-x="536" d="M46 0l137 739h404l-12 -67h-330l-50 -265h319l-12 -67h-319l-51 -273h330l-12 -67h-404zM167 -186l23 126h74l-23 -126h-74zM218 789l168 126h66l120 -126h-89l-72 74l-102 -74h-91z" />
<glyph unicode="&#x1ec7;" horiz-adv-x="650" d="M58 220q0 135 102.5 237.5t237.5 102.5q104 0 170.5 -64t66.5 -164q0 -32 -9 -83h-495q-2 -24 -2 -28q0 -70 52 -118t127 -48q61 0 121.5 35t92.5 90h77q-48 -88 -130.5 -140.5t-173.5 -52.5q-102 0 -169.5 66.5t-67.5 166.5zM146 316h419q-4 81 -52.5 128.5t-127.5 47.5 q-78 0 -145 -49.5t-94 -126.5zM223 -186l23 126h74l-23 -126h-74zM229 607l168 126h66l120 -126h-89l-72 74l-102 -74h-91z" />
<glyph unicode="&#x1ec8;" horiz-adv-x="226" d="M46 0l137 739h74l-137 -739h-74zM142 878q17 57 48.5 81t78.5 24q40 0 63 -18.5t23 -50.5q0 -28 -19 -50q-10 -10 -35 -27h-1q-41 -26 -46 -56h-54q5 53 61 90q38 25 38 40q0 22 -35 22q-48 0 -67 -55h-55z" />
<glyph unicode="&#x1ec9;" horiz-adv-x="200" d="M33 0l101 547h74l-101 -547h-74zM93 686q31 105 127 105q40 0 63 -18.5t23 -50.5q0 -28 -19 -50q-10 -10 -35 -27h-1q-41 -26 -46 -56h-54q5 53 61 90q38 25 38 40q0 22 -35 22q-48 0 -67 -55h-55z" />
<glyph unicode="&#x1eca;" horiz-adv-x="226" d="M12 -186l23 126h74l-23 -126h-74zM46 0l137 739h74l-137 -739h-74z" />
<glyph unicode="&#x1ecb;" horiz-adv-x="200" d="M-1 -186l23 126h74l-23 -126h-74zM33 0l101 547h74l-101 -547h-74zM146 607l23 126h74l-23 -126h-74z" />
<glyph unicode="&#x1ecc;" horiz-adv-x="869" d="M76 302q0 115 66.5 219.5t176 167.5t229.5 63q133 0 227.5 -89.5t94.5 -226.5q0 -114 -66.5 -218.5t-176 -167.5t-229.5 -63q-135 0 -228.5 90t-93.5 225zM153 316q0 -110 74.5 -185.5t182.5 -75.5q149 0 266 112.5t117 254.5q0 114 -74 188t-189 74q-143 0 -260 -114 t-117 -254zM338 -186l23 126h74l-23 -126h-74z" />
<glyph unicode="&#x1ecd;" horiz-adv-x="655" d="M57 215q0 141 105 243t243 102q104 0 169 -63t65 -165q0 -140 -102 -242.5t-234 -102.5q-109 0 -177.5 63.5t-68.5 164.5zM134 228q0 -77 49.5 -125t129.5 -48q104 0 176.5 78.5t72.5 191.5q0 73 -48 120t-122 47q-105 0 -181.5 -78.5t-76.5 -185.5zM230 -186l23 126h74 l-23 -126h-74z" />
<glyph unicode="&#x1ece;" horiz-adv-x="869" d="M76 302q0 115 66.5 219.5t176 167.5t229.5 63q133 0 227.5 -89.5t94.5 -226.5q0 -114 -66.5 -218.5t-176 -167.5t-229.5 -63q-135 0 -228.5 90t-93.5 225zM153 316q0 -110 74.5 -185.5t182.5 -75.5q149 0 266 112.5t117 254.5q0 114 -74 188t-189 74q-143 0 -260 -114 t-117 -254zM467 878q31 105 127 105q40 0 63 -18.5t23 -50.5q0 -28 -19 -50q-10 -10 -35 -27h-1q-41 -26 -46 -56h-54q5 53 61 90q38 25 38 40q0 22 -35 22q-48 0 -67 -55h-55z" />
<glyph unicode="&#x1ecf;" horiz-adv-x="655" d="M57 215q0 141 105 243t243 102q104 0 169 -63t65 -165q0 -140 -102 -242.5t-234 -102.5q-109 0 -177.5 63.5t-68.5 164.5zM134 228q0 -77 49.5 -125t129.5 -48q104 0 176.5 78.5t72.5 191.5q0 73 -48 120t-122 47q-105 0 -181.5 -78.5t-76.5 -185.5zM324 686 q17 57 48.5 81t78.5 24q40 0 63 -18.5t23 -50.5q0 -28 -19 -50q-10 -10 -35 -27h-1q-41 -26 -46 -56h-54q5 53 61 90q38 25 38 40q0 22 -35 22q-48 0 -67 -55h-55z" />
<glyph unicode="&#x1ed0;" horiz-adv-x="869" d="M76 302q0 115 66.5 219.5t176 167.5t229.5 63q133 0 227.5 -89.5t94.5 -226.5q0 -114 -66.5 -218.5t-176 -167.5t-229.5 -63q-135 0 -228.5 90t-93.5 225zM153 316q0 -110 74.5 -185.5t182.5 -75.5q149 0 266 112.5t117 254.5q0 114 -74 188t-189 74q-143 0 -260 -114 t-117 -254zM378 789l168 126h66l120 -126h-89l-72 74l-102 -74h-91zM516 991l214 116l24 -58l-214 -114z" />
<glyph unicode="&#x1ed1;" horiz-adv-x="655" d="M57 215q0 141 105 243t243 102q104 0 169 -63t65 -165q0 -140 -102 -242.5t-234 -102.5q-109 0 -177.5 63.5t-68.5 164.5zM134 228q0 -77 49.5 -125t129.5 -48q104 0 176.5 78.5t72.5 191.5q0 73 -48 120t-122 47q-105 0 -181.5 -78.5t-76.5 -185.5zM235 597l168 126h66 l120 -126h-89l-72 74l-102 -74h-91zM373 799l214 116l24 -58l-214 -114z" />
<glyph unicode="&#x1ed2;" horiz-adv-x="869" d="M76 302q0 115 66.5 219.5t176 167.5t229.5 63q133 0 227.5 -89.5t94.5 -226.5q0 -114 -66.5 -218.5t-176 -167.5t-229.5 -63q-135 0 -228.5 90t-93.5 225zM153 316q0 -110 74.5 -185.5t182.5 -75.5q149 0 266 112.5t117 254.5q0 114 -74 188t-189 74q-143 0 -260 -114 t-117 -254zM378 789l168 126h66l120 -126h-89l-72 74l-102 -74h-91zM451 1049l46 58l171 -116l-45 -56z" />
<glyph unicode="&#x1ed3;" horiz-adv-x="655" d="M57 215q0 141 105 243t243 102q104 0 169 -63t65 -165q0 -140 -102 -242.5t-234 -102.5q-109 0 -177.5 63.5t-68.5 164.5zM134 228q0 -77 49.5 -125t129.5 -48q104 0 176.5 78.5t72.5 191.5q0 73 -48 120t-122 47q-105 0 -181.5 -78.5t-76.5 -185.5zM235 597l168 126h66 l120 -126h-89l-72 74l-102 -74h-91zM308 857l46 58l171 -116l-45 -56z" />
<glyph unicode="&#x1ed4;" horiz-adv-x="869" d="M76 302q0 115 66.5 219.5t176 167.5t229.5 63q133 0 227.5 -89.5t94.5 -226.5q0 -114 -66.5 -218.5t-176 -167.5t-229.5 -63q-135 0 -228.5 90t-93.5 225zM153 316q0 -110 74.5 -185.5t182.5 -75.5q149 0 266 112.5t117 254.5q0 114 -74 188t-189 74q-143 0 -260 -114 t-117 -254zM378 789l168 126h66l120 -126h-89l-72 74l-102 -74h-91zM571 1044q31 105 127 105q40 0 63 -18.5t23 -50.5q0 -28 -19 -50q-10 -10 -35 -27h-1q-41 -26 -46 -56h-54q5 53 61 90q38 25 38 40q0 22 -35 22q-48 0 -67 -55h-55z" />
<glyph unicode="&#x1ed5;" horiz-adv-x="655" d="M57 215q0 141 105 243t243 102q104 0 169 -63t65 -165q0 -140 -102 -242.5t-234 -102.5q-109 0 -177.5 63.5t-68.5 164.5zM134 228q0 -77 49.5 -125t129.5 -48q104 0 176.5 78.5t72.5 191.5q0 73 -48 120t-122 47q-105 0 -181.5 -78.5t-76.5 -185.5zM235 597l168 126h66 l120 -126h-89l-72 74l-102 -74h-91zM428 852q17 57 48.5 81t78.5 24q40 0 63 -18.5t23 -50.5q0 -28 -19 -50q-10 -10 -35 -27h-1q-41 -26 -46 -56h-54q5 53 61 90q38 25 38 40q0 22 -35 22q-48 0 -67 -55h-55z" />
<glyph unicode="&#x1ed6;" horiz-adv-x="869" d="M76 302q0 115 66.5 219.5t176 167.5t229.5 63q133 0 227.5 -89.5t94.5 -226.5q0 -114 -66.5 -218.5t-176 -167.5t-229.5 -63q-135 0 -228.5 90t-93.5 225zM153 316q0 -110 74.5 -185.5t182.5 -75.5q149 0 266 112.5t117 254.5q0 114 -74 188t-189 74q-143 0 -260 -114 t-117 -254zM378 789l168 126h66l120 -126h-89l-72 74l-102 -74h-91zM447 994q49 51 89 51q14 0 55 -18.5t50 -18.5q36 0 71 38l21 -46q-40 -55 -92 -55q-27 0 -96 33q-7 4 -17 4q-9 0 -18 -5.5t-40 -27.5z" />
<glyph unicode="&#x1ed7;" horiz-adv-x="655" d="M57 215q0 141 105 243t243 102q104 0 169 -63t65 -165q0 -140 -102 -242.5t-234 -102.5q-109 0 -177.5 63.5t-68.5 164.5zM134 228q0 -77 49.5 -125t129.5 -48q104 0 176.5 78.5t72.5 191.5q0 73 -48 120t-122 47q-105 0 -181.5 -78.5t-76.5 -185.5zM235 597l168 126h66 l120 -126h-89l-72 74l-102 -74h-91zM304 802q49 51 89 51q14 0 55 -18.5t50 -18.5q36 0 71 38l21 -46q-40 -55 -92 -55q-27 0 -96 33q-7 4 -17 4q-9 0 -18 -5.5t-40 -27.5z" />
<glyph unicode="&#x1ed8;" horiz-adv-x="869" d="M76 302q0 115 66.5 219.5t176 167.5t229.5 63q133 0 227.5 -89.5t94.5 -226.5q0 -114 -66.5 -218.5t-176 -167.5t-229.5 -63q-135 0 -228.5 90t-93.5 225zM153 316q0 -110 74.5 -185.5t182.5 -75.5q149 0 266 112.5t117 254.5q0 114 -74 188t-189 74q-143 0 -260 -114 t-117 -254zM338 -186l23 126h74l-23 -126h-74zM378 789l168 126h66l120 -126h-89l-72 74l-102 -74h-91z" />
<glyph unicode="&#x1ed9;" horiz-adv-x="655" d="M57 215q0 141 105 243t243 102q104 0 169 -63t65 -165q0 -140 -102 -242.5t-234 -102.5q-109 0 -177.5 63.5t-68.5 164.5zM134 228q0 -77 49.5 -125t129.5 -48q104 0 176.5 78.5t72.5 191.5q0 73 -48 120t-122 47q-105 0 -181.5 -78.5t-76.5 -185.5zM230 -186l23 126h74 l-23 -126h-74zM236 607l168 126h66l120 -126h-89l-72 74l-102 -74h-91z" />
<glyph unicode="&#x1eda;" horiz-adv-x="869" d="M76 302q0 115 66.5 219.5t176 167.5t229.5 63q70 0 134 -28t110 -78q37 36 44 93h62q-9 -82 -72 -138q44 -73 44 -165q0 -114 -66.5 -218.5t-176 -167.5t-229.5 -63q-77 0 -148 34t-114 92q-60 81 -60 189zM153 316q0 -110 74.5 -185.5t182.5 -75.5q149 0 266 112.5 t117 254.5q0 114 -74 188t-189 74q-143 0 -260 -114t-117 -254zM486 832l214 116l24 -58l-214 -114z" />
<glyph unicode="&#x1edb;" horiz-adv-x="698" d="M57 215q0 62 24.5 123.5t68.5 108.5q105 113 255 113q67 0 119.5 -28t82.5 -77q36 36 43 92h62q-9 -90 -82 -147q9 -38 9 -68q0 -136 -96 -237q-102 -108 -240 -108q-109 0 -177.5 63.5t-68.5 164.5zM134 228q0 -77 49.5 -125t129.5 -48q104 0 176.5 78.5t72.5 191.5 q0 73 -48 120t-122 47q-105 0 -181.5 -78.5t-76.5 -185.5zM345 650l214 116l24 -58l-214 -114z" />
<glyph unicode="&#x1edc;" horiz-adv-x="869" d="M76 302q0 115 66.5 219.5t176 167.5t229.5 63q70 0 134 -28t110 -78q37 36 44 93h62q-9 -82 -72 -138q44 -73 44 -165q0 -114 -66.5 -218.5t-176 -167.5t-229.5 -63q-77 0 -148 34t-114 92q-60 81 -60 189zM153 316q0 -110 74.5 -185.5t182.5 -75.5q149 0 266 112.5 t117 254.5q0 114 -74 188t-189 74q-143 0 -260 -114t-117 -254zM422 890l46 58l171 -116l-45 -56z" />
<glyph unicode="&#x1edd;" horiz-adv-x="698" d="M57 215q0 62 24.5 123.5t68.5 108.5q105 113 255 113q67 0 119.5 -28t82.5 -77q36 36 43 92h62q-9 -90 -82 -147q9 -38 9 -68q0 -136 -96 -237q-102 -108 -240 -108q-109 0 -177.5 63.5t-68.5 164.5zM134 228q0 -77 49.5 -125t129.5 -48q104 0 176.5 78.5t72.5 191.5 q0 73 -48 120t-122 47q-105 0 -181.5 -78.5t-76.5 -185.5zM281 708l46 58l171 -116l-45 -56z" />
<glyph unicode="&#x1ede;" horiz-adv-x="869" d="M76 302q0 115 66.5 219.5t176 167.5t229.5 63q70 0 134 -28t110 -78q37 36 44 93h62q-9 -82 -72 -138q44 -73 44 -165q0 -114 -66.5 -218.5t-176 -167.5t-229.5 -63q-77 0 -148 34t-114 92q-60 81 -60 189zM153 316q0 -110 74.5 -185.5t182.5 -75.5q149 0 266 112.5 t117 254.5q0 114 -74 188t-189 74q-143 0 -260 -114t-117 -254zM467 878q31 105 127 105q40 0 63 -18.5t23 -50.5q0 -28 -19 -50q-10 -10 -35 -27h-1q-41 -26 -46 -56h-54q5 53 61 90q38 25 38 40q0 22 -35 22q-48 0 -67 -55h-55z" />
<glyph unicode="&#x1edf;" horiz-adv-x="698" d="M57 215q0 62 24.5 123.5t68.5 108.5q105 113 255 113q67 0 119.5 -28t82.5 -77q36 36 43 92h62q-9 -90 -82 -147q9 -38 9 -68q0 -136 -96 -237q-102 -108 -240 -108q-109 0 -177.5 63.5t-68.5 164.5zM134 228q0 -77 49.5 -125t129.5 -48q104 0 176.5 78.5t72.5 191.5 q0 73 -48 120t-122 47q-105 0 -181.5 -78.5t-76.5 -185.5zM324 686q17 57 48.5 81t78.5 24q40 0 63 -18.5t23 -50.5q0 -28 -19 -50q-10 -10 -35 -27h-1q-41 -26 -46 -56h-54q5 53 61 90q38 25 38 40q0 22 -35 22q-48 0 -67 -55h-55z" />
<glyph unicode="&#x1ee0;" horiz-adv-x="869" d="M76 302q0 115 66.5 219.5t176 167.5t229.5 63q70 0 134 -28t110 -78q37 36 44 93h62q-9 -82 -72 -138q44 -73 44 -165q0 -114 -66.5 -218.5t-176 -167.5t-229.5 -63q-77 0 -148 34t-114 92q-60 81 -60 189zM153 316q0 -110 74.5 -185.5t182.5 -75.5q149 0 266 112.5 t117 254.5q0 114 -74 188t-189 74q-143 0 -260 -114t-117 -254zM421 851q49 51 89 51q14 0 55 -18.5t50 -18.5q36 0 71 38l21 -46q-40 -55 -92 -55q-27 0 -96 33q-7 4 -17 4q-9 0 -18 -5.5t-40 -27.5z" />
<glyph unicode="&#x1ee1;" horiz-adv-x="698" d="M57 215q0 62 24.5 123.5t68.5 108.5q105 113 255 113q67 0 119.5 -28t82.5 -77q36 36 43 92h62q-9 -90 -82 -147q9 -38 9 -68q0 -136 -96 -237q-102 -108 -240 -108q-109 0 -177.5 63.5t-68.5 164.5zM134 228q0 -77 49.5 -125t129.5 -48q104 0 176.5 78.5t72.5 191.5 q0 73 -48 120t-122 47q-105 0 -181.5 -78.5t-76.5 -185.5zM278 669q49 51 89 51q14 0 55 -18.5t50 -18.5q36 0 71 38l21 -46q-40 -55 -92 -55q-27 0 -96 33q-7 4 -17 4q-9 0 -18 -5.5t-40 -27.5z" />
<glyph unicode="&#x1ee2;" horiz-adv-x="869" d="M76 302q0 115 66.5 219.5t176 167.5t229.5 63q70 0 134 -28t110 -78q37 36 44 93h62q-9 -82 -72 -138q44 -73 44 -165q0 -114 -66.5 -218.5t-176 -167.5t-229.5 -63q-77 0 -148 34t-114 92q-60 81 -60 189zM153 316q0 -110 74.5 -185.5t182.5 -75.5q149 0 266 112.5 t117 254.5q0 114 -74 188t-189 74q-143 0 -260 -114t-117 -254zM338 -186l23 126h74l-23 -126h-74z" />
<glyph unicode="&#x1ee3;" horiz-adv-x="698" d="M57 215q0 62 24.5 123.5t68.5 108.5q105 113 255 113q67 0 119.5 -28t82.5 -77q36 36 43 92h62q-9 -90 -82 -147q9 -38 9 -68q0 -136 -96 -237q-102 -108 -240 -108q-109 0 -177.5 63.5t-68.5 164.5zM134 228q0 -77 49.5 -125t129.5 -48q104 0 176.5 78.5t72.5 191.5 q0 73 -48 120t-122 47q-105 0 -181.5 -78.5t-76.5 -185.5zM230 -186l23 126h74l-23 -126h-74z" />
<glyph unicode="&#x1ee4;" horiz-adv-x="655" d="M89 173q0 44 11 105l85 461h74l-85 -461q-9 -48 -9 -90q0 -59 40 -96t104 -37q84 0 140.5 55t77.5 168l85 461h74l-85 -461q-27 -145 -107.5 -218t-197.5 -73q-92 0 -149.5 52t-57.5 134zM228 -186l23 126h74l-23 -126h-74z" />
<glyph unicode="&#x1ee5;" horiz-adv-x="608" d="M69 155q0 47 9 97l55 295h74l-55 -295q-6 -26 -6 -67q0 -62 34 -96t100 -34q77 0 132.5 50.5t76.5 160.5l53 281h74l-102 -547h-74l16 85q-40 -53 -85.5 -75.5t-110.5 -22.5q-87 0 -139 45.5t-52 122.5zM202 -186l23 126h74l-23 -126h-74z" />
<glyph unicode="&#x1ee6;" horiz-adv-x="655" d="M89 173q0 44 11 105l85 461h74l-85 -461q-9 -48 -9 -90q0 -59 40 -96t104 -37q84 0 140.5 55t77.5 168l85 461h74l-85 -461q-27 -145 -107.5 -218t-197.5 -73q-92 0 -149.5 52t-57.5 134zM357 878q31 105 127 105q40 0 63 -18.5t23 -50.5q0 -28 -19 -50q-10 -10 -35 -27 h-1q-41 -26 -46 -56h-54q5 53 61 90q38 25 38 40q0 22 -35 22q-48 0 -67 -55h-55z" />
<glyph unicode="&#x1ee7;" horiz-adv-x="608" d="M69 155q0 47 9 97l55 295h74l-55 -295q-6 -26 -6 -67q0 -62 34 -96t100 -34q77 0 132.5 50.5t76.5 160.5l53 281h74l-102 -547h-74l16 85q-40 -53 -85.5 -75.5t-110.5 -22.5q-87 0 -139 45.5t-52 122.5zM296 686q17 57 48.5 81t78.5 24q40 0 63 -18.5t23 -50.5 q0 -28 -19 -50q-10 -10 -35 -27h-1q-41 -26 -46 -56h-54q5 53 61 90q38 25 38 40q0 22 -35 22q-48 0 -67 -55h-55z" />
<glyph unicode="&#x1ee8;" horiz-adv-x="729" d="M89 173q0 44 11 105l85 461h74l-85 -461q-9 -48 -9 -90q0 -59 40 -96t104 -37q93 0 155 70q43 49 63 153l85 461h74l-21 -115q64 41 73 115h62q-13 -126 -149 -187l-50 -274q-24 -130 -89 -200q-86 -91 -216 -91q-92 0 -149.5 52t-57.5 134zM376 832l214 116l24 -58 l-214 -114z" />
<glyph unicode="&#x1ee9;" horiz-adv-x="698" d="M69 155q0 47 9 97l55 295h74l-55 -295q-6 -39 -6 -67q0 -49 21 -82q14 -22 45 -35t68 -13q87 0 149 68q41 45 60 143l53 281h74l-22 -115q65 40 74 115h62q-13 -125 -149 -187l-67 -360h-74l16 85q-40 -53 -85.5 -75.5t-110.5 -22.5q-87 0 -139 45.5t-52 122.5zM317 650 l214 116l24 -58l-214 -114z" />
<glyph unicode="&#x1eea;" horiz-adv-x="729" d="M89 173q0 44 11 105l85 461h74l-85 -461q-9 -48 -9 -90q0 -59 40 -96t104 -37q93 0 155 70q43 49 63 153l85 461h74l-21 -115q64 41 73 115h62q-13 -126 -149 -187l-50 -274q-24 -130 -89 -200q-86 -91 -216 -91q-92 0 -149.5 52t-57.5 134zM312 890l46 58l171 -116 l-45 -56z" />
<glyph unicode="&#x1eeb;" horiz-adv-x="698" d="M69 155q0 47 9 97l55 295h74l-55 -295q-6 -39 -6 -67q0 -49 21 -82q14 -22 45 -35t68 -13q87 0 149 68q41 45 60 143l53 281h74l-22 -115q65 40 74 115h62q-13 -125 -149 -187l-67 -360h-74l16 85q-40 -53 -85.5 -75.5t-110.5 -22.5q-87 0 -139 45.5t-52 122.5zM253 708 l46 58l171 -116l-45 -56z" />
<glyph unicode="&#x1eec;" horiz-adv-x="729" d="M89 173q0 44 11 105l85 461h74l-85 -461q-9 -48 -9 -90q0 -59 40 -96t104 -37q93 0 155 70q43 49 63 153l85 461h74l-21 -115q64 41 73 115h62q-13 -126 -149 -187l-50 -274q-24 -130 -89 -200q-86 -91 -216 -91q-92 0 -149.5 52t-57.5 134zM357 878q31 105 127 105 q40 0 63 -18.5t23 -50.5q0 -28 -19 -50q-10 -10 -35 -27h-1q-41 -26 -46 -56h-54q5 53 61 90q38 25 38 40q0 22 -35 22q-48 0 -67 -55h-55z" />
<glyph unicode="&#x1eed;" horiz-adv-x="698" d="M69 155q0 47 9 97l55 295h74l-55 -295q-6 -39 -6 -67q0 -49 21 -82q14 -22 45 -35t68 -13q87 0 149 68q41 45 60 143l53 281h74l-22 -115q65 40 74 115h62q-13 -125 -149 -187l-67 -360h-74l16 85q-40 -53 -85.5 -75.5t-110.5 -22.5q-87 0 -139 45.5t-52 122.5zM296 686 q17 57 48.5 81t78.5 24q40 0 63 -18.5t23 -50.5q0 -28 -19 -50q-10 -10 -35 -27h-1q-41 -26 -46 -56h-54q5 53 61 90q38 25 38 40q0 22 -35 22q-48 0 -67 -55h-55z" />
<glyph unicode="&#x1eee;" horiz-adv-x="729" d="M89 173q0 44 11 105l85 461h74l-85 -461q-9 -48 -9 -90q0 -59 40 -96t104 -37q93 0 155 70q43 49 63 153l85 461h74l-21 -115q64 41 73 115h62q-13 -126 -149 -187l-50 -274q-24 -130 -89 -200q-86 -91 -216 -91q-92 0 -149.5 52t-57.5 134zM311 851q49 51 89 51 q14 0 55 -18.5t50 -18.5q36 0 71 38l21 -46q-40 -55 -92 -55q-27 0 -96 33q-7 4 -17 4q-9 0 -18 -5.5t-40 -27.5z" />
<glyph unicode="&#x1eef;" horiz-adv-x="698" d="M69 155q0 47 9 97l55 295h74l-55 -295q-6 -39 -6 -67q0 -49 21 -82q14 -22 45 -35t68 -13q87 0 149 68q41 45 60 143l53 281h74l-22 -115q65 40 74 115h62q-13 -125 -149 -187l-67 -360h-74l16 85q-40 -53 -85.5 -75.5t-110.5 -22.5q-87 0 -139 45.5t-52 122.5zM250 669 q49 51 89 51q14 0 55 -18.5t50 -18.5q36 0 71 38l21 -46q-40 -55 -92 -55q-27 0 -96 33q-7 4 -17 4q-9 0 -18 -5.5t-40 -27.5z" />
<glyph unicode="&#x1ef0;" horiz-adv-x="729" d="M89 173q0 44 11 105l85 461h74l-85 -461q-9 -48 -9 -90q0 -59 40 -96t104 -37q93 0 155 70q43 49 63 153l85 461h74l-21 -115q64 41 73 115h62q-13 -126 -149 -187l-50 -274q-24 -130 -89 -200q-86 -91 -216 -91q-92 0 -149.5 52t-57.5 134zM228 -186l23 126h74l-23 -126 h-74z" />
<glyph unicode="&#x1ef1;" horiz-adv-x="698" d="M69 155q0 47 9 97l55 295h74l-55 -295q-6 -39 -6 -67q0 -49 21 -82q14 -22 45 -35t68 -13q87 0 149 68q41 45 60 143l53 281h74l-22 -115q65 40 74 115h62q-13 -125 -149 -187l-67 -360h-74l16 85q-40 -53 -85.5 -75.5t-110.5 -22.5q-87 0 -139 45.5t-52 122.5zM202 -186 l23 126h74l-23 -126h-74z" />
<glyph unicode="&#x1ef2;" horiz-adv-x="592" d="M109 739h82l133 -414l292 414h81l-349 -492l-46 -247h-74l46 247zM278 890l46 58l171 -116l-45 -56z" />
<glyph unicode="&#x1ef3;" horiz-adv-x="536" d="M67 -192l127 210l-114 529h81l92 -436l266 436h79l-453 -739h-78zM218 708l46 58l171 -116l-45 -56z" />
<glyph unicode="&#x1ef4;" horiz-adv-x="592" d="M109 739h82l133 -414l292 414h81l-349 -492l-46 -247h-74l46 247zM194 -186l23 126h74l-23 -126h-74z" />
<glyph unicode="&#x1ef5;" horiz-adv-x="536" d="M67 -192l127 210l-114 529h81l92 -436l266 436h79l-453 -739h-78zM444 -186l23 126h74l-23 -126h-74z" />
<glyph unicode="&#x1ef6;" horiz-adv-x="592" d="M109 739h82l133 -414l292 414h81l-349 -492l-46 -247h-74l46 247zM324 878q17 57 48.5 81t78.5 24q40 0 63 -18.5t23 -50.5q0 -28 -19 -50q-10 -10 -35 -27h-1q-41 -26 -46 -56h-54q5 53 61 90q38 25 38 40q0 22 -35 22q-48 0 -67 -55h-55z" />
<glyph unicode="&#x1ef7;" horiz-adv-x="536" d="M67 -192l127 210l-114 529h81l92 -436l266 436h79l-453 -739h-78zM262 686q17 57 48.5 81t78.5 24q40 0 63 -18.5t23 -50.5q0 -28 -19 -50q-10 -10 -35 -27h-1q-41 -26 -46 -56h-54q5 53 61 90q38 25 38 40q0 22 -35 22q-48 0 -67 -55h-55z" />
<glyph unicode="&#x1ef8;" horiz-adv-x="592" d="M109 739h82l133 -414l292 414h81l-349 -492l-46 -247h-74l46 247zM277 851q49 51 89 51q14 0 55 -18.5t50 -18.5q36 0 71 38l21 -46q-40 -55 -92 -55q-27 0 -96 33q-7 4 -17 4q-9 0 -18 -5.5t-40 -27.5z" />
<glyph unicode="&#x1ef9;" horiz-adv-x="536" d="M67 -192l127 210l-114 529h81l92 -436l266 436h79l-453 -739h-78zM216 669q49 51 89 51q14 0 55 -18.5t50 -18.5q36 0 71 38l21 -46q-40 -55 -92 -55q-27 0 -96 33q-7 4 -17 4q-9 0 -18 -5.5t-40 -27.5z" />
<glyph unicode="&#x2000;" horiz-adv-x="579" />
<glyph unicode="&#x2001;" horiz-adv-x="1158" />
<glyph unicode="&#x2002;" horiz-adv-x="579" />
<glyph unicode="&#x2003;" horiz-adv-x="1158" />
<glyph unicode="&#x2004;" horiz-adv-x="386" />
<glyph unicode="&#x2005;" horiz-adv-x="289" />
<glyph unicode="&#x2006;" horiz-adv-x="193" />
<glyph unicode="&#x2007;" horiz-adv-x="193" />
<glyph unicode="&#x2008;" horiz-adv-x="144" />
<glyph unicode="&#x2009;" horiz-adv-x="231" />
<glyph unicode="&#x200a;" horiz-adv-x="64" />
<glyph unicode="&#x2010;" horiz-adv-x="332" d="M50 233l12 63h272l-12 -63h-272z" />
<glyph unicode="&#x2011;" horiz-adv-x="332" d="M50 233l12 63h272l-12 -63h-272z" />
<glyph unicode="&#x2012;" horiz-adv-x="332" d="M50 233l12 63h272l-12 -63h-272z" />
<glyph unicode="&#x2013;" horiz-adv-x="500" d="M19 233l12 63h501l-12 -63h-501z" />
<glyph unicode="&#x2014;" horiz-adv-x="1000" d="M19 233l12 63h1001l-12 -63h-1001z" />
<glyph unicode="&#x2016;" horiz-adv-x="606" d="M215 -125v864h74v-864h-74zM363 -125v864h74v-864h-74z" />
<glyph unicode="&#x2018;" horiz-adv-x="351" d="M205 739h74l52 -192h-74z" />
<glyph unicode="&#x2019;" horiz-adv-x="351" d="M162 547l124 192h74l-124 -192h-74z" />
<glyph unicode="&#x201a;" horiz-adv-x="354" d="M47 -67l124 193h73l-124 -193h-73z" />
<glyph unicode="&#x201c;" horiz-adv-x="502" d="M203 739h74l52 -192h-74zM351 739h74l52 -192h-74z" />
<glyph unicode="&#x201d;" horiz-adv-x="484" d="M158 547l124 192h74l-124 -192h-74zM302 547l124 192h74l-124 -192h-74z" />
<glyph unicode="&#x201e;" horiz-adv-x="502" d="M47 -66l124 192h74l-124 -192h-74zM193 -66l124 192h74l-124 -192h-74z" />
<glyph unicode="&#x2020;" horiz-adv-x="553" d="M116 470l12 66h178l38 203h74l-38 -203h184l-12 -66h-184l-112 -603h-74l112 603h-178z" />
<glyph unicode="&#x2021;" horiz-adv-x="553" d="M91 335l12 66h179l17 92h-179l13 70h179l33 176h74l-33 -176h182l-13 -70h-182l-17 -92h182l-12 -66h-182l-87 -468h-74l87 468h-179z" />
<glyph unicode="&#x2022;" horiz-adv-x="606" d="M141 303q0 76 55.5 131t132.5 55q79 0 133.5 -54.5t54.5 -133.5t-55 -133.5t-135 -54.5q-76 0 -131 56t-55 134z" />
<glyph unicode="&#x2026;" horiz-adv-x="1000" d="M100 0l23 126h74l-23 -126h-74zM433 0l23 126h74l-23 -126h-74zM766 0l23 126h74l-23 -126h-74z" />
<glyph unicode="&#x202f;" horiz-adv-x="231" />
<glyph unicode="&#x2030;" horiz-adv-x="1174" d="M87 542q0 78 64 142.5t148 64.5q62 0 103.5 -41t41.5 -102q0 -81 -64 -145t-145 -64q-64 0 -106 41t-42 104zM153 0l469 739h74l-471 -739h-72zM155 552q0 -37 25 -62t63 -25q53 0 93 39t40 91q0 36 -25.5 61t-62.5 25q-53 0 -93 -38.5t-40 -90.5zM399 132q0 80 64.5 143 t147.5 63q62 0 103.5 -41t41.5 -102q0 -81 -64 -144.5t-146 -63.5q-64 0 -105.5 41t-41.5 104zM467 142q0 -37 25.5 -62t62.5 -25q53 0 93 39t40 91q0 35 -25.5 60t-62.5 25q-52 0 -92.5 -39t-40.5 -89zM797 132q0 80 64.5 143t147.5 63q62 0 103.5 -41t41.5 -102 q0 -81 -64 -144.5t-146 -63.5q-64 0 -105.5 41t-41.5 104zM865 142q0 -37 25.5 -62t62.5 -25q53 0 93 39t40 91q0 35 -25.5 60t-62.5 25q-52 0 -92.5 -39t-40.5 -89z" />
</font>
</defs>
</svg>
